<svg width="515" height="85" viewBox="0 0 515 85" fill="none" xmlns="http://www.w3.org/2000/svg">
<path d="M79.8 42C76.1667 42 72.9833 41.1167 70.25 39.35C67.5167 37.5833 65.4 35.1167 63.9 31.95C62.4333 28.7833 61.7 25.1333 61.7 21C61.7 16.8667 62.45 13.2167 63.95 10.05C65.4833 6.85 67.6333 4.38333 70.4 2.65C73.2 0.883331 76.4167 -2.6226e-06 80.05 -2.6226e-06C81.4833 -2.6226e-06 82.9333 0.249997 84.4 0.749997C85.9 1.25 87.25 1.95 88.45 2.85L91.8 -2.6226e-06H92.85V12.4H91.8L88.7 4.65C87.5333 3.58333 86.1667 2.73333 84.6 2.1C83.0667 1.46666 81.55 1.15 80.05 1.15C77.7167 1.15 75.65 1.75 73.85 2.95C72.0833 4.15 70.7 5.9 69.7 8.2C68.7 10.5 68.2 13.2333 68.2 16.4V25.55C68.2 28.7167 68.6833 31.45 69.65 33.75C70.6167 36.05 71.9667 37.8167 73.7 39.05C75.4333 40.25 77.4667 40.85 79.8 40.85C81.5 40.85 83.2 40.4833 84.9 39.75C86.6 38.9833 88.0167 37.9667 89.15 36.7L92.05 28.65H93.1V41.5H92.05L88.45 38.95C87.25 39.9167 85.8833 40.6667 84.35 41.2C82.8167 41.7333 81.3 42 79.8 42ZM97.3059 40L100.806 39.5V2.5L97.3059 2V0.999999H105.806V20.5C107.039 18.7 108.489 17.2833 110.156 16.25C111.823 15.1833 113.623 14.65 115.556 14.65C117.956 14.65 119.839 15.25 121.206 16.45C122.606 17.65 123.306 19.4333 123.306 21.8V39.5L126.806 40V41H115.306V40L118.306 39.5V21.9C118.306 20.1667 117.956 18.8333 117.256 17.9C116.556 16.9333 115.473 16.45 114.006 16.45C112.473 16.45 110.989 17.0167 109.556 18.15C108.156 19.25 106.906 20.6167 105.806 22.25V39.5L108.806 40V41H97.3059V40ZM137.301 41.5C135.168 41.5 133.418 40.95 132.051 39.85C130.685 38.7167 130.001 37.05 130.001 34.85C130.001 31.7167 131.318 29.5 133.951 28.2C136.585 26.8667 139.635 26.2 143.101 26.2H146.451V22.35C146.451 20.6167 146.251 19.2833 145.851 18.35C145.485 17.3833 144.901 16.7167 144.101 16.35C143.301 15.95 142.218 15.75 140.851 15.75C139.285 15.75 138.118 16.0667 137.351 16.7C136.585 17.3 136.201 18.1167 136.201 19.15C136.201 20.1167 136.668 20.75 137.601 21.05C137.601 21.8833 137.285 22.6167 136.651 23.25C136.018 23.8833 135.268 24.2 134.401 24.2C133.468 24.2 132.718 23.95 132.151 23.45C131.585 22.9167 131.301 22.1167 131.301 21.05C131.301 19.1167 132.268 17.5667 134.201 16.4C136.135 15.2333 138.551 14.65 141.451 14.65C148.118 14.65 151.451 17.55 151.451 23.35V37.65C151.451 38.3833 151.601 38.95 151.901 39.35C152.235 39.7167 152.701 39.9 153.301 39.9C153.868 39.9 154.318 39.7167 154.651 39.35C154.985 38.95 155.151 38.4167 155.151 37.75H156.201C156.201 38.9167 155.818 39.8333 155.051 40.5C154.318 41.1667 153.285 41.5 151.951 41.5C150.418 41.5 149.118 41.0667 148.051 40.2C147.018 39.3 146.485 37.9167 146.451 36.05C145.651 37.75 144.418 39.0833 142.751 40.05C141.118 41.0167 139.301 41.5 137.301 41.5ZM140.051 39.3C140.951 39.3 141.868 39.0333 142.801 38.5C143.768 37.9667 144.585 37.2 145.251 36.2C145.918 35.1667 146.318 33.9333 146.451 32.5V27.3H143.101C140.368 27.3 138.318 27.9167 136.951 29.15C135.618 30.35 134.951 32.05 134.951 34.25C134.951 36.0833 135.385 37.3833 136.251 38.15C137.118 38.9167 138.385 39.3 140.051 39.3ZM157.42 40L160.92 39.5V16.6L157.42 16.1V15.1H165.92V18.95C168.02 16.0833 170.387 14.65 173.02 14.65C174.287 14.65 175.404 14.9833 176.37 15.65C177.337 16.2833 177.82 17.2 177.82 18.4C177.82 19.2667 177.537 20 176.97 20.6C176.404 21.1667 175.654 21.45 174.72 21.45C173.654 21.45 172.787 21.0333 172.12 20.2C172.487 19.7333 172.67 19.2333 172.67 18.7C172.67 18.1333 172.47 17.6833 172.07 17.35C171.704 16.9833 171.204 16.8 170.57 16.8C169.87 16.8 169.154 17.1333 168.42 17.8C167.687 18.4333 166.854 19.4333 165.92 20.8V39.5L169.92 40V41H157.42V40ZM179.539 40L183.039 39.5V16.6L179.539 16.1V15.1H188.039V19.7C189.239 18.1333 190.589 16.9 192.089 16C193.623 15.1 195.273 14.65 197.039 14.65C199.073 14.65 200.723 15.1 201.989 16C203.289 16.8667 204.106 18.1833 204.439 19.95C205.639 18.3167 207.006 17.0333 208.539 16.1C210.073 15.1333 211.756 14.65 213.589 14.65C215.956 14.65 217.789 15.25 219.089 16.45C220.423 17.6167 221.089 19.4 221.089 21.8V39.5L224.589 40V41H213.089V40L216.089 39.5V21.9C216.089 20.1333 215.773 18.7833 215.139 17.85C214.506 16.9167 213.473 16.45 212.039 16.45C210.673 16.45 209.339 16.9167 208.039 17.85C206.773 18.7833 205.623 19.9833 204.589 21.45V39.5L207.589 40V41H196.539V40L199.539 39.5V21.9C199.539 20.1333 199.223 18.7833 198.589 17.85C197.956 16.9167 196.923 16.45 195.489 16.45C194.123 16.45 192.789 16.9167 191.489 17.85C190.223 18.7833 189.073 19.9833 188.039 21.45V39.5L191.039 40V41H179.539V40ZM231.404 55.6C229.671 55.6 228.271 55.1667 227.204 54.3C226.137 53.4333 225.604 52.2667 225.604 50.8C225.604 49.8 225.887 48.9833 226.454 48.35C227.054 47.75 227.787 47.45 228.654 47.45C229.287 47.45 229.854 47.5833 230.354 47.85C230.854 48.1167 231.254 48.5167 231.554 49.05C231.054 49.75 230.804 50.4833 230.804 51.25C230.804 51.9167 231.021 52.4667 231.454 52.9C231.887 53.3333 232.437 53.55 233.104 53.55C233.904 53.55 234.587 53.2833 235.154 52.75C235.754 52.2167 236.287 51.2833 236.754 49.95L239.754 41.35L228.154 16.65L224.804 16.15V15.15H237.254V16.15L233.754 16.75L242.104 34.6L248.054 17.4L243.754 16.15V15.15H252.754V16.15L249.354 17.4L238.154 49.95C237.454 51.9167 236.604 53.35 235.604 54.25C234.637 55.15 233.237 55.6 231.404 55.6ZM282.075 42C278.975 42 275.925 41.1167 272.925 39.35L268.675 41.5H267.575V28.65H268.675L272.975 37.95C275.741 39.9167 278.908 40.9 282.475 40.9C285.408 40.9 287.825 40.1333 289.725 38.6C291.658 37.0333 292.625 34.85 292.625 32.05C292.625 30.0167 292.008 28.4167 290.775 27.25C289.541 26.05 287.541 25.1 284.775 24.4L276.475 22.25C273.575 21.4833 271.391 20.1833 269.925 18.35C268.458 16.4833 267.725 14.2833 267.725 11.75C267.725 9.45 268.175 7.41666 269.075 5.65C270.008 3.85 271.358 2.46667 273.125 1.5C274.891 0.499998 276.991 -2.6226e-06 279.425 -2.6226e-06C282.458 -2.6226e-06 285.175 0.516664 287.575 1.55L291.225 -2.6226e-06H292.325V10.2H291.225L287.625 2.9C285.125 1.7 282.408 1.1 279.475 1.1C276.575 1.1 274.291 1.85 272.625 3.35C270.958 4.81666 270.125 6.76666 270.125 9.2C270.125 11 270.708 12.4167 271.875 13.45C273.075 14.4833 274.825 15.3 277.125 15.9L286.075 18.25C288.975 18.9833 291.125 20.25 292.525 22.05C293.958 23.8167 294.675 26.5167 294.675 30.15C294.675 33.85 293.525 36.75 291.225 38.85C288.958 40.95 285.908 42 282.075 42ZM309.225 41.5C307.025 41.5 305.259 40.95 303.925 39.85C302.625 38.75 301.975 37 301.975 34.6V16.6L298.425 16.1V15.1H301.975V10.95L306.975 9.7V15.1H313.475V16.1L306.975 16.6V34.5C306.975 38.0333 308.242 39.8 310.775 39.8C311.309 39.8 311.809 39.7167 312.275 39.55C312.775 39.3833 313.159 39.2167 313.425 39.05C313.725 38.8833 313.909 38.7667 313.975 38.7L314.625 39.5C313.125 40.8333 311.325 41.5 309.225 41.5ZM321.559 9.3C320.626 9.3 319.826 8.98333 319.159 8.35C318.493 7.68333 318.159 6.88333 318.159 5.95C318.159 5.01667 318.476 4.23333 319.109 3.6C319.776 2.96667 320.593 2.65 321.559 2.65C322.459 2.65 323.226 2.96667 323.859 3.6C324.493 4.23333 324.809 5.01667 324.809 5.95C324.809 6.88333 324.493 7.68333 323.859 8.35C323.226 8.98333 322.459 9.3 321.559 9.3ZM316.259 41V40L319.759 39.5V16.65L316.259 16.15V15.15H324.759V39.5L328.259 40V41H316.259ZM341.013 41.5C338.813 41.5 337.046 40.95 335.713 39.85C334.413 38.75 333.763 37 333.763 34.6V16.6L330.213 16.1V15.1H333.763V10.95L338.763 9.7V15.1H345.263V16.1L338.763 16.6V34.5C338.763 38.0333 340.029 39.8 342.563 39.8C343.096 39.8 343.596 39.7167 344.063 39.55C344.563 39.3833 344.946 39.2167 345.213 39.05C345.513 38.8833 345.696 38.7667 345.763 38.7L346.413 39.5C344.913 40.8333 343.113 41.5 341.013 41.5ZM360.233 41.5C357.833 41.5 355.649 40.95 353.683 39.85C351.716 38.7167 350.149 37.1333 348.983 35.1C347.849 33.0333 347.283 30.6833 347.283 28.05C347.283 25.2833 347.883 22.8833 349.083 20.85C350.316 18.8167 351.916 17.2833 353.883 16.25C355.849 15.1833 357.966 14.65 360.233 14.65C362.133 14.65 363.866 14.9833 365.433 15.65C366.999 16.2833 368.233 17.1833 369.133 18.35C370.066 19.5167 370.533 20.8333 370.533 22.3C370.533 23.4 370.249 24.25 369.683 24.85C369.116 25.4167 368.366 25.7 367.433 25.7C366.533 25.7 365.783 25.4 365.183 24.8C364.583 24.2 364.283 23.45 364.283 22.55C364.783 22.2167 365.133 21.85 365.333 21.45C365.533 21.05 365.633 20.55 365.633 19.95C365.633 18.7167 365.133 17.7167 364.133 16.95C363.166 16.15 361.866 15.75 360.233 15.75C357.833 15.75 355.983 16.6167 354.683 18.35C353.416 20.05 352.783 22.45 352.783 25.55V30.55C352.783 33.5167 353.399 35.9 354.633 37.7C355.899 39.5 357.766 40.4 360.233 40.4C362.499 40.4 364.466 39.7667 366.133 38.5C367.833 37.2 368.883 35.5 369.283 33.4H370.433C369.966 35.8667 368.799 37.8333 366.933 39.3C365.099 40.7667 362.866 41.5 360.233 41.5ZM373.527 40L377.027 39.5V2.5L373.527 2V0.999999H382.027V20.5C383.26 18.7 384.71 17.2833 386.377 16.25C388.043 15.1833 389.843 14.65 391.777 14.65C394.177 14.65 396.06 15.25 397.427 16.45C398.827 17.65 399.527 19.4333 399.527 21.8V39.5L403.027 40V41H391.527V40L394.527 39.5V21.9C394.527 20.1667 394.177 18.8333 393.477 17.9C392.777 16.9333 391.693 16.45 390.227 16.45C388.693 16.45 387.21 17.0167 385.777 18.15C384.377 19.25 383.127 20.6167 382.027 22.25V39.5L385.027 40V41H373.527V40ZM419.272 41.5C416.805 41.5 414.572 40.95 412.572 39.85C410.572 38.7167 408.989 37.1333 407.822 35.1C406.655 33.0667 406.072 30.7167 406.072 28.05C406.072 25.3833 406.639 23.05 407.772 21.05C408.939 19.0167 410.489 17.45 412.422 16.35C414.389 15.2167 416.572 14.65 418.972 14.65C421.072 14.65 422.955 15.1167 424.622 16.05C426.289 16.9833 427.589 18.2833 428.522 19.95C429.455 21.5833 429.939 23.4667 429.972 25.6H411.572V30.55C411.572 33.4833 412.222 35.8667 413.522 37.7C414.855 39.5 416.772 40.4 419.272 40.4C421.572 40.4 423.605 39.75 425.372 38.45C427.139 37.15 428.222 35.4667 428.622 33.4H429.772C429.305 35.8667 428.122 37.8333 426.222 39.3C424.322 40.7667 422.005 41.5 419.272 41.5ZM424.472 24.35C424.472 21.45 424.022 19.3 423.122 17.9C422.222 16.4667 420.822 15.75 418.922 15.75C416.689 15.75 414.955 16.5333 413.722 18.1C412.489 19.6667 411.789 21.75 411.622 24.35H424.472ZM443.949 41.5C441.216 41.5 438.933 40.9167 437.099 39.75C435.266 38.5833 434.349 37.0667 434.349 35.2C434.349 34.2333 434.599 33.4833 435.099 32.95C435.633 32.3833 436.333 32.1 437.199 32.1C437.866 32.1 438.433 32.2667 438.899 32.6C439.366 32.9333 439.699 33.4 439.899 34C439.166 34.8 438.799 35.65 438.799 36.55C438.799 37.5833 439.266 38.4833 440.199 39.25C441.133 40.0167 442.383 40.4 443.949 40.4C446.049 40.4 447.766 39.9333 449.099 39C450.433 38.0333 451.099 36.75 451.099 35.15C451.099 34.2167 450.816 33.5167 450.249 33.05C449.683 32.5833 448.583 32.05 446.949 31.45L439.399 28.7C436.433 27.6333 434.949 25.65 434.949 22.75C434.949 20.3833 435.766 18.45 437.399 16.95C439.033 15.4167 441.283 14.65 444.149 14.65C446.516 14.65 448.533 15.2 450.199 16.3C451.899 17.3667 452.749 18.9 452.749 20.9C452.749 21.7 452.533 22.35 452.099 22.85C451.666 23.3167 451.099 23.55 450.399 23.55C449.699 23.55 449.116 23.3667 448.649 23C448.216 22.6 447.999 22.0667 447.999 21.4C448.433 21.0667 448.733 20.7167 448.899 20.35C449.066 19.95 449.149 19.4833 449.149 18.95C449.149 18.0167 448.733 17.25 447.899 16.65C447.099 16.05 445.849 15.75 444.149 15.75C442.683 15.75 441.416 15.9833 440.349 16.45C439.316 16.8833 438.533 17.4667 437.999 18.2C437.466 18.9333 437.199 19.6833 437.199 20.45C437.199 21.25 437.483 21.8833 438.049 22.35C438.649 22.8167 439.733 23.3333 441.299 23.9L448.299 26.4C449.933 27 451.166 27.8333 451.999 28.9C452.833 29.9667 453.249 31.35 453.249 33.05C453.249 35.4833 452.483 37.5 450.949 39.1C449.416 40.7 447.083 41.5 443.949 41.5Z" fill="#5E3628"/>
<path d="M88.675 79.5L90.425 79.25V67.8L88.675 67.55V67.05H95.525C97.2417 67.05 98.4667 67.2917 99.2 67.775C99.9333 68.2417 100.3 69.0083 100.3 70.075C100.3 71.625 99.3167 72.6167 97.35 73.05V73.125C99.8833 73.475 101.15 74.6 101.15 76.5C101.15 77.6667 100.725 78.5417 99.875 79.125C99.025 79.7083 97.8417 80 96.325 80H88.675V79.5ZM94.925 72.9C95.7917 72.9 96.45 72.675 96.9 72.225C97.3667 71.775 97.6 71.1 97.6 70.2V70.1C97.6 69.2833 97.3667 68.675 96.9 68.275C96.4333 67.875 95.725 67.675 94.775 67.675H92.925V72.9H94.925ZM95.575 79.375C96.4917 79.375 97.2 79.1333 97.7 78.65C98.2 78.1667 98.45 77.4583 98.45 76.525V76.35C98.45 75.4 98.2 74.6917 97.7 74.225C97.2167 73.7417 96.5083 73.5 95.575 73.5H92.925V79.375H95.575ZM106.887 80.25C105.82 80.25 104.945 79.975 104.262 79.425C103.579 78.8583 103.237 78.025 103.237 76.925C103.237 75.3583 103.895 74.25 105.212 73.6C106.529 72.9333 108.054 72.6 109.787 72.6H111.462V70.675C111.462 69.8083 111.362 69.1417 111.162 68.675C110.979 68.1917 110.687 67.8583 110.287 67.675C109.887 67.475 109.345 67.375 108.662 67.375C107.879 67.375 107.295 67.5333 106.912 67.85C106.529 68.15 106.337 68.5583 106.337 69.075C106.337 69.5583 106.57 69.875 107.037 70.025C107.037 70.4417 106.879 70.8083 106.562 71.125C106.245 71.4417 105.87 71.6 105.437 71.6C104.97 71.6 104.595 71.475 104.312 71.225C104.029 70.9583 103.887 70.5583 103.887 70.025C103.887 69.0583 104.37 68.2833 105.337 67.7C106.304 67.1167 107.512 66.825 108.962 66.825C112.295 66.825 113.962 68.275 113.962 71.175V78.325C113.962 78.6917 114.037 78.975 114.187 79.175C114.354 79.3583 114.587 79.45 114.887 79.45C115.17 79.45 115.395 79.3583 115.562 79.175C115.729 78.975 115.812 78.7083 115.812 78.375H116.337C116.337 78.9583 116.145 79.4167 115.762 79.75C115.395 80.0833 114.879 80.25 114.212 80.25C113.445 80.25 112.795 80.0333 112.262 79.6C111.745 79.15 111.479 78.4583 111.462 77.525C111.062 78.375 110.445 79.0417 109.612 79.525C108.795 80.0083 107.887 80.25 106.887 80.25ZM108.262 79.15C108.712 79.15 109.17 79.0167 109.637 78.75C110.12 78.4833 110.529 78.1 110.862 77.6C111.195 77.0833 111.395 76.4667 111.462 75.75V73.15H109.787C108.42 73.15 107.395 73.4583 106.712 74.075C106.045 74.675 105.712 75.525 105.712 76.625C105.712 77.5417 105.929 78.1917 106.362 78.575C106.795 78.9583 107.429 79.15 108.262 79.15ZM116.946 80V79.5L118.696 79.25V67.8L116.946 67.55V67.05H122.946V67.55L121.196 67.8V79.375H126.071V67.8L124.321 67.55V67.05H130.321V67.55L128.571 67.8V79.375H133.446V67.8L131.696 67.55V67.05H137.696V67.55L135.946 67.8V79.25L137.696 79.5V80H116.946ZM145.023 80V79.5L146.773 79.25V67.8L145.023 67.55V67.05H150.773V67.55L149.273 67.8V77.525L155.598 68.3V67.8L154.098 67.55V67.05H159.848V67.55L158.098 67.8V79.25L159.848 79.5V80H154.098V79.5L155.598 79.25V69.35L149.273 78.6V79.25L150.773 79.5V80H145.023ZM168.084 80.25C166.884 80.25 165.793 79.975 164.809 79.425C163.826 78.8583 163.043 78.0667 162.459 77.05C161.893 76.0167 161.609 74.8417 161.609 73.525C161.609 72.1417 161.909 70.9417 162.509 69.925C163.126 68.9083 163.926 68.1417 164.909 67.625C165.893 67.0917 166.951 66.825 168.084 66.825C169.034 66.825 169.901 66.9917 170.684 67.325C171.468 67.6417 172.084 68.0917 172.534 68.675C173.001 69.2583 173.234 69.9167 173.234 70.65C173.234 71.2 173.093 71.625 172.809 71.925C172.526 72.2083 172.151 72.35 171.684 72.35C171.234 72.35 170.859 72.2 170.559 71.9C170.259 71.6 170.109 71.225 170.109 70.775C170.359 70.6083 170.534 70.425 170.634 70.225C170.734 70.025 170.784 69.775 170.784 69.475C170.784 68.8583 170.534 68.3583 170.034 67.975C169.551 67.575 168.901 67.375 168.084 67.375C166.884 67.375 165.959 67.8083 165.309 68.675C164.676 69.525 164.359 70.725 164.359 72.275V74.775C164.359 76.2583 164.668 77.45 165.284 78.35C165.918 79.25 166.851 79.7 168.084 79.7C169.218 79.7 170.201 79.3833 171.034 78.75C171.884 78.1 172.409 77.25 172.609 76.2H173.184C172.951 77.4333 172.368 78.4167 171.434 79.15C170.518 79.8833 169.401 80.25 168.084 80.25ZM177.756 80V79.5L179.756 79.25V67.675H177.606L175.431 71.8H174.731L175.106 67.05H186.906L187.281 71.8H186.581L184.381 67.675H182.256V79.25L184.256 79.5V80H177.756ZM195.355 80.25C194.155 80.25 193.063 79.975 192.08 79.425C191.096 78.8583 190.313 78.0667 189.73 77.05C189.163 76.0167 188.88 74.8417 188.88 73.525C188.88 72.2083 189.163 71.0417 189.73 70.025C190.313 69.0083 191.096 68.225 192.08 67.675C193.063 67.1083 194.155 66.825 195.355 66.825C196.555 66.825 197.646 67.1083 198.63 67.675C199.613 68.225 200.388 69.0083 200.955 70.025C201.538 71.0417 201.83 72.2083 201.83 73.525C201.83 74.8417 201.538 76.0167 200.955 77.05C200.388 78.0667 199.613 78.8583 198.63 79.425C197.646 79.975 196.555 80.25 195.355 80.25ZM195.355 79.7C196.588 79.7 197.513 79.25 198.13 78.35C198.763 77.45 199.08 76.2583 199.08 74.775V72.275C199.08 70.7917 198.763 69.6083 198.13 68.725C197.513 67.825 196.588 67.375 195.355 67.375C194.121 67.375 193.188 67.825 192.555 68.725C191.938 69.6083 191.63 70.7917 191.63 72.275V74.775C191.63 76.2583 191.938 77.45 192.555 78.35C193.188 79.25 194.121 79.7 195.355 79.7ZM210.204 79.5L212.704 79.25V74.4C212.254 74.6333 211.679 74.8417 210.979 75.025C210.296 75.2083 209.513 75.3 208.629 75.3C207.263 75.3 206.196 75.0167 205.429 74.45C204.679 73.8833 204.304 72.9667 204.304 71.7V67.8L202.554 67.55V67.05H208.304V67.55L206.804 67.8V71.7C206.804 72.6333 206.996 73.3417 207.379 73.825C207.763 74.3083 208.396 74.55 209.279 74.55C210.046 74.55 210.713 74.4667 211.279 74.3C211.863 74.1333 212.338 73.9417 212.704 73.725V67.8L211.204 67.55V67.05H216.954V67.55L215.204 67.8V79.25L216.954 79.5V80H210.204V79.5ZM218.314 80V79.5L220.064 79.25V67.8L218.314 67.55V67.05H224.064V67.55L222.564 67.8V73.125H228.739V67.8L227.239 67.55V67.05H232.989V67.55L231.239 67.8V79.25L232.989 79.5V80H227.239V79.5L228.739 79.25V73.75H222.564V79.25L224.064 79.5V80H218.314ZM234.329 80V79.5L236.079 79.25V67.8L234.329 67.55V67.05H240.079V67.55L238.579 67.8V77.525L244.904 68.3V67.8L243.404 67.55V67.05H249.154V67.55L247.404 67.8V79.25L249.154 79.5V80H243.404V79.5L244.904 79.25V69.35L238.579 78.6V79.25L240.079 79.5V80H234.329ZM262.166 80.25C261.432 80.25 260.891 80.1 260.541 79.8C260.191 79.4833 259.949 78.9583 259.816 78.225L259.316 75.575C259.166 74.7917 258.916 74.2417 258.566 73.925C258.216 73.6083 257.741 73.4417 257.141 73.425H254.816V79.225L256.616 79.5V80H250.516V79.5L252.316 79.225V67.825L250.516 67.575V67.05H256.616V67.575L254.816 67.825V72.85H257.166C257.582 72.8167 257.916 72.675 258.166 72.425C258.416 72.1583 258.624 71.7083 258.791 71.075L259.241 69.275C259.441 68.4583 259.707 67.85 260.041 67.45C260.391 67.0333 260.924 66.825 261.641 66.825C262.241 66.825 262.707 66.9917 263.041 67.325C263.374 67.6417 263.541 68.0333 263.541 68.5C263.541 68.9333 263.399 69.3083 263.116 69.625C262.849 69.925 262.482 70.075 262.016 70.075C261.766 70.075 261.524 70.0333 261.291 69.95C261.341 69.8 261.366 69.6583 261.366 69.525C261.366 69.3083 261.299 69.125 261.166 68.975C261.032 68.825 260.866 68.75 260.666 68.75C260.266 68.75 259.999 68.9833 259.866 69.45L259.391 71.25C259.174 72.0333 258.891 72.5833 258.541 72.9C259.641 73 260.441 73.2667 260.941 73.7C261.457 74.1333 261.799 74.7917 261.966 75.675L262.391 77.825C262.507 78.375 262.624 78.7417 262.741 78.925C262.874 79.1083 263.066 79.2 263.316 79.2C263.599 79.2 263.891 79.05 264.191 78.75L264.566 79.125C264.249 79.4917 263.874 79.775 263.441 79.975C263.007 80.1583 262.582 80.25 262.166 80.25ZM271.097 79.5L272.847 79.25V67.8L271.097 67.55V67.05H277.947C279.664 67.05 280.889 67.2917 281.622 67.775C282.355 68.2417 282.722 69.0083 282.722 70.075C282.722 71.625 281.739 72.6167 279.772 73.05V73.125C282.305 73.475 283.572 74.6 283.572 76.5C283.572 77.6667 283.147 78.5417 282.297 79.125C281.447 79.7083 280.264 80 278.747 80H271.097V79.5ZM277.347 72.9C278.214 72.9 278.872 72.675 279.322 72.225C279.789 71.775 280.022 71.1 280.022 70.2V70.1C280.022 69.2833 279.789 68.675 279.322 68.275C278.855 67.875 278.147 67.675 277.197 67.675H275.347V72.9H277.347ZM277.997 79.375C278.914 79.375 279.622 79.1333 280.122 78.65C280.622 78.1667 280.872 77.4583 280.872 76.525V76.35C280.872 75.4 280.622 74.6917 280.122 74.225C279.639 73.7417 278.93 73.5 277.997 73.5H275.347V79.375H277.997ZM298.078 84.125H297.378L295.178 80H287.128L284.953 84.125H284.253L284.628 79.375H285.428C285.795 79.375 286.153 79.2167 286.503 78.9C286.853 78.5833 287.161 78.125 287.428 77.525C287.661 76.975 287.845 76.2917 287.978 75.475C288.128 74.6583 288.261 73.375 288.378 71.625L288.578 68.625L286.303 67.55V67.05H297.678V67.55L295.928 67.8V79.375H297.703L298.078 84.125ZM293.428 67.675H289.278L289.003 71.625C288.886 73.3917 288.753 74.7 288.603 75.55C288.453 76.3833 288.27 77.0833 288.053 77.65C287.903 78.0167 287.736 78.3333 287.553 78.6C287.386 78.85 287.236 79.0333 287.103 79.15C286.986 79.2667 286.911 79.3417 286.878 79.375H293.428V67.675ZM305.804 80.25C304.604 80.25 303.512 79.975 302.529 79.425C301.546 78.8583 300.762 78.0667 300.179 77.05C299.612 76.0167 299.329 74.8417 299.329 73.525C299.329 72.2083 299.612 71.0417 300.179 70.025C300.762 69.0083 301.546 68.225 302.529 67.675C303.512 67.1083 304.604 66.825 305.804 66.825C307.004 66.825 308.096 67.1083 309.079 67.675C310.062 68.225 310.837 69.0083 311.404 70.025C311.987 71.0417 312.279 72.2083 312.279 73.525C312.279 74.8417 311.987 76.0167 311.404 77.05C310.837 78.0667 310.062 78.8583 309.079 79.425C308.096 79.975 307.004 80.25 305.804 80.25ZM305.804 79.7C307.037 79.7 307.962 79.25 308.579 78.35C309.212 77.45 309.529 76.2583 309.529 74.775V72.275C309.529 70.7917 309.212 69.6083 308.579 68.725C307.962 67.825 307.037 67.375 305.804 67.375C304.571 67.375 303.637 67.825 303.004 68.725C302.387 69.6083 302.079 70.7917 302.079 72.275V74.775C302.079 76.2583 302.387 77.45 303.004 78.35C303.637 79.25 304.571 79.7 305.804 79.7ZM325.485 79.275L327.085 79.5V80H320.985V79.5L322.485 79.25L319.035 74.525L315.36 78.925L317.385 79.5V80H312.91V79.5L314.585 78.875L318.635 73.95L314.135 67.775L312.61 67.55V67.05H318.71V67.55L317.135 67.825L320.26 72.1L323.61 68.15L321.635 67.575V67.075H326.235V67.575L324.41 68.225L320.66 72.675L325.485 79.275ZM327.689 80V79.5L329.439 79.25V67.8L327.689 67.55V67.05H333.439V67.55L331.939 67.8V73.125H338.114V67.8L336.614 67.55V67.05H342.364V67.55L340.614 67.8V79.25L342.364 79.5V80H336.614V79.5L338.114 79.25V73.75H331.939V79.25L333.439 79.5V80H327.689ZM350.579 80.25C349.379 80.25 348.288 79.975 347.304 79.425C346.321 78.8583 345.538 78.0667 344.954 77.05C344.388 76.0167 344.104 74.8417 344.104 73.525C344.104 72.2083 344.388 71.0417 344.954 70.025C345.538 69.0083 346.321 68.225 347.304 67.675C348.288 67.1083 349.379 66.825 350.579 66.825C351.779 66.825 352.871 67.1083 353.854 67.675C354.838 68.225 355.613 69.0083 356.179 70.025C356.763 71.0417 357.054 72.2083 357.054 73.525C357.054 74.8417 356.763 76.0167 356.179 77.05C355.613 78.0667 354.838 78.8583 353.854 79.425C352.871 79.975 351.779 80.25 350.579 80.25ZM350.579 79.7C351.813 79.7 352.738 79.25 353.354 78.35C353.988 77.45 354.304 76.2583 354.304 74.775V72.275C354.304 70.7917 353.988 69.6083 353.354 68.725C352.738 67.825 351.813 67.375 350.579 67.375C349.346 67.375 348.413 67.825 347.779 68.725C347.163 69.6083 346.854 70.7917 346.854 72.275V74.775C346.854 76.2583 347.163 77.45 347.779 78.35C348.413 79.25 349.346 79.7 350.579 79.7ZM358.792 79.5L360.542 79.25V67.8L358.792 67.55V67.05H365.642C367.359 67.05 368.584 67.2917 369.317 67.775C370.051 68.2417 370.417 69.0083 370.417 70.075C370.417 71.625 369.434 72.6167 367.467 73.05V73.125C370.001 73.475 371.267 74.6 371.267 76.5C371.267 77.6667 370.842 78.5417 369.992 79.125C369.142 79.7083 367.959 80 366.442 80H358.792V79.5ZM365.042 72.9C365.909 72.9 366.567 72.675 367.017 72.225C367.484 71.775 367.717 71.1 367.717 70.2V70.1C367.717 69.2833 367.484 68.675 367.017 68.275C366.551 67.875 365.842 67.675 364.892 67.675H363.042V72.9H365.042ZM365.692 79.375C366.609 79.375 367.317 79.1333 367.817 78.65C368.317 78.1667 368.567 77.4583 368.567 76.525V76.35C368.567 75.4 368.317 74.6917 367.817 74.225C367.334 73.7417 366.626 73.5 365.692 73.5H363.042V79.375H365.692ZM379.879 80.25C378.646 80.25 377.529 79.975 376.529 79.425C375.529 78.8583 374.737 78.0667 374.154 77.05C373.571 76.0333 373.279 74.8583 373.279 73.525C373.279 72.1917 373.562 71.025 374.129 70.025C374.712 69.0083 375.487 68.225 376.454 67.675C377.437 67.1083 378.529 66.825 379.729 66.825C380.779 66.825 381.721 67.0583 382.554 67.525C383.387 67.9917 384.037 68.6417 384.504 69.475C384.971 70.2917 385.212 71.2333 385.229 72.3H376.029V74.775C376.029 76.2417 376.354 77.4333 377.004 78.35C377.671 79.25 378.629 79.7 379.879 79.7C381.029 79.7 382.046 79.375 382.929 78.725C383.812 78.075 384.354 77.2333 384.554 76.2H385.129C384.896 77.4333 384.304 78.4167 383.354 79.15C382.404 79.8833 381.246 80.25 379.879 80.25ZM382.479 71.675C382.479 70.225 382.254 69.15 381.804 68.45C381.354 67.7333 380.654 67.375 379.704 67.375C378.587 67.375 377.721 67.7667 377.104 68.55C376.487 69.3333 376.137 70.375 376.054 71.675H382.479ZM386.893 80V79.5L388.643 79.25V67.8L386.893 67.55V67.05H392.643V67.55L391.143 67.8V73.125H397.318V67.8L395.818 67.55V67.05H401.568V67.55L399.818 67.8V79.25L401.568 79.5V80H395.818V79.5L397.318 79.25V73.75H391.143V79.25L392.643 79.5V80H386.893ZM402.908 80V79.5L404.658 79.25V67.8L402.908 67.55V67.05H408.658V67.55L407.158 67.8V77.525L413.483 68.3V67.8L411.983 67.55V67.05H417.733V67.55L415.983 67.8V79.25L417.733 79.5V80H411.983V79.5L413.483 79.25V69.35L407.158 78.6V79.25L408.658 79.5V80H402.908ZM420.57 80.25C420.153 80.25 419.728 80.1583 419.295 79.975C418.862 79.775 418.487 79.4917 418.17 79.125L418.545 78.75C418.845 79.05 419.137 79.2 419.42 79.2C419.67 79.2 419.853 79.1083 419.97 78.925C420.103 78.7417 420.228 78.375 420.345 77.825L420.62 76.375C420.77 75.5583 421.045 74.95 421.445 74.55C421.845 74.15 422.495 73.8833 423.395 73.75V73.625C422.512 73.475 421.787 73.15 421.22 72.65C420.67 72.15 420.395 71.4167 420.395 70.45C420.395 69.3333 420.77 68.4917 421.52 67.925C422.27 67.3417 423.487 67.05 425.17 67.05H432.32V67.575L430.52 67.825V79.225L432.32 79.5V80H426.22V79.5L428.02 79.225V74.05H425.72C425.003 74.05 424.445 74.2083 424.045 74.525C423.662 74.8417 423.412 75.3667 423.295 76.1L422.92 78.225C422.787 78.9583 422.545 79.4833 422.195 79.8C421.845 80.1 421.303 80.25 420.57 80.25ZM428.02 73.425V67.675H425.92C424.953 67.675 424.237 67.8917 423.77 68.325C423.32 68.7583 423.095 69.45 423.095 70.4V70.725C423.095 71.6583 423.328 72.3417 423.795 72.775C424.262 73.2083 424.903 73.425 425.72 73.425H428.02Z" fill="#5E3628"/>
<path d="M51 21L0 21M515 21L464 21" stroke="#5E3628" stroke-width="2"/>
</svg>
