<svg width="85" height="150" viewBox="0 0 85 150" fill="none" xmlns="http://www.w3.org/2000/svg">
<path d="M30.2159 107.091V106.239C30.3106 97.1951 31.2576 89.9981 33.0568 84.6477C34.8561 79.2973 37.4129 74.965 40.7273 71.6506C44.0417 68.3362 48.0189 65.2822 52.6591 62.4886C55.4527 60.7841 57.9621 58.7718 60.1875 56.4517C62.4129 54.0843 64.1648 51.3617 65.4432 48.2841C66.7689 45.2064 67.4318 41.7973 67.4318 38.0568C67.4318 33.4167 66.3428 29.392 64.1648 25.983C61.9867 22.5739 59.0748 19.946 55.429 18.0994C51.7831 16.2528 47.7349 15.3295 43.2841 15.3295C39.4015 15.3295 35.661 16.1345 32.0625 17.7443C28.464 19.3542 25.4574 21.8873 23.0426 25.3438C20.6278 28.8002 19.2311 33.322 18.8523 38.9091H0.954545C1.33333 30.8598 3.41667 23.9706 7.20455 18.2415C11.0398 12.5123 16.0824 8.13257 22.3324 5.10226C28.6297 2.07196 35.6136 0.556813 43.2841 0.556813C51.6174 0.556813 58.8617 2.21401 65.017 5.5284C71.2197 8.8428 76.0019 13.3883 79.3636 19.1648C82.7727 24.9413 84.4773 31.5227 84.4773 38.9091C84.4773 44.1174 83.6723 48.8286 82.0625 53.0426C80.5 57.2566 78.2273 61.0208 75.2443 64.3352C72.3087 67.6496 68.7576 70.5852 64.5909 73.142C60.4242 75.7462 57.0862 78.4924 54.5767 81.3807C52.0672 84.2216 50.2443 87.607 49.108 91.5369C47.9716 95.4669 47.3561 100.367 47.2614 106.239V107.091H30.2159ZM39.3068 149.136C35.803 149.136 32.7964 147.882 30.2869 145.372C27.7775 142.863 26.5227 139.856 26.5227 136.352C26.5227 132.848 27.7775 129.842 30.2869 127.332C32.7964 124.823 35.803 123.568 39.3068 123.568C42.8106 123.568 45.8172 124.823 48.3267 127.332C50.8362 129.842 52.0909 132.848 52.0909 136.352C52.0909 138.672 51.4991 140.803 50.3153 142.744C49.179 144.686 47.6402 146.248 45.6989 147.432C43.8049 148.568 41.6742 149.136 39.3068 149.136Z" fill="#C7BDA4"/>
</svg>
