<svg width="1196" height="713" viewBox="0 0 1196 713" fill="none" xmlns="http://www.w3.org/2000/svg">
<rect x="43" y="2" width="1151" height="709" rx="13" fill="#527976" stroke="#5E3628" stroke-width="4" stroke-dasharray="10 10"/>
<rect x="237.5" y="622.5" width="208" height="69" rx="16.5" fill="#E6DFCC" stroke="#5E3628" stroke-width="3"/>
<path d="M238 656C214 651.333 160.1 644.8 136.5 656C107 670 15.5 682 3.50003 639.5C-6.09997 605.5 24.8334 582 41.5 574.5" stroke="#5E3628" stroke-width="3"/>
<path d="M251.73 652.467C252.522 652.566 252.373 657.873 252.288 658.667C252.163 659.83 251.328 663.414 249.523 663.06C247.907 662.743 247.178 659.477 246.958 658.087C246.729 656.634 246.983 655.177 247.359 653.783C247.763 652.291 248.38 650.46 250.125 650.46C250.913 650.46 251.53 651.319 251.53 652.066" stroke="#5E3628" stroke-width="2" stroke-linecap="round"/>
</svg>
