<svg width="1335" height="1718" viewBox="0 0 1335 1718" fill="none" xmlns="http://www.w3.org/2000/svg">
<g opacity="0.5">
<circle cx="24" cy="24" r="21.5" stroke="#D7CDB5" stroke-width="5"/>
<path d="M25 46.065C28.1667 46.565 36 46.965 42 44.565C49.5 41.565 62.5 40.065 65 46.565C67.5 53.065 51.5 53.065 48.5 51.065" stroke="#D7CDB5" stroke-width="3"/>
<path d="M37.5 6.5C37.2865 13.0115 34.434 23.5703 26 30.0058C21.2656 33.6183 14.7724 35.9314 6 35.5M41 12.5C42.1667 22.6667 38.6 43 15 43M3.5 17C7.83333 27.1667 21.6 45.3 42 36.5" stroke="#D7CDB5" stroke-width="3"/>
</g>
<g opacity="0.5">
<circle cx="351" cy="24" r="21.5" stroke="#D7CDB5" stroke-width="5"/>
<path d="M352 46.065C355.167 46.565 363 46.965 369 44.565C376.5 41.565 389.5 40.065 392 46.565C394.5 53.065 378.5 53.065 375.5 51.065" stroke="#D7CDB5" stroke-width="3"/>
<path d="M364.5 6.5C364.287 13.0115 361.434 23.5703 353 30.0058C348.266 33.6183 341.772 35.9314 333 35.5M368 12.5C369.167 22.6667 365.6 43 342 43M330.5 17C334.833 27.1667 348.6 45.3 369 36.5" stroke="#D7CDB5" stroke-width="3"/>
</g>
<path d="M187 220.895C187 226.694 182.299 231.395 176.5 231.395C170.701 231.395 166 226.694 166 220.895C166 215.096 170.701 210.395 176.5 210.395C182.299 210.395 187 215.096 187 220.895Z" fill="#DFD6C1"/>
<path d="M208.903 181L189.088 222.759L193.523 223.517C198.525 213.043 208.779 191.225 209.78 187.744C210.78 184.263 209.612 181.797 208.903 181Z" fill="#DFD6C1"/>
<path d="M225.64 195.918L185.582 218.98L184.476 214.619C194.52 208.803 215.457 196.852 218.848 195.579C222.239 194.306 224.789 195.275 225.64 195.918Z" fill="#DFD6C1"/>
<path d="M200 232.395C200 238.194 195.299 242.895 189.5 242.895C183.701 242.895 179 238.194 179 232.395C179 226.596 183.701 221.895 189.5 221.895C195.299 221.895 200 226.596 200 232.395Z" fill="#DFD6C1"/>
<path d="M196 232.395C196 235.985 193.09 238.895 189.5 238.895C185.91 238.895 183 235.985 183 232.395C183 228.805 185.91 225.895 189.5 225.895C193.09 225.895 196 228.805 196 232.395Z" fill="#E6DFCC"/>
<path d="M183 220.895C183 224.485 180.09 227.395 176.5 227.395C172.91 227.395 170 224.485 170 220.895C170 217.305 172.91 214.395 176.5 214.395C180.09 214.395 183 217.305 183 220.895Z" fill="#E6DFCC"/>
<g opacity="0.5">
<circle cx="636" cy="24" r="21.5" stroke="#D7CDB5" stroke-width="5"/>
<path d="M637 46.065C640.167 46.565 648 46.965 654 44.565C661.5 41.565 674.5 40.065 677 46.565C679.5 53.065 663.5 53.065 660.5 51.065" stroke="#D7CDB5" stroke-width="3"/>
<path d="M649.5 6.5C649.287 13.0115 646.434 23.5703 638 30.0058C633.266 33.6183 626.772 35.9314 618 35.5M653 12.5C654.167 22.6667 650.6 43 627 43M615.5 17C619.833 27.1667 633.6 45.3 654 36.5" stroke="#D7CDB5" stroke-width="3"/>
</g>
<path d="M472 220.895C472 226.694 467.299 231.395 461.5 231.395C455.701 231.395 451 226.694 451 220.895C451 215.096 455.701 210.395 461.5 210.395C467.299 210.395 472 215.096 472 220.895Z" fill="#DFD6C1"/>
<path d="M493.903 181L474.088 222.759L478.523 223.517C483.525 213.043 493.779 191.225 494.78 187.744C495.78 184.263 494.612 181.797 493.903 181Z" fill="#DFD6C1"/>
<path d="M510.64 195.918L470.582 218.98L469.476 214.619C479.52 208.803 500.457 196.852 503.848 195.579C507.239 194.306 509.789 195.275 510.64 195.918Z" fill="#DFD6C1"/>
<path d="M485 232.395C485 238.194 480.299 242.895 474.5 242.895C468.701 242.895 464 238.194 464 232.395C464 226.596 468.701 221.895 474.5 221.895C480.299 221.895 485 226.596 485 232.395Z" fill="#DFD6C1"/>
<path d="M481 232.395C481 235.985 478.09 238.895 474.5 238.895C470.91 238.895 468 235.985 468 232.395C468 228.805 470.91 225.895 474.5 225.895C478.09 225.895 481 228.805 481 232.395Z" fill="#E6DFCC"/>
<path d="M468 220.895C468 224.485 465.09 227.395 461.5 227.395C457.91 227.395 455 224.485 455 220.895C455 217.305 457.91 214.395 461.5 214.395C465.09 214.395 468 217.305 468 220.895Z" fill="#E6DFCC"/>
<g opacity="0.5">
<circle cx="964" cy="24" r="21.5" stroke="#D7CDB5" stroke-width="5"/>
<path d="M965 46.065C968.167 46.565 976 46.965 982 44.565C989.5 41.565 1002.5 40.065 1005 46.565C1007.5 53.065 991.5 53.065 988.5 51.065" stroke="#D7CDB5" stroke-width="3"/>
<path d="M977.5 6.5C977.287 13.0115 974.434 23.5703 966 30.0058C961.266 33.6183 954.772 35.9314 946 35.5M981 12.5C982.167 22.6667 978.6 43 955 43M943.5 17C947.833 27.1667 961.6 45.3 982 36.5" stroke="#D7CDB5" stroke-width="3"/>
</g>
<path d="M800 220.895C800 226.694 795.299 231.395 789.5 231.395C783.701 231.395 779 226.694 779 220.895C779 215.096 783.701 210.395 789.5 210.395C795.299 210.395 800 215.096 800 220.895Z" fill="#DFD6C1"/>
<path d="M821.903 181L802.088 222.759L806.523 223.517C811.525 213.043 821.779 191.225 822.78 187.744C823.78 184.263 822.612 181.797 821.903 181Z" fill="#DFD6C1"/>
<path d="M838.64 195.918L798.582 218.98L797.476 214.619C807.52 208.803 828.457 196.852 831.848 195.579C835.239 194.306 837.789 195.275 838.64 195.918Z" fill="#DFD6C1"/>
<path d="M813 232.395C813 238.194 808.299 242.895 802.5 242.895C796.701 242.895 792 238.194 792 232.395C792 226.596 796.701 221.895 802.5 221.895C808.299 221.895 813 226.596 813 232.395Z" fill="#DFD6C1"/>
<path d="M809 232.395C809 235.985 806.09 238.895 802.5 238.895C798.91 238.895 796 235.985 796 232.395C796 228.805 798.91 225.895 802.5 225.895C806.09 225.895 809 228.805 809 232.395Z" fill="#E6DFCC"/>
<path d="M796 220.895C796 224.485 793.09 227.395 789.5 227.395C785.91 227.395 783 224.485 783 220.895C783 217.305 785.91 214.395 789.5 214.395C793.09 214.395 796 217.305 796 220.895Z" fill="#E6DFCC"/>
<g opacity="0.5">
<circle cx="1292" cy="24" r="21.5" stroke="#D7CDB5" stroke-width="5"/>
<path d="M1293 46.065C1296.17 46.565 1304 46.965 1310 44.565C1317.5 41.565 1330.5 40.065 1333 46.565C1335.5 53.065 1319.5 53.065 1316.5 51.065" stroke="#D7CDB5" stroke-width="3"/>
<path d="M1305.5 6.5C1305.29 13.0115 1302.43 23.5703 1294 30.0058C1289.27 33.6183 1282.77 35.9314 1274 35.5M1309 12.5C1310.17 22.6667 1306.6 43 1283 43M1271.5 17C1275.83 27.1667 1289.6 45.3 1310 36.5" stroke="#D7CDB5" stroke-width="3"/>
</g>
<path d="M1128 220.895C1128 226.694 1123.3 231.395 1117.5 231.395C1111.7 231.395 1107 226.694 1107 220.895C1107 215.096 1111.7 210.395 1117.5 210.395C1123.3 210.395 1128 215.096 1128 220.895Z" fill="#DFD6C1"/>
<path d="M1149.9 181L1130.09 222.759L1134.52 223.517C1139.53 213.043 1149.78 191.225 1150.78 187.744C1151.78 184.263 1150.61 181.797 1149.9 181Z" fill="#DFD6C1"/>
<path d="M1166.64 195.918L1126.58 218.98L1125.48 214.619C1135.52 208.803 1156.46 196.852 1159.85 195.579C1163.24 194.306 1165.79 195.275 1166.64 195.918Z" fill="#DFD6C1"/>
<path d="M1141 232.395C1141 238.194 1136.3 242.895 1130.5 242.895C1124.7 242.895 1120 238.194 1120 232.395C1120 226.596 1124.7 221.895 1130.5 221.895C1136.3 221.895 1141 226.596 1141 232.395Z" fill="#DFD6C1"/>
<path d="M1137 232.395C1137 235.985 1134.09 238.895 1130.5 238.895C1126.91 238.895 1124 235.985 1124 232.395C1124 228.805 1126.91 225.895 1130.5 225.895C1134.09 225.895 1137 228.805 1137 232.395Z" fill="#E6DFCC"/>
<path d="M1124 220.895C1124 224.485 1121.09 227.395 1117.5 227.395C1113.91 227.395 1111 224.485 1111 220.895C1111 217.305 1113.91 214.395 1117.5 214.395C1121.09 214.395 1124 217.305 1124 220.895Z" fill="#E6DFCC"/>
<g opacity="0.5">
<circle cx="24" cy="371" r="21.5" stroke="#D7CDB5" stroke-width="5"/>
<path d="M25 393.065C28.1667 393.565 36 393.965 42 391.565C49.5 388.565 62.5 387.065 65 393.565C67.5 400.065 51.5 400.065 48.5 398.065" stroke="#D7CDB5" stroke-width="3"/>
<path d="M37.5 353.5C37.2865 360.011 34.434 370.57 26 377.006C21.2656 380.618 14.7724 382.931 6 382.5M41 359.5C42.1667 369.667 38.6 390 15 390M3.5 364C7.83333 374.167 21.6 392.3 42 383.5" stroke="#D7CDB5" stroke-width="3"/>
</g>
<g opacity="0.5">
<circle cx="351" cy="371" r="21.5" stroke="#D7CDB5" stroke-width="5"/>
<path d="M352 393.065C355.167 393.565 363 393.965 369 391.565C376.5 388.565 389.5 387.065 392 393.565C394.5 400.065 378.5 400.065 375.5 398.065" stroke="#D7CDB5" stroke-width="3"/>
<path d="M364.5 353.5C364.287 360.011 361.434 370.57 353 377.006C348.266 380.618 341.772 382.931 333 382.5M368 359.5C369.167 369.667 365.6 390 342 390M330.5 364C334.833 374.167 348.6 392.3 369 383.5" stroke="#D7CDB5" stroke-width="3"/>
</g>
<path d="M187 567.895C187 573.694 182.299 578.395 176.5 578.395C170.701 578.395 166 573.694 166 567.895C166 562.096 170.701 557.395 176.5 557.395C182.299 557.395 187 562.096 187 567.895Z" fill="#DFD6C1"/>
<path d="M208.903 528L189.088 569.759L193.523 570.517C198.525 560.043 208.779 538.225 209.78 534.744C210.78 531.263 209.612 528.797 208.903 528Z" fill="#DFD6C1"/>
<path d="M225.64 542.918L185.582 565.98L184.476 561.619C194.52 555.803 215.457 543.852 218.848 542.579C222.239 541.306 224.789 542.275 225.64 542.918Z" fill="#DFD6C1"/>
<path d="M200 579.395C200 585.194 195.299 589.895 189.5 589.895C183.701 589.895 179 585.194 179 579.395C179 573.596 183.701 568.895 189.5 568.895C195.299 568.895 200 573.596 200 579.395Z" fill="#DFD6C1"/>
<path d="M196 579.395C196 582.985 193.09 585.895 189.5 585.895C185.91 585.895 183 582.985 183 579.395C183 575.805 185.91 572.895 189.5 572.895C193.09 572.895 196 575.805 196 579.395Z" fill="#E6DFCC"/>
<path d="M183 567.895C183 571.485 180.09 574.395 176.5 574.395C172.91 574.395 170 571.485 170 567.895C170 564.305 172.91 561.395 176.5 561.395C180.09 561.395 183 564.305 183 567.895Z" fill="#E6DFCC"/>
<g opacity="0.5">
<circle cx="636" cy="371" r="21.5" stroke="#D7CDB5" stroke-width="5"/>
<path d="M637 393.065C640.167 393.565 648 393.965 654 391.565C661.5 388.565 674.5 387.065 677 393.565C679.5 400.065 663.5 400.065 660.5 398.065" stroke="#D7CDB5" stroke-width="3"/>
<path d="M649.5 353.5C649.287 360.011 646.434 370.57 638 377.006C633.266 380.618 626.772 382.931 618 382.5M653 359.5C654.167 369.667 650.6 390 627 390M615.5 364C619.833 374.167 633.6 392.3 654 383.5" stroke="#D7CDB5" stroke-width="3"/>
</g>
<path d="M472 567.895C472 573.694 467.299 578.395 461.5 578.395C455.701 578.395 451 573.694 451 567.895C451 562.096 455.701 557.395 461.5 557.395C467.299 557.395 472 562.096 472 567.895Z" fill="#DFD6C1"/>
<path d="M493.903 528L474.088 569.759L478.523 570.517C483.525 560.043 493.779 538.225 494.78 534.744C495.78 531.263 494.612 528.797 493.903 528Z" fill="#DFD6C1"/>
<path d="M510.64 542.918L470.582 565.98L469.476 561.619C479.52 555.803 500.457 543.852 503.848 542.579C507.239 541.306 509.789 542.275 510.64 542.918Z" fill="#DFD6C1"/>
<path d="M485 579.395C485 585.194 480.299 589.895 474.5 589.895C468.701 589.895 464 585.194 464 579.395C464 573.596 468.701 568.895 474.5 568.895C480.299 568.895 485 573.596 485 579.395Z" fill="#DFD6C1"/>
<path d="M481 579.395C481 582.985 478.09 585.895 474.5 585.895C470.91 585.895 468 582.985 468 579.395C468 575.805 470.91 572.895 474.5 572.895C478.09 572.895 481 575.805 481 579.395Z" fill="#E6DFCC"/>
<path d="M468 567.895C468 571.485 465.09 574.395 461.5 574.395C457.91 574.395 455 571.485 455 567.895C455 564.305 457.91 561.395 461.5 561.395C465.09 561.395 468 564.305 468 567.895Z" fill="#E6DFCC"/>
<g opacity="0.5">
<circle cx="964" cy="371" r="21.5" stroke="#D7CDB5" stroke-width="5"/>
<path d="M965 393.065C968.167 393.565 976 393.965 982 391.565C989.5 388.565 1002.5 387.065 1005 393.565C1007.5 400.065 991.5 400.065 988.5 398.065" stroke="#D7CDB5" stroke-width="3"/>
<path d="M977.5 353.5C977.287 360.011 974.434 370.57 966 377.006C961.266 380.618 954.772 382.931 946 382.5M981 359.5C982.167 369.667 978.6 390 955 390M943.5 364C947.833 374.167 961.6 392.3 982 383.5" stroke="#D7CDB5" stroke-width="3"/>
</g>
<path d="M800 567.895C800 573.694 795.299 578.395 789.5 578.395C783.701 578.395 779 573.694 779 567.895C779 562.096 783.701 557.395 789.5 557.395C795.299 557.395 800 562.096 800 567.895Z" fill="#DFD6C1"/>
<path d="M821.903 528L802.088 569.759L806.523 570.517C811.525 560.043 821.779 538.225 822.78 534.744C823.78 531.263 822.612 528.797 821.903 528Z" fill="#DFD6C1"/>
<path d="M838.64 542.918L798.582 565.98L797.476 561.619C807.52 555.803 828.457 543.852 831.848 542.579C835.239 541.306 837.789 542.275 838.64 542.918Z" fill="#DFD6C1"/>
<path d="M813 579.395C813 585.194 808.299 589.895 802.5 589.895C796.701 589.895 792 585.194 792 579.395C792 573.596 796.701 568.895 802.5 568.895C808.299 568.895 813 573.596 813 579.395Z" fill="#DFD6C1"/>
<path d="M809 579.395C809 582.985 806.09 585.895 802.5 585.895C798.91 585.895 796 582.985 796 579.395C796 575.805 798.91 572.895 802.5 572.895C806.09 572.895 809 575.805 809 579.395Z" fill="#E6DFCC"/>
<path d="M796 567.895C796 571.485 793.09 574.395 789.5 574.395C785.91 574.395 783 571.485 783 567.895C783 564.305 785.91 561.395 789.5 561.395C793.09 561.395 796 564.305 796 567.895Z" fill="#E6DFCC"/>
<g opacity="0.5">
<circle cx="1292" cy="371" r="21.5" stroke="#D7CDB5" stroke-width="5"/>
<path d="M1293 393.065C1296.17 393.565 1304 393.965 1310 391.565C1317.5 388.565 1330.5 387.065 1333 393.565C1335.5 400.065 1319.5 400.065 1316.5 398.065" stroke="#D7CDB5" stroke-width="3"/>
<path d="M1305.5 353.5C1305.29 360.011 1302.43 370.57 1294 377.006C1289.27 380.618 1282.77 382.931 1274 382.5M1309 359.5C1310.17 369.667 1306.6 390 1283 390M1271.5 364C1275.83 374.167 1289.6 392.3 1310 383.5" stroke="#D7CDB5" stroke-width="3"/>
</g>
<path d="M1128 567.895C1128 573.694 1123.3 578.395 1117.5 578.395C1111.7 578.395 1107 573.694 1107 567.895C1107 562.096 1111.7 557.395 1117.5 557.395C1123.3 557.395 1128 562.096 1128 567.895Z" fill="#DFD6C1"/>
<path d="M1149.9 528L1130.09 569.759L1134.52 570.517C1139.53 560.043 1149.78 538.225 1150.78 534.744C1151.78 531.263 1150.61 528.797 1149.9 528Z" fill="#DFD6C1"/>
<path d="M1166.64 542.918L1126.58 565.98L1125.48 561.619C1135.52 555.803 1156.46 543.852 1159.85 542.579C1163.24 541.306 1165.79 542.275 1166.64 542.918Z" fill="#DFD6C1"/>
<path d="M1141 579.395C1141 585.194 1136.3 589.895 1130.5 589.895C1124.7 589.895 1120 585.194 1120 579.395C1120 573.596 1124.7 568.895 1130.5 568.895C1136.3 568.895 1141 573.596 1141 579.395Z" fill="#DFD6C1"/>
<path d="M1137 579.395C1137 582.985 1134.09 585.895 1130.5 585.895C1126.91 585.895 1124 582.985 1124 579.395C1124 575.805 1126.91 572.895 1130.5 572.895C1134.09 572.895 1137 575.805 1137 579.395Z" fill="#E6DFCC"/>
<path d="M1124 567.895C1124 571.485 1121.09 574.395 1117.5 574.395C1113.91 574.395 1111 571.485 1111 567.895C1111 564.305 1113.91 561.395 1117.5 561.395C1121.09 561.395 1124 564.305 1124 567.895Z" fill="#E6DFCC"/>
<g opacity="0.5">
<circle cx="24" cy="747" r="21.5" stroke="#D7CDB5" stroke-width="5"/>
<path d="M25 769.065C28.1667 769.565 36 769.965 42 767.565C49.5 764.565 62.5 763.065 65 769.565C67.5 776.065 51.5 776.065 48.5 774.065" stroke="#D7CDB5" stroke-width="3"/>
<path d="M37.5 729.5C37.2865 736.011 34.434 746.57 26 753.006C21.2656 756.618 14.7724 758.931 6 758.5M41 735.5C42.1667 745.667 38.6 766 15 766M3.5 740C7.83333 750.167 21.6 768.3 42 759.5" stroke="#D7CDB5" stroke-width="3"/>
</g>
<g opacity="0.5">
<circle cx="351" cy="747" r="21.5" stroke="#D7CDB5" stroke-width="5"/>
<path d="M352 769.065C355.167 769.565 363 769.965 369 767.565C376.5 764.565 389.5 763.065 392 769.565C394.5 776.065 378.5 776.065 375.5 774.065" stroke="#D7CDB5" stroke-width="3"/>
<path d="M364.5 729.5C364.287 736.011 361.434 746.57 353 753.006C348.266 756.618 341.772 758.931 333 758.5M368 735.5C369.167 745.667 365.6 766 342 766M330.5 740C334.833 750.167 348.6 768.3 369 759.5" stroke="#D7CDB5" stroke-width="3"/>
</g>
<path d="M187 943.895C187 949.694 182.299 954.395 176.5 954.395C170.701 954.395 166 949.694 166 943.895C166 938.096 170.701 933.395 176.5 933.395C182.299 933.395 187 938.096 187 943.895Z" fill="#DFD6C1"/>
<path d="M208.903 904L189.088 945.759L193.523 946.517C198.525 936.043 208.779 914.225 209.78 910.744C210.78 907.263 209.612 904.797 208.903 904Z" fill="#DFD6C1"/>
<path d="M225.64 918.918L185.582 941.98L184.476 937.619C194.52 931.803 215.457 919.852 218.848 918.579C222.239 917.306 224.789 918.275 225.64 918.918Z" fill="#DFD6C1"/>
<path d="M200 955.395C200 961.194 195.299 965.895 189.5 965.895C183.701 965.895 179 961.194 179 955.395C179 949.596 183.701 944.895 189.5 944.895C195.299 944.895 200 949.596 200 955.395Z" fill="#DFD6C1"/>
<path d="M196 955.395C196 958.985 193.09 961.895 189.5 961.895C185.91 961.895 183 958.985 183 955.395C183 951.805 185.91 948.895 189.5 948.895C193.09 948.895 196 951.805 196 955.395Z" fill="#E6DFCC"/>
<path d="M183 943.895C183 947.485 180.09 950.395 176.5 950.395C172.91 950.395 170 947.485 170 943.895C170 940.305 172.91 937.395 176.5 937.395C180.09 937.395 183 940.305 183 943.895Z" fill="#E6DFCC"/>
<g opacity="0.5">
<circle cx="636" cy="747" r="21.5" stroke="#D7CDB5" stroke-width="5"/>
<path d="M637 769.065C640.167 769.565 648 769.965 654 767.565C661.5 764.565 674.5 763.065 677 769.565C679.5 776.065 663.5 776.065 660.5 774.065" stroke="#D7CDB5" stroke-width="3"/>
<path d="M649.5 729.5C649.287 736.011 646.434 746.57 638 753.006C633.266 756.618 626.772 758.931 618 758.5M653 735.5C654.167 745.667 650.6 766 627 766M615.5 740C619.833 750.167 633.6 768.3 654 759.5" stroke="#D7CDB5" stroke-width="3"/>
</g>
<path d="M472 943.895C472 949.694 467.299 954.395 461.5 954.395C455.701 954.395 451 949.694 451 943.895C451 938.096 455.701 933.395 461.5 933.395C467.299 933.395 472 938.096 472 943.895Z" fill="#DFD6C1"/>
<path d="M493.903 904L474.088 945.759L478.523 946.517C483.525 936.043 493.779 914.225 494.78 910.744C495.78 907.263 494.612 904.797 493.903 904Z" fill="#DFD6C1"/>
<path d="M510.64 918.918L470.582 941.98L469.476 937.619C479.52 931.803 500.457 919.852 503.848 918.579C507.239 917.306 509.789 918.275 510.64 918.918Z" fill="#DFD6C1"/>
<path d="M485 955.395C485 961.194 480.299 965.895 474.5 965.895C468.701 965.895 464 961.194 464 955.395C464 949.596 468.701 944.895 474.5 944.895C480.299 944.895 485 949.596 485 955.395Z" fill="#DFD6C1"/>
<path d="M481 955.395C481 958.985 478.09 961.895 474.5 961.895C470.91 961.895 468 958.985 468 955.395C468 951.805 470.91 948.895 474.5 948.895C478.09 948.895 481 951.805 481 955.395Z" fill="#E6DFCC"/>
<path d="M468 943.895C468 947.485 465.09 950.395 461.5 950.395C457.91 950.395 455 947.485 455 943.895C455 940.305 457.91 937.395 461.5 937.395C465.09 937.395 468 940.305 468 943.895Z" fill="#E6DFCC"/>
<g opacity="0.5">
<circle cx="964" cy="747" r="21.5" stroke="#D7CDB5" stroke-width="5"/>
<path d="M965 769.065C968.167 769.565 976 769.965 982 767.565C989.5 764.565 1002.5 763.065 1005 769.565C1007.5 776.065 991.5 776.065 988.5 774.065" stroke="#D7CDB5" stroke-width="3"/>
<path d="M977.5 729.5C977.287 736.011 974.434 746.57 966 753.006C961.266 756.618 954.772 758.931 946 758.5M981 735.5C982.167 745.667 978.6 766 955 766M943.5 740C947.833 750.167 961.6 768.3 982 759.5" stroke="#D7CDB5" stroke-width="3"/>
</g>
<path d="M800 943.895C800 949.694 795.299 954.395 789.5 954.395C783.701 954.395 779 949.694 779 943.895C779 938.096 783.701 933.395 789.5 933.395C795.299 933.395 800 938.096 800 943.895Z" fill="#DFD6C1"/>
<path d="M821.903 904L802.088 945.759L806.523 946.517C811.525 936.043 821.779 914.225 822.78 910.744C823.78 907.263 822.612 904.797 821.903 904Z" fill="#DFD6C1"/>
<path d="M838.64 918.918L798.582 941.98L797.476 937.619C807.52 931.803 828.457 919.852 831.848 918.579C835.239 917.306 837.789 918.275 838.64 918.918Z" fill="#DFD6C1"/>
<path d="M813 955.395C813 961.194 808.299 965.895 802.5 965.895C796.701 965.895 792 961.194 792 955.395C792 949.596 796.701 944.895 802.5 944.895C808.299 944.895 813 949.596 813 955.395Z" fill="#DFD6C1"/>
<path d="M809 955.395C809 958.985 806.09 961.895 802.5 961.895C798.91 961.895 796 958.985 796 955.395C796 951.805 798.91 948.895 802.5 948.895C806.09 948.895 809 951.805 809 955.395Z" fill="#E6DFCC"/>
<path d="M796 943.895C796 947.485 793.09 950.395 789.5 950.395C785.91 950.395 783 947.485 783 943.895C783 940.305 785.91 937.395 789.5 937.395C793.09 937.395 796 940.305 796 943.895Z" fill="#E6DFCC"/>
<g opacity="0.5">
<circle cx="1292" cy="747" r="21.5" stroke="#D7CDB5" stroke-width="5"/>
<path d="M1293 769.065C1296.17 769.565 1304 769.965 1310 767.565C1317.5 764.565 1330.5 763.065 1333 769.565C1335.5 776.065 1319.5 776.065 1316.5 774.065" stroke="#D7CDB5" stroke-width="3"/>
<path d="M1305.5 729.5C1305.29 736.011 1302.43 746.57 1294 753.006C1289.27 756.618 1282.77 758.931 1274 758.5M1309 735.5C1310.17 745.667 1306.6 766 1283 766M1271.5 740C1275.83 750.167 1289.6 768.3 1310 759.5" stroke="#D7CDB5" stroke-width="3"/>
</g>
<path d="M1128 943.895C1128 949.694 1123.3 954.395 1117.5 954.395C1111.7 954.395 1107 949.694 1107 943.895C1107 938.096 1111.7 933.395 1117.5 933.395C1123.3 933.395 1128 938.096 1128 943.895Z" fill="#DFD6C1"/>
<path d="M1149.9 904L1130.09 945.759L1134.52 946.517C1139.53 936.043 1149.78 914.225 1150.78 910.744C1151.78 907.263 1150.61 904.797 1149.9 904Z" fill="#DFD6C1"/>
<path d="M1166.64 918.918L1126.58 941.98L1125.48 937.619C1135.52 931.803 1156.46 919.852 1159.85 918.579C1163.24 917.306 1165.79 918.275 1166.64 918.918Z" fill="#DFD6C1"/>
<path d="M1141 955.395C1141 961.194 1136.3 965.895 1130.5 965.895C1124.7 965.895 1120 961.194 1120 955.395C1120 949.596 1124.7 944.895 1130.5 944.895C1136.3 944.895 1141 949.596 1141 955.395Z" fill="#DFD6C1"/>
<path d="M1137 955.395C1137 958.985 1134.09 961.895 1130.5 961.895C1126.91 961.895 1124 958.985 1124 955.395C1124 951.805 1126.91 948.895 1130.5 948.895C1134.09 948.895 1137 951.805 1137 955.395Z" fill="#E6DFCC"/>
<path d="M1124 943.895C1124 947.485 1121.09 950.395 1117.5 950.395C1113.91 950.395 1111 947.485 1111 943.895C1111 940.305 1113.91 937.395 1117.5 937.395C1121.09 937.395 1124 940.305 1124 943.895Z" fill="#E6DFCC"/>
<g opacity="0.5">
<circle cx="24" cy="1123" r="21.5" stroke="#D7CDB5" stroke-width="5"/>
<path d="M25 1145.06C28.1667 1145.56 36 1145.96 42 1143.56C49.5 1140.56 62.5 1139.06 65 1145.56C67.5 1152.06 51.5 1152.06 48.5 1150.06" stroke="#D7CDB5" stroke-width="3"/>
<path d="M37.5 1105.5C37.2865 1112.01 34.434 1122.57 26 1129.01C21.2656 1132.62 14.7724 1134.93 6 1134.5M41 1111.5C42.1667 1121.67 38.6 1142 15 1142M3.5 1116C7.83333 1126.17 21.6 1144.3 42 1135.5" stroke="#D7CDB5" stroke-width="3"/>
</g>
<g opacity="0.5">
<circle cx="351" cy="1123" r="21.5" stroke="#D7CDB5" stroke-width="5"/>
<path d="M352 1145.06C355.167 1145.56 363 1145.96 369 1143.56C376.5 1140.56 389.5 1139.06 392 1145.56C394.5 1152.06 378.5 1152.06 375.5 1150.06" stroke="#D7CDB5" stroke-width="3"/>
<path d="M364.5 1105.5C364.287 1112.01 361.434 1122.57 353 1129.01C348.266 1132.62 341.772 1134.93 333 1134.5M368 1111.5C369.167 1121.67 365.6 1142 342 1142M330.5 1116C334.833 1126.17 348.6 1144.3 369 1135.5" stroke="#D7CDB5" stroke-width="3"/>
</g>
<path d="M187 1319.89C187 1325.69 182.299 1330.39 176.5 1330.39C170.701 1330.39 166 1325.69 166 1319.89C166 1314.1 170.701 1309.39 176.5 1309.39C182.299 1309.39 187 1314.1 187 1319.89Z" fill="#DFD6C1"/>
<path d="M208.903 1280L189.088 1321.76L193.523 1322.52C198.525 1312.04 208.779 1290.23 209.78 1286.74C210.78 1283.26 209.612 1280.8 208.903 1280Z" fill="#DFD6C1"/>
<path d="M225.64 1294.92L185.582 1317.98L184.476 1313.62C194.52 1307.8 215.457 1295.85 218.848 1294.58C222.239 1293.31 224.789 1294.27 225.64 1294.92Z" fill="#DFD6C1"/>
<path d="M200 1331.39C200 1337.19 195.299 1341.89 189.5 1341.89C183.701 1341.89 179 1337.19 179 1331.39C179 1325.6 183.701 1320.89 189.5 1320.89C195.299 1320.89 200 1325.6 200 1331.39Z" fill="#DFD6C1"/>
<path d="M196 1331.39C196 1334.98 193.09 1337.89 189.5 1337.89C185.91 1337.89 183 1334.98 183 1331.39C183 1327.81 185.91 1324.89 189.5 1324.89C193.09 1324.89 196 1327.81 196 1331.39Z" fill="#E6DFCC"/>
<path d="M183 1319.89C183 1323.48 180.09 1326.39 176.5 1326.39C172.91 1326.39 170 1323.48 170 1319.89C170 1316.31 172.91 1313.39 176.5 1313.39C180.09 1313.39 183 1316.31 183 1319.89Z" fill="#E6DFCC"/>
<g opacity="0.5">
<circle cx="636" cy="1123" r="21.5" stroke="#D7CDB5" stroke-width="5"/>
<path d="M637 1145.06C640.167 1145.56 648 1145.96 654 1143.56C661.5 1140.56 674.5 1139.06 677 1145.56C679.5 1152.06 663.5 1152.06 660.5 1150.06" stroke="#D7CDB5" stroke-width="3"/>
<path d="M649.5 1105.5C649.287 1112.01 646.434 1122.57 638 1129.01C633.266 1132.62 626.772 1134.93 618 1134.5M653 1111.5C654.167 1121.67 650.6 1142 627 1142M615.5 1116C619.833 1126.17 633.6 1144.3 654 1135.5" stroke="#D7CDB5" stroke-width="3"/>
</g>
<path d="M472 1319.89C472 1325.69 467.299 1330.39 461.5 1330.39C455.701 1330.39 451 1325.69 451 1319.89C451 1314.1 455.701 1309.39 461.5 1309.39C467.299 1309.39 472 1314.1 472 1319.89Z" fill="#DFD6C1"/>
<path d="M493.903 1280L474.088 1321.76L478.523 1322.52C483.525 1312.04 493.779 1290.23 494.78 1286.74C495.78 1283.26 494.612 1280.8 493.903 1280Z" fill="#DFD6C1"/>
<path d="M510.64 1294.92L470.582 1317.98L469.476 1313.62C479.52 1307.8 500.457 1295.85 503.848 1294.58C507.239 1293.31 509.789 1294.27 510.64 1294.92Z" fill="#DFD6C1"/>
<path d="M485 1331.39C485 1337.19 480.299 1341.89 474.5 1341.89C468.701 1341.89 464 1337.19 464 1331.39C464 1325.6 468.701 1320.89 474.5 1320.89C480.299 1320.89 485 1325.6 485 1331.39Z" fill="#DFD6C1"/>
<path d="M481 1331.39C481 1334.98 478.09 1337.89 474.5 1337.89C470.91 1337.89 468 1334.98 468 1331.39C468 1327.81 470.91 1324.89 474.5 1324.89C478.09 1324.89 481 1327.81 481 1331.39Z" fill="#E6DFCC"/>
<path d="M468 1319.89C468 1323.48 465.09 1326.39 461.5 1326.39C457.91 1326.39 455 1323.48 455 1319.89C455 1316.31 457.91 1313.39 461.5 1313.39C465.09 1313.39 468 1316.31 468 1319.89Z" fill="#E6DFCC"/>
<g opacity="0.5">
<circle cx="964" cy="1123" r="21.5" stroke="#D7CDB5" stroke-width="5"/>
<path d="M965 1145.06C968.167 1145.56 976 1145.96 982 1143.56C989.5 1140.56 1002.5 1139.06 1005 1145.56C1007.5 1152.06 991.5 1152.06 988.5 1150.06" stroke="#D7CDB5" stroke-width="3"/>
<path d="M977.5 1105.5C977.287 1112.01 974.434 1122.57 966 1129.01C961.266 1132.62 954.772 1134.93 946 1134.5M981 1111.5C982.167 1121.67 978.6 1142 955 1142M943.5 1116C947.833 1126.17 961.6 1144.3 982 1135.5" stroke="#D7CDB5" stroke-width="3"/>
</g>
<path d="M800 1319.89C800 1325.69 795.299 1330.39 789.5 1330.39C783.701 1330.39 779 1325.69 779 1319.89C779 1314.1 783.701 1309.39 789.5 1309.39C795.299 1309.39 800 1314.1 800 1319.89Z" fill="#DFD6C1"/>
<path d="M821.903 1280L802.088 1321.76L806.523 1322.52C811.525 1312.04 821.779 1290.23 822.78 1286.74C823.78 1283.26 822.612 1280.8 821.903 1280Z" fill="#DFD6C1"/>
<path d="M838.64 1294.92L798.582 1317.98L797.476 1313.62C807.52 1307.8 828.457 1295.85 831.848 1294.58C835.239 1293.31 837.789 1294.27 838.64 1294.92Z" fill="#DFD6C1"/>
<path d="M813 1331.39C813 1337.19 808.299 1341.89 802.5 1341.89C796.701 1341.89 792 1337.19 792 1331.39C792 1325.6 796.701 1320.89 802.5 1320.89C808.299 1320.89 813 1325.6 813 1331.39Z" fill="#DFD6C1"/>
<path d="M809 1331.39C809 1334.98 806.09 1337.89 802.5 1337.89C798.91 1337.89 796 1334.98 796 1331.39C796 1327.81 798.91 1324.89 802.5 1324.89C806.09 1324.89 809 1327.81 809 1331.39Z" fill="#E6DFCC"/>
<path d="M796 1319.89C796 1323.48 793.09 1326.39 789.5 1326.39C785.91 1326.39 783 1323.48 783 1319.89C783 1316.31 785.91 1313.39 789.5 1313.39C793.09 1313.39 796 1316.31 796 1319.89Z" fill="#E6DFCC"/>
<g opacity="0.5">
<circle cx="1292" cy="1123" r="21.5" stroke="#D7CDB5" stroke-width="5"/>
<path d="M1293 1145.06C1296.17 1145.56 1304 1145.96 1310 1143.56C1317.5 1140.56 1330.5 1139.06 1333 1145.56C1335.5 1152.06 1319.5 1152.06 1316.5 1150.06" stroke="#D7CDB5" stroke-width="3"/>
<path d="M1305.5 1105.5C1305.29 1112.01 1302.43 1122.57 1294 1129.01C1289.27 1132.62 1282.77 1134.93 1274 1134.5M1309 1111.5C1310.17 1121.67 1306.6 1142 1283 1142M1271.5 1116C1275.83 1126.17 1289.6 1144.3 1310 1135.5" stroke="#D7CDB5" stroke-width="3"/>
</g>
<path d="M1128 1319.89C1128 1325.69 1123.3 1330.39 1117.5 1330.39C1111.7 1330.39 1107 1325.69 1107 1319.89C1107 1314.1 1111.7 1309.39 1117.5 1309.39C1123.3 1309.39 1128 1314.1 1128 1319.89Z" fill="#DFD6C1"/>
<path d="M1149.9 1280L1130.09 1321.76L1134.52 1322.52C1139.53 1312.04 1149.78 1290.23 1150.78 1286.74C1151.78 1283.26 1150.61 1280.8 1149.9 1280Z" fill="#DFD6C1"/>
<path d="M1166.64 1294.92L1126.58 1317.98L1125.48 1313.62C1135.52 1307.8 1156.46 1295.85 1159.85 1294.58C1163.24 1293.31 1165.79 1294.27 1166.64 1294.92Z" fill="#DFD6C1"/>
<path d="M1141 1331.39C1141 1337.19 1136.3 1341.89 1130.5 1341.89C1124.7 1341.89 1120 1337.19 1120 1331.39C1120 1325.6 1124.7 1320.89 1130.5 1320.89C1136.3 1320.89 1141 1325.6 1141 1331.39Z" fill="#DFD6C1"/>
<path d="M1137 1331.39C1137 1334.98 1134.09 1337.89 1130.5 1337.89C1126.91 1337.89 1124 1334.98 1124 1331.39C1124 1327.81 1126.91 1324.89 1130.5 1324.89C1134.09 1324.89 1137 1327.81 1137 1331.39Z" fill="#E6DFCC"/>
<path d="M1124 1319.89C1124 1323.48 1121.09 1326.39 1117.5 1326.39C1113.91 1326.39 1111 1323.48 1111 1319.89C1111 1316.31 1113.91 1313.39 1117.5 1313.39C1121.09 1313.39 1124 1316.31 1124 1319.89Z" fill="#E6DFCC"/>
<g opacity="0.5">
<circle cx="24" cy="1499" r="21.5" stroke="#D7CDB5" stroke-width="5"/>
<path d="M25 1521.06C28.1667 1521.56 36 1521.96 42 1519.56C49.5 1516.56 62.5 1515.06 65 1521.56C67.5 1528.06 51.5 1528.06 48.5 1526.06" stroke="#D7CDB5" stroke-width="3"/>
<path d="M37.5 1481.5C37.2865 1488.01 34.434 1498.57 26 1505.01C21.2656 1508.62 14.7724 1510.93 6 1510.5M41 1487.5C42.1667 1497.67 38.6 1518 15 1518M3.5 1492C7.83333 1502.17 21.6 1520.3 42 1511.5" stroke="#D7CDB5" stroke-width="3"/>
</g>
<g opacity="0.5">
<circle cx="351" cy="1499" r="21.5" stroke="#D7CDB5" stroke-width="5"/>
<path d="M352 1521.06C355.167 1521.56 363 1521.96 369 1519.56C376.5 1516.56 389.5 1515.06 392 1521.56C394.5 1528.06 378.5 1528.06 375.5 1526.06" stroke="#D7CDB5" stroke-width="3"/>
<path d="M364.5 1481.5C364.287 1488.01 361.434 1498.57 353 1505.01C348.266 1508.62 341.772 1510.93 333 1510.5M368 1487.5C369.167 1497.67 365.6 1518 342 1518M330.5 1492C334.833 1502.17 348.6 1520.3 369 1511.5" stroke="#D7CDB5" stroke-width="3"/>
</g>
<path d="M187 1695.89C187 1701.69 182.299 1706.39 176.5 1706.39C170.701 1706.39 166 1701.69 166 1695.89C166 1690.1 170.701 1685.39 176.5 1685.39C182.299 1685.39 187 1690.1 187 1695.89Z" fill="#DFD6C1"/>
<path d="M208.903 1656L189.088 1697.76L193.523 1698.52C198.525 1688.04 208.779 1666.23 209.78 1662.74C210.78 1659.26 209.612 1656.8 208.903 1656Z" fill="#DFD6C1"/>
<path d="M225.64 1670.92L185.582 1693.98L184.476 1689.62C194.52 1683.8 215.457 1671.85 218.848 1670.58C222.239 1669.31 224.789 1670.27 225.64 1670.92Z" fill="#DFD6C1"/>
<path d="M200 1707.39C200 1713.19 195.299 1717.89 189.5 1717.89C183.701 1717.89 179 1713.19 179 1707.39C179 1701.6 183.701 1696.89 189.5 1696.89C195.299 1696.89 200 1701.6 200 1707.39Z" fill="#DFD6C1"/>
<path d="M196 1707.39C196 1710.98 193.09 1713.89 189.5 1713.89C185.91 1713.89 183 1710.98 183 1707.39C183 1703.81 185.91 1700.89 189.5 1700.89C193.09 1700.89 196 1703.81 196 1707.39Z" fill="#E6DFCC"/>
<path d="M183 1695.89C183 1699.48 180.09 1702.39 176.5 1702.39C172.91 1702.39 170 1699.48 170 1695.89C170 1692.31 172.91 1689.39 176.5 1689.39C180.09 1689.39 183 1692.31 183 1695.89Z" fill="#E6DFCC"/>
<g opacity="0.5">
<circle cx="636" cy="1499" r="21.5" stroke="#D7CDB5" stroke-width="5"/>
<path d="M637 1521.06C640.167 1521.56 648 1521.96 654 1519.56C661.5 1516.56 674.5 1515.06 677 1521.56C679.5 1528.06 663.5 1528.06 660.5 1526.06" stroke="#D7CDB5" stroke-width="3"/>
<path d="M649.5 1481.5C649.287 1488.01 646.434 1498.57 638 1505.01C633.266 1508.62 626.772 1510.93 618 1510.5M653 1487.5C654.167 1497.67 650.6 1518 627 1518M615.5 1492C619.833 1502.17 633.6 1520.3 654 1511.5" stroke="#D7CDB5" stroke-width="3"/>
</g>
<path d="M472 1695.89C472 1701.69 467.299 1706.39 461.5 1706.39C455.701 1706.39 451 1701.69 451 1695.89C451 1690.1 455.701 1685.39 461.5 1685.39C467.299 1685.39 472 1690.1 472 1695.89Z" fill="#DFD6C1"/>
<path d="M493.903 1656L474.088 1697.76L478.523 1698.52C483.525 1688.04 493.779 1666.23 494.78 1662.74C495.78 1659.26 494.612 1656.8 493.903 1656Z" fill="#DFD6C1"/>
<path d="M510.64 1670.92L470.582 1693.98L469.476 1689.62C479.52 1683.8 500.457 1671.85 503.848 1670.58C507.239 1669.31 509.789 1670.27 510.64 1670.92Z" fill="#DFD6C1"/>
<path d="M485 1707.39C485 1713.19 480.299 1717.89 474.5 1717.89C468.701 1717.89 464 1713.19 464 1707.39C464 1701.6 468.701 1696.89 474.5 1696.89C480.299 1696.89 485 1701.6 485 1707.39Z" fill="#DFD6C1"/>
<path d="M481 1707.39C481 1710.98 478.09 1713.89 474.5 1713.89C470.91 1713.89 468 1710.98 468 1707.39C468 1703.81 470.91 1700.89 474.5 1700.89C478.09 1700.89 481 1703.81 481 1707.39Z" fill="#E6DFCC"/>
<path d="M468 1695.89C468 1699.48 465.09 1702.39 461.5 1702.39C457.91 1702.39 455 1699.48 455 1695.89C455 1692.31 457.91 1689.39 461.5 1689.39C465.09 1689.39 468 1692.31 468 1695.89Z" fill="#E6DFCC"/>
<g opacity="0.5">
<circle cx="964" cy="1499" r="21.5" stroke="#D7CDB5" stroke-width="5"/>
<path d="M965 1521.06C968.167 1521.56 976 1521.96 982 1519.56C989.5 1516.56 1002.5 1515.06 1005 1521.56C1007.5 1528.06 991.5 1528.06 988.5 1526.06" stroke="#D7CDB5" stroke-width="3"/>
<path d="M977.5 1481.5C977.287 1488.01 974.434 1498.57 966 1505.01C961.266 1508.62 954.772 1510.93 946 1510.5M981 1487.5C982.167 1497.67 978.6 1518 955 1518M943.5 1492C947.833 1502.17 961.6 1520.3 982 1511.5" stroke="#D7CDB5" stroke-width="3"/>
</g>
<path d="M800 1695.89C800 1701.69 795.299 1706.39 789.5 1706.39C783.701 1706.39 779 1701.69 779 1695.89C779 1690.1 783.701 1685.39 789.5 1685.39C795.299 1685.39 800 1690.1 800 1695.89Z" fill="#DFD6C1"/>
<path d="M821.903 1656L802.088 1697.76L806.523 1698.52C811.525 1688.04 821.779 1666.23 822.78 1662.74C823.78 1659.26 822.612 1656.8 821.903 1656Z" fill="#DFD6C1"/>
<path d="M838.64 1670.92L798.582 1693.98L797.476 1689.62C807.52 1683.8 828.457 1671.85 831.848 1670.58C835.239 1669.31 837.789 1670.27 838.64 1670.92Z" fill="#DFD6C1"/>
<path d="M813 1707.39C813 1713.19 808.299 1717.89 802.5 1717.89C796.701 1717.89 792 1713.19 792 1707.39C792 1701.6 796.701 1696.89 802.5 1696.89C808.299 1696.89 813 1701.6 813 1707.39Z" fill="#DFD6C1"/>
<path d="M809 1707.39C809 1710.98 806.09 1713.89 802.5 1713.89C798.91 1713.89 796 1710.98 796 1707.39C796 1703.81 798.91 1700.89 802.5 1700.89C806.09 1700.89 809 1703.81 809 1707.39Z" fill="#E6DFCC"/>
<path d="M796 1695.89C796 1699.48 793.09 1702.39 789.5 1702.39C785.91 1702.39 783 1699.48 783 1695.89C783 1692.31 785.91 1689.39 789.5 1689.39C793.09 1689.39 796 1692.31 796 1695.89Z" fill="#E6DFCC"/>
<g opacity="0.5">
<circle cx="1292" cy="1499" r="21.5" stroke="#D7CDB5" stroke-width="5"/>
<path d="M1293 1521.06C1296.17 1521.56 1304 1521.96 1310 1519.56C1317.5 1516.56 1330.5 1515.06 1333 1521.56C1335.5 1528.06 1319.5 1528.06 1316.5 1526.06" stroke="#D7CDB5" stroke-width="3"/>
<path d="M1305.5 1481.5C1305.29 1488.01 1302.43 1498.57 1294 1505.01C1289.27 1508.62 1282.77 1510.93 1274 1510.5M1309 1487.5C1310.17 1497.67 1306.6 1518 1283 1518M1271.5 1492C1275.83 1502.17 1289.6 1520.3 1310 1511.5" stroke="#D7CDB5" stroke-width="3"/>
</g>
<path d="M1128 1695.89C1128 1701.69 1123.3 1706.39 1117.5 1706.39C1111.7 1706.39 1107 1701.69 1107 1695.89C1107 1690.1 1111.7 1685.39 1117.5 1685.39C1123.3 1685.39 1128 1690.1 1128 1695.89Z" fill="#DFD6C1"/>
<path d="M1149.9 1656L1130.09 1697.76L1134.52 1698.52C1139.53 1688.04 1149.78 1666.23 1150.78 1662.74C1151.78 1659.26 1150.61 1656.8 1149.9 1656Z" fill="#DFD6C1"/>
<path d="M1166.64 1670.92L1126.58 1693.98L1125.48 1689.62C1135.52 1683.8 1156.46 1671.85 1159.85 1670.58C1163.24 1669.31 1165.79 1670.27 1166.64 1670.92Z" fill="#DFD6C1"/>
<path d="M1141 1707.39C1141 1713.19 1136.3 1717.89 1130.5 1717.89C1124.7 1717.89 1120 1713.19 1120 1707.39C1120 1701.6 1124.7 1696.89 1130.5 1696.89C1136.3 1696.89 1141 1701.6 1141 1707.39Z" fill="#DFD6C1"/>
<path d="M1137 1707.39C1137 1710.98 1134.09 1713.89 1130.5 1713.89C1126.91 1713.89 1124 1710.98 1124 1707.39C1124 1703.81 1126.91 1700.89 1130.5 1700.89C1134.09 1700.89 1137 1703.81 1137 1707.39Z" fill="#E6DFCC"/>
<path d="M1124 1695.89C1124 1699.48 1121.09 1702.39 1117.5 1702.39C1113.91 1702.39 1111 1699.48 1111 1695.89C1111 1692.31 1113.91 1689.39 1117.5 1689.39C1121.09 1689.39 1124 1692.31 1124 1695.89Z" fill="#E6DFCC"/>
</svg>
