<svg width="583" height="67" viewBox="0 0 583 67" fill="none" xmlns="http://www.w3.org/2000/svg">
<path d="M581 19.5L560.452 16L558.743 19.5M499.7 44L542.137 53L546.781 44M546.781 44L538.205 41.9053M546.781 44L552.762 31.75M558.743 19.5L550.178 17.5416M558.743 19.5L552.762 31.75M508.634 8.04276L499.7 6V19.25M508.634 8.04276V34.6823M508.634 8.04276L522.929 11.3112M508.634 34.6823L499.7 32.5V19.25M508.634 34.6823L519.355 37.301M522.929 11.3112L519.355 37.301M522.929 11.3112L536.33 14.3753M519.355 37.301L529.629 39.8106M536.33 14.3753L529.629 39.8106M536.33 14.3753L550.178 17.5416M529.629 39.8106L538.205 41.9053M550.178 17.5416L538.205 41.9053M552.762 31.75L499.7 19.25" stroke="#5E3628" stroke-width="3" stroke-linecap="round"/>
<path d="M546.891 59.5C546.891 62.9772 544.408 65.5 541.69 65.5C538.973 65.5 536.49 62.9772 536.49 59.5C536.49 56.0228 538.973 53.5 541.69 53.5C544.408 53.5 546.891 56.0228 546.891 59.5ZM504.901 50C504.901 53.4772 502.418 56 499.701 56C496.983 56 494.5 53.4772 494.5 50C494.5 46.5228 496.983 44 499.701 44C502.418 44 504.901 46.5228 504.901 50Z" stroke="#5E3628" stroke-width="3"/>
<path d="M27.881 26.7117L42.8095 6.02703L56.8333 26.7117M27.881 26.7117L28.8988 34.7838M27.881 26.7117H41.4524M27.881 26.7117H15.2143M56.8333 26.7117L55.25 34.7838M56.8333 26.7117H68.5952M56.8333 26.7117H41.4524M15.2143 26.7117H3L6.50595 34.7838M15.2143 26.7117L17.4762 34.7838M24.2619 59H17.0238L11.7649 46.8919M24.2619 59L20.869 46.8919M24.2619 59H31.9524M17.4762 34.7838L20.869 46.8919M17.4762 34.7838H28.8988M17.4762 34.7838H6.50595M20.869 46.8919H11.7649M20.869 46.8919H30.4256M31.9524 59L30.4256 46.8919M31.9524 59H42.8095M28.8988 34.7838L30.4256 46.8919M28.8988 34.7838H41.7917M30.4256 46.8919H42.3006M41.4524 26.7117L41.7917 34.7838M42.8095 59L42.3006 46.8919M42.8095 59H50.5M41.7917 34.7838L42.3006 46.8919M41.7917 34.7838H55.25M42.3006 46.8919H52.875M50.5 59L52.875 46.8919M50.5 59H57.2857M55.25 34.7838L52.875 46.8919M55.25 34.7838H65.7679M52.875 46.8919H61.5268M68.5952 26.7117H79L75.2679 34.7838M68.5952 26.7117L65.7679 34.7838M57.2857 59H64.0714L69.6696 46.8919M57.2857 59L61.5268 46.8919M65.7679 34.7838L61.5268 46.8919M65.7679 34.7838H75.2679M61.5268 46.8919H69.6696M75.2679 34.7838L69.6696 46.8919M6.50595 34.7838L11.7649 46.8919M51.8571 15.1081L48.2381 18.1351L42.3571 9.55856L35.5714 18.1351L32.8571 16.6216L42.8095 3L51.8571 15.1081Z" stroke="#5E3628" stroke-width="3" stroke-linecap="round"/>
</svg>
