<svg width="1359" height="1870" viewBox="0 0 1359 1870" fill="none" xmlns="http://www.w3.org/2000/svg">
<path d="M803.685 733.98C802.447 721.172 814.156 725.197 815.992 727.287C823.146 729.697 840.782 816.943 840.782 819.009C840.782 821.075 804.822 745.734 803.685 733.98Z" fill="#527976" stroke="#527976" stroke-width="4"/>
<path d="M806.5 731C808.398 729.188 809.801 728.873 811.035 728.94C816.246 729.1 821.107 736.893 820.124 742.161L806.5 731Z" fill="#E6DFCC"/>
<path d="M808.143 741.334C805.25 738.029 804.53 736.908 805 734L811.035 739.5L818.472 744.64L828.801 751.663V753.5C825.771 751.623 818.322 746.718 817 745.5C813.903 746.317 810.653 744.204 808.143 741.334Z" fill="#E6DFCC"/>
<path d="M801.5 732.5C801.227 730.837 802.449 727.239 803 726C803 724.76 801.826 725.021 801 727.5C798.655 734.537 801.974 735.389 801.5 732.5Z" fill="#E6DFCC"/>
<path d="M1197.5 -8C1191.17 24 1156.7 64.4 1099.5 100C1050.99 130.189 944.259 160.705 881.5 157M881.5 157C851.748 155.244 821.813 148.149 817.857 122.988C811.228 80.8333 891.424 61.9981 898 114C899.704 127.475 897.583 144.187 881.5 157ZM881.5 157C818.023 249.703 659.82 295.281 590.5 247.5M85.5 310C38.7721 307.711 -1.30923 496.239 15.5 581.5C50.0975 756.989 299 836.875 433.5 784C490.479 761.6 535.5 743.5 604 697.5C634.5 684.667 708.7 666.7 761.5 697.5L784.5 715" stroke="#527976" stroke-width="4" stroke-dasharray="10 10"/>
<path d="M720.5 683C727.666 683.333 744.255 687.564 759.5 696.5C774 705 795 724 804 732C858 781.2 924.5 757.833 951 740C1019 703.5 1135.48 696.656 1208 790.5C1344 966.5 1262.5 1439.5 692 1218C227.399 1037.62 84.2769 1368.07 61 1459C16.6319 1632.32 135.183 1950.01 437 1894" stroke="#527976" stroke-width="4"/>
<path d="M102.542 602.309C93.3788 600.564 31.8494 622.077 21.3811 637.217C11.8795 650.959 96.8695 643.326 102.542 602.309Z" fill="#2A5955" stroke="#36615D" stroke-width="4" stroke-linecap="round"/>
<path d="M111.705 611.146C119.851 616.818 143.995 628.513 175.412 629.909C214.684 631.654 232.574 622.491 250.901 632.963C254.229 634.865 256.727 637.113 258.407 639.597C262.42 638.065 268.587 636.802 270.973 640.381C274.464 645.617 274.464 663.578 262.682 664.817C259.519 665.149 256.387 664.548 253.827 663.221C248.999 668.376 241.75 673.323 232.138 677.471C196.901 692.677 105.885 649.757 111.705 611.146Z" fill="#527976"/>
<path d="M114.76 612.455C121.451 617.4 140.504 627.553 163.195 628.6C191.557 629.909 255.701 622.055 257.446 639.072C260.21 638.054 266.522 636.89 269.664 640.381C273.591 644.745 275.336 662.635 263.119 664.817C261.228 665.253 256.661 665.515 253.519 663.071C248.864 668.744 235.367 680.176 218.611 680.525C201.855 680.874 187.485 676.889 182.394 674.853" stroke="#36615D" stroke-width="4" stroke-linecap="round"/>
<path d="M130.108 630.733C131.872 633.04 134.176 634.975 137.094 635.544C139.458 636.005 142.048 636.39 143.609 634.205" stroke="#36615D" stroke-width="3" stroke-linecap="round"/>
<path d="M142.838 630.154C144.14 629.321 145.9 630.781 146.931 631.59C149.571 633.661 150.752 636.763 151.131 639.991" stroke="#36615D" stroke-width="3" stroke-linecap="round"/>
<path d="M155.374 639.798C155.374 641.855 159.237 641.968 160.636 641.898C163.65 641.747 166.26 640.886 166.754 637.676" stroke="#36615D" stroke-width="3" stroke-linecap="round"/>
<path d="M164.247 635.169C164.306 634.212 168.849 634.95 169.39 635.062C171.528 635.505 173.318 636.397 174.876 637.955C175.406 638.485 176.457 639.621 176.205 640.377" stroke="#36615D" stroke-width="3" stroke-linecap="round"/>
<path d="M173.89 644.234C173.89 645.936 178.221 646.298 179.301 646.323C181.288 646.371 183.362 645.82 184.82 644.405C185.821 643.434 186.406 642.205 187.198 641.148" stroke="#36615D" stroke-width="3" stroke-linecap="round"/>
<path d="M185.462 638.255C185.462 637.482 186.441 637.335 187.027 637.098C188.824 636.371 190.256 636.136 192.031 637.13C193.919 638.187 195.758 639.512 197.549 640.73C197.782 640.888 199.37 642.006 198.771 642.305" stroke="#36615D" stroke-width="3" stroke-linecap="round"/>
<path d="M194.335 645.006C194.906 645.12 195.117 645.903 195.524 646.259C196.751 647.333 198.451 647.779 200.046 647.877C203.273 648.076 208.18 646.825 209.764 643.655" stroke="#36615D" stroke-width="3" stroke-linecap="round"/>
<path d="M204.943 636.905C207.149 635.531 210.671 635.485 213.075 636.455C216.121 637.683 217.067 640.391 217.286 643.463" stroke="#36615D" stroke-width="3" stroke-linecap="round"/>
<path d="M214.779 646.548C214.904 648.673 218.053 649.507 219.687 649.592C223.57 649.794 227.193 648.637 227.894 644.427" stroke="#36615D" stroke-width="3" stroke-linecap="round"/>
<path d="M223.844 639.412C223.582 638.103 228.777 637.134 229.845 637.023C231.579 636.842 233.526 637.545 234.795 638.726C236.182 640.018 236.493 641.687 236.766 643.463" stroke="#36615D" stroke-width="3" stroke-linecap="round"/>
<path d="M233.295 646.548C234.153 646.6 234.096 647.011 234.698 647.438C235.981 648.346 237.367 649.061 238.909 649.399C242.475 650.179 245.02 647.218 247.76 645.391" stroke="#36615D" stroke-width="3" stroke-linecap="round"/>
<path d="M246.217 640.184C247.938 640.184 249.674 640.343 250.91 641.727C251.955 642.896 253.079 645.219 252.775 646.741" stroke="#36615D" stroke-width="3" stroke-linecap="round"/>
<path d="M255.861 635.941C257.337 638.979 257.415 641.87 257.404 645.241C257.392 648.755 257.039 651.715 255.475 654.842" stroke="#36615D" stroke-width="3" stroke-linecap="round"/>
<path d="M266.276 645.584C266.276 646.252 263.317 646.266 262.611 646.548" stroke="#36615D" stroke-width="3" stroke-linecap="round"/>
<path d="M267.047 652.72C264.854 652.72 262.981 651.897 260.875 651.37" stroke="#36615D" stroke-width="3" stroke-linecap="round"/>
<path d="M157.496 648.67C158.681 647.701 160.993 647.223 162.446 647.599C164.106 648.028 165.519 649.615 166.711 650.76C167.348 651.371 168.04 651.971 168.49 652.72" stroke="#36615D" stroke-width="3" stroke-linecap="round"/>
<path d="M163.475 657.156C165.6 658.46 167.278 660.285 169.84 660.692C172.388 661.098 175.918 660.882 177.555 658.699" stroke="#36615D" stroke-width="3" stroke-linecap="round"/>
<path d="M179.676 654.456C181.812 654.246 184.484 654.935 186.127 656.364C187.56 657.611 190.532 661.462 188.163 662.943" stroke="#36615D" stroke-width="3" stroke-linecap="round"/>
<path d="M182.569 662.364C181.757 664.904 184.74 666.449 186.845 666.864C189.095 667.309 191.681 667.335 193.917 666.832C194.911 666.608 197.31 666.087 197.613 664.871" stroke="#36615D" stroke-width="3" stroke-linecap="round"/>
<path d="M197.035 656.385C199.196 655.877 202.37 655.501 204.332 656.631C206.38 657.812 207.991 659.329 209.25 661.335C209.766 662.158 210.575 663.867 209.764 664.679" stroke="#36615D" stroke-width="3" stroke-linecap="round"/>
<path d="M202.435 664.486C201.888 666.597 205.007 668.261 206.603 668.793C209.134 669.636 212.933 669.997 214.972 667.957" stroke="#36615D" stroke-width="3" stroke-linecap="round"/>
<path d="M217.479 657.735C219.06 657.215 220.64 656.77 222.258 656.385C223.525 656.083 224.801 655.654 226.116 655.935C228.744 656.497 230.571 659.094 231.559 661.4" stroke="#36615D" stroke-width="3" stroke-linecap="round"/>
<path d="M220.951 664.293C222.477 666.178 224.111 667.069 226.587 667.293C230.106 667.611 232.303 666.123 234.259 663.328" stroke="#36615D" stroke-width="3" stroke-linecap="round"/>
<path d="M239.081 657.928C242.94 656.324 245.196 658.283 247.182 661.593" stroke="#36615D" stroke-width="3" stroke-linecap="round"/>
<path d="M190.091 671.815C191.313 670.593 192.851 670.241 194.57 670.272C196.176 670.3 197.294 671.253 198.771 671.622" stroke="#36615D" stroke-width="3" stroke-linecap="round"/>
<path d="M204.364 675.865C205.317 677.511 207.768 678.004 209.529 677.955C211.797 677.891 214.015 677.106 215.165 675.094" stroke="#36615D" stroke-width="3" stroke-linecap="round"/>
<path d="M221.144 673.358C221.655 671.541 225.427 672.317 226.737 672.972" stroke="#36615D" stroke-width="3" stroke-linecap="round"/>
<path d="M121.741 627.291C118.6 623.451 114.033 614.637 112.142 610.709C96.7822 650.505 45.2349 653.763 21.3811 650.417C40.5805 673.544 57.5981 724.16 74.1794 760.814C90.7606 797.467 121.741 827.575 150.104 812.303C178.467 797.031 242.61 749.905 236.501 730.706C230.392 711.506 209.011 691.434 181.521 673.98C154.031 656.526 125.669 632.091 121.741 627.291Z" fill="#527976"/>
<path d="M60.1264 634.709C80.1146 636.803 92.7343 616.964 96.5456 606.782C99.2276 602.419 106.201 596.31 112.638 606.782C120.684 619.873 102.474 641.69 85.9586 651.29C69.4429 660.89 21.5897 660.89 18.6254 646.926C15.661 632.963 35.1411 632.091 60.1264 634.709Z" fill="#527976"/>
<path d="M109.25 622.491C119.414 613.066 112.27 605.91 106.906 602.855C105.16 601.692 100.535 600.848 95.9968 606.782C90.3243 614.2 88.5789 628.163 67.6341 634.272C46.6894 640.381 14.8359 623.8 20.5084 647.363C22.2023 649.254 26.0786 654.344 33.8706 654.344C92.7343 653.908 96.5456 634.272 109.25 622.491Z" stroke="#36615D" stroke-width="4" stroke-linecap="round"/>
<path d="M99.8465 607.601C101.482 608.163 102.8 609.227 103.896 610.605C105.274 612.338 106.823 614.486 107.518 616.636" stroke="#36615D" stroke-width="4" stroke-linecap="round"/>
<path d="M97.1066 616.918C97.6109 617.503 98.3111 617.83 98.8875 618.361C99.5966 619.014 100.113 619.683 100.668 620.447" stroke="#36615D" stroke-width="4" stroke-linecap="round"/>
<path d="M88.6127 623.694C89.5374 625.494 91.0722 627.144 92.2812 628.744C93.351 630.16 94.4516 631.593 95.0516 633.293" stroke="#36615D" stroke-width="4" stroke-linecap="round"/>
<path d="M86.8318 631.034C87.5586 632.168 88.2944 633.295 89.0237 634.422" stroke="#36615D" stroke-width="4" stroke-linecap="round"/>
<path d="M30.937 636.398C31.13 637.592 30.3619 638.882 30.252 640.084C29.9534 643.35 30.8487 646.34 32.8549 648.82" stroke="#36615D" stroke-width="4" stroke-linecap="round"/>
<path d="M35.3209 641.903C35.3209 643.567 36.2175 644.72 36.5538 646.279" stroke="#36615D" stroke-width="4" stroke-linecap="round"/>
<path d="M54.3634 636.681C53.4192 638.724 53.182 641.674 53.8155 643.801C54.2986 645.424 55.4288 646.863 56.5021 648.115C56.7483 648.402 57.0517 648.749 56.6924 648.256" stroke="#36615D" stroke-width="4" stroke-linecap="round"/>
<path d="M61.3503 640.351C61.5953 642.09 61.8162 643.993 62.5833 645.574" stroke="#36615D" stroke-width="4" stroke-linecap="round"/>
<path d="M68.0632 637.245C69.5171 640.181 70.5612 643.519 69.8441 646.844" stroke="#36615D" stroke-width="4" stroke-linecap="round"/>
<path d="M77.5181 638.233C78.0748 639.347 78.8637 640.519 79.0709 641.762" stroke="#36615D" stroke-width="4" stroke-linecap="round"/>
<path d="M114.76 616.382C115.778 620.309 122.789 631.741 142.686 646.054C167.558 663.944 175.412 672.235 191.121 680.525C206.83 688.816 238.247 720.669 236.501 734.196C234.756 747.723 212.066 770.85 181.085 792.667C150.104 814.485 137.014 818.848 123.487 813.612C113.959 810.327 92.1137 797.888 80.9562 774.411C69.7987 750.933 56.9535 721.17 51.9256 709.224C46.8348 695.313 34.4716 664.512 25.7446 652.599M115.741 630.957C116.694 632.016 117.069 634.038 117.312 635.364C117.611 636.994 118.205 639.814 117.218 641.294M112.366 637.708C112.366 644.49 121.626 648.467 127.344 648.467M127.133 643.826C127.175 643.531 127.871 644.557 127.977 644.717C128.752 645.879 129.307 646.961 129.782 648.291C130.595 650.569 131.735 653.695 130.298 655.851M124.18 654.796C124.18 658.161 128.891 660.681 131.306 661.968C133.263 663.012 135.095 663.762 137.283 664.195C137.698 664.277 138.754 664.527 138.314 663.867M138.947 657.538C140.595 659.186 140.865 661.033 141.268 663.328C141.685 665.708 142.336 668.633 140.635 670.618M135.994 670.829C137.229 673.979 141.4 675.515 144.385 676.431C146.146 676.972 150.457 678.095 152.027 676.525M151.394 668.93C153.441 669.135 154.648 672.505 155.062 674.04C155.722 676.485 156.752 680.933 155.191 683.275M148.862 684.119C149.851 686.637 153.184 687.988 155.487 688.921L155.496 688.925C158.023 689.949 162.306 691.11 164.895 689.815M164.684 684.119C166.637 685.876 168.004 688.08 169.021 690.542C169.923 692.725 170.547 695.151 170.896 697.492C171.031 698.397 171.066 698.737 170.169 698.887M160.887 698.254C161.368 700.901 165.017 703.139 167.239 703.903C169.187 704.572 171.56 704.531 173.58 704.243C173.807 704.21 175.551 703.847 175.232 703.528M178.608 696.144C180.149 698.946 181.782 701.48 182.475 704.7C183.049 707.362 183.411 710.849 180.717 712.388M172.068 711.966C173.118 712.693 173.413 713.623 174.002 714.732C174.993 716.598 176.285 718.078 178.162 719.092C179.473 719.799 188.734 722.933 188.734 719.772M191.476 710.49C192.908 712.837 194.62 714.682 195.391 717.428C196.089 719.914 196.564 722.431 196.539 725.022C196.532 725.795 196.351 726.718 195.696 727.155M185.569 726.944C186.165 728.342 186.607 729.74 187.773 730.777C189.815 732.592 192.527 734.145 195.039 735.195C197.494 736.221 200.409 736.625 203.056 736.625C203.752 736.625 204.382 736.593 204.767 736.016M207.298 727.366C210.159 730.227 212.259 732.753 212.901 736.953C213.312 739.644 213.55 745.609 209.83 746.353M200.97 744.243C202.499 748.096 205.697 750.061 209.584 751.275C211.075 751.741 215.607 753.2 216.159 750.994M149.495 656.483C150.376 657.59 150.937 658.93 151.839 659.999C153.472 661.936 155.877 663.415 158.098 664.57C159.766 665.438 161.715 666.322 163.63 666.399C163.756 666.404 165.003 666.399 164.262 666.399M165.95 671.251C165.983 671.809 166.36 672.107 166.7 672.528C168.004 674.142 169.654 675.549 171.353 676.724C174.444 678.861 178.58 680.533 182.405 680.533M186.835 681.588C188.33 682.501 188.992 684.698 189.472 686.264C189.698 687.001 190.679 690.636 189.789 691.081M183.46 690.659C183.537 691.427 184.431 692.292 184.866 692.863C186.342 694.798 188.228 696.065 190.445 697.058C193.087 698.242 195.893 699.4 198.719 700.059C199.827 700.316 200.82 700.538 201.813 699.941M204.978 695.722C205.461 696.652 206.061 697.307 206.666 698.137C207.502 699.284 207.794 700.787 208.095 702.145C208.647 704.628 209.323 707.087 207.72 709.224M202.657 709.435C203.409 712.141 205.795 714.248 208.365 715.295C210.901 716.328 214.299 715.764 217.003 715.764M220.589 714.287C223.015 716.153 223.724 720.931 223.918 723.663L223.92 723.703C224.054 725.581 224.173 727.264 223.121 728.843M219.112 731.164C219.112 732.917 220.594 734.152 221.902 735.125C224.017 736.699 226.234 737.12 228.817 737.282M100.552 641.294C102.541 643.946 104.746 646.372 105.463 649.744C105.736 651.03 106.675 657.116 104.138 657.116M99.0754 655.007C99.0754 662.671 106.832 665.766 113.421 665.766M117.851 667.242C121.087 669.22 123.202 679.056 117.851 679.056M111.944 676.525C111.944 679.294 111.985 681.901 114.124 684.002C116.865 686.694 122.889 688.878 126.5 687.073M128.821 681.377C130.919 682.542 132.866 684.504 134.107 686.534C135.612 688.997 135.994 691.875 135.994 694.714C135.994 695.607 135.909 697.486 134.728 696.777M126.711 693.191C126.711 696.451 126.89 699.647 129.43 702.063C132.209 704.705 136.461 705.848 140.213 705.848M143.588 695.3C146.704 696.524 149.529 699.846 151.241 702.555C152.442 704.454 155.031 712.81 150.761 712.81M139.369 711.122C138.682 715.159 140.947 717.224 144.35 718.998C147.992 720.897 151.98 721.876 156.035 722.303M159.41 713.654C160.563 712.683 162.084 714.282 163.044 714.92C164.93 716.173 166.751 717.193 167.849 719.28C169.294 722.026 171.443 729.007 167.849 731.164M158.145 727.366C158.145 730.505 158.313 733.059 161.121 735.102C163.175 736.595 165.848 737.294 168.329 737.645C169.792 737.852 171.922 738.223 172.701 736.86M177.131 728.632C177.698 729.182 178.305 729.597 178.936 730.062C180.842 731.467 182.046 733.175 183.214 735.242C184.899 738.226 185.276 741.758 184.28 745.064C184.131 745.559 182.864 748.499 181.983 747.619M173.967 747.619C173.967 750.547 175.098 753.577 177.178 755.694C179.537 758.095 185.373 759.728 188.523 758.378M194.219 747.619C194.91 748.558 195.5 749.564 196.176 750.514C197.977 753.043 200.669 755.001 201.767 758.003C202.672 760.478 203.091 763.923 202.142 766.441C201.736 767.517 200.605 769.434 199.704 768.082M190.844 765.339C190.367 763.434 190.682 769.462 191.64 771.176C192.179 772.138 194.93 775.005 196.118 774.411M87.6835 649.522C87.9198 649.226 89.2074 650.621 89.3478 650.764C91.2206 652.679 92.3328 654.676 92.5005 657.386C92.631 659.495 92.3175 661.416 91.2581 663.269C91.0087 663.706 89.9541 665.635 89.3712 665.344M82.6205 660.07C82.4707 662.766 81.0361 664.846 81.8001 667.711C83.2061 672.984 90.1496 675.268 94.8562 676.314M98.0206 670.196C99.5549 668.969 103.903 673.812 104.631 674.778C107.322 678.352 107.362 683.725 104.349 687.073M98.4425 685.385C97.9564 686.505 97.3222 687.663 97.4463 688.925C97.6517 691.012 99.004 692.669 100.447 694.081C103.093 696.672 106.476 699.099 110.256 699.519M114.054 696.355C117.4 698.076 119.852 700 121.25 703.668C122.244 706.277 121.892 710.157 119.117 711.544M110.678 707.536C110.085 710.945 110.53 714.375 112.764 717.147C116.475 721.749 123.031 723.268 128.61 723.569M130.509 717.451C131.741 718.389 133.171 719.06 134.306 720.123C136.192 721.889 137.927 724.264 138.818 726.698C139.522 728.621 140.168 730.753 139.181 732.676C138.329 734.336 137.147 735.529 135.361 736.016M128.399 732.218C127.38 735.085 128.006 739.34 129.243 742.016C130.397 744.515 133.496 746.283 135.865 747.384C138.523 748.62 141.369 749.01 144.221 749.517M145.909 736.438C148.571 736.635 151.636 739.762 153.14 741.7C155.643 744.924 158.764 751.668 155.613 755.213M147.807 754.791C147.406 755.394 147.57 756.503 147.62 757.182C147.769 759.19 148.568 761.326 149.987 762.784C153.318 766.206 157.666 768.202 162.364 767.027M165.106 758.167C167.213 758.167 169.304 761.048 170.591 762.386C173.491 765.4 175.871 771.134 172.701 774.833M165.95 777.786C165.95 779.451 165.569 781.063 165.88 782.732C166.667 786.965 170.696 788.961 174.6 789.178M67.6422 657.538C70.2758 659.144 72.1564 660.425 72.5647 663.797C72.9126 666.671 72.788 670.118 71.2989 672.681C70.7052 673.702 69.7057 674.87 68.4861 674.626M61.1024 670.407C61.2216 670.303 61.3072 674.333 61.454 674.907C62.7382 679.928 68.1408 682.784 72.9162 683.065M75.8697 679.267C76.7288 677.893 81.0311 682.956 81.5657 683.651C83.5224 686.194 83.9241 689.587 83.5112 692.698C83.3362 694.017 82.7267 697.621 80.9328 697.621M73.3382 694.245C71.3185 697.591 73.3747 701.801 75.7642 704.418C78.8453 707.793 83.8264 710.61 88.5274 709.435M90.848 705.215C90.9036 704.77 94.4748 707.42 94.6921 707.63C96.4005 709.278 97.3937 711.687 97.3291 714.076C97.2673 716.362 96.1024 717.777 94.2233 718.717M86.4178 718.084C84.7573 720.263 84.7495 723.975 85.6208 726.464C87.1137 730.729 93.4532 732.015 97.3877 731.797M102.029 727.366C103.121 726.493 107.034 728.639 107.912 729.195C111.476 731.448 112.074 735.81 110.889 739.602M102.873 738.547C102.427 738.826 102.519 740.491 102.544 740.949L102.545 740.962C102.676 743.341 104.539 745.341 106.342 746.693C110.295 749.657 114.627 751.992 119.539 750.15M120.804 743.399C120.155 743.053 120.949 743.395 121.156 743.54C122.968 744.814 124.371 746.303 125.621 748.134C127.062 750.245 128.083 752.705 128.751 755.166C129.046 756.254 129.243 757.388 129.243 758.518C129.243 759.49 129.059 759.313 128.399 759.643M119.117 757.323C119.117 758.173 118.957 758.967 118.917 759.808C118.81 762.129 119.694 764.201 121.039 766.066C122.736 768.42 125.725 769.77 128.469 770.449C129.731 770.762 131.382 771.108 132.618 770.613M135.783 762.386C136.57 762.701 137.025 763.412 137.611 764.003C139.344 765.754 141.191 767.428 142.768 769.324C146.171 773.417 146.347 778.613 142.533 782.427M136.205 779.263C136.205 779.901 135.958 780.471 135.83 781.091C135.379 783.267 135.57 785.899 136.826 787.795C139.688 792.12 145.947 793.989 150.761 792.975M153.292 783.904C154.736 785.347 156.81 786.385 157.945 788.088C159.095 789.813 159.309 791.953 159.387 793.972C159.44 795.366 159.556 796.87 158.777 798.038M48.2338 661.757C51.0757 663.921 53.1185 666.423 53.3789 670.126C53.5765 672.936 54.0067 679.697 50.3434 680.744M43.5927 671.04C44.368 672.275 44.4586 673.247 44.6475 674.673C44.9879 677.243 45.843 679.661 47.4134 681.752C49.8575 685.006 54.4814 688.176 58.5709 688.76M60.4695 685.174C62.7771 687.144 63.0207 691.327 63.2941 694.152C63.6361 697.686 63.169 702.347 58.9928 703.106M53.0859 696.355C53.5475 699.678 54.3328 703.066 56.391 705.801C58.7985 709.001 61.9685 709.901 65.7436 710.279M69.3299 707.325C71.2649 707.906 71.6152 711.977 71.6505 713.513C71.6891 715.194 72.1302 716.896 71.2754 718.459C70.3867 720.084 68.6277 720.812 67.0093 721.459M62.1572 717.873C61.7946 722.044 63.4418 725.625 66.0483 728.913C67.7779 731.096 70.8578 733.719 73.7601 732.429M77.3464 725.257C79.5882 727.582 82.7104 729.828 83.2065 733.226C83.6999 736.607 83.0084 740.383 80.9562 743.153C80.1749 744.208 79.2902 745.063 77.9793 744.876M74.6039 739.18C73.763 742.376 73.1544 745.616 75.0024 748.627C77.3108 752.387 81.0644 753.457 85.152 753.947M87.2616 744.454C89.2268 747.293 92.0665 749.232 93.4146 752.553C94.4646 755.139 94.3885 758.162 93.7194 760.839L93.714 760.86C93.4141 762.06 92.7196 764.838 91.2699 765.128M85.9958 760.909C84.357 762.81 84.7897 765.96 86.0076 767.941C88.4856 771.973 92.3489 774.154 96.9658 774.411M101.818 766.816C102.699 767.181 103.065 767.445 103.599 768.223C104.738 769.879 106.212 771.334 107.186 773.098C109.261 776.857 109.863 785.713 104.771 787.279M98.0206 779.052C97.0762 780.663 97.2205 783.011 98.0558 784.642C99.0572 786.599 100.667 788.492 102.474 789.741C104.375 791.053 106.004 791.162 108.147 791.077M118.695 782.005C121.11 782.934 123.09 786.639 124.039 788.85C125.106 791.335 125.433 794.422 124.016 796.843C123.16 798.305 121.923 799.588 120.57 800.593C119.567 801.338 119.079 801.271 118.062 801.625M112.155 792.764C112.114 793.511 111.726 794.209 111.522 794.921C111.051 796.562 110.853 798.61 111.241 800.289C112.257 804.682 119.431 805.824 123.125 806.055M130.298 794.663C131.205 794.461 131.627 794.988 132.149 795.671C133.129 796.95 134.372 797.933 135.478 799.093C136.87 800.553 137.831 802.348 137.541 804.414C137.342 805.828 136.888 807.256 136.193 808.504C135.612 809.548 135.27 809.451 134.517 810.063" stroke="#36615D" stroke-width="4" stroke-linecap="round"/>
<path d="M15.5867 677.707C23.5263 652.347 32.0621 656.761 34.1035 655.876C50.3147 652.392 53.742 676.649 64.5804 710.471C75.4189 744.293 84.8115 754.772 94.1868 788.015C97.3333 799.173 93.4957 807.306 86.5545 812.73C88.3125 815.372 91.3292 821.656 89.3323 825.656C86.8361 830.655 73.7981 840.598 60.3863 836.339C49.6568 832.932 49.4958 824.429 50.7564 820.603C45.6807 819.754 41.4386 818.03 38.9497 815.506C26.9656 803.353 7.64707 703.068 15.5867 677.707Z" fill="#527976"/>
<path d="M50.7564 820.603C45.6807 819.754 41.4386 818.03 38.9497 815.506C26.9656 803.353 7.64707 703.068 15.5867 677.707C23.5263 652.347 32.0621 656.761 34.1035 655.876C50.3147 652.392 53.742 676.649 64.5804 710.471C75.4189 744.293 84.8115 754.772 94.1868 788.015C97.3333 799.173 93.4957 807.306 86.5545 812.73M50.7564 820.603C49.4958 824.429 49.6568 832.932 60.3863 836.339C73.7981 840.598 86.8361 830.655 89.3323 825.656C91.3292 821.656 88.3125 815.372 86.5545 812.73M50.7564 820.603C61.9176 822.47 77.1094 820.109 86.5545 812.73" stroke="#36615D" stroke-width="4" stroke-linecap="round"/>
<path d="M24.8039 671.984C25.2965 674.276 26.1418 676.425 26.4818 678.767C26.9186 681.774 26.2267 686.4 23.1305 687.921" stroke="#36615D" stroke-width="4" stroke-linecap="round"/>
<path d="M18.1588 685.874C18.5985 687.92 18.1301 690.014 18.4289 692.11C19.0876 696.73 21.8378 699.081 26.4443 699.388" stroke="#36615D" stroke-width="4" stroke-linecap="round"/>
<path d="M29.749 694.996C29.4006 695.612 29.7788 696.302 30.0176 696.905C30.6376 698.472 31.0253 700.316 31.0015 701.996C30.9671 704.43 29.1004 712.988 25.4846 712.057" stroke="#36615D" stroke-width="4" stroke-linecap="round"/>
<path d="M20.5509 708.868C20.7165 710.063 20.0454 710.713 19.7511 711.81C19.2501 713.676 18.4758 715.697 18.4071 717.637C18.229 722.662 21.0937 724.437 25.5116 725.363" stroke="#36615D" stroke-width="4" stroke-linecap="round"/>
<path d="M28.8364 722.383C29.7768 721.415 31.1066 726.411 31.1587 726.746C31.7546 730.569 30.8686 733.585 27.3934 735.438" stroke="#36615D" stroke-width="4" stroke-linecap="round"/>
<path d="M23.254 734.628C23.159 735.841 22.8975 736.867 22.6328 738.035C22.1864 740.003 22.5316 742.452 22.8385 744.41C23.6312 749.471 27.7883 750.627 32.0833 751.991" stroke="#36615D" stroke-width="4" stroke-linecap="round"/>
<path d="M33.9359 744.795C36.129 744.603 37.9165 748.755 38.383 750.26C39.3012 753.22 39.6915 756.606 37.7962 759.245C36.2218 761.437 34.0893 762.278 31.6449 763.131" stroke="#36615D" stroke-width="4" stroke-linecap="round"/>
<path d="M26.5189 761.684C26.7105 762.858 26.4347 763.923 26.2415 765.079C25.8234 767.581 25.5761 770.331 26.1138 772.833C26.7536 775.81 28.9349 777.571 31.6324 778.743C32.7877 779.246 36.0271 780.248 36.8763 779.568" stroke="#36615D" stroke-width="4" stroke-linecap="round"/>
<path d="M38.0711 771.947C40.4161 773.559 42.2672 776.098 43.0992 778.797C44.7375 784.11 42.5974 788.2 37.8498 790.688" stroke="#36615D" stroke-width="4" stroke-linecap="round"/>
<path d="M33.7485 788.737C34.307 791.609 33.482 794.47 34.1918 797.39C35.3261 802.057 39.3189 803.35 43.5823 804.184" stroke="#36615D" stroke-width="4" stroke-linecap="round"/>
<path d="M47.4463 797.123C50.5471 797.191 51.5713 800.073 52.2696 802.726C53.2204 806.339 54.2948 811.337 50.3955 813.483" stroke="#36615D" stroke-width="4" stroke-linecap="round"/>
<path d="M34.783 670.972C32.4261 669.978 32.2342 677.907 32.3097 678.647C32.6258 681.745 34.0347 683.352 36.7755 684.784C37.7596 685.299 40.1188 686.635 41.1354 686.035" stroke="#36615D" stroke-width="4" stroke-linecap="round"/>
<path d="M41.9989 674.237C43.2389 672.545 47.2073 678.563 47.5568 679.305C49.2212 682.84 50.8561 687.723 49.8031 691.662C49.3527 693.347 48.1346 695.294 46.3241 695.683" stroke="#36615D" stroke-width="4" stroke-linecap="round"/>
<path d="M38.8601 697.853C32.7314 700.759 36.8487 712.911 43.4135 712.453" stroke="#36615D" stroke-width="4" stroke-linecap="round"/>
<path d="M48.2642 706.029C50.062 706.227 50.7739 712.46 50.8408 713.626C51.1192 718.475 49.179 721.437 44.3667 722.161" stroke="#36615D" stroke-width="4" stroke-linecap="round"/>
<path d="M38.5649 722.841C36.4201 729.681 37.7841 738.966 46.0405 740.495" stroke="#36615D" stroke-width="4" stroke-linecap="round"/>
<path d="M50.3297 732.775C53.0863 734.139 54.2979 737.057 54.6543 740.013C55.2665 745.091 53.1298 748.451 48.7927 750.666" stroke="#36615D" stroke-width="4" stroke-linecap="round"/>
<path d="M44.9846 754.034C44.811 758.368 44.2597 763.16 46.7273 767.05C49.0213 770.665 53.248 771.032 57.0626 770.698" stroke="#36615D" stroke-width="4" stroke-linecap="round"/>
<path d="M59.9399 762.999C62.8726 764.929 65.2916 767.048 65.7895 770.742C66.4481 775.629 65.0224 780.03 61.4795 783.344" stroke="#36615D" stroke-width="4" stroke-linecap="round"/>
<path d="M54.2659 784.045C54.5399 783.986 53.9644 784.622 53.8796 784.883C53.4151 786.311 53.1054 787.924 53.0936 789.426C53.0416 796.028 57.4748 798.103 63.3256 798.525" stroke="#36615D" stroke-width="4" stroke-linecap="round"/>
<path d="M69.3959 793.822C71.1607 795.116 72.8057 798.015 73.4308 800.004C74.4121 803.128 73.5811 805.584 71.6584 808.159C70.701 809.44 69.4576 811.086 67.8008 811.442" stroke="#36615D" stroke-width="4" stroke-linecap="round"/>
<path d="M59.5836 715.209C59.9195 717.342 58.4765 720.012 58.1102 722.119C57.2374 727.138 61.186 730.92 65.3766 732.941" stroke="#36615D" stroke-width="4" stroke-linecap="round"/>
<path d="M70.9681 736.554C73.7209 741.606 77.145 749.376 71.8677 753.921" stroke="#36615D" stroke-width="4" stroke-linecap="round"/>
<path d="M66.1778 747.214C64.4307 750.15 65.5489 753.927 66.306 757.036C67.2093 760.746 69.6378 766.113 73.7899 766.82" stroke="#36615D" stroke-width="4" stroke-linecap="round"/>
<path d="M79.2604 761.963C81.5692 764.779 84.1891 766.909 85.5671 770.442C86.5952 773.078 87.3377 775.962 85.9854 778.613C84.9747 780.595 83.3253 782.16 81.167 781.379" stroke="#36615D" stroke-width="4" stroke-linecap="round"/>
<path d="M76.9672 776.334C75.4752 778.933 75.4739 783.823 76.2317 786.531C77.2737 790.255 79.8262 792.698 82.954 794.748C84.3172 795.642 87.0349 797.759 88.4479 796.809" stroke="#36615D" stroke-width="4" stroke-linecap="round"/>
<path d="M61.3503 827.557C60.9197 825.553 62.4997 831.518 63.4424 833.338" stroke="#36615D" stroke-width="4" stroke-linecap="round"/>
<path d="M71.0765 824.05C71.4702 825.882 71.587 829.043 73.2268 830.103" stroke="#36615D" stroke-width="4" stroke-linecap="round"/>
<path d="M81.8097 822.594C81.9804 823.388 82.7107 825.997 82.0827 826.5" stroke="#36615D" stroke-width="4" stroke-linecap="round"/>
<path opacity="0.2" d="M630.144 739.333C629.572 737.093 630.673 734.139 633.964 730.322C649.634 712.144 679.67 711.779 692.728 713.868C701.977 715.55 711.001 720.164 713.202 725.229M630.144 739.333C634.333 747.289 678.011 744.364 699.388 737.766C711.592 733.999 714.654 728.684 713.202 725.229M630.144 739.333L631.613 745.993C637.974 757.768 700.743 758.418 715.059 735.415C714.275 732.673 715.478 729.617 713.202 725.229M674.707 715.517C674.768 715.422 674.843 715.343 674.93 715.277M674.93 715.277C675.3 714.998 675.876 714.957 676.44 714.976M674.93 715.277C674.686 715.355 674.311 715.485 674.037 715.63M674.93 715.277C675.075 715.231 675.173 715.204 675.177 715.203C675.597 715.117 676.018 715.041 676.44 714.976M676.44 714.976C676.895 714.992 677.343 715.047 677.667 715.047H678.18M676.44 714.976C677.439 714.822 678.445 714.733 679.46 714.733C680.743 714.733 678.551 715.716 678.259 715.795C677.619 715.968 674.569 716.651 674.237 715.987M678.18 715.047H679.382C679.44 715.047 679.484 715.048 679.516 715.05M678.18 715.047C677.979 715.08 677.824 715.108 677.78 715.116C676.808 715.3 675.853 715.49 674.864 715.517C674.005 715.54 674.963 715.517 675.281 715.517C676.273 715.517 677.368 715.652 678.364 715.457M678.18 715.047C678.789 714.947 679.825 714.805 679.516 715.05M679.516 715.05C679.67 715.061 679.528 715.096 679.367 715.142M679.516 715.05C679.488 715.072 679.45 715.097 679.399 715.125C679.39 715.13 679.379 715.136 679.367 715.142M679.367 715.142C679.291 715.163 679.211 715.187 679.156 715.212C679.09 715.241 679.024 715.268 678.958 715.292M679.367 715.142C679.282 715.184 679.141 715.235 678.958 715.292M678.958 715.292C678.765 715.363 678.567 715.417 678.364 715.457M678.958 715.292C678.791 715.344 678.589 715.4 678.364 715.457M678.364 715.457C676.944 715.813 674.582 716.185 674.037 715.63M674.037 715.63C673.935 715.525 673.897 715.388 673.941 715.212C674.174 714.28 680.23 714.316 680.192 715.047C680.139 716.047 677.728 716.116 677.145 716.135C676.347 716.161 674.643 716.473 673.862 716.126C673.54 715.983 673.72 715.797 674.037 715.63ZM675.961 722.255C677.42 722.114 678.814 721.942 680.279 721.942C681.38 721.942 681.717 722.503 681.976 723.57C682.209 724.525 682.161 725.364 681.036 725.537C679.395 725.79 677.743 725.91 676.082 725.859C674.389 725.808 673.202 723.636 674.803 722.568C676.508 721.432 678.928 720.945 680.818 721.785M657.626 717.711C658.435 717.435 659.197 717.158 659.964 716.935M659.964 716.935C660.931 716.653 661.906 716.457 662.997 716.457C663.289 716.457 663.561 716.46 663.232 716.788C662.463 717.558 661.174 718.065 660.185 718.494C659.289 718.883 658.221 719.103 657.243 719.121C656.945 719.126 655.938 719.308 656.398 718.79C657.448 717.609 658.431 717.007 659.964 716.935ZM659.964 716.935C660.07 716.93 660.179 716.927 660.29 716.927M658.409 726.016C659.639 725.498 660.993 725.146 662.336 725.085C663.167 725.047 664.367 724.857 665.069 725.407C665.573 725.801 665.978 726.615 665.74 727.27C665.346 728.353 662.868 728.625 661.944 728.837C660.992 729.055 657.137 730.587 656.72 728.959C656.323 727.407 657.03 726.789 658.409 726.329M691.161 714.26C699.258 716.871 711.69 723.27 696.646 727.971C677.841 733.848 647.284 736.982 640.624 734.24C633.964 731.497 644.15 710.342 691.161 714.26Z" stroke="#A1B190" stroke-width="4" stroke-linecap="round"/>
<path d="M623.144 746.333C622.572 744.093 623.673 741.139 626.964 737.322C642.634 719.144 672.67 718.779 685.728 720.868C694.977 722.55 704.001 727.164 706.202 732.229M623.144 746.333C627.333 754.289 671.011 751.364 692.388 744.766C704.592 740.999 707.654 735.684 706.202 732.229M623.144 746.333L624.613 752.993C630.974 764.768 693.743 765.418 708.059 742.415C707.275 739.673 708.478 736.617 706.202 732.229" stroke="#5E3628" stroke-width="4" stroke-linecap="round"/>
<path d="M689.646 734.971C704.69 730.27 692.258 723.871 684.161 721.26C637.15 717.342 626.964 738.497 633.624 741.24C640.284 743.982 670.841 740.848 689.646 734.971Z" stroke="#5E3628" stroke-width="4" stroke-linecap="round"/>
<path d="M667.707 722.517C668.238 721.696 669.848 722.047 670.667 722.047C671.239 722.047 671.81 722.047 672.382 722.047C672.861 722.047 672.354 722.124 672.156 722.212C670.975 722.737 669.544 722.517 668.281 722.517C667.963 722.517 667.005 722.54 667.864 722.517C668.853 722.49 669.808 722.3 670.78 722.116C670.968 722.081 673.199 721.675 672.399 722.125C671.784 722.471 666.579 723.66 666.941 722.212C667.174 721.28 673.23 721.316 673.192 722.047C673.139 723.047 670.728 723.116 670.145 723.135C669.347 723.161 667.643 723.473 666.862 723.126C666.098 722.786 668.159 722.207 668.177 722.203C669.592 721.914 671.016 721.733 672.46 721.733C673.743 721.733 671.551 722.716 671.259 722.795C670.619 722.968 667.569 723.651 667.237 722.987" stroke="#5E3628" stroke-width="4" stroke-linecap="round"/>
<path d="M668.961 729.255C670.42 729.114 671.814 728.942 673.279 728.942C674.38 728.942 674.717 729.503 674.976 730.57C675.209 731.525 675.161 732.364 674.036 732.537C672.395 732.79 670.743 732.91 669.082 732.859C667.389 732.808 666.202 730.636 667.803 729.568C669.508 728.432 671.928 727.945 673.818 728.785" stroke="#5E3628" stroke-width="4" stroke-linecap="round"/>
<path d="M650.626 724.711C652.455 724.089 654.039 723.457 655.997 723.457C656.289 723.457 656.561 723.46 656.232 723.788C655.463 724.558 654.174 725.065 653.185 725.494C652.289 725.883 651.221 726.103 650.243 726.121C649.945 726.126 648.938 726.308 649.398 725.79C650.521 724.527 651.566 723.927 653.29 723.927" stroke="#5E3628" stroke-width="4" stroke-linecap="round"/>
<path d="M651.409 733.016C652.639 732.498 653.993 732.146 655.336 732.085C656.167 732.047 657.367 731.857 658.069 732.407C658.573 732.801 658.978 733.615 658.74 734.27C658.346 735.353 655.868 735.625 654.944 735.837C653.992 736.055 650.137 737.587 649.72 735.959C649.323 734.407 650.03 733.789 651.409 733.329" stroke="#5E3628" stroke-width="4" stroke-linecap="round"/>
<path d="M1170.71 926.315C1185.23 911.099 1210.48 905.133 1222.15 902.539C1233.82 899.946 1235.12 899.225 1246.36 899.081C1275.76 902.539 1280.51 905.565 1306.02 914.643C1326.42 921.906 1338.15 934.961 1341.46 940.58L1354.43 947.497L1356.59 949.658L1344.92 954.414C1343.19 958.016 1339.3 965.653 1337.57 967.382C1335.84 969.111 1322.73 979.63 1316.39 984.674L1275.76 1005.42L1270.57 1011.04L1261.92 1017.09L1254.14 1009.75H1245.06L1225.61 1002.83C1193.45 992.801 1160.05 968.103 1147.37 957.007L1136.56 947.497H1154.72C1155.87 945.912 1156.18 941.531 1170.71 926.315Z" fill="#527976"/>
<path d="M1221.75 902.567C1227.19 900.44 1232.66 899.337 1238.51 899.081C1256.48 898.294 1274.14 901.978 1291.03 907.98C1306.45 913.458 1322.52 921.492 1335.11 932.055C1338.02 934.491 1340.98 937.605 1342.56 940.759M1343.34 940.759C1343.5 942.036 1348.35 943.054 1349.34 943.487C1351.54 944.452 1355.6 946.609 1356.79 948.748C1357.61 950.226 1355.88 950.605 1354.73 950.805C1351.68 951.338 1348.51 952.45 1346.07 954.399M1345.29 954.789C1343.86 957.018 1342.65 959.442 1341.33 961.739C1336.29 970.482 1329.6 975.814 1321.13 981.116C1310.04 988.049 1298.75 995.797 1286.57 1000.67C1285.64 1001.04 1275.26 1005.32 1275.53 1005.45M1274.75 1005.84C1272.37 1010.08 1267.44 1014.77 1263.28 1017.14C1262.01 1017.86 1261.66 1016.39 1260.53 1015.61C1259.33 1014.77 1258.35 1014.03 1257.43 1012.86C1256.77 1012.02 1256.3 1010.86 1255.27 1010.52M1253.71 1009.35C1254.88 1009.35 1249.63 1009.74 1248.81 1009.67C1243.82 1009.26 1238.9 1007.55 1234.18 1005.97C1225.48 1003.07 1217.07 999.385 1208.8 995.449C1191.72 987.32 1174.19 978.766 1158.57 968.039C1153.55 964.592 1150.37 961.68 1147.7 956.348M1146.92 955.958C1145.03 955.84 1142.74 953.52 1141.08 952.689C1139.43 951.866 1137.32 951.557 1136.1 950.026C1134.95 948.59 1144.15 946.462 1144.41 946.432C1146.21 946.225 1154.47 944.551 1155.5 946.605M1155.5 945.825C1157.26 943.552 1158.7 941.045 1160.26 938.637C1163.41 933.802 1166.89 929.856 1171.2 926.037C1180.73 917.573 1190.76 911.294 1203 907.417C1205.56 906.607 1208.14 905.899 1210.71 905.122C1212.42 904.604 1214.16 903.199 1215.93 902.978C1217.94 902.727 1220.1 902.957 1222.14 902.957M1143.42 950.502C1147.87 950.502 1152.22 951.281 1156.67 951.281M1160.17 954.789C1160.49 957.64 1164.84 960.282 1166.89 961.501C1178.63 968.475 1191.59 973.944 1204.34 978.735C1215.9 983.076 1226.55 989.656 1238.07 993.977C1240.02 994.706 1242.24 995.563 1244.27 996.012C1245.31 996.244 1245.6 995.89 1244.74 995.319M1250.59 997.268C1252.2 997.934 1253.56 999.178 1255.35 999.216C1257.66 999.266 1259.97 999.216 1262.28 999.216C1263.77 999.216 1263.23 999.575 1263.54 1000.78C1263.69 1001.36 1265.01 1003.38 1265.01 1003.11M1268.91 996.878C1272.17 993.619 1277.6 992.338 1281.57 990.058C1288.73 985.95 1296.34 983.194 1303.63 979.428C1307.91 977.22 1311.49 973.356 1315.09 970.226C1317.93 967.752 1321.41 965.866 1324.51 963.731C1327.51 961.659 1330.29 960.353 1332.82 957.69C1333.95 956.503 1334.07 955.111 1334.96 953.815C1336.3 951.882 1337.89 948.972 1337.89 946.605M1230.32 939.98C1230.04 939.129 1228.05 938.648 1227.34 938.334C1224.3 936.993 1221.2 936.36 1217.92 935.909C1212.31 935.139 1204.5 933.399 1199.15 935.693M1214.74 934.524C1214.74 932.623 1214.38 930.904 1213.96 929.046C1212.36 921.973 1212.46 914.758 1212.38 907.547C1212.28 899.83 1210.45 892.311 1210.45 884.64M1211.23 880.743C1211.23 879.621 1211.49 878.877 1212.25 878.564M1212.25 878.564C1212.52 878.454 1212.85 878.398 1213.25 878.396M1212.25 878.564C1212.24 878.531 1212.22 878.5 1212.2 878.47C1211.66 877.51 1209.51 878.614 1209.31 879.741M1212.25 878.564C1212.57 879.188 1212.8 880.24 1212.81 881.215M1213.25 878.396C1213.35 878.395 1213.46 878.398 1213.57 878.405C1214.87 878.481 1214.85 883.081 1212.55 883.081C1212.5 883.081 1212.46 883.081 1212.41 883.079M1213.25 878.396C1213.11 877.907 1212.84 877.435 1212.4 877.019C1210.95 875.647 1209.28 877.655 1209.28 879.011C1209.28 879.26 1209.29 879.505 1209.31 879.741M1213.25 878.396C1213.53 879.372 1213.29 880.416 1212.81 881.215M1212.41 883.079C1211.67 883.058 1211.07 882.858 1210.62 882.523M1212.41 883.079C1212.71 882.648 1212.82 881.953 1212.81 881.215M1212.41 883.079C1212.06 883.606 1211.44 883.74 1210.45 883.081M1210.62 882.523C1209.81 881.936 1209.42 880.933 1209.31 879.741M1210.62 882.523C1211.36 882.749 1212.25 882.149 1212.81 881.215M1210.62 882.523C1210 882.336 1209.48 881.589 1209.3 880.007C1209.29 879.919 1209.3 879.83 1209.31 879.741M1221.75 934.913C1222.42 933.652 1223.03 932.537 1223.57 931.189C1227.52 921.307 1233.63 912.758 1239.18 903.758C1243.5 896.755 1245.7 889.068 1249.01 881.631C1249.68 880.111 1251.37 875.573 1251.37 877.235M1251.37 873.338C1251.37 872.864 1251.5 872.461 1251.72 872.13M1251.72 872.13C1252.23 871.379 1253.23 871 1254.27 871C1256.03 871 1255.84 873.625 1255.42 874.94C1254.38 878.179 1252.71 878.077 1251.64 876.894M1251.72 872.13C1250.1 873.038 1250.44 875.353 1251.46 876.679M1251.72 872.13C1252 871.976 1252.34 871.862 1252.73 871.801C1257.17 871.119 1253 877.942 1251.64 876.894M1251.64 876.894C1251.58 876.826 1251.52 876.754 1251.46 876.679M1251.64 876.894C1251.57 876.843 1251.51 876.771 1251.46 876.679M1251.46 876.679C1251.46 876.677 1251.46 876.675 1251.46 876.673C1251.09 876.014 1251.46 874.908 1251.87 874.337M1251.87 874.337C1252.19 873.878 1252.54 873.765 1252.54 874.507C1252.54 876.129 1251.57 875.451 1251.87 874.337ZM1251.87 874.337C1251.92 874.144 1252.01 873.938 1252.15 873.728M1293.07 946.215C1288.94 946.215 1284.19 944.888 1280.21 946.215M1287.61 944.656C1287.51 941.061 1286.75 937.609 1286.05 934.091C1284.5 926.261 1283.52 918.361 1282.35 910.47C1281.31 903.425 1279.43 895.694 1279.43 888.927M1280.21 890.486C1280.21 888.705 1280.6 886.997 1280.6 885.203C1280.6 883.508 1281.38 882.003 1281.38 880.353C1280.56 878.627 1280.92 876.796 1279.77 875.07C1279.25 874.287 1278.31 873.567 1278.26 872.559C1278.23 871.969 1278.4 871.655 1277.87 871.39M1277.09 871.779C1277.09 875.053 1275.14 877.852 1275.14 881.133M1274.75 882.302C1277.22 884.77 1278.65 888.548 1280.21 891.655M1161.73 943.877C1162.95 947.155 1164.73 950.597 1166.41 953.62M1171.09 957.517C1179.17 961.559 1186.74 966.354 1195.16 969.858C1202.62 972.96 1210.07 975.469 1217.77 977.869C1223 979.5 1227.98 982.068 1233.44 982.848M1330.09 934.524C1333.62 937.325 1333.73 940.842 1333.6 945.176C1333.39 952.3 1327.24 957.753 1321.52 961.024M1272.41 988.304C1269.7 989.942 1266.26 990.505 1263.75 992.375C1262.9 993.008 1261.32 994.611 1260.14 993.955C1259.27 993.473 1258 993.813 1257.04 993.544C1254.81 992.92 1252.93 992.591 1250.59 992.591" stroke="#36615D" stroke-width="4" stroke-linecap="round"/>
<path opacity="0.2" d="M958.149 1103.84C958.263 1103.87 958.376 1103.9 958.488 1103.93M958.488 1103.93C958.636 1103.97 958.782 1104.01 958.926 1104.04M958.488 1103.93C956.857 1103.59 954.659 1103.84 953.621 1103.84C951.137 1103.84 948.791 1103.54 946.533 1104.71C944.035 1106.01 941.121 1106.75 938.91 1108.53C936.643 1110.35 934.581 1113.52 933.551 1116.22C932.333 1119.41 932.462 1122.92 933.082 1126.22C933.637 1129.16 934.208 1131.98 936.124 1134.4C937.654 1136.34 940.126 1137.74 942.241 1138.94L942.34 1139C944.341 1140.13 946.443 1141.24 948.744 1141.6C953.656 1142.36 958.26 1141.64 962.383 1138.84C970.512 1133.3 975.315 1122.24 969.55 1113.33C967.632 1110.36 965.348 1107.89 962.651 1105.64C961.522 1104.69 960.286 1104.39 958.926 1104.04M958.488 1103.93C958.64 1103.96 958.786 1104 958.926 1104.04M958.926 1104.04C959.563 1104.24 960.071 1104.55 960.319 1105.05M964.901 1108.18C964.85 1107.31 964.013 1106.91 963.374 1106.43C959.811 1103.72 956.563 1100.62 952.991 1097.92C947.66 1093.88 942.038 1090.24 936.847 1086.02C935.106 1084.61 933.351 1083.21 931.515 1081.92C931.243 1081.73 930.99 1081.41 930.658 1081.41M929.211 1080.69C926.656 1080.96 924.051 1080.65 921.48 1080.7C917.723 1080.79 914.594 1081.59 911.432 1083.68C908.961 1085.31 906.801 1087.54 905.39 1090.15C904.049 1092.63 903.907 1095.26 902.925 1097.81M902.925 1102.39C903.936 1104.27 905.302 1105.68 906.89 1107.08C910.265 1110.08 913.46 1113.12 916.376 1116.57C920.32 1121.23 924.375 1125.88 929.237 1129.62C930.739 1130.77 932.281 1131.91 933.953 1132.81C934.225 1132.95 934.539 1133.04 934.757 1133.26M935.239 1086.24C934.443 1086.57 933.708 1086.4 932.881 1086.24C930.757 1085.83 928.498 1085.91 926.397 1086.41C921.567 1087.56 917.333 1090.35 914.5 1094.44M949.467 1096.61C944.774 1094.3 939.467 1093.93 934.677 1096.34C929.465 1098.96 922.647 1103.83 921.253 1109.87M933.069 1106.25C928.543 1108.34 924.786 1112.47 924.146 1117.59M928.487 1092.51C924.83 1093.06 920.878 1094.61 918.519 1097.6C915.956 1100.85 914.983 1105.59 914.983 1109.63M910.159 1092.03C909.128 1093.59 907.829 1095.17 907.748 1097.12C907.728 1097.59 907.546 1098.56 907.989 1098.78M956.22 1113.49C961.835 1113.49 965.798 1118.12 966.054 1123.62C966.387 1130.78 957.083 1137.03 950.647 1133.37C948.208 1131.98 945.688 1129.95 945.247 1127.06C944.871 1124.59 944.293 1121.41 945.957 1119.28C948.32 1116.24 951.844 1114.4 955.496 1113.49M922.458 1079.97C918.72 1077.81 914.568 1076.5 910.401 1078.52C908.512 1079.44 906.924 1080.6 905.202 1081.79C904.082 1082.56 902.587 1083.54 901.96 1084.79C901.068 1086.57 900.923 1088.37 901.424 1090.23L901.427 1090.24C901.663 1091.11 902.496 1094.2 903.407 1094.2M945.368 1093.95C944.047 1092.34 943.349 1090.64 942.42 1088.78C941.166 1086.27 939.897 1083.84 938.857 1081.23C937.341 1077.42 936.686 1073.15 936.686 1069.06C936.686 1066.59 936.442 1065.31 939.044 1064.53C941.882 1063.68 944.304 1064.22 947.002 1065.44C951.871 1067.65 955.4 1072.11 958.685 1076.16C962.725 1081.15 966.65 1086.27 970.555 1091.36C972.313 1093.65 974.306 1095.47 974.306 1098.48C974.306 1098.99 973.474 1101.1 973.101 1099.98M972.618 1100.47C972.533 1101.23 968.714 1104.89 968.036 1103.71C966.419 1100.88 964.274 1098.69 963.454 1095.41C963.235 1094.54 964.826 1094.44 965.491 1094.44C966.649 1094.44 965.886 1096.24 966.831 1096.79C967.686 1097.3 968.122 1097.57 968.653 1096.74C968.965 1096.25 969.419 1096.3 969.818 1095.99C970.223 1095.68 969.966 1094.39 969.966 1093.95M937.892 1067.67C937.892 1066.52 938.718 1065.53 939.982 1065.5C941.493 1065.47 943.519 1065.19 944.979 1065.63C946.263 1066.02 948.03 1067.77 948.396 1069.06C948.944 1071 947.679 1072.8 946.078 1073.8C942.521 1076.03 937.892 1074.32 937.892 1069.97C937.892 1067.49 939.809 1066.22 942.233 1066.22M927.764 1081.9C927.694 1079.4 927.019 1077.03 926.678 1074.57C925.977 1069.5 925.352 1064.49 925.352 1059.36C925.352 1056.71 925.376 1054.07 925.165 1051.43C925.084 1050.42 924.931 1049.98 925.352 1051.03M925.593 1045C926.572 1045 927.766 1045.29 928.38 1046.15C929.171 1047.26 929.046 1050.97 927.71 1051.59C923.418 1053.6 920.236 1045.58 925.352 1045.48C929.785 1045.4 925.48 1052.38 924.388 1048.8C923.952 1047.38 924.206 1046.56 925.781 1046.69C926.397 1046.74 926.185 1049 924.629 1048.38M918.118 1084.79C913.528 1079.63 909.201 1074.24 904.787 1068.93C903.983 1067.96 898.221 1062.3 899.308 1060.67M896.173 1056.58C896.212 1056.47 896.27 1056.38 896.344 1056.29M896.344 1056.29C896.995 1055.55 898.863 1055.57 899.736 1055.91C901.355 1056.52 902.425 1060.7 900.018 1060.9C899.611 1060.94 898.688 1060.76 897.784 1060.45M896.344 1056.29C895.98 1056.46 895.645 1056.71 895.369 1057.06C894.872 1057.68 895.328 1059.04 895.717 1059.58C896.258 1060.33 896.975 1060.46 897.784 1060.45M896.344 1056.29C897.808 1055.63 899.722 1056.38 899.991 1058.13C900.099 1058.83 899.897 1059.35 899.532 1059.69M897.784 1060.45C897.484 1060.34 897.185 1060.22 896.908 1060.08M897.784 1060.45C897.962 1060.44 898.144 1060.43 898.33 1060.42C898.898 1060.38 899.297 1060.09 899.532 1059.69M896.908 1060.08C896.683 1059.97 896.472 1059.85 896.286 1059.73M896.908 1060.08C897.736 1060.38 898.888 1060.3 899.532 1059.69M896.908 1060.08C896.666 1060 896.452 1059.88 896.286 1059.73M896.286 1059.73C895.676 1059.31 895.334 1058.81 895.637 1058.26C895.929 1057.74 898.052 1056.55 898.705 1056.84C899.766 1057.32 900.06 1058.79 899.532 1059.69M896.286 1059.73C896.066 1059.53 895.931 1059.28 895.931 1058.99M931.348 1129.96C930.517 1131.23 930.179 1132.46 928.783 1133.23C924.67 1135.5 919.515 1134.4 915.389 1132.82C909.226 1130.45 904.103 1126.85 899.635 1121.97C895.484 1117.44 892.41 1112.16 888.892 1107.17C886.267 1103.44 883.472 1099.98 879.061 1098.4C875.043 1096.96 868.999 1095.6 865.305 1098.51C863.144 1100.21 861.057 1104.38 861.001 1107.06C860.94 1109.98 864.5 1111.7 866.889 1112.3M903.767 1094.63C902.792 1097.68 901.863 1101.71 904.387 1104.24" stroke="#A1B190" stroke-width="4" stroke-linecap="round"/>
<path d="M969.149 1110.84C970.819 1111.29 972.31 1111.52 973.651 1112.64C976.348 1114.89 978.632 1117.36 980.55 1120.33C986.315 1129.24 981.512 1140.3 973.383 1145.84C969.26 1148.64 964.656 1149.36 959.744 1148.6C957.443 1148.24 955.341 1147.13 953.34 1146C951.203 1144.78 948.678 1143.37 947.124 1141.4C945.208 1138.98 944.637 1136.16 944.082 1133.22C943.462 1129.92 943.333 1126.41 944.551 1123.22C945.581 1120.52 947.643 1117.35 949.91 1115.53C952.121 1113.75 955.035 1113.01 957.533 1111.71C959.791 1110.54 962.137 1110.84 964.621 1110.84C966.192 1110.84 970.426 1110.26 971.319 1112.05" stroke="#5E3628" stroke-width="4" stroke-linecap="round"/>
<path d="M975.901 1115.18C975.85 1114.31 975.013 1113.91 974.374 1113.43C970.811 1110.72 967.563 1107.62 963.991 1104.92C958.66 1100.88 953.038 1097.24 947.847 1093.02C946.106 1091.61 944.351 1090.21 942.515 1088.92C942.243 1088.73 941.99 1088.41 941.658 1088.41" stroke="#5E3628" stroke-width="4" stroke-linecap="round"/>
<path d="M940.211 1087.69C937.656 1087.96 935.051 1087.65 932.48 1087.7C928.723 1087.79 925.594 1088.59 922.432 1090.68C919.961 1092.31 917.801 1094.54 916.39 1097.15C915.049 1099.63 914.907 1102.26 913.925 1104.81" stroke="#5E3628" stroke-width="4" stroke-linecap="round"/>
<path d="M913.925 1109.39C914.936 1111.27 916.302 1112.68 917.89 1114.08C921.265 1117.08 924.46 1120.12 927.376 1123.57C931.32 1128.23 935.375 1132.88 940.237 1136.62C941.739 1137.77 943.281 1138.91 944.953 1139.81C945.225 1139.95 945.539 1140.04 945.757 1140.26" stroke="#5E3628" stroke-width="4" stroke-linecap="round"/>
<path d="M946.239 1093.24C945.443 1093.57 944.708 1093.4 943.881 1093.24C941.757 1092.83 939.498 1092.91 937.397 1093.41C932.567 1094.56 928.333 1097.35 925.5 1101.44" stroke="#5E3628" stroke-width="4" stroke-linecap="round"/>
<path d="M960.467 1103.61C955.774 1101.3 950.467 1100.93 945.677 1103.34C940.465 1105.96 933.647 1110.83 932.253 1116.87" stroke="#5E3628" stroke-width="4" stroke-linecap="round"/>
<path d="M944.069 1113.25C939.543 1115.34 935.786 1119.47 935.146 1124.59" stroke="#5E3628" stroke-width="4" stroke-linecap="round"/>
<path d="M939.487 1099.51C935.83 1100.06 931.878 1101.61 929.519 1104.6C926.956 1107.85 925.983 1112.59 925.983 1116.63" stroke="#5E3628" stroke-width="4" stroke-linecap="round"/>
<path d="M921.159 1099.03C920.128 1100.59 918.829 1102.17 918.748 1104.12C918.728 1104.59 918.546 1105.56 918.989 1105.78" stroke="#5E3628" stroke-width="4" stroke-linecap="round"/>
<path d="M967.22 1120.49C972.835 1120.49 976.798 1125.12 977.054 1130.62C977.387 1137.78 968.083 1144.03 961.647 1140.37C959.208 1138.98 956.688 1136.95 956.247 1134.06C955.871 1131.59 955.293 1128.41 956.957 1126.28C959.32 1123.24 962.844 1121.4 966.496 1120.49" stroke="#5E3628" stroke-width="4" stroke-linecap="round"/>
<path d="M933.458 1086.97C929.72 1084.81 925.568 1083.5 921.401 1085.52C919.512 1086.44 917.924 1087.6 916.202 1088.79C915.082 1089.56 913.587 1090.54 912.96 1091.79C912.068 1093.57 911.923 1095.37 912.424 1097.23C912.657 1098.09 913.493 1101.2 914.407 1101.2" stroke="#5E3628" stroke-width="4" stroke-linecap="round"/>
<path d="M956.368 1100.95C955.047 1099.34 954.349 1097.64 953.42 1095.78C952.166 1093.27 950.897 1090.84 949.857 1088.23C948.341 1084.42 947.686 1080.15 947.686 1076.06C947.686 1073.59 947.442 1072.31 950.044 1071.53C952.882 1070.68 955.304 1071.22 958.002 1072.44C962.871 1074.65 966.4 1079.11 969.685 1083.16C973.725 1088.15 977.65 1093.27 981.555 1098.36C983.313 1100.65 985.306 1102.47 985.306 1105.48C985.306 1105.99 984.474 1108.1 984.101 1106.98" stroke="#5E3628" stroke-width="4" stroke-linecap="round"/>
<path d="M983.618 1107.47C983.533 1108.23 979.714 1111.89 979.036 1110.71C977.419 1107.88 975.274 1105.69 974.454 1102.41C974.235 1101.54 975.826 1101.44 976.491 1101.44C977.649 1101.44 976.886 1103.24 977.831 1103.79C978.686 1104.3 979.122 1104.57 979.653 1103.74C979.965 1103.25 980.419 1103.3 980.818 1102.99C981.223 1102.68 980.966 1101.39 980.966 1100.95" stroke="#5E3628" stroke-width="4" stroke-linecap="round"/>
<path d="M948.892 1074.67C948.892 1073.52 949.718 1072.53 950.982 1072.5C952.493 1072.47 954.519 1072.19 955.979 1072.63C957.263 1073.02 959.03 1074.77 959.396 1076.06C959.944 1078 958.679 1079.8 957.078 1080.8C953.521 1083.03 948.892 1081.32 948.892 1076.97C948.892 1074.49 950.809 1073.22 953.233 1073.22" stroke="#5E3628" stroke-width="4" stroke-linecap="round"/>
<path d="M938.764 1088.9C938.694 1086.4 938.019 1084.03 937.678 1081.57C936.977 1076.5 936.352 1071.49 936.352 1066.36C936.352 1063.71 936.376 1061.07 936.165 1058.43C936.084 1057.42 935.931 1056.98 936.352 1058.03" stroke="#5E3628" stroke-width="4" stroke-linecap="round"/>
<path d="M936.593 1052C937.572 1052 938.766 1052.29 939.38 1053.15C940.171 1054.26 940.046 1057.97 938.71 1058.59C934.418 1060.6 931.236 1052.58 936.352 1052.48C940.785 1052.4 936.48 1059.38 935.388 1055.8C934.952 1054.38 935.206 1053.56 936.781 1053.69C937.397 1053.74 937.185 1056 935.629 1055.38" stroke="#5E3628" stroke-width="4" stroke-linecap="round"/>
<path d="M929.118 1091.79C924.528 1086.63 920.201 1081.24 915.787 1075.93C914.983 1074.96 909.221 1069.3 910.308 1067.67" stroke="#5E3628" stroke-width="4" stroke-linecap="round"/>
<path d="M907.173 1063.58C907.559 1062.54 909.765 1062.54 910.736 1062.91C912.355 1063.52 913.425 1067.7 911.018 1067.9C910.004 1067.99 905.789 1066.79 906.637 1065.26C906.929 1064.74 909.052 1063.55 909.705 1063.84C911.24 1064.53 911.171 1067.3 909.33 1067.42C908.297 1067.49 907.377 1067.49 906.717 1066.58C906.328 1066.04 905.872 1064.68 906.369 1064.06C907.756 1062.31 910.655 1062.95 910.991 1065.13C911.422 1067.93 906.931 1067.68 906.931 1065.99" stroke="#5E3628" stroke-width="4" stroke-linecap="round"/>
<path d="M942.348 1136.96C941.517 1138.23 941.179 1139.46 939.783 1140.23C935.67 1142.5 930.515 1141.4 926.389 1139.82C920.226 1137.45 915.103 1133.85 910.635 1128.97C906.484 1124.44 903.41 1119.16 899.892 1114.17C897.267 1110.44 894.472 1106.98 890.061 1105.4C886.043 1103.96 879.999 1102.6 876.305 1105.51C874.144 1107.21 872.057 1111.38 872.001 1114.06C871.94 1116.98 875.5 1118.7 877.889 1119.3" stroke="#5E3628" stroke-width="4" stroke-linecap="round"/>
<path d="M914.767 1101.63C913.792 1104.68 912.863 1108.71 915.387 1111.24" stroke="#5E3628" stroke-width="4" stroke-linecap="round"/>
<path opacity="0.2" d="M1150.27 159C1153.19 160.175 1156.04 161.328 1158.69 163.047C1161.8 165.067 1166.54 168.301 1166.65 172.507C1166.74 175.799 1162.55 176.739 1160.02 176.81C1155.4 176.94 1150.82 176.656 1146.8 174.146C1144.24 172.544 1142.16 170.435 1141.08 167.572C1140.49 166.014 1139.81 163.363 1141.06 161.946C1143.03 159.714 1147.05 159.154 1149.81 159.154M1166.71 174.829C1166.66 176.281 1166.13 177.672 1165.71 179.056C1165.48 179.848 1165.02 182.264 1165.02 181.438M1139.51 162.227C1138.58 163.474 1138.61 164.892 1138.25 166.36C1137.93 167.641 1137.64 169.039 1137.05 170.219M1135.98 171.448C1135.98 175.09 1138.37 177.381 1141.35 179.124C1143.86 180.586 1146.34 181.664 1149.04 182.701C1150.94 183.431 1152.92 184.29 1154.96 184.511C1157.25 184.758 1160.22 185.663 1162.38 184.392C1163.91 183.483 1163.74 182.059 1164.25 180.515M1166.25 179.747C1167.49 179.484 1169.15 181.412 1169.93 182.223C1171.67 184.022 1172.7 186.154 1172.83 188.661C1172.94 190.796 1171.98 193.598 1169.81 194.466C1167.97 195.202 1165.66 195.188 1163.72 195.423C1161.68 195.669 1159.64 195.982 1157.59 196.106C1153.32 196.363 1149.34 194.694 1145.45 193.117C1142.68 191.994 1140.41 190.243 1138.09 188.387C1137.12 187.605 1136.04 186.948 1135.09 186.133C1133.47 184.747 1132.15 183.011 1130.8 181.369C1129.37 179.627 1128.4 177.754 1127.4 175.751C1126.48 173.894 1125.2 170.837 1125.75 168.682C1125.95 167.873 1126.61 166.899 1127.31 166.445C1127.94 166.04 1128.76 165.478 1129.47 165.224C1131.11 164.636 1133.27 164.963 1134.87 165.523C1135.76 165.834 1136.75 166.139 1137.6 166.53C1137.77 166.611 1138.7 166.991 1138.13 166.991M1124.71 168.153C1118.9 178.286 1114.83 189.452 1110.27 200.175C1106.47 209.087 1102.78 218.046 1099.45 227.144C1098.54 229.629 1097.57 232.081 1096.56 234.524C1096.4 234.896 1096.19 235.838 1096.19 234.967M1171.38 193.881C1170.31 197.217 1168.77 200.416 1167.53 203.698C1164.62 211.402 1161.23 218.968 1157.42 226.269C1153.9 233.036 1150.12 239.663 1146.54 246.402C1144.88 249.541 1143.62 253.179 1141.67 256.108M1096.59 234.767C1096.54 237.322 1095.39 239.6 1096.04 242.191C1097.45 247.846 1103 252.439 1107.16 256.197C1110.66 259.356 1114.22 261.502 1118.69 262.889C1121.91 263.888 1125.1 264.414 1128.46 264.729C1132.01 265.061 1136.71 264.421 1139.16 261.482C1139.86 260.642 1140.86 259.506 1141.22 258.457C1141.58 257.437 1142.66 256.376 1142.66 255.31M1096.59 247.133C1096.55 247.874 1094.57 252.518 1094.4 252.518M1126.31 265.681C1125.61 266.604 1124.88 267.49 1124.27 268.474C1124.08 268.775 1123.4 270.516 1123.12 269.67M1094 253.715C1094 256.831 1096.53 259.381 1098.62 261.427C1102.01 264.737 1105.56 267.462 1110.07 269.072C1111.36 269.535 1112.6 270.044 1113.94 270.379C1114.86 270.607 1115.71 270.585 1116.63 270.767C1117.51 270.943 1118.9 271.416 1119.73 270.867M1118.33 180.917C1118.81 181.926 1118.73 182.937 1118.93 184.02C1119.63 187.704 1120.76 191.041 1122.82 194.214C1127.89 202.031 1138.15 207.675 1147.45 205.25M1154.23 214.225C1144.57 221.368 1128.77 221.449 1119.53 213.626M1151.64 233.97C1151.29 235.906 1150.2 237.949 1148.65 239.188C1146.84 240.633 1144.68 241.547 1142.53 242.346C1139.73 243.39 1136.85 244.357 1133.89 244.85C1127.06 245.988 1120.86 243.84 1114.73 240.961C1112.93 240.116 1111.08 239.209 1109.47 238.025C1109.05 237.717 1107.96 237.008 1107.96 236.562M1104.97 216.219C1104.97 219.306 1107.68 221.683 1110.14 223.2C1114.41 225.824 1119.01 226.974 1123.92 227.587M1148.05 225.593C1146.03 226.236 1144.16 227.315 1142.12 227.875C1139.95 228.474 1137.72 228.585 1135.48 228.585M1132.29 252.518C1129.14 252.499 1124.96 252.543 1122.12 250.922M1151.44 232.574C1151.3 234.048 1150.44 235.55 1149.88 236.895C1149.28 238.34 1148.76 239.924 1148.45 241.46C1147.78 244.761 1147.55 248.439 1148.4 251.72C1149.3 255.183 1151.92 258.655 1154.61 260.939C1158.06 263.871 1163.1 265.652 1167.54 266.246C1172.36 266.892 1177.65 266.691 1181.96 264.174C1185.9 261.867 1189.15 258.152 1190.75 253.848C1193 247.804 1192.45 240.428 1191.73 234.158C1190.83 226.364 1189.39 218.267 1190.86 210.446C1192.05 204.11 1194.37 198.075 1198.72 193.205C1202.04 189.486 1206.58 187.031 1211.51 186.424C1215.42 185.942 1218.88 188.41 1218.85 192.441C1218.83 195.783 1217.84 198.902 1216.88 202.07C1216.07 204.737 1214.89 207.203 1213.28 209.465M1213.28 209.465C1213.07 209.762 1212.85 210.056 1212.63 210.347C1211.22 212.153 1209.59 213.954 1207.55 215.056C1207.5 215.085 1207.41 215.118 1207.32 215.154M1213.28 209.465C1212.11 210.382 1210.97 211.326 1209.77 212.142C1208.91 212.724 1208.19 213.223 1207.68 214.136C1207.58 214.321 1207.48 214.834 1207.32 215.154M1213.28 209.465C1215.37 207.821 1217.53 206.264 1220.16 205.693C1223.89 204.885 1227.88 206.484 1228.99 210.313C1230.59 215.831 1225.7 219.711 1221.32 221.881C1218.17 223.448 1214.94 224.652 1211.54 225.571C1209.43 226.14 1207.49 226.836 1205.81 228.297C1204.64 229.316 1203.16 230.739 1203.18 232.418C1203.22 234.348 1204.72 235.819 1206.09 236.961M1207.32 215.154C1206.9 215.304 1206.29 215.481 1207.04 215.421C1207.15 215.413 1207.24 215.305 1207.32 215.154Z" stroke="#A1B190" stroke-width="4" stroke-linecap="round"/>
<path d="M1141.27 167C1144.19 168.175 1147.04 169.328 1149.69 171.047C1152.8 173.067 1157.54 176.301 1157.65 180.507C1157.74 183.799 1153.55 184.739 1151.02 184.81C1146.4 184.94 1141.82 184.656 1137.8 182.146C1135.24 180.544 1133.16 178.435 1132.08 175.572C1131.49 174.014 1130.81 171.363 1132.06 169.946C1134.03 167.714 1138.05 167.154 1140.81 167.154" stroke="#5E3628" stroke-width="4" stroke-linecap="round"/>
<path d="M1157.71 182.829C1157.66 184.281 1157.13 185.672 1156.71 187.056C1156.48 187.848 1156.02 190.264 1156.02 189.438" stroke="#5E3628" stroke-width="4" stroke-linecap="round"/>
<path d="M1130.51 170.227C1129.58 171.474 1129.61 172.892 1129.25 174.36C1128.93 175.641 1128.64 177.039 1128.05 178.219" stroke="#5E3628" stroke-width="4" stroke-linecap="round"/>
<path d="M1126.98 179.448C1126.98 183.09 1129.37 185.381 1132.35 187.124C1134.86 188.586 1137.34 189.664 1140.04 190.701C1141.94 191.431 1143.92 192.29 1145.96 192.511C1148.25 192.758 1151.22 193.663 1153.38 192.392C1154.91 191.483 1154.74 190.059 1155.25 188.515" stroke="#5E3628" stroke-width="4" stroke-linecap="round"/>
<path d="M1157.25 187.747C1158.49 187.484 1160.15 189.412 1160.93 190.223C1162.67 192.022 1163.7 194.154 1163.83 196.661C1163.94 198.796 1162.98 201.598 1160.81 202.466C1158.97 203.202 1156.66 203.188 1154.72 203.423C1152.68 203.669 1150.64 203.982 1148.59 204.106C1144.32 204.363 1140.34 202.694 1136.45 201.117C1133.68 199.994 1131.41 198.243 1129.09 196.387C1128.12 195.605 1127.04 194.948 1126.09 194.133C1124.47 192.747 1123.15 191.011 1121.8 189.369C1120.37 187.627 1119.4 185.754 1118.4 183.751C1117.48 181.894 1116.2 178.837 1116.75 176.682C1116.95 175.873 1117.61 174.899 1118.31 174.445C1118.94 174.04 1119.76 173.478 1120.47 173.224C1122.11 172.636 1124.27 172.963 1125.87 173.523C1126.76 173.834 1127.75 174.139 1128.6 174.53C1128.77 174.611 1129.7 174.991 1129.13 174.991" stroke="#5E3628" stroke-width="4" stroke-linecap="round"/>
<path d="M1115.71 176.153C1109.9 186.286 1105.83 197.452 1101.27 208.175C1097.47 217.087 1093.78 226.046 1090.45 235.144C1089.54 237.629 1088.57 240.081 1087.56 242.524C1087.4 242.896 1087.19 243.838 1087.19 242.967" stroke="#5E3628" stroke-width="4" stroke-linecap="round"/>
<path d="M1162.38 201.881C1161.31 205.217 1159.77 208.416 1158.53 211.698C1155.62 219.402 1152.23 226.968 1148.42 234.269C1144.9 241.036 1141.12 247.663 1137.54 254.402C1135.88 257.541 1134.62 261.179 1132.67 264.108" stroke="#5E3628" stroke-width="4" stroke-linecap="round"/>
<path d="M1087.59 242.767C1087.54 245.322 1086.39 247.6 1087.04 250.191C1088.45 255.846 1094 260.439 1098.16 264.197C1101.66 267.356 1105.22 269.502 1109.69 270.889C1112.91 271.888 1116.1 272.414 1119.46 272.729C1123.01 273.061 1127.71 272.421 1130.16 269.482C1130.86 268.642 1131.86 267.506 1132.22 266.457C1132.58 265.437 1133.66 264.376 1133.66 263.31" stroke="#5E3628" stroke-width="4" stroke-linecap="round"/>
<path d="M1087.59 255.133C1087.55 255.874 1085.57 260.518 1085.4 260.518" stroke="#5E3628" stroke-width="4" stroke-linecap="round"/>
<path d="M1117.31 273.681C1116.61 274.604 1115.88 275.49 1115.27 276.474C1115.08 276.775 1114.4 278.516 1114.12 277.67" stroke="#5E3628" stroke-width="4" stroke-linecap="round"/>
<path d="M1085 261.715C1085 264.831 1087.53 267.381 1089.62 269.427C1093.01 272.737 1096.56 275.462 1101.07 277.072C1102.36 277.535 1103.6 278.044 1104.94 278.379C1105.86 278.607 1106.71 278.585 1107.63 278.767C1108.51 278.943 1109.9 279.416 1110.73 278.867" stroke="#5E3628" stroke-width="4" stroke-linecap="round"/>
<path d="M1109.33 188.917C1109.81 189.926 1109.73 190.937 1109.93 192.02C1110.63 195.704 1111.76 199.041 1113.82 202.214C1118.89 210.031 1129.15 215.675 1138.45 213.25" stroke="#5E3628" stroke-width="4" stroke-linecap="round"/>
<path d="M1145.23 222.225C1135.57 229.368 1119.77 229.449 1110.53 221.626" stroke="#5E3628" stroke-width="4" stroke-linecap="round"/>
<path d="M1142.64 241.97C1142.29 243.906 1141.2 245.949 1139.65 247.188C1137.84 248.633 1135.68 249.547 1133.53 250.346C1130.73 251.39 1127.85 252.357 1124.89 252.85C1118.06 253.988 1111.86 251.84 1105.73 248.961C1103.93 248.116 1102.08 247.209 1100.47 246.025C1100.05 245.717 1098.96 245.008 1098.96 244.562" stroke="#5E3628" stroke-width="4" stroke-linecap="round"/>
<path d="M1095.97 224.219C1095.97 227.306 1098.68 229.683 1101.14 231.2C1105.41 233.824 1110.01 234.974 1114.92 235.587" stroke="#5E3628" stroke-width="4" stroke-linecap="round"/>
<path d="M1139.05 233.593C1137.03 234.236 1135.16 235.315 1133.12 235.875C1130.95 236.474 1128.72 236.585 1126.48 236.585" stroke="#5E3628" stroke-width="4" stroke-linecap="round"/>
<path d="M1123.29 260.518C1120.14 260.499 1115.96 260.543 1113.12 258.922" stroke="#5E3628" stroke-width="4" stroke-linecap="round"/>
<path d="M1142.44 240.574C1142.3 242.048 1141.44 243.55 1140.88 244.895C1140.28 246.34 1139.76 247.924 1139.45 249.46C1138.78 252.761 1138.55 256.439 1139.4 259.72C1140.3 263.183 1142.92 266.655 1145.61 268.939C1149.06 271.871 1154.1 273.652 1158.54 274.246C1163.36 274.892 1168.65 274.691 1172.96 272.174C1176.9 269.867 1180.15 266.152 1181.75 261.848C1184 255.804 1183.45 248.428 1182.73 242.158C1181.83 234.364 1180.39 226.267 1181.86 218.446C1183.05 212.11 1185.37 206.075 1189.72 201.205C1193.04 197.486 1197.58 195.031 1202.51 194.424C1206.42 193.942 1209.88 196.41 1209.85 200.441C1209.83 203.783 1208.84 206.902 1207.88 210.07C1206.97 213.088 1205.57 215.848 1203.63 218.347C1202.22 220.153 1200.59 221.954 1198.55 223.056C1198.27 223.208 1197.11 223.495 1198.04 223.421C1198.38 223.394 1198.53 222.409 1198.68 222.136C1199.19 221.223 1199.91 220.724 1200.77 220.142C1204.12 217.863 1207.06 214.582 1211.16 213.693C1214.89 212.885 1218.88 214.484 1219.99 218.313C1221.59 223.831 1216.7 227.711 1212.32 229.881C1209.17 231.448 1205.94 232.652 1202.54 233.571C1200.43 234.14 1198.49 234.836 1196.81 236.297C1195.64 237.316 1194.16 238.739 1194.18 240.418C1194.22 242.348 1195.72 243.819 1197.09 244.961" stroke="#5E3628" stroke-width="4" stroke-linecap="round"/>
<path d="M607.67 752C602.277 752.535 595.926 752.436 591 754.899" stroke="#5E3628" stroke-width="4" stroke-linecap="round"/>
<path d="M618.179 766.133C616.47 769.552 615.503 773.297 613.83 776.642" stroke="#5E3628" stroke-width="4" stroke-linecap="round"/>
<path d="M962.092 806C959.805 808.286 957.689 811.262 955.206 813.248" stroke="#5E3628" stroke-width="4" stroke-linecap="round"/>
<path d="M944.335 817.234C942.08 815.195 939.874 813.069 937.369 811.335C936.737 810.898 936.234 810.689 936 809.986" stroke="#5E3628" stroke-width="4" stroke-linecap="round"/>
<path d="M956.656 825.931C959.852 828.861 964.128 830.504 967.165 833.541" stroke="#5E3628" stroke-width="4" stroke-linecap="round"/>
<path d="M946.872 828.105C943.959 830.616 940.454 832.813 938.899 836.44" stroke="#5E3628" stroke-width="4" stroke-linecap="round"/>
<path d="M133.426 1052.94C133.426 1058.08 134.799 1062.24 139.219 1065.39C141.901 1067.3 144.933 1067.17 148.084 1067.17C149.031 1067.17 151.859 1066.89 150.912 1066.89C147.465 1066.89 144.719 1071.59 143.826 1074.34C143.067 1076.68 142.446 1079.81 143.233 1082.22C143.764 1083.84 145.108 1085.15 146.289 1086.33" stroke="#5E3628" stroke-width="4" stroke-linecap="round"/>
<path d="M132.058 1054.03C132.178 1055.35 132.847 1056.66 133.167 1057.94C134.011 1061.31 134.168 1065.53 132.863 1068.79C131.852 1071.32 130.596 1073.72 127.922 1074.71C127.539 1074.85 126.049 1075.1 126.371 1075.1C131.331 1075.1 134.819 1075.67 138.337 1079.48C140.408 1081.73 146.258 1088.76 144.1 1086.6" stroke="#5E3628" stroke-width="4" stroke-linecap="round"/>
<path d="M1267.18 652.599C1266.98 659.767 1264.73 666.39 1270.82 671.923C1272.29 673.264 1273.72 675.45 1275.65 676.093C1276.87 676.501 1276.55 676.196 1275.65 676.465C1270.85 677.885 1267.11 679.647 1264.58 684.269C1262.52 688.028 1260.87 692.121 1260.87 696.449" stroke="#5E3628" stroke-width="4" stroke-linecap="round"/>
<path d="M1265.33 652.599C1263.81 654.445 1263.93 657.479 1263.3 659.659C1262.15 663.626 1260.23 666.712 1257.69 669.899C1256.07 671.929 1253.39 674.212 1250.83 674.896C1250.51 674.982 1246.33 675.497 1246.62 675.866C1247.59 677.109 1249.4 677.756 1250.67 678.632C1253.23 680.397 1254.6 682.118 1255.85 684.95C1257.83 689.438 1259.75 693.67 1259.75 698.679" stroke="#5E3628" stroke-width="4" stroke-linecap="round"/>
<path d="M1258.03 709.007C1257.35 711.88 1257.64 714.849 1257.19 717.764" stroke="#5E3628" stroke-width="4" stroke-linecap="round"/>
<path d="M1285.96 677.316C1289.23 677.984 1292.22 678.567 1295.56 678.567" stroke="#5E3628" stroke-width="4" stroke-linecap="round"/>
<path d="M1267.62 634.367V641.872" stroke="#5E3628" stroke-width="4" stroke-linecap="round"/>
<path d="M1235.93 673.146C1233.57 672.49 1231.02 672.15 1228.84 671.062" stroke="#5E3628" stroke-width="4" stroke-linecap="round"/>
<path d="M1292 48C1292.1 45.0749 1291.72 41.4077 1293 39" stroke="#5E3628" stroke-width="4" stroke-linecap="round"/>
<path d="M1297 50.5C1299.36 50.5 1301.68 50.1875 1304 51.4663" stroke="#5E3628" stroke-width="4" stroke-linecap="round"/>
<path d="M1286.5 51.5C1283.99 51.5 1281.92 51.5 1279.5 51.5" stroke="#5E3628" stroke-width="4" stroke-linecap="round"/>
<path d="M1292 55C1293.16 57.3784 1292.99 60.4552 1292.99 63" stroke="#5E3628" stroke-width="4" stroke-linecap="round"/>
<path d="M864 262C860.925 262.564 857.987 262.652 855 264" stroke="#5E3628" stroke-width="4" stroke-linecap="round"/>
<path d="M849 262C848.087 259.176 845.726 256.796 845 254" stroke="#5E3628" stroke-width="4" stroke-linecap="round"/>
<path d="M854 270C854.587 270.073 855.035 271.734 855.333 272.185C856.442 273.863 857.678 275.489 859 277" stroke="#5E3628" stroke-width="4" stroke-linecap="round"/>
<path d="M847 270C844.341 270.652 841.699 271.562 839 272" stroke="#5E3628" stroke-width="4" stroke-linecap="round"/>
<path d="M171 538C172.441 541.659 171.901 553.002 171.901 549.249" stroke="#5E3628" stroke-width="4" stroke-linecap="round"/>
<path d="M176 553.822C179.676 554.505 183.33 553 187 553" stroke="#5E3628" stroke-width="4" stroke-linecap="round"/>
<path d="M171 558C172.622 561.083 173 564.689 173 568" stroke="#5E3628" stroke-width="4" stroke-linecap="round"/>
<path d="M168 554C166.08 554.954 163.72 554.603 161.71 554.685C160.13 554.75 158.583 555 157 555" stroke="#5E3628" stroke-width="4" stroke-linecap="round"/>
<path d="M377.5 89.5C151.44 -15.9565 46 140 46 210.5C26.0897 429.947 224.88 337.25 412.695 355.191C664.242 379.219 707.977 243.667 377.5 89.5Z" fill="#527976"/>
<path d="M402.508 379.06C407.5 373.5 394.057 354.655 291.288 370.067C227.899 379.573 340.143 430.702 402.508 379.06Z" fill="#527976"/>
<path d="M422.413 163.826C410.949 154.819 398.663 146.796 387.738 137.132C387.124 136.589 372.874 123.851 372.326 125.084C368.302 134.138 360.496 141.308 352.695 147.131C347.978 150.652 333.303 160.487 338.202 157.221M423.514 164.376C423.514 166.407 422.477 168.101 421.587 169.88C417.843 177.368 413.027 184.491 407.919 191.101C403.047 197.406 397.395 203.472 391.285 208.592C389.239 210.306 386.446 213.609 383.885 214.463M336 158.872C337.402 161.295 339.569 163.392 341.321 165.569C347.86 173.7 354.428 181.778 360.86 190.001C366.27 196.917 371.574 203.916 377.035 210.794C378.666 212.847 380.169 215.666 382.234 217.215M363.52 130.252C366.297 133.029 369.574 137.805 369.574 141.81M358.016 133.554C360.976 136.843 363.218 141.95 364.07 146.213M380.032 205.106C378.391 207.896 374.614 209.899 371.776 211.16M414.706 167.491C414.427 167.526 414.286 168.098 414.286 166.652M409.177 189.623C418.434 194.714 426.857 204.916 424.346 216.122C423.344 220.593 421.762 225.122 419.155 228.921C416.633 232.597 413.18 235.566 409.485 238.011C402.118 242.885 391.936 244.439 383.377 242.028C370.103 238.289 364.291 223.909 365.351 211.18C365.615 208.019 365.846 205.488 367.579 202.801C367.803 202.455 368.006 201.535 368.006 201.142M409.817 189.196C410.442 187.459 412.526 186.697 414.083 185.996C415.672 185.281 418.256 184.504 419.914 185.522C421.359 186.409 421.524 188.861 421.324 190.357C421.242 190.971 420.572 191.454 420.163 191.862C419.761 192.264 418.97 192.909 420.056 192.396C423.401 190.816 427.914 192.083 429.229 195.809C429.89 197.683 430.134 200.564 428.352 201.9C427.619 202.45 426.942 202.919 426.076 203.228C425.268 203.516 426.182 203.488 426.55 203.488C428.78 203.488 429.871 203.702 431.623 205.195C433.405 206.714 434.348 208.64 434.348 210.955C434.348 213.328 432.515 214.402 430.343 215.008C429.695 215.188 429.078 215.217 428.421 215.22M428.421 215.22C428.351 215.221 428.281 215.221 428.21 215.221C427.547 215.221 428.071 215.202 428.421 215.22ZM428.421 215.22C428.48 215.223 428.534 215.227 428.577 215.233C430.02 215.413 431.823 217.206 432.381 218.468C433.23 220.385 433.424 223.066 432.713 225.057C431.994 227.071 430.119 229.323 427.688 229.039C426.923 228.95 425.955 228.749 425.294 228.328C424.845 228.042 424.627 227.553 424.109 227.38M424.322 228.873C426.541 228.997 428.043 232.078 427.937 233.993C427.7 238.255 421.59 239.118 418.361 238.888C417.989 238.861 417.084 238.749 416.51 238.454M416.51 238.454C416.253 238.322 416.062 238.153 416.015 237.939C415.877 237.319 416.285 238.018 416.51 238.454ZM416.51 238.454C416.577 238.585 416.628 238.692 416.643 238.734C417.466 241.049 417.773 245.563 415.031 246.579C413.401 247.183 409.918 247.379 408.643 245.82C408.104 245.161 408.323 245.113 408.323 246.105C408.323 247.034 408.482 248.04 407.873 248.819C405.944 251.283 403.34 250.646 400.691 249.992C399.302 249.649 398.286 248.877 397.136 248.084C396.274 247.49 396.005 246.846 395.311 246.152M367.793 199.862C367.762 200.076 366.505 199.348 366.252 199.269C365.466 199.026 364.438 198.993 363.621 199.009C361.575 199.048 359.562 202.2 359.153 203.927C358.859 205.17 358.503 206.793 359.189 207.968C359.54 208.57 360.004 209.125 360.587 209.509C360.838 209.674 361.644 210.084 360.919 210.101C359.923 210.125 358.858 209.871 358.027 210.528C357.059 211.294 356.508 212.018 356.167 213.194C355.397 215.846 355.554 218.665 357.956 220.317C358.237 220.51 360.056 221.407 359.58 221.407C359.122 221.407 358.721 222.257 358.241 222.474C356.016 223.48 356.406 227.318 357.233 229.099C358.487 231.799 360.987 232.5 363.74 232.5M363.953 232.926C363.953 234.9 362.885 238.048 364.154 239.741C365.112 241.018 365.296 241.774 367.034 242.194C367.914 242.406 369.102 242.518 369.76 241.933C369.854 241.85 369.921 244.13 369.926 244.375C369.958 245.862 371.197 247.108 372.486 247.752C373.864 248.442 377.312 249.936 378.672 248.712C379.229 248.211 380.031 247.898 380.545 247.385C380.979 246.95 381.187 248.8 381.564 249.245C383.416 251.435 386.163 252.125 388.911 252.125C390.441 252.125 390.953 251.924 392.064 250.893C392.616 250.38 393.205 249.818 393.379 249.032C393.51 248.446 393.686 248.183 394.031 247.752C394.252 247.477 394.46 246.898 394.671 246.792M409.177 197.729C410.092 198.47 411.984 199.537 412.377 200.715M416.643 207.968C416.711 208.582 417.455 209.219 417.662 209.841C417.846 210.391 417.923 211.435 417.923 212.021M415.79 218.847C415.75 220.151 415.209 221.367 414.462 222.426C414.128 222.901 413.487 223.394 413.443 224.014C413.439 224.079 413.443 224.711 413.443 224.394M407.257 229.94C406.032 231.495 404.115 232.287 402.137 232.287M392.111 233.14C392.038 234.312 387.638 233.853 386.778 233.566M379.312 229.94C378.468 229.771 377.001 228.544 376.326 227.973C375.694 227.438 375.299 226.227 374.619 225.887M370.779 219.061C371.207 218.58 370.964 217.785 370.779 217.247C370.55 216.584 370.729 215.786 370.353 215.221" stroke="#5F928E" stroke-width="3" stroke-linecap="round"/>
<path d="M255 44.5C195.4 39.7 136.5 65.1667 114.5 78.5C2.49998 136 7.99998 285.5 62.5 340C106.1 383.6 205.333 376.5 249.5 367.5C260.7 401.9 311.5 410.5 335.5 410.5C407.1 402.5 422.667 378.5 421.5 367.5C478 375.5 564 360.5 595.5 340C627 319.5 652.5 280 564 189.5C475.5 99 329.5 50.5 255 44.5Z" stroke="#527976" stroke-width="3" stroke-dasharray="10 10"/>
<path d="M97.9 207.25H100.21C101.75 207.25 103.29 206.62 104.83 205.36C106.37 204.053 107.817 201.977 109.17 199.13C110.43 196.47 111.41 193.273 112.11 189.54C112.81 185.807 113.37 180.207 113.79 172.74L114.7 157.69L107.28 154.61V153H148.23V154.54L141.72 155.52V207.25H147.74L148.79 224.4H146.69L139.41 209H106.23L98.95 224.4H96.85L97.9 207.25ZM134.02 207.25V154.75H116.8L115.68 172.74C115.167 180.44 114.56 186.203 113.86 190.03C113.16 193.81 112.203 197.077 110.99 199.83C110.243 201.51 109.45 202.91 108.61 204.03C107.817 205.103 107.093 205.92 106.44 206.48C105.787 207.04 105.46 207.297 105.46 207.25H134.02ZM169.949 209.7C166.589 209.7 163.532 208.93 160.779 207.39C158.025 205.803 155.832 203.587 154.199 200.74C152.612 197.847 151.819 194.557 151.819 190.87C151.819 187.183 152.612 183.917 154.199 181.07C155.832 178.223 158.025 176.03 160.779 174.49C163.532 172.903 166.589 172.11 169.949 172.11C173.309 172.11 176.365 172.903 179.119 174.49C181.872 176.03 184.042 178.223 185.629 181.07C187.262 183.917 188.079 187.183 188.079 190.87C188.079 194.557 187.262 197.847 185.629 200.74C184.042 203.587 181.872 205.803 179.119 207.39C176.365 208.93 173.309 209.7 169.949 209.7ZM169.949 208.16C173.402 208.16 175.992 206.9 177.719 204.38C179.492 201.86 180.379 198.523 180.379 194.37V187.37C180.379 183.217 179.492 179.903 177.719 177.43C175.992 174.91 173.402 173.65 169.949 173.65C166.495 173.65 163.882 174.91 162.109 177.43C160.382 179.903 159.519 183.217 159.519 187.37V194.37C159.519 198.523 160.382 201.86 162.109 204.38C163.882 206.9 166.495 208.16 169.949 208.16ZM213.315 209.7C207.761 209.7 203.235 207.74 199.735 203.82C196.281 199.9 194.555 193.857 194.555 185.69C194.555 176.683 196.305 169.8 199.805 165.04C203.305 160.28 208.205 157.9 214.505 157.9H220.105C222.438 157.9 224.165 157.503 225.285 156.71C226.405 155.87 226.965 154.633 226.965 153H228.645C228.645 155.94 228.318 158.273 227.665 160C227.058 161.727 226.055 162.987 224.655 163.78C223.301 164.527 221.435 164.9 219.055 164.9H213.315C202.208 164.9 196.655 171.83 196.655 185.69H197.075C198.101 181.723 200.085 178.573 203.025 176.24C205.965 173.907 209.395 172.74 213.315 172.74C216.441 172.74 219.335 173.51 221.995 175.05C224.655 176.59 226.778 178.76 228.365 181.56C229.951 184.36 230.745 187.58 230.745 191.22C230.745 194.86 229.951 198.08 228.365 200.88C226.778 203.68 224.655 205.85 221.995 207.39C219.335 208.93 216.441 209.7 213.315 209.7ZM213.315 208.02C216.581 208.02 219.008 206.83 220.595 204.45C222.228 202.07 223.045 198.827 223.045 194.72V187.72C223.045 183.613 222.228 180.37 220.595 177.99C219.008 175.61 216.581 174.42 213.315 174.42C210.048 174.42 207.598 175.61 205.965 177.99C204.378 180.37 203.585 183.613 203.585 187.72V194.72C203.585 198.827 204.378 202.07 205.965 204.45C207.598 206.83 210.048 208.02 213.315 208.02ZM235.249 227.41L240.149 226.71V174.91L235.249 174.21V172.81H247.149V180.16C248.316 177.64 249.879 175.68 251.839 174.28C253.846 172.833 256.226 172.11 258.979 172.11C262.293 172.11 265.209 172.903 267.729 174.49C270.249 176.03 272.209 178.223 273.609 181.07C275.009 183.87 275.709 187.16 275.709 190.94C275.709 194.72 275.009 198.033 273.609 200.88C272.209 203.68 270.249 205.85 267.729 207.39C265.209 208.93 262.293 209.7 258.979 209.7C256.226 209.7 253.846 209 251.839 207.6C249.879 206.153 248.316 204.193 247.149 201.72V226.71L253.729 227.41V228.81H235.249V227.41ZM258.279 207.95C264.766 207.95 268.009 203.447 268.009 194.44V187.44C268.009 178.387 264.766 173.86 258.279 173.86C256.226 173.86 254.359 174.467 252.679 175.68C250.999 176.847 249.669 178.433 248.689 180.44C247.709 182.447 247.196 184.617 247.149 186.95V194.44C247.149 196.82 247.616 199.06 248.549 201.16C249.529 203.213 250.859 204.87 252.539 206.13C254.266 207.343 256.179 207.95 258.279 207.95ZM299.831 209.7C296.471 209.7 293.415 208.93 290.661 207.39C287.908 205.803 285.715 203.587 284.081 200.74C282.495 197.847 281.701 194.557 281.701 190.87C281.701 187.183 282.495 183.917 284.081 181.07C285.715 178.223 287.908 176.03 290.661 174.49C293.415 172.903 296.471 172.11 299.831 172.11C303.191 172.11 306.248 172.903 309.001 174.49C311.755 176.03 313.925 178.223 315.511 181.07C317.145 183.917 317.961 187.183 317.961 190.87C317.961 194.557 317.145 197.847 315.511 200.74C313.925 203.587 311.755 205.803 309.001 207.39C306.248 208.93 303.191 209.7 299.831 209.7ZM299.831 208.16C303.285 208.16 305.875 206.9 307.601 204.38C309.375 201.86 310.261 198.523 310.261 194.37V187.37C310.261 183.217 309.375 179.903 307.601 177.43C305.875 174.91 303.285 173.65 299.831 173.65C296.378 173.65 293.765 174.91 291.991 177.43C290.265 179.903 289.401 183.217 289.401 187.37V194.37C289.401 198.523 290.265 201.86 291.991 204.38C293.765 206.9 296.378 208.16 299.831 208.16ZM101.89 304V302.6L106.79 301.9V269.84L101.89 269.14V267.74H142.49V269.14L137.59 269.84V301.9L142.49 302.6V304H126.39V302.6L130.59 301.9V269.49H113.79V301.9L117.99 302.6V304H101.89ZM165.505 304.7C162.145 304.7 159.089 303.93 156.335 302.39C153.582 300.803 151.389 298.587 149.755 295.74C148.169 292.847 147.375 289.557 147.375 285.87C147.375 282.183 148.169 278.917 149.755 276.07C151.389 273.223 153.582 271.03 156.335 269.49C159.089 267.903 162.145 267.11 165.505 267.11C168.865 267.11 171.922 267.903 174.675 269.49C177.429 271.03 179.599 273.223 181.185 276.07C182.819 278.917 183.635 282.183 183.635 285.87C183.635 289.557 182.819 292.847 181.185 295.74C179.599 298.587 177.429 300.803 174.675 302.39C171.922 303.93 168.865 304.7 165.505 304.7ZM165.505 303.16C168.959 303.16 171.549 301.9 173.275 299.38C175.049 296.86 175.935 293.523 175.935 289.37V282.37C175.935 278.217 175.049 274.903 173.275 272.43C171.549 269.91 168.959 268.65 165.505 268.65C162.052 268.65 159.439 269.91 157.665 272.43C155.939 274.903 155.075 278.217 155.075 282.37V289.37C155.075 293.523 155.939 296.86 157.665 299.38C159.439 301.9 162.052 303.16 165.505 303.16ZM192.981 304.84C191.815 304.84 190.625 304.56 189.411 304C188.198 303.487 187.148 302.717 186.261 301.69L187.311 300.64C188.151 301.48 188.968 301.9 189.761 301.9C190.461 301.9 190.998 301.643 191.371 301.13C191.745 300.57 192.071 299.543 192.351 298.05L193.541 291.89C193.961 289.417 194.871 287.573 196.271 286.36C197.718 285.147 199.981 284.4 203.061 284.12C202.035 283.187 201.265 281.647 200.751 279.5L199.421 274.46C199.048 273.153 198.301 272.5 197.181 272.5C196.621 272.5 196.155 272.71 195.781 273.13C195.408 273.55 195.221 274.063 195.221 274.67C195.221 275.043 195.291 275.44 195.431 275.86C194.778 276.093 194.101 276.21 193.401 276.21C192.095 276.21 191.045 275.79 190.251 274.95C189.505 274.063 189.131 273.013 189.131 271.8C189.131 270.493 189.598 269.397 190.531 268.51C191.465 267.577 192.771 267.11 194.451 267.11C196.458 267.11 197.928 267.693 198.861 268.86C199.841 269.98 200.611 271.683 201.171 273.97L202.431 279.01C202.851 280.737 203.411 281.973 204.111 282.72C204.811 283.467 205.745 283.887 206.911 283.98H212.861V269.91L207.821 269.21V267.74H224.901V269.21L219.861 269.91V283.98H225.671C226.838 283.933 227.771 283.537 228.471 282.79C229.218 282.043 229.825 280.783 230.291 279.01L231.551 273.97C232.111 271.683 232.858 269.98 233.791 268.86C234.771 267.693 236.265 267.11 238.271 267.11C239.951 267.11 241.258 267.577 242.191 268.51C243.125 269.397 243.591 270.493 243.591 271.8C243.591 273.013 243.195 274.063 242.401 274.95C241.655 275.79 240.628 276.21 239.321 276.21C238.621 276.21 237.945 276.093 237.291 275.86C237.431 275.44 237.501 275.043 237.501 274.67C237.501 274.063 237.315 273.55 236.941 273.13C236.568 272.71 236.101 272.5 235.541 272.5C234.421 272.5 233.675 273.153 233.301 274.46L231.971 279.5C231.458 281.6 230.665 283.14 229.591 284.12C232.671 284.4 234.935 285.147 236.381 286.36C237.828 287.573 238.761 289.417 239.181 291.89L240.371 298.05C240.651 299.543 240.978 300.57 241.351 301.13C241.725 301.643 242.261 301.9 242.961 301.9C243.755 301.9 244.571 301.48 245.411 300.64L246.461 301.69C245.575 302.717 244.525 303.487 243.311 304C242.098 304.56 240.908 304.84 239.741 304.84C237.688 304.84 236.171 304.42 235.191 303.58C234.211 302.693 233.535 301.223 233.161 299.17L231.761 291.61C231.341 289.323 230.618 287.76 229.591 286.92C228.565 286.033 227.141 285.59 225.321 285.59H219.861V301.83L224.901 302.6V304H207.821V302.6L212.861 301.83V285.59H207.051C205.325 285.637 203.971 286.103 202.991 286.99C202.011 287.877 201.335 289.417 200.961 291.61L199.561 299.17C199.188 301.223 198.511 302.693 197.531 303.58C196.551 304.42 195.035 304.84 192.981 304.84ZM259.524 304.7C256.537 304.7 254.087 303.93 252.174 302.39C250.261 300.803 249.304 298.47 249.304 295.39C249.304 291.003 251.147 287.9 254.834 286.08C258.521 284.213 262.791 283.28 267.644 283.28H272.334V277.89C272.334 275.463 272.054 273.597 271.494 272.29C270.981 270.937 270.164 270.003 269.044 269.49C267.924 268.93 266.407 268.65 264.494 268.65C262.301 268.65 260.667 269.093 259.594 269.98C258.521 270.82 257.984 271.963 257.984 273.41C257.984 274.763 258.637 275.65 259.944 276.07C259.944 277.237 259.501 278.263 258.614 279.15C257.727 280.037 256.677 280.48 255.464 280.48C254.157 280.48 253.107 280.13 252.314 279.43C251.521 278.683 251.124 277.563 251.124 276.07C251.124 273.363 252.477 271.193 255.184 269.56C257.891 267.927 261.274 267.11 265.334 267.11C274.667 267.11 279.334 271.17 279.334 279.29V299.31C279.334 300.337 279.544 301.13 279.964 301.69C280.431 302.203 281.084 302.46 281.924 302.46C282.717 302.46 283.347 302.203 283.814 301.69C284.281 301.13 284.514 300.383 284.514 299.45H285.984C285.984 301.083 285.447 302.367 284.374 303.3C283.347 304.233 281.901 304.7 280.034 304.7C277.887 304.7 276.067 304.093 274.574 302.88C273.127 301.62 272.381 299.683 272.334 297.07C271.214 299.45 269.487 301.317 267.154 302.67C264.867 304.023 262.324 304.7 259.524 304.7ZM263.374 301.62C264.634 301.62 265.917 301.247 267.224 300.5C268.577 299.753 269.721 298.68 270.654 297.28C271.587 295.833 272.147 294.107 272.334 292.1V284.82H267.644C263.817 284.82 260.947 285.683 259.034 287.41C257.167 289.09 256.234 291.47 256.234 294.55C256.234 297.117 256.841 298.937 258.054 300.01C259.267 301.083 261.041 301.62 263.374 301.62ZM292.101 304.7C290.467 304.7 289.184 304.303 288.251 303.51C287.317 302.717 286.851 301.55 286.851 300.01C286.851 298.703 287.247 297.677 288.041 296.93C288.834 296.183 289.791 295.81 290.911 295.81C291.657 295.81 292.287 295.973 292.801 296.3C293.314 296.58 293.687 296.883 293.921 297.21C294.201 297.537 294.364 297.747 294.411 297.84C293.804 298.4 293.501 299.007 293.501 299.66C293.501 300.407 293.967 300.78 294.901 300.78C298.074 300.78 300.011 294.013 300.711 280.48L301.131 272.15L294.761 269.14V267.74H326.191V269.14L321.291 269.84V301.83L326.331 302.53V304H309.951V302.53L314.291 301.83V269.49H302.951L302.391 280.55C302.111 286.197 301.574 290.77 300.781 294.27C300.034 297.77 298.961 300.383 297.561 302.11C296.161 303.837 294.341 304.7 292.101 304.7ZM349.392 304.7C346.032 304.7 342.975 303.93 340.222 302.39C337.469 300.803 335.275 298.587 333.642 295.74C332.055 292.847 331.262 289.557 331.262 285.87C331.262 282.183 332.055 278.917 333.642 276.07C335.275 273.223 337.469 271.03 340.222 269.49C342.975 267.903 346.032 267.11 349.392 267.11C352.752 267.11 355.809 267.903 358.562 269.49C361.315 271.03 363.485 273.223 365.072 276.07C366.705 278.917 367.522 282.183 367.522 285.87C367.522 289.557 366.705 292.847 365.072 295.74C363.485 298.587 361.315 300.803 358.562 302.39C355.809 303.93 352.752 304.7 349.392 304.7ZM349.392 303.16C352.845 303.16 355.435 301.9 357.162 299.38C358.935 296.86 359.822 293.523 359.822 289.37V282.37C359.822 278.217 358.935 274.903 357.162 272.43C355.435 269.91 352.845 268.65 349.392 268.65C345.939 268.65 343.325 269.91 341.552 272.43C339.825 274.903 338.962 278.217 338.962 282.37V289.37C338.962 293.523 339.825 296.86 341.552 299.38C343.325 301.9 345.939 303.16 349.392 303.16ZM372.388 302.6L377.288 301.9V269.84L372.388 269.14V267.74H391.568C396.375 267.74 399.805 268.417 401.858 269.77C403.911 271.077 404.938 273.223 404.938 276.21C404.938 280.55 402.185 283.327 396.678 284.54V284.75C403.771 285.73 407.318 288.88 407.318 294.2C407.318 297.467 406.128 299.917 403.748 301.55C401.368 303.183 398.055 304 393.808 304H372.388V302.6ZM389.888 284.12C392.315 284.12 394.158 283.49 395.418 282.23C396.725 280.97 397.378 279.08 397.378 276.56V276.28C397.378 273.993 396.725 272.29 395.418 271.17C394.111 270.05 392.128 269.49 389.468 269.49H384.288V284.12H389.888ZM391.708 302.25C394.275 302.25 396.258 301.573 397.658 300.22C399.058 298.867 399.758 296.883 399.758 294.27V293.78C399.758 291.12 399.058 289.137 397.658 287.83C396.305 286.477 394.321 285.8 391.708 285.8H384.288V302.25H391.708ZM423.381 304.7C420.395 304.7 417.945 303.93 416.031 302.39C414.118 300.803 413.161 298.47 413.161 295.39C413.161 291.003 415.005 287.9 418.691 286.08C422.378 284.213 426.648 283.28 431.501 283.28H436.191V277.89C436.191 275.463 435.911 273.597 435.351 272.29C434.838 270.937 434.021 270.003 432.901 269.49C431.781 268.93 430.265 268.65 428.351 268.65C426.158 268.65 424.525 269.093 423.451 269.98C422.378 270.82 421.841 271.963 421.841 273.41C421.841 274.763 422.495 275.65 423.801 276.07C423.801 277.237 423.358 278.263 422.471 279.15C421.585 280.037 420.535 280.48 419.321 280.48C418.015 280.48 416.965 280.13 416.171 279.43C415.378 278.683 414.981 277.563 414.981 276.07C414.981 273.363 416.335 271.193 419.041 269.56C421.748 267.927 425.131 267.11 429.191 267.11C438.525 267.11 443.191 271.17 443.191 279.29V299.31C443.191 300.337 443.401 301.13 443.821 301.69C444.288 302.203 444.941 302.46 445.781 302.46C446.575 302.46 447.205 302.203 447.671 301.69C448.138 301.13 448.371 300.383 448.371 299.45H449.841C449.841 301.083 449.305 302.367 448.231 303.3C447.205 304.233 445.758 304.7 443.891 304.7C441.745 304.7 439.925 304.093 438.431 302.88C436.985 301.62 436.238 299.683 436.191 297.07C435.071 299.45 433.345 301.317 431.011 302.67C428.725 304.023 426.181 304.7 423.381 304.7ZM427.231 301.62C428.491 301.62 429.775 301.247 431.081 300.5C432.435 299.753 433.578 298.68 434.511 297.28C435.445 295.833 436.005 294.107 436.191 292.1V284.82H431.501C427.675 284.82 424.805 285.683 422.891 287.41C421.025 289.09 420.091 291.47 420.091 294.55C420.091 297.117 420.698 298.937 421.911 300.01C423.125 301.083 424.898 301.62 427.231 301.62ZM459.598 304V302.6L465.198 301.9V269.49H459.178L453.088 281.04H451.128L452.178 267.74H485.218L486.268 281.04H484.308L478.148 269.49H472.198V301.9L477.798 302.6V304H459.598ZM489.624 302.6L494.524 301.9V269.84L489.624 269.14V267.74H506.424V269.14L501.524 269.84V283H511.044C515.244 283 518.534 283.887 520.914 285.66C523.341 287.433 524.554 290.047 524.554 293.5C524.554 296.953 523.364 299.567 520.984 301.34C518.604 303.113 515.291 304 511.044 304H489.624V302.6ZM508.944 302.25C511.511 302.25 513.494 301.503 514.894 300.01C516.294 298.517 516.994 296.37 516.994 293.57V293.43C516.994 290.63 516.294 288.483 514.894 286.99C513.494 285.497 511.511 284.75 508.944 284.75H501.524V302.25H508.944ZM534.004 292.45C533.957 287.783 533.747 283.28 533.374 278.94C533.047 274.6 532.604 269.91 532.044 264.87C531.764 262.21 531.507 259.667 531.274 257.24C531.087 254.813 530.994 252.853 530.994 251.36C530.994 250.287 531.344 249.353 532.044 248.56C532.744 247.72 533.677 247.3 534.844 247.3C536.01 247.3 536.944 247.72 537.644 248.56C538.344 249.353 538.694 250.287 538.694 251.36C538.694 252.853 538.577 254.837 538.344 257.31C538.157 259.783 537.924 262.373 537.644 265.08C537.084 270.727 536.64 275.58 536.314 279.64C535.987 283.653 535.777 287.923 535.684 292.45H534.004ZM534.844 304.7C533.677 304.7 532.697 304.303 531.904 303.51C531.11 302.67 530.714 301.667 530.714 300.5C530.714 299.333 531.11 298.377 531.904 297.63C532.697 296.837 533.677 296.44 534.844 296.44C536.01 296.44 536.99 296.837 537.784 297.63C538.577 298.377 538.974 299.333 538.974 300.5C538.974 301.667 538.577 302.67 537.784 303.51C536.99 304.303 536.01 304.7 534.844 304.7Z" fill="white"/>
<path d="M187.334 58.9689C187.288 59.246 186.573 56.9182 186.447 56.5531C185.927 55.0501 185.034 53.4458 183.439 52.8554C182.294 52.431 180.691 51.8568 179.692 52.8554C176.522 56.0258 174.533 61.2005 173.677 65.4768C171.535 76.1893 171.332 87.5997 170.226 98.4603C168.66 113.836 169.142 128.984 169.142 144.336C169.142 149.788 170.029 155.168 170.029 160.68C170.029 165.275 170.473 169.73 170.473 174.337V178.331C170.473 180.32 168.982 180.183 167.613 180.574C165.248 181.25 163.596 180.606 162.486 178.109C161.824 176.619 160.526 172.562 163.373 172.562M176.836 178.147C177.361 179.262 177.89 180.68 178.166 181.88C178.753 184.431 178.634 187.024 178.618 189.628C178.579 195.966 178.135 202.312 177.345 208.602C175.704 221.674 172.125 238.965 160.322 246.833C155.745 249.885 150.377 251.389 144.939 251.838C143.405 251.965 141.824 252.034 140.443 251.442M171.747 159.823C170.609 160.246 169.629 160.332 168.438 160.332C167.436 160.332 169.202 160.796 169.47 160.841C169.847 160.904 172.184 161.924 172.072 161.986C171.246 162.445 169.622 162.114 168.693 162.114C166.67 162.114 171.086 163.309 171.435 163.697C172.664 165.062 165.778 164.404 168.184 164.404M171.492 160.078C173.989 157.807 176.873 155.525 180.018 154.281C182.507 153.296 187.992 152.026 188.897 155.949C189.937 160.455 185.462 165.915 181.417 167.232C177.583 168.481 171.959 166.112 169.965 162.623M169.202 161.35C167.532 158.134 165.15 154.336 161.736 152.81C159.181 151.668 155.427 152.957 154.13 155.468C152.685 158.264 153.289 162.717 155.374 165.026C159.111 169.165 164.419 165.42 167.929 163.132" stroke="#5F928E" stroke-width="3" stroke-linecap="round"/>
</svg>
