<svg width="561" height="88" viewBox="0 0 561 88" fill="none" xmlns="http://www.w3.org/2000/svg">
<path d="M9.34517 34.0286C9.13376 38.0982 7.57622 42.0313 6.22602 45.8436C5.72953 47.2454 4.47432 51.7612 2.16167 51.0737C-1.59868 49.9557 4.81321 37.2978 6.66711 38.9752C9.16185 41.2323 12.555 50.8887 16.0561 44.0162C17.4998 41.1823 18.729 38.0704 19.1122 34.8951C19.2144 34.0482 19.6646 32.0773 18.9862 31.3191C18.255 30.5018 17.0552 35.6138 17.017 35.7615C15.4104 41.9736 15.0637 48.3666 15.0163 54.7599C14.9976 57.2958 15.0163 59.8328 15.0163 62.3688C15.0163 63.0595 15.0651 65.081 14.8273 64.4325C13.4923 60.7915 13.578 56.0402 14.5438 52.3339C16.0301 46.6297 19.1831 41.621 22.5779 36.88C23.1141 36.1312 24.4485 33.6877 25.7916 34.4382C27.0479 35.1402 25.9951 37.9694 25.6341 38.8806C25.5355 39.1293 24.6574 40.8488 24.6574 39.6998" stroke="#5E3628" stroke-width="2" stroke-linecap="round"/>
<path d="M15.2999 47.0723C16.2144 46.7431 17.0433 46.1943 18.0095 46.0011C18.8223 45.8385 18.4156 50.0361 18.4191 50.3805C18.446 53.0883 17.9314 58.8942 20.9711 60.4311C23.259 61.5879 25.8507 56.7617 26.9258 55.2955" stroke="#5E3628" stroke-width="2" stroke-linecap="round"/>
<path d="M28.0601 51.0421C27.9786 50.3902 26.4415 53.8244 26.3902 54.4133C26.229 56.2676 26.9109 60.6607 29.7614 58.8242C32.1516 57.2844 36.0588 49.509 32.8648 47.1668C29.9484 45.0281 27.7211 52.7337 27.493 54.4448" stroke="#5E3628" stroke-width="2" stroke-linecap="round"/>
<path d="M35.9997 51.6093C35.8233 53.5507 35.4613 55.5356 35.7792 57.501C35.9095 58.3065 36.4781 59.0444 37.2443 59.3441C38.3321 59.7698 39.4212 56.4962 39.7175 55.9099C40.8851 53.6002 41.8148 51.1848 42.9627 48.8682C43.0532 48.6855 44.0175 46.8104 43.9394 46.8518C42.3461 47.6953 41.7639 50.4984 41.6867 52.0819C41.6221 53.4052 41.9921 59.9495 44.1284 59.864C45.5835 59.8058 46.8163 56.6545 47.3421 55.6736C48.5953 53.3359 50.1629 50.9997 51.1229 48.5216C52.2634 45.5775 49.7389 46.6071 48.9332 48.5689C47.9712 50.9112 47.4036 55.7978 49.0435 57.8476" stroke="#5E3628" stroke-width="2" stroke-linecap="round"/>
<path d="M58.968 50.7586C61.0217 47.5498 56.5524 46.2046 54.5886 48.8052C52.7829 51.1965 50.9905 55.0119 52.3674 58.0051C53.9714 61.492 57.0098 55.9291 57.7078 54.7914C58.5486 53.421 59.2252 52.0221 59.7557 50.5066C60.0339 49.7117 60.0175 49.7316 59.3934 50.1915C57.9127 51.2825 58.0457 54.2459 58.5269 55.7997C60.6428 62.6309 68.166 52.1614 67.1282 48.2696C66.7223 46.7475 65.8726 50.0468 65.7892 50.3333C65.0045 53.0307 64.7146 56.6711 65.6474 59.3599C66.1016 60.6689 66.3406 57.0333 66.3406 56.6346C66.3406 55.5641 66.9471 55.925 67.8214 55.5161C70.0409 54.478 72.1955 51.9909 73.8076 50.2072C73.8087 50.2061 76.4468 46.5343 75.7925 46.6312C73.3815 46.9884 72.6582 53.4603 72.5001 55.0593C72.3262 56.8179 72.6638 59.844 74.5638 57.564" stroke="#5E3628" stroke-width="2" stroke-linecap="round"/>
<path d="M83.9211 51.8928C84.9636 50.7925 86.7194 49.1194 86.4102 47.4189C86.26 46.5931 84.4399 46.774 83.8896 46.8518C81.661 47.1667 79.7191 49.3926 78.5965 51.1682C77.1819 53.4056 75.0167 60.2175 79.7938 60.0373C84.181 59.8717 85.4246 51.7899 84.9294 48.5216C84.8321 47.8796 84.5611 46.7669 84.3307 48.0175C83.7893 50.9566 83.051 53.8495 82.3143 56.7448C81.1483 61.3274 80.0366 65.9207 78.9116 70.5132C77.7907 75.0892 76.8674 81.4602 73.0199 84.6911C69.1157 87.9696 64.0487 84.9776 63.4261 80.3432C62.5271 73.6502 68.7801 69.9434 74.2801 68.3392" stroke="#5E3628" stroke-width="2" stroke-linecap="round"/>
<path d="M94.6965 51.8929C96.1427 51.0421 97.096 47.5397 94.5232 47.6867C91.9075 47.8362 90.0081 50.5008 88.8047 52.523C87.942 53.9727 85.3938 57.9773 87.1664 59.6435C88.771 61.1518 91.5323 58.6058 92.554 57.6113C94.98 55.25 96.612 52.284 97.091 48.9312C97.3306 47.254 97.7839 46.6323 97.28 48.7737C96.1514 53.5702 94.8874 57.9863 94.6965 62.9517" stroke="#5E3628" stroke-width="2" stroke-linecap="round"/>
<path d="M137.797 24.3876C137.797 24.2604 136.517 28.397 136.348 28.9246C134.75 33.9138 133.168 38.7058 132.851 43.9532C132.833 44.25 132.75 50.9 133.544 48.4271C134.442 45.6309 135.471 40.3196 134.001 37.5889C132.295 34.4211 128.436 38.7463 127.4 40.1409C124.379 44.2081 122.519 49.6319 122.17 54.6654C121.96 57.7029 122.604 63.3318 127.006 62.9044C131.458 62.4722 134.923 57.3157 137.514 54.1613" stroke="#5E3628" stroke-width="2" stroke-linecap="round"/>
<path d="M144.603 36.0135C144.847 36.3271 144.702 36.4862 144.54 36.8327C143.569 38.9041 142.608 40.9974 141.83 43.1498C139.973 48.2894 139.55 53.904 139.499 59.3284C139.497 59.4964 139.499 60.0005 139.499 59.8325C139.499 59.2549 139.488 58.6772 139.499 58.0996C139.546 55.5683 139.773 53.0184 141.247 50.8689C141.693 50.2198 144.824 46.8569 144.886 49.3408C144.949 51.8639 144.421 54.3665 144.76 56.8866C145.163 59.8767 147.711 58.7385 149.234 57.1229C151.089 55.1557 152.543 52.8301 152.543 50.0812C152.543 48.1128 151.509 51.3903 151.282 51.9244C150.584 53.5726 149.215 58.7341 152.259 59.2024C154.649 59.5701 156.622 53.8404 157.079 52.1449C157.567 50.3404 158.457 46.0011 155.347 46.0011C152.315 46.0011 150.011 49.9082 149.486 52.4915C149.1 54.3982 149.518 61.2437 153.236 58.6825C156.349 56.5379 157.93 51.6817 158.781 48.2381C159.534 45.191 158.309 50.6092 158.198 51.0579C157.738 52.9163 155.555 60.4883 157.647 61.5339" stroke="#5E3628" stroke-width="2" stroke-linecap="round"/>
<path d="M162.183 47.6394C162.183 47.4186 162.176 48.0816 162.152 48.3011C161.867 50.8638 160.88 53.3159 160.529 55.8784C160.378 56.9816 160.468 58.217 160.199 59.2969C159.833 60.7608 160.796 56.3045 161.459 54.949C162.645 52.5227 164.309 50.3981 166.122 48.4114C167.013 47.434 168.503 45.6091 169.934 45.4182C170.769 45.3069 170.407 48.5215 170.407 49.0572" stroke="#5E3628" stroke-width="2" stroke-linecap="round"/>
<path d="M173.242 45.371C173.242 47.335 172.245 49.0753 171.73 50.9476C171.184 52.9335 170.871 55.0228 170.58 57.0599C170.481 57.7529 170.088 60.8402 170.612 58.3832C171.465 54.3779 173.577 49.3587 177.086 46.9148C179.154 45.4746 178.282 49.713 178.189 50.6011C177.924 53.1371 176.677 60.6495 176.677 58.0996C176.677 53.9169 179.017 50.3516 182.474 48.1121C184.466 46.8215 183.01 53.3703 182.899 54.1298C182.773 54.992 182.171 57.1437 182.663 58.0051C183.035 58.6564 185.943 55.5818 186.066 55.4531C188.82 52.5707 191.603 49.5268 193.249 45.8436C194.355 43.369 190.007 50.3961 189.5 53.0586C188.887 56.2739 191.025 57.1832 193.47 55.201C197.217 52.1622 201.269 48.5773 202.26 43.6224C202.389 42.9758 202.657 41.0276 202.449 41.6532C201.776 43.6708 201.302 45.7615 200.59 47.7812C199.035 52.1919 197.538 56.5859 196.274 61.0928C195.254 64.7266 194.363 68.3982 193.265 72.0098C192.595 74.212 191.903 76.669 190.256 78.3899C187.327 81.4503 183.035 81.9464 179.103 81.0049C176.501 80.382 172.757 78.8679 171.431 76.3104C169.343 72.2833 181.952 67.9895 184.301 66.9215" stroke="#5E3628" stroke-width="2" stroke-linecap="round"/>
<path d="M239.312 19C236.201 23.6664 234.564 29.5945 233.609 35.0683C233.401 36.2611 233.357 37.4404 233.357 38.6443C233.357 40.0754 233.591 35.7901 233.625 34.3594C233.659 32.8876 233.887 30.6154 232.254 29.8067C229.896 28.6389 227.215 31.5637 225.906 33.0992C222.022 37.6545 220.363 43.8362 220.943 49.7504C221.239 52.7637 225.864 46.4987 226.551 45.9066C227.607 44.9972 229.5 43.3863 230.616 45.0402C232.06 47.1815 232.019 50.6453 231.655 53.0586C230.805 58.6995 225.042 65.6558 218.596 63.1092C217.058 62.5016 213.693 58.8743 216.91 58.4147" stroke="#5E3628" stroke-width="2" stroke-linecap="round"/>
<path d="M244.416 36.2971C244.441 36.2843 243.063 39.7982 242.998 39.9519C241.185 44.2524 239.411 48.6686 239.091 53.3736C238.807 57.5487 242.751 55.4669 244.416 53.5942" stroke="#5E3628" stroke-width="2" stroke-linecap="round"/>
<path d="M235.909 47.0723C239.243 45.5717 243.335 44.7798 246.968 44.5203" stroke="#5E3628" stroke-width="2" stroke-linecap="round"/>
<path d="M252.355 45.371C252.355 45.1252 252.207 45.7728 252.166 45.8436C251.06 47.7539 250.236 49.8467 249.583 51.9558C249.254 53.0163 248.953 57.9175 248.953 54.4449" stroke="#5E3628" stroke-width="2" stroke-linecap="round"/>
<path d="M256.609 36.2971C256.762 34.7663 260.106 32.0895 261.713 32.6738C263.883 33.4629 259.956 37.2252 259.428 37.6676C258.442 38.4947 257.356 39.2414 256.262 39.9203C255.866 40.1662 255.422 40.3962 256.042 39.9833" stroke="#5E3628" stroke-width="2" stroke-linecap="round"/>
<path d="M256.041 35.4464C256.041 34.2497 256.155 32.6624 255.459 31.6184C255.146 31.1492 254.393 30.628 254.057 31.3191C253.295 32.884 253.287 35.1514 253.222 36.8485C253.141 38.9325 253.566 39.868 254.907 41.4012" stroke="#5E3628" stroke-width="2" stroke-linecap="round"/>
<path d="M266.25 37.7148C266.545 37.5461 266.344 38.0161 266.297 38.1402C265.593 39.9804 264.527 41.7009 263.745 43.512C262.346 46.7511 261.668 49.7663 261.492 53.2791C261.418 54.7693 261.328 56.6257 263.209 55.327C264.4 54.5046 265.509 53.484 266.533 52.4599" stroke="#5E3628" stroke-width="2" stroke-linecap="round"/>
<path d="M255.758 47.923C259.811 47.923 263.674 47.0044 267.668 46.5052" stroke="#5E3628" stroke-width="2" stroke-linecap="round"/>
<path d="M274.189 45.3709C275.087 44.7898 276.174 41.676 274.158 42.7559C272.635 43.5718 271.726 45.9498 271.07 47.4189C270.069 49.6612 268.768 53.729 269.999 56.1462C270.906 57.9283 273.175 55.5128 273.906 54.8702C278.773 50.5869 283.239 45.813 287.217 40.6922C287.619 40.1754 293.358 30.736 291.486 30.6259C290.982 30.5962 290.725 30.7629 290.494 31.2245C288.958 34.2968 287.733 37.5849 286.508 40.7867C284.682 45.5615 282.896 50.5657 282.129 55.6421C282.023 56.3441 281.802 58.4617 281.845 57.753C281.921 56.5106 282.319 55.2912 282.822 54.1613C283.421 52.8166 284.872 49.6187 286.493 49.1202C287.246 48.8885 286.826 53.5124 286.808 53.8147C286.766 54.4879 286.241 60.283 288.273 58.8242C290.291 57.3755 291.726 55.1156 293.755 53.5942" stroke="#5E3628" stroke-width="2" stroke-linecap="round"/>
<path d="M291.77 55.5791C295.728 53.3005 299.733 50.8219 302.214 46.8518C302.775 45.9546 303.52 43.07 301.521 43.4176C300.458 43.6026 299.765 44.4809 299.111 45.2607C297.354 47.3555 295.325 49.0602 294.165 51.6093C293.228 53.6661 292.519 56.9222 294.873 58.3989C297.387 59.9753 299.628 57.8953 301.127 56.1462" stroke="#5E3628" stroke-width="2" stroke-linecap="round"/>
<path d="M313.037 47.0723C309.091 47.0076 305.429 49.8586 303.869 53.4051C302.979 55.4278 306.613 54.7513 307.634 55.4531C310.46 57.3963 303.561 62.696 302.167 63.3927C300.986 63.9834 299.603 64.1538 300.97 62.605C303.064 60.2314 305.976 58.8506 308.784 57.564" stroke="#5E3628" stroke-width="2" stroke-linecap="round"/>
<path d="M4.4469 76.3935C15.9695 75.9627 27.2584 73.8049 38.6717 72.3718C66.5019 68.8775 94.5409 66.4451 122.579 65.5597C167.342 64.1461 212.081 65.1577 256.769 67.9672C268.849 68.7266 281.939 68.5965 293.511 72.4539" stroke="#5E3628" stroke-width="2" stroke-linecap="round"/>
<path d="M390.901 23.7008C385.39 16.998 379.215 12.1328 370.116 11.8835C359.805 11.601 350.749 19.5719 348.509 29.5395C345.459 43.112 356.746 52.3803 365.623 60.5861C373.124 67.5192 380.919 74.4156 389.765 79.6056C390.875 80.2572 398.707 84.5506 399.397 83.1718" stroke="#5E3628" stroke-width="2" stroke-linecap="round"/>
<path d="M390.798 23.7414C394.132 15.7298 398.634 9.28489 407.271 6.41139C417.058 3.15504 428.034 8.16196 433.065 17.0538C439.914 29.1615 431.795 41.3012 425.675 51.7261C420.503 60.5342 415.039 69.3925 408.075 76.9218C407.201 77.867 400.948 84.2446 399.889 83.1245" stroke="#5E3628" stroke-width="2" stroke-linecap="round"/>
<path d="M383.242 16.5C382.299 17.0626 381.266 17.7458 380.182 18.5425M363.242 57C362.362 53.3317 362.186 49.8204 362.539 46.5M380.742 14.5C371.742 19 354.942 33.4 359.742 55M376.242 12.5C366.742 18 349.442 33.5 356.242 51.5M370.242 12.5C362.742 16.3333 348.442 28.2 351.242 45M364.242 12.5C359.242 14.8333 349.142 23.5 348.742 39.5M372.742 25.2852C371.182 27.0114 369.674 28.9225 368.314 31M372.742 25.2852C373.093 29.1592 373.978 34.1481 375.556 39.5M372.742 25.2852C373.893 24.0122 375.072 22.8397 376.242 21.7751M372.742 25.2852C374.318 30.5235 380.829 40.7 394.266 39.5M368.314 31C370.624 45 381.142 74.5 404.742 80.5M368.314 31C367.091 32.8697 365.986 34.8741 365.071 37M365.071 37C366.628 49.3333 375.742 75.7 399.742 82.5M365.071 37C363.803 39.9455 362.897 43.1241 362.539 46.5M362.539 46.5C363.44 51.6667 368.042 64.2 379.242 73M375.556 39.5C376.088 41.3018 376.698 43.1447 377.393 45M375.556 39.5C378.849 42.3196 386.063 45.5399 396.742 45.6439M433.242 36C432.554 36.3441 431.871 36.6774 431.194 37M377.393 45C384.343 49.9049 404.542 56.2719 429.742 42.5M377.393 45C378.204 47.1649 379.131 49.3468 380.182 51.5M380.182 51.5C385.035 56 401.042 62.1 426.242 50.5M380.182 51.5C381.221 53.6281 382.383 55.7282 383.676 57.7562M383.676 57.7562C385.609 58.7442 388.401 59.8465 391.742 60.7163M383.676 57.7562C386.298 61.8686 389.461 65.6848 393.242 68.8378M421.742 57.7562C417.756 60.0278 413.571 61.3037 409.462 61.8884M397.742 61.8884L399.345 73M397.742 61.8884C399.351 62.0998 401.025 62.2373 402.742 62.2757M397.742 61.8884C395.609 61.6081 393.592 61.1978 391.742 60.7163M399.345 73C400.744 73.7616 402.209 74.4382 403.742 75.0184M399.345 73C397.152 71.8062 395.121 70.4038 393.242 68.8378M402.742 62.2757L403.742 75.0184M402.742 62.2757C404.928 62.3245 407.184 62.2128 409.462 61.8884M403.742 75.0184C405.334 75.6206 407 76.1189 408.742 76.5L416.242 61M409.462 61.8884L405.742 75.7072M391.742 60.7163L393.242 68.8378M396.742 45.6439C398.18 45.6579 399.68 45.6154 401.242 45.5079M396.742 45.6439C395.825 44.0036 394.933 41.9045 394.266 39.5M408.742 6.5C398.334 12.6227 394.251 20.5927 393.347 28M414.242 5.5C406.038 11.0053 391.952 27.5142 401.242 45.5079M401.242 45.5079C402.765 45.4031 404.347 45.2364 405.986 45M419.242 6.5C411.738 12.8333 398.58 29.4 405.986 45M405.986 45C407.364 44.8012 408.783 44.553 410.242 44.2508M423.242 8C421.754 9.53442 420.002 11.5674 418.242 13.9391M410.242 44.2508C412.788 43.7235 415.456 43.0317 418.242 42.1502M410.242 44.2508C407.788 38.7686 408.701 32.4487 411.063 26.5M418.242 42.1502C417.742 41.5 419.384 32 411.063 26.5M418.242 42.1502C420.593 41.4067 423.027 40.5283 425.545 39.5M411.063 26.5C411.882 24.4387 412.874 22.4219 413.96 20.5M413.96 20.5C418.339 22.8333 426.787 29.9 425.545 39.5M413.96 20.5C415.295 18.1388 416.772 15.9207 418.242 13.9391M425.545 39.5C427.384 38.7487 429.267 37.9173 431.194 37M418.242 13.9391C423.043 14.9594 432.354 21 431.194 37M380.182 18.5425C381.938 22.5999 387.03 30.1719 393.347 28M380.182 18.5425C378.92 19.47 377.587 20.5512 376.242 21.7751M393.347 28C393.105 29.9801 393.09 31.9199 393.242 33.7735M376.242 21.7751C378.076 26.1991 384.042 34.7924 393.242 33.7735M393.242 33.7735C393.409 35.8063 393.777 37.7354 394.266 39.5" stroke="#5E3628"/>
<path d="M409.242 32.5001L453.242 9.00006C453.242 7.83339 453.588 6.5001 455.742 6.50006C458.742 6.50001 458.742 10.0001 456.242 11.0001C454.385 11.7428 453.576 10.8334 453.742 10.5001L409.242 34.5001V32.5001Z" fill="#5E3628"/>
<path d="M453.242 9.00006L409.242 32.5001V34.5001L453.742 10.5001M453.242 9.00006L453.742 10.5001M453.242 9.00006C453.242 7.83339 453.588 6.5001 455.742 6.50006C458.742 6.50001 458.742 10.0001 456.242 11.0001C454.385 11.7428 453.576 10.8334 453.742 10.5001" stroke="#5E3628"/>
<path d="M411.242 50.0002L460.112 60.0006C461.742 59.5001 463.446 59.2217 463.742 61C464.242 64 462.742 65.5 460.242 64.5C458.385 63.7572 458.401 61.1503 458.742 61.0001L406.742 50.5002L411.242 50.0002Z" fill="#5E3628"/>
<path d="M460.112 60.0006L411.242 50.0002L406.742 50.5002L458.742 61.0001M460.112 60.0006L458.742 61.0001M460.112 60.0006C461.742 59.5001 463.446 59.2217 463.742 61C464.242 64 462.742 65.5 460.242 64.5C458.385 63.7572 458.401 61.1503 458.742 61.0001" stroke="#5E3628"/>
<path d="M355.242 57L363.742 52L365.242 55L355.242 57Z" fill="#5E3628" stroke="#5E3628"/>
<path d="M418.249 64.5603C419.305 63.8425 420.193 62.8664 421.202 62.0806C423.446 60.3328 425.816 58.7481 428.24 57.2644C431.322 55.3786 434.486 53.6252 437.7 51.9753C440.482 50.5474 443.486 48.8091 446.587 48.2126C447.691 48.0003 449.007 47.8101 449.44 49.1085C449.961 50.6715 448.959 52.0546 448.143 53.3011C446.416 55.9381 444.35 58.3405 442.602 60.9625C440.711 63.8002 438.786 66.7832 438.56 70.2652C438.141 76.7409 446.194 78.3574 451.16 77.8621C456.579 77.3215 461.812 75.1377 466.655 72.7593C469.299 71.4603 471.83 69.9444 474.338 68.4018C477.523 66.4424 480.802 64.5046 483.783 62.2383C486.871 59.8911 489.642 56.9743 491.588 53.6093C492.028 52.8488 493.581 50.5735 492.685 49.6532C492.086 49.039 490.472 49.3706 489.804 49.6245C487.088 50.6567 485.18 53.5753 483.497 55.7594C480.776 59.2905 478.246 63.109 476.237 67.0902C475.299 68.9482 473.595 71.8498 474.481 74.0493C475.108 75.6052 477.216 75.5253 478.58 75.5042C481.224 75.4632 483.731 74.8847 486.034 73.5763C488.284 72.2977 490.464 70.7965 492.57 69.2905C493.129 68.891 494.164 68.4356 494.591 67.8858C494.665 67.7913 494.38 67.784 494.362 67.7854C493.97 67.8164 493.595 68.1325 493.301 68.3588C491.822 69.4973 490.702 71.0056 490.313 72.8524C490.035 74.1656 489.826 75.9448 491.001 76.8802C492.563 78.1247 494.942 77.9103 496.677 77.1669C498.952 76.1916 500.996 74.5536 502.733 72.8166C504.494 71.0554 506.341 69.063 507.176 66.6674C508.376 63.2254 503.712 62.5245 501.486 63.2846C497.98 64.4819 495.616 67.595 493.201 70.2078C491.632 71.9053 489.18 75.1008 492.255 76.7297C496.048 78.7392 500.833 75.5425 504.023 73.7196C507.952 71.4746 511.957 69.1698 514.637 65.4347C514.798 65.2103 517.912 61.5661 517.654 61.3352C516.385 60.1993 514.206 63.1384 513.727 63.858C512.357 65.9119 511.126 68.111 510.186 70.3942C509.412 72.2744 508.558 74.8419 509.369 76.8444C510.002 78.4055 511.209 78.5742 512.723 78.4139C513.569 78.3244 514.277 78.0494 515.045 77.6972C516.286 77.1289 517.568 76.6522 518.801 76.0704C523.513 73.8465 526.941 69.8944 530.562 66.2732C530.937 65.8982 531.501 65.2926 531.501 64.7108C531.501 64.2026 530.403 65.4144 530.361 65.4562C529.133 66.6845 528.218 68.1444 527.186 69.5341C525.858 71.3226 524.682 73.1611 524.219 75.368C523.901 76.882 524.238 77.7452 525.609 78.5644C526.821 79.288 528.491 79.914 529.91 80.0121C535.03 80.3664 539.94 78.6829 544.337 76.1707C547.304 74.4752 550.313 72.2642 550.722 68.581C551.057 65.5693 545.806 68.4057 544.931 68.9751C542.974 70.2505 541.512 71.969 540.216 73.906C538.685 76.1924 537.378 79.1142 538.202 81.9114C539.006 84.6397 542.197 85.7397 544.724 86.0538C549.634 86.6644 554.726 85.0171 559.38 83.6529" stroke="#5E3628" stroke-width="2" stroke-linecap="round"/>
</svg>
