<svg width="635" height="71" viewBox="0 0 635 71" fill="none" xmlns="http://www.w3.org/2000/svg">
<path d="M633.5 2H63V27C41.8 31 15.1667 21 4.5 15.5C16.1 34.7 48.3333 44.5 63 47V69H633.5V2Z" fill="#F1EEEE" stroke="#5E3628" stroke-width="3" stroke-dasharray="10 10"/>
<path d="M102.482 43.94C100.883 43.94 99.4533 43.5513 98.192 42.774C96.9307 41.9967 95.948 40.9113 95.244 39.518C94.54 38.11 94.188 36.504 94.188 34.7C94.188 32.896 94.54 31.2973 95.244 29.904C95.948 28.496 96.9307 27.4033 98.192 26.626C99.4533 25.8487 100.883 25.46 102.482 25.46C104.081 25.46 105.511 25.8487 106.772 26.626C108.033 27.4033 109.016 28.496 109.72 29.904C110.424 31.2973 110.776 32.896 110.776 34.7C110.776 36.504 110.424 38.11 109.72 39.518C109.016 40.9113 108.033 41.9967 106.772 42.774C105.511 43.5513 104.081 43.94 102.482 43.94ZM102.482 43.434C103.538 43.434 104.484 43.1553 105.32 42.598C106.171 42.0407 106.838 41.234 107.322 40.178C107.806 39.1073 108.048 37.846 108.048 36.394V33.006C108.048 31.554 107.806 30.3 107.322 29.244C106.838 28.1733 106.171 27.3593 105.32 26.802C104.484 26.2447 103.538 25.966 102.482 25.966C101.411 25.966 100.458 26.2447 99.622 26.802C98.786 27.3593 98.126 28.1733 97.642 29.244C97.158 30.3 96.916 31.554 96.916 33.006V36.394C96.916 37.846 97.158 39.1073 97.642 40.178C98.126 41.234 98.786 42.0407 99.622 42.598C100.458 43.1553 101.411 43.434 102.482 43.434ZM115.095 43.5V43.06L116.855 42.84V32.654H114.963L113.049 36.284H112.433L112.763 32.104H123.147L123.477 36.284H122.861L120.925 32.654H119.055V42.84L120.815 43.06V43.5H115.095ZM124.532 43.06L126.072 42.84V32.764L124.532 32.544V32.104H130.56C132.07 32.104 133.148 32.3167 133.794 32.742C134.439 33.1527 134.762 33.8273 134.762 34.766C134.762 36.13 133.896 37.0027 132.166 37.384V37.45C134.395 37.758 135.51 38.748 135.51 40.42C135.51 41.4467 135.136 42.2167 134.388 42.73C133.64 43.2433 132.598 43.5 131.264 43.5H124.532V43.06ZM130.032 37.252C130.794 37.252 131.374 37.054 131.77 36.658C132.18 36.262 132.386 35.668 132.386 34.876V34.788C132.386 34.0693 132.18 33.534 131.77 33.182C131.359 32.83 130.736 32.654 129.9 32.654H128.272V37.252H130.032ZM130.604 42.95C131.41 42.95 132.034 42.7373 132.474 42.312C132.914 41.8867 133.134 41.2633 133.134 40.442V40.288C133.134 39.452 132.914 38.8287 132.474 38.418C132.048 37.9927 131.425 37.78 130.604 37.78H128.272V42.95H130.604ZM143.088 43.72C142.003 43.72 141.02 43.478 140.14 42.994C139.26 42.4953 138.563 41.7987 138.05 40.904C137.537 40.0093 137.28 38.9753 137.28 37.802C137.28 36.6287 137.529 35.602 138.028 34.722C138.541 33.8273 139.223 33.138 140.074 32.654C140.939 32.1553 141.9 31.906 142.956 31.906C143.88 31.906 144.709 32.1113 145.442 32.522C146.175 32.9327 146.747 33.5047 147.158 34.238C147.569 34.9567 147.781 35.7853 147.796 36.724H139.7V38.902C139.7 40.1927 139.986 41.2413 140.558 42.048C141.145 42.84 141.988 43.236 143.088 43.236C144.1 43.236 144.995 42.95 145.772 42.378C146.549 41.806 147.026 41.0653 147.202 40.156H147.708C147.503 41.2413 146.982 42.1067 146.146 42.752C145.31 43.3973 144.291 43.72 143.088 43.72ZM145.376 36.174C145.376 34.898 145.178 33.952 144.782 33.336C144.386 32.7053 143.77 32.39 142.934 32.39C141.951 32.39 141.189 32.7347 140.646 33.424C140.103 34.1133 139.795 35.03 139.722 36.174H145.376ZM151.79 43.5V43.06L153.55 42.84V32.654H151.658L149.744 36.284H149.128L149.458 32.104H159.842L160.172 36.284H159.556L157.62 32.654H155.75V42.84L157.51 43.06V43.5H151.79ZM161.227 43.5V43.06L162.767 42.84V32.764L161.227 32.544V32.104H166.287V32.544L164.967 32.764V41.322L170.533 33.204V32.764L169.213 32.544V32.104H174.273V32.544L172.733 32.764V42.84L174.273 43.06V43.5H169.213V43.06L170.533 42.84V34.128L164.967 42.268V42.84L166.287 43.06V43.5H161.227ZM175.471 43.5V43.06L177.143 42.4V32.742L175.603 32.544V32.104H179.871L183.347 40.332L186.801 32.104H190.849V32.544L189.309 32.764V42.84L190.849 43.06V43.5H185.789V43.06L187.109 42.84V32.83L182.555 43.5H182.291L177.693 32.83V42.4L179.365 43.06V43.5H175.471ZM197.299 43.5V43.06L198.839 42.84V32.764L197.299 32.544V32.104H202.359V32.544L201.039 32.764V37.45H206.473V32.764L205.153 32.544V32.104H210.213V32.544L208.673 32.764V42.84L210.213 43.06V43.5H205.153V43.06L206.473 42.84V38H201.039V42.84L202.359 43.06V43.5H197.299ZM215.023 43.72C214.084 43.72 213.314 43.478 212.713 42.994C212.111 42.4953 211.811 41.762 211.811 40.794C211.811 39.4153 212.39 38.44 213.549 37.868C214.707 37.2813 216.049 36.988 217.575 36.988H219.049V35.294C219.049 34.5313 218.961 33.9447 218.785 33.534C218.623 33.1087 218.367 32.8153 218.015 32.654C217.663 32.478 217.186 32.39 216.585 32.39C215.895 32.39 215.382 32.5293 215.045 32.808C214.707 33.072 214.539 33.4313 214.539 33.886C214.539 34.3113 214.744 34.59 215.155 34.722C215.155 35.0887 215.015 35.4113 214.737 35.69C214.458 35.9687 214.128 36.108 213.747 36.108C213.336 36.108 213.006 35.998 212.757 35.778C212.507 35.5433 212.383 35.1913 212.383 34.722C212.383 33.8713 212.808 33.1893 213.659 32.676C214.509 32.1627 215.573 31.906 216.849 31.906C219.782 31.906 221.249 33.182 221.249 35.734V42.026C221.249 42.3487 221.315 42.598 221.447 42.774C221.593 42.9353 221.799 43.016 222.063 43.016C222.312 43.016 222.51 42.9353 222.657 42.774C222.803 42.598 222.877 42.3633 222.877 42.07H223.339C223.339 42.5833 223.17 42.9867 222.833 43.28C222.51 43.5733 222.055 43.72 221.469 43.72C220.794 43.72 220.222 43.5293 219.753 43.148C219.298 42.752 219.063 42.1433 219.049 41.322C218.697 42.07 218.154 42.6567 217.421 43.082C216.702 43.5073 215.903 43.72 215.023 43.72ZM216.233 42.752C216.629 42.752 217.032 42.6347 217.443 42.4C217.868 42.1653 218.227 41.828 218.521 41.388C218.814 40.9333 218.99 40.3907 219.049 39.76V37.472H217.575C216.372 37.472 215.47 37.7433 214.869 38.286C214.282 38.814 213.989 39.562 213.989 40.53C213.989 41.3367 214.179 41.9087 214.561 42.246C214.942 42.5833 215.499 42.752 216.233 42.752ZM229.139 43.06L230.679 42.84V32.764L229.139 32.544V32.104H235.167C236.678 32.104 237.756 32.3167 238.401 32.742C239.046 33.1527 239.369 33.8273 239.369 34.766C239.369 36.13 238.504 37.0027 236.773 37.384V37.45C239.002 37.758 240.117 38.748 240.117 40.42C240.117 41.4467 239.743 42.2167 238.995 42.73C238.247 43.2433 237.206 43.5 235.871 43.5H229.139V43.06ZM234.639 37.252C235.402 37.252 235.981 37.054 236.377 36.658C236.788 36.262 236.993 35.668 236.993 34.876V34.788C236.993 34.0693 236.788 33.534 236.377 33.182C235.966 32.83 235.343 32.654 234.507 32.654H232.879V37.252H234.639ZM235.211 42.95C236.018 42.95 236.641 42.7373 237.081 42.312C237.521 41.8867 237.741 41.2633 237.741 40.442V40.288C237.741 39.452 237.521 38.8287 237.081 38.418C236.656 37.9927 236.032 37.78 235.211 37.78H232.879V42.95H235.211ZM247.585 43.72C246.529 43.72 245.569 43.478 244.703 42.994C243.838 42.4953 243.149 41.7987 242.635 40.904C242.137 39.9947 241.887 38.9607 241.887 37.802C241.887 36.5847 242.151 35.5287 242.679 34.634C243.222 33.7393 243.926 33.0647 244.791 32.61C245.657 32.1407 246.588 31.906 247.585 31.906C248.421 31.906 249.184 32.0527 249.873 32.346C250.563 32.6247 251.105 33.0207 251.501 33.534C251.912 34.0473 252.117 34.6267 252.117 35.272C252.117 35.756 251.993 36.13 251.743 36.394C251.494 36.6433 251.164 36.768 250.753 36.768C250.357 36.768 250.027 36.636 249.763 36.372C249.499 36.108 249.367 35.778 249.367 35.382C249.587 35.2353 249.741 35.074 249.829 34.898C249.917 34.722 249.961 34.502 249.961 34.238C249.961 33.6953 249.741 33.2553 249.301 32.918C248.876 32.566 248.304 32.39 247.585 32.39C246.529 32.39 245.715 32.7713 245.143 33.534C244.586 34.282 244.307 35.338 244.307 36.702V38.902C244.307 40.2073 244.579 41.256 245.121 42.048C245.679 42.84 246.5 43.236 247.585 43.236C248.583 43.236 249.448 42.9573 250.181 42.4C250.929 41.828 251.391 41.08 251.567 40.156H252.073C251.868 41.2413 251.355 42.1067 250.533 42.752C249.727 43.3973 248.744 43.72 247.585 43.72ZM259.727 43.72C258.641 43.72 257.659 43.478 256.779 42.994C255.899 42.4953 255.202 41.7987 254.689 40.904C254.175 40.0093 253.919 38.9753 253.919 37.802C253.919 36.6287 254.168 35.602 254.667 34.722C255.18 33.8273 255.862 33.138 256.713 32.654C257.578 32.1553 258.539 31.906 259.595 31.906C260.519 31.906 261.347 32.1113 262.081 32.522C262.814 32.9327 263.386 33.5047 263.797 34.238C264.207 34.9567 264.42 35.7853 264.435 36.724H256.339V38.902C256.339 40.1927 256.625 41.2413 257.197 42.048C257.783 42.84 258.627 43.236 259.727 43.236C260.739 43.236 261.633 42.95 262.411 42.378C263.188 41.806 263.665 41.0653 263.841 40.156H264.347C264.141 41.2413 263.621 42.1067 262.785 42.752C261.949 43.3973 260.929 43.72 259.727 43.72ZM262.015 36.174C262.015 34.898 261.817 33.952 261.421 33.336C261.025 32.7053 260.409 32.39 259.573 32.39C258.59 32.39 257.827 32.7347 257.285 33.424C256.742 34.1133 256.434 35.03 256.361 36.174H262.015ZM271.162 43.5V43.06L272.702 42.84V32.764L271.162 32.544V32.104H276.222V32.544L274.902 32.764V41.322L280.468 33.204V32.764L279.148 32.544V32.104H284.208V32.544L282.668 32.764V42.84L284.208 43.06V43.5H279.148V43.06L280.468 42.84V34.128L274.902 42.268V42.84L276.222 43.06V43.5H271.162ZM285.407 43.5V43.06L286.947 42.84V32.764L285.407 32.544V32.104H290.466V32.544L289.147 32.764V37.45H294.581V32.764L293.261 32.544V32.104H298.321V32.544L296.781 32.764V42.84L298.321 43.06V43.5H293.261V43.06L294.581 42.84V38H289.147V42.84L290.466 43.06V43.5H285.407ZM302.03 43.5V43.06L303.79 42.84V32.654H301.898L299.984 36.284H299.368L299.698 32.104H310.082L310.412 36.284H309.796L307.86 32.654H305.99V42.84L307.75 43.06V43.5H302.03ZM317.627 43.72C316.542 43.72 315.559 43.478 314.679 42.994C313.799 42.4953 313.102 41.7987 312.589 40.904C312.076 40.0093 311.819 38.9753 311.819 37.802C311.819 36.6287 312.068 35.602 312.567 34.722C313.08 33.8273 313.762 33.138 314.613 32.654C315.478 32.1553 316.439 31.906 317.495 31.906C318.419 31.906 319.248 32.1113 319.981 32.522C320.714 32.9327 321.286 33.5047 321.697 34.238C322.108 34.9567 322.32 35.7853 322.335 36.724H314.239V38.902C314.239 40.1927 314.525 41.2413 315.097 42.048C315.684 42.84 316.527 43.236 317.627 43.236C318.639 43.236 319.534 42.95 320.311 42.378C321.088 41.806 321.565 41.0653 321.741 40.156H322.247C322.042 41.2413 321.521 42.1067 320.685 42.752C319.849 43.3973 318.83 43.72 317.627 43.72ZM319.915 36.174C319.915 34.898 319.717 33.952 319.321 33.336C318.925 32.7053 318.309 32.39 317.473 32.39C316.49 32.39 315.728 32.7347 315.185 33.424C314.642 34.1133 314.334 35.03 314.261 36.174H319.915ZM323.667 49.286L325.207 49.066V32.786L323.667 32.566V32.126H327.407V34.436C327.774 33.644 328.265 33.028 328.881 32.588C329.512 32.1333 330.26 31.906 331.125 31.906C332.166 31.906 333.083 32.1553 333.875 32.654C334.667 33.138 335.283 33.8273 335.723 34.722C336.163 35.602 336.383 36.636 336.383 37.824C336.383 39.012 336.163 40.0533 335.723 40.948C335.283 41.828 334.667 42.51 333.875 42.994C333.083 43.478 332.166 43.72 331.125 43.72C330.26 43.72 329.512 43.5 328.881 43.06C328.265 42.6053 327.774 41.9893 327.407 41.212V49.066L329.475 49.286V49.726H323.667V49.286ZM330.905 43.17C332.944 43.17 333.963 41.7547 333.963 38.924V36.724C333.963 33.8787 332.944 32.456 330.905 32.456C330.26 32.456 329.673 32.6467 329.145 33.028C328.617 33.3947 328.199 33.8933 327.891 34.524C327.583 35.1547 327.422 35.8367 327.407 36.57V38.924C327.407 39.672 327.554 40.376 327.847 41.036C328.155 41.6813 328.573 42.202 329.101 42.598C329.644 42.9793 330.245 43.17 330.905 43.17ZM344.074 43.72C342.989 43.72 342.006 43.478 341.126 42.994C340.246 42.4953 339.55 41.7987 339.036 40.904C338.523 40.0093 338.266 38.9753 338.266 37.802C338.266 36.6287 338.516 35.602 339.014 34.722C339.528 33.8273 340.21 33.138 341.06 32.654C341.926 32.1553 342.886 31.906 343.942 31.906C344.866 31.906 345.695 32.1113 346.428 32.522C347.162 32.9327 347.734 33.5047 348.144 34.238C348.555 34.9567 348.768 35.7853 348.782 36.724H340.686V38.902C340.686 40.1927 340.972 41.2413 341.544 42.048C342.131 42.84 342.974 43.236 344.074 43.236C345.086 43.236 345.981 42.95 346.758 42.378C347.536 41.806 348.012 41.0653 348.188 40.156H348.694C348.489 41.2413 347.968 42.1067 347.132 42.752C346.296 43.3973 345.277 43.72 344.074 43.72ZM346.362 36.174C346.362 34.898 346.164 33.952 345.768 33.336C345.372 32.7053 344.756 32.39 343.92 32.39C342.938 32.39 342.175 32.7347 341.632 33.424C341.09 34.1133 340.782 35.03 340.708 36.174H346.362ZM356.296 43.72C355.24 43.72 354.28 43.478 353.414 42.994C352.549 42.4953 351.86 41.7987 351.346 40.904C350.848 39.9947 350.598 38.9607 350.598 37.802C350.598 36.5847 350.862 35.5287 351.39 34.634C351.933 33.7393 352.637 33.0647 353.502 32.61C354.368 32.1407 355.299 31.906 356.296 31.906C357.132 31.906 357.895 32.0527 358.584 32.346C359.274 32.6247 359.816 33.0207 360.212 33.534C360.623 34.0473 360.828 34.6267 360.828 35.272C360.828 35.756 360.704 36.13 360.454 36.394C360.205 36.6433 359.875 36.768 359.464 36.768C359.068 36.768 358.738 36.636 358.474 36.372C358.21 36.108 358.078 35.778 358.078 35.382C358.298 35.2353 358.452 35.074 358.54 34.898C358.628 34.722 358.672 34.502 358.672 34.238C358.672 33.6953 358.452 33.2553 358.012 32.918C357.587 32.566 357.015 32.39 356.296 32.39C355.24 32.39 354.426 32.7713 353.854 33.534C353.297 34.282 353.018 35.338 353.018 36.702V38.902C353.018 40.2073 353.29 41.256 353.832 42.048C354.39 42.84 355.211 43.236 356.296 43.236C357.294 43.236 358.159 42.9573 358.892 42.4C359.64 41.828 360.102 41.08 360.278 40.156H360.784C360.579 41.2413 360.066 42.1067 359.244 42.752C358.438 43.3973 357.455 43.72 356.296 43.72ZM364.28 49.924C363.517 49.924 362.901 49.7333 362.432 49.352C361.962 48.9707 361.728 48.4573 361.728 47.812C361.728 47.372 361.852 47.0127 362.102 46.734C362.366 46.47 362.688 46.338 363.07 46.338C363.348 46.338 363.598 46.3967 363.818 46.514C364.038 46.6313 364.214 46.8073 364.346 47.042C364.126 47.35 364.016 47.6727 364.016 48.01C364.016 48.3033 364.111 48.5453 364.302 48.736C364.492 48.9267 364.734 49.022 365.028 49.022C365.38 49.022 365.68 48.9047 365.93 48.67C366.194 48.4353 366.428 48.0247 366.634 47.438L367.954 43.654L362.85 32.786L361.376 32.566V32.126H366.854V32.566L365.314 32.83L368.988 40.684L371.606 33.116L369.714 32.566V32.126H373.674V32.566L372.178 33.116L367.25 47.438C366.942 48.3033 366.568 48.934 366.128 49.33C365.702 49.726 365.086 49.924 364.28 49.924ZM385.579 43.72C383.995 43.72 382.638 43.1773 381.509 42.092C380.468 41.0067 379.925 39.6427 379.881 38H377.791V42.84L379.111 43.06V43.5H374.051V43.06L375.591 42.84V32.764L374.051 32.544V32.104H379.111V32.544L377.791 32.764V37.45H379.881C379.94 36.35 380.226 35.382 380.739 34.546C381.252 33.71 381.927 33.0647 382.763 32.61C383.614 32.1407 384.552 31.906 385.579 31.906C386.635 31.906 387.596 32.1553 388.461 32.654C389.341 33.1527 390.03 33.8567 390.529 34.766C391.028 35.6607 391.277 36.6727 391.277 37.802C391.277 38.9313 391.028 39.9507 390.529 40.86C390.03 41.7547 389.348 42.4587 388.483 42.972C387.618 43.4707 386.65 43.72 385.579 43.72ZM385.579 43.236C386.65 43.236 387.464 42.8473 388.021 42.07C388.578 41.2927 388.857 40.2367 388.857 38.902V36.702C388.857 35.3527 388.578 34.2967 388.021 33.534C387.464 32.7713 386.65 32.39 385.579 32.39C384.508 32.39 383.694 32.7713 383.137 33.534C382.58 34.2967 382.301 35.3527 382.301 36.702V38.902C382.301 40.2367 382.58 41.2927 383.137 42.07C383.694 42.8473 384.508 43.236 385.579 43.236ZM410.803 47.13L408.867 43.5H392.807V43.06L394.347 42.84V32.764L392.807 32.544V32.104H398.087V32.544L396.547 32.764V42.95H400.837V32.764L399.297 32.544V32.104H404.577V32.544L403.037 32.764V42.95H407.327V32.764L405.787 32.544V32.104H411.067V32.544L409.527 32.764V42.95H411.089L411.419 47.13H410.803ZM412.164 43.5V43.06L413.704 42.84V32.764L412.164 32.544V32.104H417.224V32.544L415.904 32.764V41.322L421.47 33.204V32.764L420.15 32.544V32.104H425.21V32.544L423.67 32.764V42.84L425.21 43.06V43.5H420.15V43.06L421.47 42.84V34.128L415.904 42.268V42.84L417.224 43.06V43.5H412.164ZM432.568 43.72C431.483 43.72 430.5 43.478 429.62 42.994C428.74 42.4953 428.044 41.7987 427.53 40.904C427.017 40.0093 426.76 38.9753 426.76 37.802C426.76 36.6287 427.01 35.602 427.508 34.722C428.022 33.8273 428.704 33.138 429.554 32.654C430.42 32.1553 431.38 31.906 432.436 31.906C433.36 31.906 434.189 32.1113 434.922 32.522C435.656 32.9327 436.228 33.5047 436.638 34.238C437.049 34.9567 437.262 35.7853 437.276 36.724H429.18V38.902C429.18 40.1927 429.466 41.2413 430.038 42.048C430.625 42.84 431.468 43.236 432.568 43.236C433.58 43.236 434.475 42.95 435.252 42.378C436.03 41.806 436.506 41.0653 436.682 40.156H437.188C436.983 41.2413 436.462 42.1067 435.626 42.752C434.79 43.3973 433.771 43.72 432.568 43.72ZM434.856 36.174C434.856 34.898 434.658 33.952 434.262 33.336C433.866 32.7053 433.25 32.39 432.414 32.39C431.432 32.39 430.669 32.7347 430.126 33.424C429.584 34.1133 429.276 35.03 429.202 36.174H434.856ZM444.29 43.038L446.314 42.708V26.692L444.29 26.384V25.9H451C452.584 25.9 453.845 26.0467 454.784 26.34C455.723 26.6333 456.405 27.0807 456.83 27.682C457.255 28.2687 457.468 29.046 457.468 30.014C457.468 32.126 456.133 33.4753 453.464 34.062V34.172C455.092 34.392 456.353 34.876 457.248 35.624C458.157 36.372 458.612 37.4133 458.612 38.748C458.612 40.3613 458.018 41.5567 456.83 42.334C455.657 43.1113 454.065 43.5 452.056 43.5H444.29V43.038ZM451.176 33.996C452.349 33.996 453.251 33.666 453.882 33.006C454.513 32.346 454.828 31.4073 454.828 30.19V30.058C454.828 27.6527 453.552 26.45 451 26.45H448.734V33.996H451.176ZM452.056 42.972C453.303 42.972 454.271 42.6127 454.96 41.894C455.649 41.1607 455.994 40.1193 455.994 38.77V38.528C455.994 37.1933 455.649 36.196 454.96 35.536C454.285 34.876 453.317 34.546 452.056 34.546H448.734V42.972H452.056ZM464.027 43.72C463.088 43.72 462.318 43.478 461.717 42.994C461.115 42.4953 460.815 41.762 460.815 40.794C460.815 39.4153 461.394 38.44 462.553 37.868C463.711 37.2813 465.053 36.988 466.579 36.988H468.053V35.294C468.053 34.5313 467.965 33.9447 467.789 33.534C467.627 33.1087 467.371 32.8153 467.019 32.654C466.667 32.478 466.19 32.39 465.589 32.39C464.899 32.39 464.386 32.5293 464.049 32.808C463.711 33.072 463.543 33.4313 463.543 33.886C463.543 34.3113 463.748 34.59 464.159 34.722C464.159 35.0887 464.019 35.4113 463.741 35.69C463.462 35.9687 463.132 36.108 462.751 36.108C462.34 36.108 462.01 35.998 461.761 35.778C461.511 35.5433 461.387 35.1913 461.387 34.722C461.387 33.8713 461.812 33.1893 462.663 32.676C463.513 32.1627 464.577 31.906 465.853 31.906C468.786 31.906 470.253 33.182 470.253 35.734V42.026C470.253 42.3487 470.319 42.598 470.451 42.774C470.597 42.9353 470.803 43.016 471.067 43.016C471.316 43.016 471.514 42.9353 471.661 42.774C471.807 42.598 471.881 42.3633 471.881 42.07H472.343C472.343 42.5833 472.174 42.9867 471.837 43.28C471.514 43.5733 471.059 43.72 470.473 43.72C469.798 43.72 469.226 43.5293 468.757 43.148C468.302 42.752 468.067 42.1433 468.053 41.322C467.701 42.07 467.158 42.6567 466.425 43.082C465.706 43.5073 464.907 43.72 464.027 43.72ZM465.237 42.752C465.633 42.752 466.036 42.6347 466.447 42.4C466.872 42.1653 467.231 41.828 467.525 41.388C467.818 40.9333 467.994 40.3907 468.053 39.76V37.472H466.579C465.376 37.472 464.474 37.7433 463.873 38.286C463.286 38.814 462.993 39.562 462.993 40.53C462.993 41.3367 463.183 41.9087 463.565 42.246C463.946 42.5833 464.503 42.752 465.237 42.752ZM478.929 43.72C477.873 43.72 476.912 43.478 476.047 42.994C475.182 42.4953 474.492 41.7987 473.979 40.904C473.48 39.9947 473.231 38.9607 473.231 37.802C473.231 36.5847 473.495 35.5287 474.023 34.634C474.566 33.7393 475.27 33.0647 476.135 32.61C477 32.1407 477.932 31.906 478.929 31.906C479.765 31.906 480.528 32.0527 481.217 32.346C481.906 32.6247 482.449 33.0207 482.845 33.534C483.256 34.0473 483.461 34.6267 483.461 35.272C483.461 35.756 483.336 36.13 483.087 36.394C482.838 36.6433 482.508 36.768 482.097 36.768C481.701 36.768 481.371 36.636 481.107 36.372C480.843 36.108 480.711 35.778 480.711 35.382C480.931 35.2353 481.085 35.074 481.173 34.898C481.261 34.722 481.305 34.502 481.305 34.238C481.305 33.6953 481.085 33.2553 480.645 32.918C480.22 32.566 479.648 32.39 478.929 32.39C477.873 32.39 477.059 32.7713 476.487 33.534C475.93 34.282 475.651 35.338 475.651 36.702V38.902C475.651 40.2073 475.922 41.256 476.465 42.048C477.022 42.84 477.844 43.236 478.929 43.236C479.926 43.236 480.792 42.9573 481.525 42.4C482.273 41.828 482.735 41.08 482.911 40.156H483.417C483.212 41.2413 482.698 42.1067 481.877 42.752C481.07 43.3973 480.088 43.72 478.929 43.72ZM490.174 43.06L491.714 42.84V32.764L490.174 32.544V32.104H496.202C497.713 32.104 498.791 32.3167 499.436 32.742C500.081 33.1527 500.404 33.8273 500.404 34.766C500.404 36.13 499.539 37.0027 497.808 37.384V37.45C500.037 37.758 501.152 38.748 501.152 40.42C501.152 41.4467 500.778 42.2167 500.03 42.73C499.282 43.2433 498.241 43.5 496.906 43.5H490.174V43.06ZM495.674 37.252C496.437 37.252 497.016 37.054 497.412 36.658C497.823 36.262 498.028 35.668 498.028 34.876V34.788C498.028 34.0693 497.823 33.534 497.412 33.182C497.001 32.83 496.378 32.654 495.542 32.654H493.914V37.252H495.674ZM496.246 42.95C497.053 42.95 497.676 42.7373 498.116 42.312C498.556 41.8867 498.776 41.2633 498.776 40.442V40.288C498.776 39.452 498.556 38.8287 498.116 38.418C497.691 37.9927 497.067 37.78 496.246 37.78H493.914V42.95H496.246ZM508.621 43.72C507.565 43.72 506.604 43.478 505.739 42.994C504.873 42.4953 504.184 41.7987 503.671 40.904C503.172 39.9947 502.923 38.9607 502.923 37.802C502.923 36.6433 503.172 35.6167 503.671 34.722C504.184 33.8273 504.873 33.138 505.739 32.654C506.604 32.1553 507.565 31.906 508.621 31.906C509.677 31.906 510.637 32.1553 511.503 32.654C512.368 33.138 513.05 33.8273 513.549 34.722C514.062 35.6167 514.319 36.6433 514.319 37.802C514.319 38.9607 514.062 39.9947 513.549 40.904C513.05 41.7987 512.368 42.4953 511.503 42.994C510.637 43.478 509.677 43.72 508.621 43.72ZM508.621 43.236C509.706 43.236 510.52 42.84 511.063 42.048C511.62 41.256 511.899 40.2073 511.899 38.902V36.702C511.899 35.3967 511.62 34.3553 511.063 33.578C510.52 32.786 509.706 32.39 508.621 32.39C507.535 32.39 506.714 32.786 506.157 33.578C505.614 34.3553 505.343 35.3967 505.343 36.702V38.902C505.343 40.2073 505.614 41.256 506.157 42.048C506.714 42.84 507.535 43.236 508.621 43.236ZM515.848 43.5V43.06L517.388 42.84V32.764L515.848 32.544V32.104H528.608V32.544L527.068 32.764V42.84L528.608 43.06V43.5H523.548V43.06L524.868 42.84V32.654H519.588V42.84L520.908 43.06V43.5H515.848ZM529.659 49.286L531.199 49.066V32.786L529.659 32.566V32.126H533.399V34.436C533.766 33.644 534.257 33.028 534.873 32.588C535.504 32.1333 536.252 31.906 537.117 31.906C538.159 31.906 539.075 32.1553 539.867 32.654C540.659 33.138 541.275 33.8273 541.715 34.722C542.155 35.602 542.375 36.636 542.375 37.824C542.375 39.012 542.155 40.0533 541.715 40.948C541.275 41.828 540.659 42.51 539.867 42.994C539.075 43.478 538.159 43.72 537.117 43.72C536.252 43.72 535.504 43.5 534.873 43.06C534.257 42.6053 533.766 41.9893 533.399 41.212V49.066L535.467 49.286V49.726H529.659V49.286ZM536.897 43.17C538.936 43.17 539.955 41.7547 539.955 38.924V36.724C539.955 33.8787 538.936 32.456 536.897 32.456C536.252 32.456 535.665 32.6467 535.137 33.028C534.609 33.3947 534.191 33.8933 533.883 34.524C533.575 35.1547 533.414 35.8367 533.399 36.57V38.924C533.399 39.672 533.546 40.376 533.839 41.036C534.147 41.6813 534.565 42.202 535.093 42.598C535.636 42.9793 536.237 43.17 536.897 43.17ZM549.957 43.72C548.901 43.72 547.94 43.478 547.075 42.994C546.209 42.4953 545.52 41.7987 545.007 40.904C544.508 39.9947 544.259 38.9607 544.259 37.802C544.259 36.6433 544.508 35.6167 545.007 34.722C545.52 33.8273 546.209 33.138 547.075 32.654C547.94 32.1553 548.901 31.906 549.957 31.906C551.013 31.906 551.973 32.1553 552.839 32.654C553.704 33.138 554.386 33.8273 554.885 34.722C555.398 35.6167 555.655 36.6433 555.655 37.802C555.655 38.9607 555.398 39.9947 554.885 40.904C554.386 41.7987 553.704 42.4953 552.839 42.994C551.973 43.478 551.013 43.72 549.957 43.72ZM549.957 43.236C551.042 43.236 551.856 42.84 552.399 42.048C552.956 41.256 553.235 40.2073 553.235 38.902V36.702C553.235 35.3967 552.956 34.3553 552.399 33.578C551.856 32.786 551.042 32.39 549.957 32.39C548.871 32.39 548.05 32.786 547.493 33.578C546.95 34.3553 546.679 35.3967 546.679 36.702V38.902C546.679 40.2073 546.95 41.256 547.493 42.048C548.05 42.84 548.871 43.236 549.957 43.236ZM563.234 43.72C562.178 43.72 561.217 43.478 560.352 42.994C559.487 42.4953 558.797 41.7987 558.284 40.904C557.785 39.9947 557.536 38.9607 557.536 37.802C557.536 36.5847 557.8 35.5287 558.328 34.634C558.871 33.7393 559.575 33.0647 560.44 32.61C561.305 32.1407 562.237 31.906 563.234 31.906C564.07 31.906 564.833 32.0527 565.522 32.346C566.211 32.6247 566.754 33.0207 567.15 33.534C567.561 34.0473 567.766 34.6267 567.766 35.272C567.766 35.756 567.641 36.13 567.392 36.394C567.143 36.6433 566.813 36.768 566.402 36.768C566.006 36.768 565.676 36.636 565.412 36.372C565.148 36.108 565.016 35.778 565.016 35.382C565.236 35.2353 565.39 35.074 565.478 34.898C565.566 34.722 565.61 34.502 565.61 34.238C565.61 33.6953 565.39 33.2553 564.95 32.918C564.525 32.566 563.953 32.39 563.234 32.39C562.178 32.39 561.364 32.7713 560.792 33.534C560.235 34.282 559.956 35.338 559.956 36.702V38.902C559.956 40.2073 560.227 41.256 560.77 42.048C561.327 42.84 562.149 43.236 563.234 43.236C564.231 43.236 565.097 42.9573 565.83 42.4C566.578 41.828 567.04 41.08 567.216 40.156H567.722C567.517 41.2413 567.003 42.1067 566.182 42.752C565.375 43.3973 564.393 43.72 563.234 43.72ZM569.215 43.06L570.755 42.84V32.764L569.215 32.544V32.104H574.495V32.544L572.955 32.764V36.9H575.727C577.062 36.9 578.103 37.1787 578.851 37.736C579.599 38.2933 579.973 39.1147 579.973 40.2C579.973 41.2853 579.599 42.1067 578.851 42.664C578.103 43.2213 577.062 43.5 575.727 43.5H569.215V43.06ZM580.237 43.5V43.06L581.777 42.84V32.764L580.237 32.544V32.104H585.517V32.544L583.977 32.764V42.84L585.517 43.06V43.5H580.237ZM575.067 42.95C575.874 42.95 576.497 42.7153 576.937 42.246C577.377 41.7767 577.597 41.102 577.597 40.222V40.178C577.597 39.298 577.377 38.6233 576.937 38.154C576.497 37.6847 575.874 37.45 575.067 37.45H572.955V42.95H575.067ZM588.727 39.87C588.713 38.4033 588.647 36.988 588.529 35.624C588.427 34.26 588.287 32.786 588.111 31.202C588.023 30.366 587.943 29.5667 587.869 28.804C587.811 28.0413 587.781 27.4253 587.781 26.956C587.781 26.6187 587.891 26.3253 588.111 26.076C588.331 25.812 588.625 25.68 588.991 25.68C589.358 25.68 589.651 25.812 589.871 26.076C590.091 26.3253 590.201 26.6187 590.201 26.956C590.201 27.4253 590.165 28.0487 590.091 28.826C590.033 29.6033 589.959 30.4173 589.871 31.268C589.695 33.0427 589.556 34.568 589.453 35.844C589.351 37.1053 589.285 38.4473 589.255 39.87H588.727ZM588.991 43.72C588.625 43.72 588.317 43.5953 588.067 43.346C587.818 43.082 587.693 42.7667 587.693 42.4C587.693 42.0333 587.818 41.7327 588.067 41.498C588.317 41.2487 588.625 41.124 588.991 41.124C589.358 41.124 589.666 41.2487 589.915 41.498C590.165 41.7327 590.289 42.0333 590.289 42.4C590.289 42.7667 590.165 43.082 589.915 43.346C589.666 43.5953 589.358 43.72 588.991 43.72Z" fill="#5E3628"/>
</svg>
