<svg width="63" height="63" viewBox="0 0 63 63" fill="none" xmlns="http://www.w3.org/2000/svg">
<path d="M31.5 63C48.897 63 63 48.897 63 31.5C63 14.103 48.897 0 31.5 0C14.103 0 0 14.103 0 31.5C0 48.897 14.103 63 31.5 63Z" fill="#527976"/>
<path d="M36.0404 16.7036H26.9596C18.6662 16.7036 16.7036 18.6662 16.7036 26.9596V36.0466C16.7036 44.3399 18.6662 46.3025 26.9596 46.3025H36.0466C44.3399 46.3025 46.3025 44.3399 46.3025 36.0466V26.9596C46.2964 18.6662 44.3153 16.7036 36.0404 16.7036ZM40.5932 37.8185H38.4398C37.6277 37.8185 37.3755 37.1725 35.9112 35.6897C34.6377 34.4593 34.0717 34.2932 33.7579 34.2932C33.3211 34.2932 33.1919 34.4162 33.1919 35.0253V36.9694C33.1919 37.4924 33.0258 37.8062 31.6477 37.8062C29.3713 37.8062 26.8427 36.428 25.0708 33.8563C22.4007 30.0973 21.6686 27.2795 21.6686 26.695C21.6686 26.3812 21.7916 26.0921 22.4007 26.0921H24.554C25.0954 26.0921 25.3046 26.3443 25.5138 26.9288C26.5781 29.9988 28.3562 32.6936 29.0821 32.6936C29.3528 32.6936 29.4759 32.5705 29.4759 31.8814V28.7068C29.3897 27.2426 28.6207 27.1195 28.6207 26.5966C28.6207 26.3443 28.8299 26.0982 29.1621 26.0982H32.5459C33.0073 26.0982 33.1734 26.3505 33.1734 26.8919V31.1739C33.1734 31.6354 33.3826 31.8015 33.5057 31.8015C33.7764 31.8015 34.004 31.6354 34.5085 31.1309C36.0527 29.3959 37.1602 26.7258 37.1602 26.7258C37.3078 26.412 37.5539 26.1229 38.1015 26.1229H40.2548C40.9008 26.1229 41.0484 26.4551 40.9008 26.9165C40.6301 28.1716 37.9969 31.8876 37.9969 31.8876C37.7692 32.2629 37.6831 32.429 37.9969 32.8474C38.2245 33.1611 38.9812 33.8071 39.4796 34.3916C40.3963 35.4375 41.11 36.3111 41.2945 36.9202C41.516 37.5047 41.2022 37.8185 40.5932 37.8185Z" fill="#F7F2E5"/>
</svg>
