<?xml version="1.0" encoding="UTF-8" standalone="no"?>
<!DOCTYPE svg PUBLIC "-//W3C//DTD SVG 1.1//EN" "http://www.w3.org/Graphics/SVG/1.1/DTD/svg11.dtd">
<svg xmlns="http://www.w3.org/2000/svg" version="1.1" viewBox="0.00 0.00 139.00 80.00">
<g stroke-width="2.00" fill="none" stroke-linecap="butt">
<path stroke="#486a67" vector-effect="non-scaling-stroke" d="
  M 113.00 18.17
  Q 113.05 36.18 112.94 54.02
  C 112.91 60.02 110.14 61.82 104.23 61.82
  Q 61.87 61.80 19.51 61.87"
/>
<path stroke="#9caca1" vector-effect="non-scaling-stroke" d="
  M 49.67 38.94
  A 0.36 0.36 0.0 0 1 49.54 38.24
  C 53.68 36.50 54.94 30.31 50.25 28.96
  Q 46.02 27.74 37.48 28.52
  Q 36.56 28.61 37.41 28.97
  Q 38.07 29.26 38.84 29.28
  Q 39.50 29.29 39.50 29.96
  L 39.50 48.48
  Q 39.50 48.96 39.02 49.03
  L 37.35 49.27
  Q 37.17 49.30 37.22 49.47
  Q 37.25 49.61 37.29 49.76
  Q 37.33 49.92 37.50 49.93
  Q 46.25 50.15 48.74 49.82
  C 56.42 48.78 56.37 39.15 49.67 38.94"
/>
<path stroke="#9caca1" vector-effect="non-scaling-stroke" d="
  M 78.4638 50.3441
  A 7.32 7.07 87.7 0 0 85.2343 42.7463
  A 7.32 7.07 87.7 0 0 77.8762 35.7159
  A 7.32 7.07 87.7 0 0 71.1057 43.3137
  A 7.32 7.07 87.7 0 0 78.4638 50.3441"
/>
<path stroke="#9caca1" vector-effect="non-scaling-stroke" d="
  M 62.69 44.69
  L 65.45 48.57
  Q 65.72 48.95 65.27 49.07
  L 64.96 49.16
  Q 62.74 49.75 65.03 49.91
  Q 67.73 50.09 70.42 49.94
  Q 71.90 49.85 70.48 49.44
  L 69.53 49.17
  A 1.57 1.50 -8.7 0 1 68.73 48.61
  L 64.33 42.68
  Q 64.08 42.34 64.29 41.98
  Q 66.26 38.52 69.62 36.48
  Q 70.41 36.00 69.48 36.00
  L 65.51 36.01
  Q 65.22 36.01 65.23 36.30
  L 65.24 36.57
  Q 65.26 36.86 65.54 36.93
  L 66.36 37.12
  Q 67.05 37.28 66.59 37.83
  L 63.80 41.15
  Q 63.53 41.48 63.27 41.14
  L 60.38 37.29
  A 0.18 0.17 64.7 0 1 60.47 37.02
  L 61.54 36.75
  A 0.39 0.38 37.1 0 0 61.43 35.99
  L 55.52 36.11
  A 0.29 0.29 0.0 0 0 55.49 36.68
  L 56.54 36.82
  A 1.11 1.09 75.4 0 1 57.29 37.27
  L 61.45 42.98
  Q 61.78 43.44 61.42 43.89
  L 57.68 48.46
  A 1.02 0.99 7.2 0 1 57.28 48.76
  L 55.87 49.38
  A 0.33 0.33 0.0 0 0 56.01 50.01
  L 60.08 49.95
  A 0.31 0.31 0.0 0 0 60.23 49.37
  Q 59.66 49.04 59.04 48.99
  Q 58.12 48.92 58.72 48.21
  L 61.77 44.65
  Q 62.26 44.07 62.69 44.69"
/>
<path stroke="#9caca1" vector-effect="non-scaling-stroke" d="
  M 97.51 48.82
  L 97.50 37.70
  Q 97.50 37.00 98.17 36.84
  L 99.26 36.58
  A 0.15 0.02 -11.9 0 0 99.40 36.53
  L 99.38 36.26
  Q 99.36 36.02 99.11 36.02
  Q 93.44 36.07 87.75 36.01
  Q 87.35 36.01 87.34 36.36
  Q 87.32 36.83 87.77 36.97
  L 88.97 37.33
  A 0.73 0.73 0.0 0 1 89.49 38.04
  C 89.42 41.79 89.66 48.37 85.74 49.45
  Q 85.32 49.56 85.28 50.00
  L 85.00 53.70
  A 0.48 0.48 0.0 0 0 85.89 53.97
  L 87.90 50.44
  Q 88.18 49.95 88.75 49.92
  Q 91.87 49.79 95.00 49.75
  C 97.45 49.71 97.90 52.87 99.33 54.42
  Q 99.91 55.05 99.85 54.20
  L 99.53 49.92
  Q 99.49 49.33 98.90 49.35
  L 98.07 49.37
  A 0.55 0.55 0.0 0 1 97.51 48.82"
/>
<path stroke="#9caca1" vector-effect="non-scaling-stroke" d="
  M 42.51 29.67
  L 42.49 37.65
  A 0.57 0.57 0.0 0 0 43.05 38.22
  L 45.98 38.23
  A 4.07 3.98 -89.8 0 0 49.98 34.17
  L 49.98 33.19
  A 4.07 3.98 -89.8 0 0 46.02 29.11
  L 43.09 29.10
  A 0.57 0.57 0.0 0 0 42.51 29.67"
/>
<path stroke="#9caca1" vector-effect="non-scaling-stroke" d="
  M 42.50 39.28
  L 42.48 48.80
  A 0.44 0.44 0.0 0 0 42.92 49.24
  L 46.70 49.25
  A 4.68 4.44 0.1 0 0 51.39 44.82
  L 51.39 43.30
  A 4.68 4.44 0.1 0 0 46.72 38.85
  L 42.94 38.84
  A 0.44 0.44 0.0 0 0 42.50 39.28"
/>
<path stroke="#9caca1" vector-effect="non-scaling-stroke" d="
  M 82.0500 40.1363
  A 3.70 3.70 0.0 0 0 78.3371 36.4493
  L 77.8971 36.4508
  A 3.70 3.70 0.0 0 0 74.2101 40.1637
  L 74.2300 45.8637
  A 3.70 3.70 0.0 0 0 77.9429 49.5507
  L 78.3829 49.5492
  A 3.70 3.70 0.0 0 0 82.0699 45.8363
  L 82.0500 40.1363"
/>
<path stroke="#9caca1" vector-effect="non-scaling-stroke" d="
  M 90.28 37.49
  C 90.10 41.05 90.25 45.41 88.40 48.72
  A 0.26 0.26 0.0 0 0 88.62 49.10
  L 94.22 49.28
  A 0.62 0.62 0.0 0 0 94.87 48.66
  L 94.87 37.53
  A 0.59 0.58 89.5 0 0 94.28 36.94
  L 90.80 36.98
  Q 90.30 36.99 90.28 37.49"
/>
</g>
<rect fill="#53332b" x="-0.49" y="-5.60" transform="translate(7.27,4.51) rotate(-43.5)" width="0.98" height="11.20" rx="0.47"/>
<rect fill="#53332b" x="-3.60" y="-0.48" transform="translate(23.10,13.55) rotate(-1.9)" width="7.20" height="0.96" rx="0.46"/>
<ellipse fill="#53332b" cx="0.00" cy="0.00" transform="translate(39.90,13.53) rotate(1.2)" rx="4.81" ry="0.45"/>
<rect fill="#53332b" x="-4.41" y="-0.34" transform="translate(58.24,13.55) rotate(1.0)" width="8.82" height="0.68" rx="0.27"/>
<path fill="#53332b" d="
  M 89.92 13.29
  A 0.14 0.14 0.0 0 1 90.06 13.15
  L 93.50 13.20
  A 5.90 0.27 0.7 0 1 99.40 13.54
  L 99.40 13.74
  A 5.90 0.27 0.7 0 1 93.50 13.94
  L 90.06 13.89
  A 0.14 0.14 0.0 0 1 89.92 13.75
  L 89.92 13.29
  Z"
/>
<rect fill="#53332b" x="-3.60" y="-0.47" transform="translate(111.99,13.53) rotate(3.1)" width="7.20" height="0.94" rx="0.41"/>
<ellipse fill="#53332b" cx="0.00" cy="0.00" transform="translate(76.30,13.57) rotate(0.5)" rx="4.55" ry="0.37"/>
<rect fill="#53332b" x="-4.68" y="-0.48" transform="translate(5.01,15.00) rotate(6.2)" width="9.36" height="0.96" rx="0.46"/>
<path fill="#527976" d="
  M 113.00 18.17
  Q 113.05 36.18 112.94 54.02
  C 112.91 60.02 110.14 61.82 104.23 61.82
  Q 61.87 61.80 19.51 61.87
  Q 18.37 39.45 18.81 32.25
  C 19.10 27.48 17.63 20.00 23.05 17.70
  Q 24.66 17.01 29.55 17.01
  Q 69.40 16.96 109.25 17.00
  Q 111.06 17.00 113.00 18.17
  Z
  M 49.67 38.94
  A 0.36 0.36 0.0 0 1 49.54 38.24
  C 53.68 36.50 54.94 30.31 50.25 28.96
  Q 46.02 27.74 37.48 28.52
  Q 36.56 28.61 37.41 28.97
  Q 38.07 29.26 38.84 29.28
  Q 39.50 29.29 39.50 29.96
  L 39.50 48.48
  Q 39.50 48.96 39.02 49.03
  L 37.35 49.27
  Q 37.17 49.30 37.22 49.47
  Q 37.25 49.61 37.29 49.76
  Q 37.33 49.92 37.50 49.93
  Q 46.25 50.15 48.74 49.82
  C 56.42 48.78 56.37 39.15 49.67 38.94
  Z
  M 78.4638 50.3441
  A 7.32 7.07 87.7 0 0 85.2343 42.7463
  A 7.32 7.07 87.7 0 0 77.8762 35.7159
  A 7.32 7.07 87.7 0 0 71.1057 43.3137
  A 7.32 7.07 87.7 0 0 78.4638 50.3441
  Z
  M 62.69 44.69
  L 65.45 48.57
  Q 65.72 48.95 65.27 49.07
  L 64.96 49.16
  Q 62.74 49.75 65.03 49.91
  Q 67.73 50.09 70.42 49.94
  Q 71.90 49.85 70.48 49.44
  L 69.53 49.17
  A 1.57 1.50 -8.7 0 1 68.73 48.61
  L 64.33 42.68
  Q 64.08 42.34 64.29 41.98
  Q 66.26 38.52 69.62 36.48
  Q 70.41 36.00 69.48 36.00
  L 65.51 36.01
  Q 65.22 36.01 65.23 36.30
  L 65.24 36.57
  Q 65.26 36.86 65.54 36.93
  L 66.36 37.12
  Q 67.05 37.28 66.59 37.83
  L 63.80 41.15
  Q 63.53 41.48 63.27 41.14
  L 60.38 37.29
  A 0.18 0.17 64.7 0 1 60.47 37.02
  L 61.54 36.75
  A 0.39 0.38 37.1 0 0 61.43 35.99
  L 55.52 36.11
  A 0.29 0.29 0.0 0 0 55.49 36.68
  L 56.54 36.82
  A 1.11 1.09 75.4 0 1 57.29 37.27
  L 61.45 42.98
  Q 61.78 43.44 61.42 43.89
  L 57.68 48.46
  A 1.02 0.99 7.2 0 1 57.28 48.76
  L 55.87 49.38
  A 0.33 0.33 0.0 0 0 56.01 50.01
  L 60.08 49.95
  A 0.31 0.31 0.0 0 0 60.23 49.37
  Q 59.66 49.04 59.04 48.99
  Q 58.12 48.92 58.72 48.21
  L 61.77 44.65
  Q 62.26 44.07 62.69 44.69
  Z
  M 97.51 48.82
  L 97.50 37.70
  Q 97.50 37.00 98.17 36.84
  L 99.26 36.58
  A 0.15 0.02 -11.9 0 0 99.40 36.53
  L 99.38 36.26
  Q 99.36 36.02 99.11 36.02
  Q 93.44 36.07 87.75 36.01
  Q 87.35 36.01 87.34 36.36
  Q 87.32 36.83 87.77 36.97
  L 88.97 37.33
  A 0.73 0.73 0.0 0 1 89.49 38.04
  C 89.42 41.79 89.66 48.37 85.74 49.45
  Q 85.32 49.56 85.28 50.00
  L 85.00 53.70
  A 0.48 0.48 0.0 0 0 85.89 53.97
  L 87.90 50.44
  Q 88.18 49.95 88.75 49.92
  Q 91.87 49.79 95.00 49.75
  C 97.45 49.71 97.90 52.87 99.33 54.42
  Q 99.91 55.05 99.85 54.20
  L 99.53 49.92
  Q 99.49 49.33 98.90 49.35
  L 98.07 49.37
  A 0.55 0.55 0.0 0 1 97.51 48.82
  Z"
/>
<path fill="#53332b" d="
  M 16.01 17.42
  A 0.16 0.16 0.0 0 1 16.16 17.59
  L 16.10 19.91
  A 5.30 0.44 -88.4 0 1 15.51 25.19
  L 15.35 25.19
  A 5.30 0.44 -88.4 0 1 15.06 19.88
  L 15.12 17.56
  A 0.16 0.16 0.0 0 1 15.29 17.40
  L 16.01 17.42
  Z"
/>
<path fill="#53332b" d="
  M 118.88 17.51
  A 0.08 0.08 0.0 0 1 118.96 17.43
  L 119.11 17.42
  A 3.77 0.85 88.2 0 1 120.07 21.16
  L 120.09 21.54
  A 3.77 0.85 88.2 0 1 119.35 25.34
  L 119.20 25.34
  A 0.08 0.08 0.0 0 1 119.12 25.27
  L 118.88 17.51
  Z"
/>
<path fill="#3d5b58" d="
  M 113.00 18.17
  Q 115.92 20.49 115.95 25.51
  Q 116.06 41.86 115.97 58.26
  C 115.95 63.44 111.71 64.97 107.01 64.98
  Q 48.39 65.10 25.75 64.97
  Q 23.03 64.96 19.51 61.87
  Q 61.87 61.80 104.23 61.82
  C 110.14 61.82 112.91 60.02 112.94 54.02
  Q 113.05 36.18 113.00 18.17
  Z"
/>
<path fill="#e6dfcc" d="
  M 49.67 38.94
  C 56.37 39.15 56.42 48.78 48.74 49.82
  Q 46.25 50.15 37.50 49.93
  Q 37.33 49.92 37.29 49.76
  Q 37.25 49.61 37.22 49.47
  Q 37.17 49.30 37.35 49.27
  L 39.02 49.03
  Q 39.50 48.96 39.50 48.48
  L 39.50 29.96
  Q 39.50 29.29 38.84 29.28
  Q 38.07 29.26 37.41 28.97
  Q 36.56 28.61 37.48 28.52
  Q 46.02 27.74 50.25 28.96
  C 54.94 30.31 53.68 36.50 49.54 38.24
  A 0.36 0.36 0.0 0 0 49.67 38.94
  Z
  M 42.51 29.67
  L 42.49 37.65
  A 0.57 0.57 0.0 0 0 43.05 38.22
  L 45.98 38.23
  A 4.07 3.98 -89.8 0 0 49.98 34.17
  L 49.98 33.19
  A 4.07 3.98 -89.8 0 0 46.02 29.11
  L 43.09 29.10
  A 0.57 0.57 0.0 0 0 42.51 29.67
  Z
  M 42.50 39.28
  L 42.48 48.80
  A 0.44 0.44 0.0 0 0 42.92 49.24
  L 46.70 49.25
  A 4.68 4.44 0.1 0 0 51.39 44.82
  L 51.39 43.30
  A 4.68 4.44 0.1 0 0 46.72 38.85
  L 42.94 38.84
  A 0.44 0.44 0.0 0 0 42.50 39.28
  Z"
/>
<path fill="#527976" d="
  M 42.51 29.67
  A 0.57 0.57 0.0 0 1 43.09 29.10
  L 46.02 29.11
  A 4.07 3.98 -89.8 0 1 49.98 33.19
  L 49.98 34.17
  A 4.07 3.98 -89.8 0 1 45.98 38.23
  L 43.05 38.22
  A 0.57 0.57 0.0 0 1 42.49 37.65
  L 42.51 29.67
  Z"
/>
<ellipse fill="#53332b" cx="0.00" cy="0.00" transform="translate(119.48,41.11) rotate(90.8)" rx="5.33" ry="0.42"/>
<path fill="#e6dfcc" d="
  M 78.4638 50.3441
  A 7.32 7.07 87.7 0 1 71.1057 43.3137
  A 7.32 7.07 87.7 0 1 77.8762 35.7159
  A 7.32 7.07 87.7 0 1 85.2343 42.7463
  A 7.32 7.07 87.7 0 1 78.4638 50.3441
  Z
  M 82.0500 40.1363
  A 3.70 3.70 0.0 0 0 78.3371 36.4493
  L 77.8971 36.4508
  A 3.70 3.70 0.0 0 0 74.2101 40.1637
  L 74.2300 45.8637
  A 3.70 3.70 0.0 0 0 77.9429 49.5507
  L 78.3829 49.5492
  A 3.70 3.70 0.0 0 0 82.0699 45.8363
  L 82.0500 40.1363
  Z"
/>
<path fill="#e6dfcc" d="
  M 61.77 44.65
  L 58.72 48.21
  Q 58.12 48.92 59.04 48.99
  Q 59.66 49.04 60.23 49.37
  A 0.31 0.31 0.0 0 1 60.08 49.95
  L 56.01 50.01
  A 0.33 0.33 0.0 0 1 55.87 49.38
  L 57.28 48.76
  A 1.02 0.99 7.2 0 0 57.68 48.46
  L 61.42 43.89
  Q 61.78 43.44 61.45 42.98
  L 57.29 37.27
  A 1.11 1.09 75.4 0 0 56.54 36.82
  L 55.49 36.68
  A 0.29 0.29 0.0 0 1 55.52 36.11
  L 61.43 35.99
  A 0.39 0.38 37.1 0 1 61.54 36.75
  L 60.47 37.02
  A 0.18 0.17 64.7 0 0 60.38 37.29
  L 63.27 41.14
  Q 63.53 41.48 63.80 41.15
  L 66.59 37.83
  Q 67.05 37.28 66.36 37.12
  L 65.54 36.93
  Q 65.26 36.86 65.24 36.57
  L 65.23 36.30
  Q 65.22 36.01 65.51 36.01
  L 69.48 36.00
  Q 70.41 36.00 69.62 36.48
  Q 66.26 38.52 64.29 41.98
  Q 64.08 42.34 64.33 42.68
  L 68.73 48.61
  A 1.57 1.50 -8.7 0 0 69.53 49.17
  L 70.48 49.44
  Q 71.90 49.85 70.42 49.94
  Q 67.73 50.09 65.03 49.91
  Q 62.74 49.75 64.96 49.16
  L 65.27 49.07
  Q 65.72 48.95 65.45 48.57
  L 62.69 44.69
  Q 62.26 44.07 61.77 44.65
  Z"
/>
<path fill="#e6dfcc" d="
  M 98.07 49.37
  L 98.90 49.35
  Q 99.49 49.33 99.53 49.92
  L 99.85 54.20
  Q 99.91 55.05 99.33 54.42
  C 97.90 52.87 97.45 49.71 95.00 49.75
  Q 91.87 49.79 88.75 49.92
  Q 88.18 49.95 87.90 50.44
  L 85.89 53.97
  A 0.48 0.48 0.0 0 1 85.00 53.70
  L 85.28 50.00
  Q 85.32 49.56 85.74 49.45
  C 89.66 48.37 89.42 41.79 89.49 38.04
  A 0.73 0.73 0.0 0 0 88.97 37.33
  L 87.77 36.97
  Q 87.32 36.83 87.34 36.36
  Q 87.35 36.01 87.75 36.01
  Q 93.44 36.07 99.11 36.02
  Q 99.36 36.02 99.38 36.26
  L 99.40 36.53
  A 0.15 0.02 -11.9 0 1 99.26 36.58
  L 98.17 36.84
  Q 97.50 37.00 97.50 37.70
  L 97.51 48.82
  A 0.55 0.55 0.0 0 0 98.07 49.37
  Z
  M 90.28 37.49
  C 90.10 41.05 90.25 45.41 88.40 48.72
  A 0.26 0.26 0.0 0 0 88.62 49.10
  L 94.22 49.28
  A 0.62 0.62 0.0 0 0 94.87 48.66
  L 94.87 37.53
  A 0.59 0.58 89.5 0 0 94.28 36.94
  L 90.80 36.98
  Q 90.30 36.99 90.28 37.49
  Z"
/>
<ellipse fill="#53332b" cx="0.00" cy="0.00" transform="translate(15.49,41.10) rotate(90.5)" rx="5.01" ry="0.36"/>
<rect fill="#527976" x="-3.92" y="-6.55" transform="translate(78.14,43.00) rotate(-0.2)" width="7.84" height="13.10" rx="3.70"/>
<path fill="#527976" d="
  M 88.40 48.72
  C 90.25 45.41 90.10 41.05 90.28 37.49
  Q 90.30 36.99 90.80 36.98
  L 94.28 36.94
  A 0.59 0.58 89.5 0 1 94.87 37.53
  L 94.87 48.66
  A 0.62 0.62 0.0 0 1 94.22 49.28
  L 88.62 49.10
  A 0.26 0.26 0.0 0 1 88.40 48.72
  Z"
/>
<path fill="#527976" d="
  M 42.50 39.28
  A 0.44 0.44 0.0 0 1 42.94 38.84
  L 46.72 38.85
  A 4.68 4.44 0.1 0 1 51.39 43.30
  L 51.39 44.82
  A 4.68 4.44 0.1 0 1 46.70 49.25
  L 42.92 49.24
  A 0.44 0.44 0.0 0 1 42.48 48.80
  L 42.50 39.28
  Z"
/>
<rect fill="#53332b" x="-0.46" y="-3.96" transform="translate(119.46,60.67) rotate(2.1)" width="0.92" height="7.92" rx="0.44"/>
<path fill="#53332b" d="
  M 15.35 64.46
  A 0.17 0.17 0.0 0 1 15.18 64.29
  L 15.17 62.61
  A 5.87 0.42 89.5 0 1 15.54 56.74
  L 15.66 56.74
  A 5.87 0.42 89.5 0 1 16.13 62.61
  L 16.14 64.29
  A 0.17 0.17 0.0 0 1 15.97 64.46
  L 15.35 64.46
  Z"
/>
<rect fill="#53332b" x="-0.48" y="-2.89" transform="translate(132.27,67.19) rotate(16.1)" width="0.96" height="5.78" rx="0.42"/>
<rect fill="#53332b" x="-3.61" y="-0.42" transform="translate(23.06,68.45) rotate(2.6)" width="7.22" height="0.84" rx="0.40"/>
<rect fill="#53332b" x="-3.53" y="-0.48" transform="translate(111.94,68.46) rotate(-2.0)" width="7.06" height="0.96" rx="0.38"/>
<ellipse fill="#53332b" cx="0.00" cy="0.00" transform="translate(40.26,68.48) rotate(-1.0)" rx="4.61" ry="0.33"/>
<path fill="#53332b" d="
  M 90.13 68.89
  A 0.01 0.01 0.0 0 1 90.12 68.88
  L 90.12 68.79
  A 4.69 0.66 -0.6 0 1 94.81 68.08
  L 95.19 68.08
  A 4.69 0.66 -0.6 0 1 99.88 68.69
  L 99.88 68.78
  A 0.01 0.01 0.0 0 1 99.87 68.79
  L 90.13 68.89
  Z"
/>
<path fill="#53332b" d="
  M 62.50 68.24
  Q 62.81 68.24 62.81 68.48
  L 62.81 68.49
  A 0.31 0.23 -0.0 0 1 62.50 68.72
  L 54.25 68.77
  Q 54.17 68.77 54.17 68.53
  L 54.16 68.27
  A 0.03 0.02 0.0 0 1 54.19 68.25
  L 62.50 68.24
  Z"
/>
<ellipse fill="#53332b" cx="0.00" cy="0.00" transform="translate(76.64,68.49) rotate(-0.2)" rx="4.55" ry="0.30"/>
<rect fill="#53332b" x="-2.97" y="-0.48" transform="translate(126.19,70.98) rotate(19.3)" width="5.94" height="0.96" rx="0.37"/>
<rect fill="#53332b" x="-2.49" y="-0.51" transform="translate(135.44,74.22) rotate(18.0)" width="4.98" height="1.02" rx="0.27"/>
<path fill="#53332b" d="
  M 128.59 78.58
  L 129.37 75.40
  Q 129.44 75.13 129.71 75.16
  L 130.25 75.24
  Q 130.48 75.27 130.42 75.49
  L 129.55 78.75
  Q 129.51 78.91 129.35 78.89
  L 128.79 78.86
  Q 128.53 78.84 128.59 78.58
  Z"
/>
</svg>
