<svg width="63" height="63" viewBox="0 0 63 63" fill="none" xmlns="http://www.w3.org/2000/svg">
<path d="M31.5 63C48.897 63 63 48.897 63 31.5C63 14.103 48.897 0 31.5 0C14.103 0 0 14.103 0 31.5C0 48.897 14.103 63 31.5 63Z" fill="#527976"/>
<path d="M42.8819 16.4268C44.826 16.4268 46.3949 18.0018 46.4872 19.8536V49.6494L42.7834 46.5056L40.747 44.6537L38.526 42.7219L39.455 45.7735H20.0259C18.0879 45.7735 16.5129 44.2969 16.5129 42.3466V19.8598C16.5129 18.0079 18.0879 16.4329 20.0382 16.4329H42.8757L42.8819 16.4268ZM34.4101 24.2956H34.367L34.0902 24.5725C36.9572 25.4031 38.3476 26.7012 38.3476 26.7012C36.4958 25.7784 34.8346 25.3169 33.1673 25.1262C31.9615 24.9416 30.7618 25.0401 29.7405 25.1262H29.4636C28.8115 25.1262 27.4272 25.4031 25.5753 26.1413C24.9293 26.4243 24.5602 26.6089 24.5602 26.6089C24.5602 26.6089 25.9445 25.2246 29.0022 24.4802L28.8176 24.2956C28.8176 24.2956 26.5043 24.2095 24.0065 26.0552C24.0065 26.0552 21.5086 30.4049 21.5086 35.7698C21.5086 35.7698 22.8929 38.1753 26.6889 38.2676C26.6889 38.2676 27.2426 37.5293 27.8025 36.8833C25.6738 36.2373 24.8432 34.9392 24.8432 34.9392C24.8432 34.9392 25.0278 35.0315 25.3046 35.216H25.3846C25.4277 35.216 25.4461 35.2345 25.4646 35.2591V35.2653C25.4892 35.2899 25.5077 35.3083 25.5446 35.3083C25.9999 35.4991 26.4551 35.6836 26.8304 35.862C27.4764 36.1389 28.307 36.4219 29.3221 36.6065C30.608 36.791 32.0845 36.8833 33.7641 36.6065C34.5947 36.4219 35.4252 36.2373 36.2558 35.8682C36.7972 35.5913 37.4617 35.3145 38.1876 34.8469C38.1876 34.8469 37.3571 36.1451 35.1361 36.791C35.5914 37.437 36.2374 38.1753 36.2374 38.1753C40.0333 38.0953 41.5099 35.6836 41.596 35.7882C41.596 30.4295 39.0859 26.0737 39.0859 26.0737C36.8218 24.3941 34.7054 24.3326 34.3301 24.3326L34.4101 24.2956ZM34.6439 30.4049C35.616 30.4049 36.4035 31.2355 36.4035 32.2506C36.4035 33.2719 35.616 34.1025 34.6439 34.1025C33.6718 34.1025 32.8843 33.2719 32.8843 32.2568C32.8905 31.2355 33.678 30.4049 34.6439 30.4049ZM28.3562 30.4049C29.3221 30.4049 30.1096 31.2355 30.1096 32.2506C30.1096 33.2719 29.3221 34.1025 28.35 34.1025C27.3841 34.1025 26.5905 33.2719 26.5905 32.2568C26.5966 31.2355 27.3841 30.4049 28.3562 30.4049Z" fill="#F6F2E5"/>
</svg>
