<svg width="1440" height="97" viewBox="0 0 1440 97" fill="none" xmlns="http://www.w3.org/2000/svg">
<g opacity="0.5">
<circle cx="957" cy="-4" r="21.5" stroke="#527976" stroke-width="5"/>
<path d="M958 18.065C961.167 18.565 969 18.965 975 16.565C982.5 13.565 995.5 12.065 998 18.565C1000.5 25.065 984.5 25.065 981.5 23.065" stroke="#527976" stroke-width="3"/>
<path d="M970.5 -21.5C970.287 -14.9885 967.434 -4.42966 959 2.00577C954.266 5.61826 947.772 7.93143 939 7.5M974 -15.5C975.167 -5.33333 971.6 15 948 15M936.5 -11C940.833 -0.833333 954.6 17.3 975 8.5" stroke="#527976" stroke-width="3"/>
</g>
<g opacity="0.5">
<circle cx="31" cy="5" r="21.5" stroke="#527976" stroke-width="5"/>
<path d="M32 27.065C35.1667 27.565 43 27.965 49 25.565C56.5 22.565 69.5 21.065 72 27.565C74.5 34.065 58.5 34.065 55.5 32.065" stroke="#527976" stroke-width="3"/>
<path d="M44.5 -12.5C44.2865 -5.98852 41.434 4.57034 33 11.0058C28.2656 14.6183 21.7724 16.9314 13 16.5M48 -6.5C49.1667 3.66667 45.6 24 22 24M10.5 -2C14.8333 8.16667 28.6 26.3 49 17.5" stroke="#527976" stroke-width="3"/>
</g>
<g opacity="0.5">
<circle cx="379" cy="55" r="21.5" stroke="#527976" stroke-width="5"/>
<path d="M380 77.065C383.167 77.565 391 77.965 397 75.565C404.5 72.565 417.5 71.065 420 77.565C422.5 84.065 406.5 84.065 403.5 82.065" stroke="#527976" stroke-width="3"/>
<path d="M392.5 37.5C392.287 44.0115 389.434 54.5703 381 61.0058C376.266 64.6183 369.772 66.9314 361 66.5M396 43.5C397.167 53.6667 393.6 74 370 74M358.5 48C362.833 58.1667 376.6 76.3 397 67.5" stroke="#527976" stroke-width="3"/>
</g>
<g opacity="0.5">
<path d="M1158 96.8949C1158 102.694 1153.3 107.395 1147.5 107.395C1141.7 107.395 1137 102.694 1137 96.8949C1137 91.0959 1141.7 86.3949 1147.5 86.3949C1153.3 86.3949 1158 91.0959 1158 96.8949Z" fill="#527976"/>
<path d="M1179.9 57L1160.09 98.7593L1164.52 99.5172C1169.53 89.0433 1179.78 67.2252 1180.78 63.744C1181.78 60.2628 1180.61 57.7975 1179.9 57Z" fill="#527976"/>
<path d="M1196.64 71.9184L1156.58 94.9805L1155.48 90.6188C1165.52 84.8026 1186.46 72.852 1189.85 71.5788C1193.24 70.3055 1195.79 71.2747 1196.64 71.9184Z" fill="#527976"/>
<path d="M1171 108.395C1171 114.194 1166.3 118.895 1160.5 118.895C1154.7 118.895 1150 114.194 1150 108.395C1150 102.596 1154.7 97.8949 1160.5 97.8949C1166.3 97.8949 1171 102.596 1171 108.395Z" fill="#527976"/>
<path d="M1167 108.395C1167 111.985 1164.09 114.895 1160.5 114.895C1156.91 114.895 1154 111.985 1154 108.395C1154 104.805 1156.91 101.895 1160.5 101.895C1164.09 101.895 1167 104.805 1167 108.395Z" fill="#E6DFCC"/>
<path d="M1154 96.8949C1154 100.485 1151.09 103.395 1147.5 103.395C1143.91 103.395 1141 100.485 1141 96.8949C1141 93.305 1143.91 90.3949 1147.5 90.3949C1151.09 90.3949 1154 93.305 1154 96.8949Z" fill="#E6DFCC"/>
</g>
<g opacity="0.5">
<path d="M535 13.8949C535 19.6939 530.299 24.3949 524.5 24.3949C518.701 24.3949 514 19.6939 514 13.8949C514 8.09591 518.701 3.3949 524.5 3.3949C530.299 3.3949 535 8.09591 535 13.8949Z" fill="#527976"/>
<path d="M556.903 -26L537.088 15.7593L541.523 16.5172C546.525 6.04328 556.779 -15.7748 557.78 -19.256C558.78 -22.7372 557.612 -25.2025 556.903 -26Z" fill="#527976"/>
<path d="M573.64 -11.0816L533.582 11.9805L532.476 7.61876C542.52 1.80261 563.457 -10.148 566.848 -11.4212C570.239 -12.6945 572.789 -11.7253 573.64 -11.0816Z" fill="#527976"/>
<path d="M548 25.3949C548 31.1939 543.299 35.8949 537.5 35.8949C531.701 35.8949 527 31.1939 527 25.3949C527 19.5959 531.701 14.8949 537.5 14.8949C543.299 14.8949 548 19.5959 548 25.3949Z" fill="#527976"/>
<path d="M544 25.3949C544 28.9847 541.09 31.8949 537.5 31.8949C533.91 31.8949 531 28.9847 531 25.3949C531 21.805 533.91 18.8949 537.5 18.8949C541.09 18.8949 544 21.805 544 25.3949Z" fill="#E6DFCC"/>
<path d="M531 13.8949C531 17.4847 528.09 20.3949 524.5 20.3949C520.91 20.3949 518 17.4847 518 13.8949C518 10.305 520.91 7.3949 524.5 7.3949C528.09 7.3949 531 10.305 531 13.8949Z" fill="#E6DFCC"/>
</g>
<g opacity="0.5">
<path d="M153 94.8949C153 100.694 148.299 105.395 142.5 105.395C136.701 105.395 132 100.694 132 94.8949C132 89.0959 136.701 84.3949 142.5 84.3949C148.299 84.3949 153 89.0959 153 94.8949Z" fill="#527976"/>
<path d="M174.903 55L155.088 96.7593L159.523 97.5172C164.525 87.0433 174.779 65.2252 175.78 61.744C176.78 58.2628 175.612 55.7975 174.903 55Z" fill="#527976"/>
<path d="M191.64 69.9184L151.582 92.9805L150.476 88.6188C160.52 82.8026 181.457 70.852 184.848 69.5788C188.239 68.3055 190.789 69.2747 191.64 69.9184Z" fill="#527976"/>
<path d="M166 106.395C166 112.194 161.299 116.895 155.5 116.895C149.701 116.895 145 112.194 145 106.395C145 100.596 149.701 95.8949 155.5 95.8949C161.299 95.8949 166 100.596 166 106.395Z" fill="#527976"/>
<path d="M162 106.395C162 109.985 159.09 112.895 155.5 112.895C151.91 112.895 149 109.985 149 106.395C149 102.805 151.91 99.8949 155.5 99.8949C159.09 99.8949 162 102.805 162 106.395Z" fill="#E6DFCC"/>
<path d="M149 94.8949C149 98.4847 146.09 101.395 142.5 101.395C138.91 101.395 136 98.4847 136 94.8949C136 91.305 138.91 88.3949 142.5 88.3949C146.09 88.3949 149 91.305 149 94.8949Z" fill="#E6DFCC"/>
</g>
<path d="M31 94H1474M-9 94H1434" stroke="#5E3628" stroke-dasharray="10 10"/>
</svg>
