<?xml version="1.0" encoding="UTF-8" standalone="no"?>
<!DOCTYPE svg PUBLIC "-//W3C//DTD SVG 1.1//EN" "http://www.w3.org/Graphics/SVG/1.1/DTD/svg11.dtd">
<svg xmlns="http://www.w3.org/2000/svg" version="1.1" viewBox="0.00 0.00 515.00 97.00">
<path fill="#5e3628" d="
  M 225.53 17.74
  C 224.47 18.49 223.39 20.00 221.93 19.62
  A 0.61 0.61 0.0 0 1 221.48 18.97
  Q 221.65 16.93 220.09 15.55
  A 0.89 0.87 27.0 0 1 219.81 14.72
  L 219.87 14.40
  A 0.47 0.47 0.0 0 1 220.61 14.10
  C 224.12 16.59 226.65 13.35 229.57 16.00
  A 0.72 0.72 0.0 0 0 230.78 15.45
  C 230.62 5.57 241.09 10.16 238.25 14.20
  A 1.94 1.94 0.0 0 1 235.66 14.75
  Q 235.07 14.40 234.90 13.69
  C 234.61 12.50 236.03 11.73 236.99 11.58
  A 0.29 0.29 0.0 0 0 237.14 11.08
  C 234.26 8.42 231.13 11.24 231.69 14.47
  Q 231.77 14.95 232.26 14.98
  Q 240.70 15.39 241.76 23.87
  Q 241.84 24.50 242.18 23.96
  Q 242.95 22.74 243.25 21.36
  A 0.71 0.70 -71.1 0 0 242.86 20.56
  Q 240.76 19.57 240.22 17.31
  A 0.58 0.57 75.5 0 1 240.61 16.63
  L 241.07 16.49
  Q 241.69 16.31 241.58 15.67
  L 241.25 13.75
  Q 240.97 12.15 242.09 13.33
  Q 242.99 14.29 243.70 15.40
  Q 243.93 15.76 244.21 15.44
  Q 244.36 15.27 244.58 15.25
  Q 245.02 15.22 245.14 15.66
  Q 245.80 18.05 244.70 20.28
  A 0.30 0.30 0.0 0 1 244.22 20.35
  Q 244.02 20.14 243.74 20.05
  Q 243.57 20.00 243.50 20.16
  Q 243.44 20.29 243.64 20.59
  A 0.57 0.55 -29.0 0 0 244.33 20.78
  L 249.77 18.35
  A 1.05 1.04 -8.6 0 0 250.37 17.55
  Q 250.50 16.58 251.27 16.01
  Q 251.72 15.67 251.64 15.11
  C 251.43 13.56 251.54 10.30 253.98 11.09
  A 1.05 1.05 0.0 0 1 254.50 12.71
  Q 253.32 14.29 253.30 14.35
  Q 252.63 16.10 253.76 14.61
  C 254.45 13.71 256.33 12.55 257.33 13.72
  Q 257.80 14.28 257.50 14.96
  Q 257.29 15.41 256.68 15.72
  Q 255.46 16.34 254.13 16.72
  Q 253.93 16.78 254.00 16.98
  L 254.08 17.21
  Q 254.09 17.25 254.12 17.23
  Q 255.71 16.45 257.40 16.36
  A 1.21 1.20 74.6 0 1 258.53 17.01
  Q 259.27 18.44 257.59 18.87
  Q 255.76 19.34 253.85 19.25
  Q 253.28 19.22 253.25 18.65
  Q 253.23 18.23 253.53 17.90
  Q 253.85 17.54 253.48 17.22
  L 252.83 16.65
  Q 252.55 16.41 252.60 16.77
  L 252.95 19.22
  Q 253.02 19.67 253.47 19.68
  L 257.49 19.77
  A 1.20 1.20 0.0 0 1 258.53 21.51
  Q 257.77 23.02 256.02 22.26
  Q 255.20 21.91 255.14 21.89
  Q 253.28 21.55 254.92 22.49
  Q 257.35 23.88 255.79 25.36
  A 1.15 1.15 0.0 0 1 254.16 25.32
  Q 252.63 23.72 252.76 21.56
  Q 252.79 21.10 252.34 21.23
  L 252.02 21.32
  Q 251.71 21.41 251.56 21.12
  C 248.83 15.85 242.06 24.28 241.83 27.63
  Q 241.80 28.10 242.03 27.69
  Q 243.00 26.02 244.58 24.99
  A 0.44 0.44 0.0 0 1 245.25 25.43
  Q 245.17 25.93 245.87 25.60
  Q 246.90 25.09 247.80 25.53
  Q 248.50 25.87 247.75 26.05
  Q 246.07 26.43 246.31 28.12
  Q 246.38 28.64 245.90 28.84
  Q 244.41 29.46 242.81 29.18
  Q 242.17 29.06 242.16 29.71
  Q 242.10 33.79 245.54 35.90
  Q 246.05 36.21 246.35 35.69
  Q 249.11 30.85 254.79 31.65
  Q 256.18 31.85 255.80 30.51
  L 255.36 28.96
  Q 255.06 27.90 252.75 26.76
  Q 252.14 26.46 251.49 26.58
  A 0.31 0.30 -34.1 0 0 251.38 27.14
  Q 252.16 27.62 252.47 28.48
  A 1.69 1.69 0.0 0 1 252.29 29.97
  Q 251.36 31.41 249.66 31.15
  A 1.87 1.86 -84.9 0 1 248.09 29.26
  Q 248.15 27.24 249.73 26.53
  C 254.22 24.51 256.92 27.78 257.03 31.98
  A 1.09 1.09 0.0 0 0 257.49 32.83
  L 258.77 33.71
  A 0.28 0.28 0.0 0 0 259.21 33.48
  L 259.18 6.84
  A 0.28 0.28 0.0 0 1 259.46 6.56
  L 259.76 6.56
  Q 260.07 6.55 260.07 6.87
  L 260.06 50.47
  Q 260.06 50.92 260.47 51.10
  Q 264.52 52.86 264.37 57.39
  Q 264.36 57.90 264.73 58.25
  Q 267.48 60.84 271.23 60.81
  Q 272.49 60.80 273.88 62.53
  A 0.43 0.43 0.0 0 1 273.74 63.19
  Q 273.59 63.27 273.49 63.40
  A 0.49 0.47 44.0 0 0 273.51 63.96
  Q 274.25 64.94 274.40 66.17
  Q 274.50 66.96 273.80 66.59
  Q 273.03 66.19 272.64 65.40
  A 0.72 0.72 0.0 0 0 271.79 65.03
  L 270.55 65.40
  Q 270.05 65.55 269.76 65.12
  Q 269.28 64.38 269.05 63.52
  Q 269.05 63.50 269.02 63.51
  L 268.78 63.59
  Q 268.54 63.67 268.63 63.91
  C 270.26 68.20 267.61 72.84 266.56 77.13
  A 1.85 1.84 12.9 0 0 267.97 79.37
  Q 273.09 80.48 274.41 85.51
  Q 274.55 86.07 275.11 85.92
  Q 275.50 85.81 275.74 85.53
  Q 276.05 85.16 275.83 84.73
  C 274.75 82.67 275.21 81.13 276.60 79.19
  Q 278.39 76.72 277.41 74.68
  Q 275.75 71.23 278.86 73.47
  Q 279.33 73.81 279.87 74.85
  Q 280.13 75.33 280.62 75.57
  L 282.37 76.40
  A 1.31 1.31 0.0 0 1 282.57 78.66
  L 276.45 83.03
  Q 276.16 83.24 276.42 83.49
  L 276.67 83.74
  Q 276.68 83.74 276.69 83.73
  C 278.52 81.58 282.94 78.27 285.72 80.70
  A 1.99 1.99 0.0 0 1 285.78 83.65
  Q 282.78 86.48 278.72 86.94
  Q 278.18 87.00 278.70 87.14
  C 280.69 87.67 283.92 85.62 286.05 85.07
  A 1.35 1.35 0.0 0 1 287.65 86.85
  Q 286.93 88.79 287.86 90.61
  A 1.77 1.75 46.0 0 1 287.84 92.23
  L 287.64 92.61
  Q 287.16 93.49 286.64 92.63
  Q 284.82 89.63 280.27 89.52
  Q 278.16 89.47 277.33 87.29
  Q 277.14 86.79 276.61 86.68
  Q 275.74 86.50 274.86 86.74
  Q 274.38 86.87 274.28 87.35
  Q 273.62 90.55 270.94 91.54
  C 266.27 93.26 263.50 87.15 267.17 85.38
  A 1.73 1.73 0.0 0 1 269.65 86.98
  Q 269.63 87.54 269.44 88.01
  Q 269.25 88.48 268.77 88.66
  Q 267.92 88.98 267.06 88.86
  Q 266.42 88.78 266.68 89.36
  C 268.39 93.22 272.86 90.81 273.31 87.43
  Q 273.37 86.98 272.93 86.83
  Q 264.32 83.97 266.11 74.67
  Q 266.27 73.86 265.65 74.41
  Q 264.16 75.73 263.28 77.50
  A 0.37 0.37 0.0 0 0 263.75 78.01
  Q 263.87 77.96 264.00 77.92
  Q 264.18 77.85 264.30 78.01
  Q 265.58 79.74 265.49 81.88
  Q 265.47 82.42 264.93 82.44
  L 264.03 82.48
  Q 263.55 82.50 263.51 82.97
  L 263.22 85.75
  Q 263.14 86.59 262.60 85.94
  Q 261.54 84.68 261.41 83.04
  Q 261.35 82.43 260.76 82.60
  L 260.48 82.68
  Q 260.03 82.80 260.03 83.27
  L 260.04 90.96
  Q 260.04 91.19 259.81 91.19
  L 259.43 91.19
  Q 259.14 91.19 259.14 90.89
  Q 258.98 63.65 259.15 36.50
  Q 259.16 34.51 256.78 33.63
  Q 256.42 33.49 256.24 33.84
  Q 255.00 36.29 252.42 37.33
  Q 251.59 37.66 252.46 37.90
  Q 252.67 37.96 252.86 38.03
  Q 253.23 38.16 253.50 38.45
  C 256.11 41.17 251.66 43.83 248.95 42.58
  Q 246.08 41.25 245.97 38.94
  Q 245.84 36.22 243.25 37.09
  Q 241.03 37.85 238.77 37.10
  Q 238.19 36.90 238.40 36.33
  Q 238.67 35.58 238.10 35.16
  Q 237.13 34.45 236.83 33.61
  Q 236.55 32.86 237.28 33.19
  L 238.86 33.92
  Q 239.30 34.13 239.63 33.77
  Q 239.99 33.38 240.51 33.22
  A 0.85 0.82 -30.5 0 1 241.35 33.42
  L 241.70 33.77
  Q 242.37 34.43 241.99 33.57
  Q 240.28 29.65 240.81 25.02
  Q 241.09 22.60 239.80 20.46
  Q 239.54 20.03 239.05 20.12
  Q 234.31 20.89 231.50 17.10
  A 0.39 0.39 0.0 0 0 230.82 17.22
  Q 230.75 17.43 230.75 17.62
  Q 230.76 17.87 230.99 17.98
  Q 232.61 18.75 232.10 20.30
  Q 230.91 23.93 232.93 26.11
  A 0.35 0.35 0.0 0 1 232.67 26.70
  L 231.93 26.70
  A 1.80 1.78 -22.1 0 1 230.70 26.19
  Q 229.61 25.12 227.99 25.28
  Q 227.40 25.34 227.20 24.78
  Q 226.83 23.73 227.81 22.80
  Q 228.84 21.82 229.43 20.56
  Q 229.53 20.36 229.33 20.26
  L 229.32 20.25
  Q 229.13 20.15 229.03 20.35
  C 228.35 21.80 226.40 23.71 224.63 22.89
  Q 223.55 22.40 223.56 21.24
  C 223.57 19.97 224.91 18.92 225.71 17.93
  Q 226.30 17.19 225.53 17.74
  Z
  M 238.9185 19.5142
  A 3.74 1.11 25.4 0 0 236.0161 16.9073
  A 3.74 1.11 25.4 0 0 232.1615 16.3058
  A 3.74 1.11 25.4 0 0 235.0639 18.9127
  A 3.74 1.11 25.4 0 0 238.9185 19.5142
  Z
  M 255.3539 32.9255
  A 4.28 2.04 -24.2 0 0 250.6138 32.8193
  A 4.28 2.04 -24.2 0 0 247.5461 36.4345
  A 4.28 2.04 -24.2 0 0 252.2862 36.5407
  A 4.28 2.04 -24.2 0 0 255.3539 32.9255
  Z
  M 242.87 35.50
  L 242.87 36.21
  A 0.28 0.28 0.0 0 0 243.30 36.45
  Q 243.93 36.06 243.65 35.61
  Q 243.42 35.26 243.01 35.34
  A 0.16 0.16 0.0 0 0 242.87 35.50
  Z
  M 249.74 40.57
  Q 249.44 39.16 250.61 38.46
  Q 251.32 38.04 250.50 37.99
  L 247.69 37.81
  Q 246.94 37.76 247.10 38.49
  Q 247.67 41.22 250.23 42.32
  A 0.27 0.27 0.0 0 0 250.60 42.01
  Q 250.52 41.61 250.22 41.36
  Q 249.85 41.04 249.74 40.57
  Z
  M 260.33 52.13
  Q 260.20 51.93 260.01 51.80
  A 0.18 0.18 0.0 0 0 259.73 52.00
  Q 260.34 54.36 259.85 56.73
  Q 259.81 56.93 260.01 56.96
  L 263.00 57.50
  A 0.24 0.23 5.5 0 0 263.28 57.28
  Q 263.45 53.80 260.48 52.27
  Q 260.38 52.22 260.33 52.13
  Z
  M 260.52 62.05
  Q 262.36 60.99 262.87 58.87
  Q 263.01 58.31 262.43 58.23
  L 260.28 57.94
  Q 259.70 57.86 259.86 58.43
  Q 260.29 59.98 259.84 61.53
  Q 259.53 62.63 260.52 62.05
  Z
  M 260.84 70.34
  Q 262.76 70.48 262.64 68.95
  Q 262.61 68.43 263.11 68.29
  Q 264.79 67.82 266.34 68.53
  A 0.47 0.47 0.0 0 1 266.32 69.40
  L 265.91 69.56
  A 0.14 0.14 0.0 0 0 265.87 69.79
  Q 265.96 69.88 266.10 69.89
  Q 266.23 69.90 266.38 69.77
  C 270.04 66.79 267.36 61.38 264.32 59.15
  Q 263.93 58.87 263.75 59.32
  Q 262.79 61.81 260.39 63.08
  Q 259.92 63.33 260.06 63.83
  Q 260.24 64.50 260.83 64.89
  A 1.79 1.78 41.2 0 1 261.02 67.71
  C 259.05 69.44 260.15 73.17 259.95 75.50
  Q 259.87 76.43 260.76 76.16
  Q 265.06 74.88 267.27 70.98
  Q 267.63 70.35 267.00 70.72
  Q 265.83 71.42 264.65 72.14
  Q 263.32 72.94 262.85 71.69
  Q 262.69 71.26 262.23 71.34
  Q 261.42 71.47 260.65 71.14
  A 0.42 0.42 0.0 0 1 260.84 70.34
  Z
  M 268.59 62.20
  Q 268.86 62.20 269.08 62.01
  Q 269.60 61.54 268.93 61.32
  L 268.36 61.14
  Q 267.93 61.00 267.95 61.45
  Q 267.96 61.66 268.05 61.84
  Q 268.22 62.19 268.59 62.20
  Z
  M 261.19 78.13
  L 262.13 77.24
  Q 263.04 76.39 261.83 76.69
  L 260.34 77.05
  Q 259.84 77.17 259.84 77.68
  L 259.84 79.40
  A 0.30 0.30 0.0 0 0 260.42 79.51
  L 260.68 78.86
  Q 260.85 78.44 261.19 78.13
  Z
  M 273.3663 85.5484
  A 4.00 1.20 43.4 0 0 271.2845 81.9281
  A 4.00 1.20 43.4 0 0 267.5537 80.0516
  A 4.00 1.20 43.4 0 0 269.6355 83.6719
  A 4.00 1.20 43.4 0 0 273.3663 85.5484
  Z"
/>
<path fill="#5e3628" d="
  M 282.79 15.08
  L 283.45 14.48
  Q 283.96 14.02 283.97 14.70
  L 284.07 22.33
  Q 284.12 25.55 283.17 22.47
  C 281.66 17.55 279.58 12.69 273.25 14.61
  Q 272.06 14.98 270.59 17.10
  C 266.21 23.43 266.40 33.53 269.55 39.93
  C 270.68 42.23 273.92 43.97 276.60 43.83
  Q 283.26 43.49 283.75 35.87
  Q 283.77 35.63 284.01 35.64
  L 284.02 35.64
  Q 284.26 35.65 284.27 35.90
  C 284.38 43.35 277.61 47.15 270.99 44.56
  C 257.04 39.11 261.58 6.07 282.12 15.19
  Q 282.49 15.35 282.79 15.08
  Z"
/>
<path fill="#5e3628" d="
  M 81.86 34.10
  L 84.28 32.31
  A 0.53 0.52 72.0 0 1 85.11 32.74
  L 85.10 41.75
  A 0.31 0.30 0.9 0 1 84.78 42.05
  Q 84.64 42.05 84.50 42.05
  A 0.39 0.37 -9.3 0 1 84.16 41.82
  C 83.12 39.35 82.56 36.44 80.35 34.86
  Q 78.04 33.21 75.51 33.13
  C 63.82 32.74 65.23 46.47 65.39 53.85
  C 65.58 62.17 72.78 68.55 80.53 62.91
  C 82.86 61.22 83.25 58.50 84.15 55.70
  Q 84.30 55.21 84.75 55.22
  Q 85.25 55.24 85.25 55.74
  L 85.25 65.03
  Q 85.25 65.86 84.56 65.40
  L 82.02 63.70
  A 0.85 0.84 -38.7 0 0 81.23 63.62
  C 80.51 63.92 79.79 64.60 79.15 64.84
  C 70.46 68.20 62.35 62.39 60.62 53.87
  C 58.88 45.37 61.68 34.86 71.29 32.56
  Q 76.25 31.38 81.11 34.15
  A 0.69 0.69 0.0 0 0 81.86 34.10
  Z"
/>
<path fill="#5e3628" d="
  M 321.27 34.31
  C 316.69 32.37 309.47 32.01 307.83 38.06
  Q 306.56 42.71 311.61 44.26
  Q 316.85 45.88 322.16 47.31
  C 329.38 49.27 328.99 62.02 322.10 64.79
  C 317.27 66.74 314.65 65.40 310.12 64.01
  A 1.05 1.03 -49.2 0 0 309.36 64.07
  L 306.44 65.47
  A 0.57 0.56 77.2 0 1 305.63 64.96
  L 305.65 55.51
  A 0.44 0.44 0.0 0 1 306.11 55.07
  Q 306.31 55.08 306.52 55.21
  Q 306.68 55.31 306.78 55.52
  Q 308.28 58.85 309.68 61.97
  A 2.48 2.47 -87.7 0 0 310.75 63.13
  C 315.86 65.99 326.00 65.95 325.78 57.75
  C 325.49 47.18 303.01 55.12 306.18 39.27
  C 307.71 31.63 315.20 31.16 321.26 33.23
  Q 321.71 33.38 322.16 33.22
  L 324.76 32.25
  Q 325.37 32.02 325.41 32.66
  Q 325.70 36.44 325.42 38.77
  Q 325.12 41.23 324.01 39.01
  L 322.02 35.02
  Q 321.77 34.53 321.27 34.31
  Z"
/>
<path fill="#5e3628" d="
  M 95.93 47.88
  C 100.13 43.01 109.32 41.36 109.47 50.25
  Q 109.57 56.69 109.47 63.12
  Q 109.46 63.79 110.12 63.88
  L 111.98 64.13
  Q 112.20 64.16 112.19 64.38
  L 112.18 64.78
  Q 112.18 64.99 111.97 64.99
  L 103.31 64.99
  Q 103.11 64.99 103.08 64.80
  Q 103.04 64.63 103.00 64.45
  A 0.27 0.27 0.0 0 1 103.23 64.13
  L 105.00 63.85
  Q 105.51 63.78 105.51 63.26
  L 105.49 49.06
  A 3.59 3.58 80.2 0 0 100.71 45.68
  L 99.87 45.98
  Q 95.50 47.53 95.50 52.17
  L 95.50 63.49
  A 0.58 0.58 0.0 0 0 96.21 64.06
  Q 97.16 63.85 97.33 63.96
  Q 98.89 65.01 97.00 65.01
  L 88.85 64.98
  A 0.26 0.25 -3.7 0 1 88.59 64.76
  Q 88.57 64.59 88.55 64.43
  Q 88.52 64.22 88.73 64.19
  L 91.00 63.85
  Q 91.50 63.77 91.50 63.26
  L 91.50 34.75
  A 0.64 0.64 0.0 0 0 90.86 34.11
  Q 89.71 34.09 88.62 33.70
  A 0.33 0.33 0.0 0 1 88.72 33.06
  L 94.99 32.97
  Q 95.50 32.97 95.50 33.49
  L 95.49 47.72
  Q 95.49 48.38 95.93 47.88
  Z"
/>
<path fill="#5e3628" d="
  M 397.70 47.70
  Q 398.71 46.97 399.63 46.17
  C 403.28 43.00 410.87 42.67 411.04 49.00
  Q 411.24 56.14 411.29 63.28
  Q 411.29 63.94 411.95 63.97
  L 413.71 64.05
  Q 413.94 64.06 413.94 64.29
  L 413.95 64.77
  Q 413.95 64.99 413.73 64.99
  L 405.19 65.00
  Q 404.82 65.00 404.82 64.63
  L 404.83 64.36
  Q 404.83 64.11 405.07 64.09
  L 406.56 63.95
  Q 407.26 63.88 407.25 63.19
  L 407.25 49.00
  A 3.47 3.47 0.0 0 0 402.62 45.73
  L 401.49 46.12
  A 6.38 6.36 80.3 0 0 397.25 52.13
  L 397.25 63.28
  A 0.64 0.62 -85.8 0 0 397.78 63.91
  L 399.42 64.17
  Q 399.74 64.22 399.70 64.55
  Q 399.68 64.75 399.54 64.87
  Q 399.45 64.95 399.29 64.96
  Q 394.99 65.07 390.67 64.96
  Q 390.51 64.95 390.51 64.79
  L 390.50 64.48
  Q 390.50 64.21 390.77 64.16
  L 392.55 63.89
  Q 393.25 63.78 393.25 63.07
  L 393.25 34.68
  Q 393.25 34.16 392.74 34.10
  L 390.74 33.87
  Q 390.49 33.84 390.50 33.60
  L 390.51 33.21
  Q 390.51 33.05 390.67 33.05
  L 396.74 32.98
  Q 397.25 32.98 397.25 33.49
  L 397.25 47.48
  Q 397.25 48.02 397.70 47.70
  Z"
/>
<circle fill="#5e3628" cx="348.80" cy="37.00" r="2.67"/>
<path fill="#5e3628" d="
  M 333.25 43.74
  L 333.25 41.74
  Q 333.24 40.95 334.01 40.76
  L 336.47 40.14
  Q 337.25 39.95 337.25 40.75
  L 337.25 43.73
  Q 337.25 44.21 337.73 44.22
  L 342.30 44.32
  Q 342.44 44.32 342.44 44.46
  L 342.45 44.78
  Q 342.46 45.05 342.19 45.07
  L 337.77 45.44
  Q 337.27 45.48 337.27 45.98
  Q 337.20 52.95 337.28 59.88
  C 337.31 62.93 338.27 64.67 341.74 63.68
  Q 344.61 62.86 342.21 64.64
  C 340.11 66.20 335.26 65.40 333.95 63.02
  Q 333.24 61.72 333.25 58.37
  Q 333.27 52.17 333.24 45.98
  A 0.61 0.60 -88.0 0 0 332.68 45.37
  Q 331.66 45.28 331.43 45.22
  Q 328.68 44.49 331.52 44.27
  Q 331.82 44.25 332.75 44.25
  Q 333.26 44.25 333.25 43.74
  Z"
/>
<path fill="#5e3628" d="
  M 362.72 45.90
  Q 362.37 52.83 362.68 59.75
  C 362.84 63.44 364.54 65.39 368.19 63.25
  A 0.29 0.29 0.0 0 1 368.61 63.43
  L 368.68 63.74
  Q 368.69 63.79 368.66 63.82
  Q 366.74 65.57 363.50 65.26
  C 359.12 64.84 358.66 62.58 358.64 58.54
  Q 358.60 52.29 358.64 46.38
  Q 358.65 45.19 357.47 45.29
  Q 356.55 45.36 355.84 44.85
  A 0.32 0.32 0.0 0 1 356.02 44.27
  L 357.98 44.24
  A 0.71 0.71 0.0 0 0 358.68 43.51
  L 358.61 41.56
  Q 358.59 40.94 359.20 40.81
  L 362.21 40.12
  A 0.35 0.35 0.0 0 1 362.64 40.47
  L 362.60 43.68
  Q 362.59 44.27 363.18 44.26
  L 367.53 44.23
  A 0.32 0.31 -1.9 0 1 367.85 44.52
  L 367.88 44.83
  Q 367.90 45.06 367.67 45.08
  L 363.20 45.41
  Q 362.75 45.44 362.72 45.90
  Z"
/>
<path fill="#5e3628" d="
  M 161.24 46.98
  Q 161.24 47.44 161.59 47.15
  Q 165.78 43.67 169.24 43.92
  Q 172.95 44.20 173.95 47.06
  Q 174.20 47.78 174.77 47.28
  Q 179.99 42.71 184.94 44.56
  C 186.94 45.31 187.62 47.60 187.61 49.76
  Q 187.60 56.52 187.60 63.29
  Q 187.60 63.84 188.14 63.90
  L 190.13 64.12
  A 0.35 0.35 0.0 0 1 190.44 64.49
  L 190.43 64.77
  A 0.23 0.23 0.0 0 1 190.20 64.99
  L 181.56 64.99
  A 0.29 0.29 0.0 0 1 181.27 64.71
  L 181.26 64.26
  Q 181.25 64.11 181.40 64.10
  L 183.09 63.95
  Q 183.62 63.91 183.62 63.37
  L 183.63 48.72
  Q 183.63 44.08 179.21 45.48
  L 178.65 45.66
  Q 174.50 46.98 174.50 51.34
  L 174.50 63.51
  A 0.50 0.50 0.0 0 0 175.04 64.01
  Q 175.91 63.93 176.01 63.97
  Q 178.78 65.01 175.75 65.00
  L 168.29 64.99
  Q 168.11 64.99 168.10 64.80
  L 168.07 64.41
  Q 168.06 64.11 168.35 64.08
  L 169.85 63.90
  Q 170.40 63.83 170.40 63.28
  L 170.40 48.82
  A 3.43 3.42 -9.8 0 0 165.82 45.60
  L 165.38 45.76
  Q 161.25 47.24 161.25 51.62
  L 161.25 63.29
  A 0.63 0.63 0.0 0 0 161.79 63.91
  L 163.42 64.17
  Q 163.73 64.22 163.71 64.54
  Q 163.69 64.75 163.54 64.88
  Q 163.45 64.96 163.30 64.96
  Q 158.99 65.02 154.72 65.05
  Q 154.36 65.05 154.35 64.69
  L 154.34 64.36
  Q 154.34 64.22 154.48 64.20
  L 156.75 63.85
  Q 157.26 63.77 157.26 63.26
  L 157.25 46.00
  A 0.60 0.59 -85.5 0 0 156.75 45.41
  L 154.57 45.06
  A 0.39 0.39 0.0 0 1 154.63 44.29
  L 160.61 44.23
  A 0.63 0.62 0.4 0 1 161.24 44.86
  L 161.24 46.98
  Z"
/>
<path fill="#5e3628" d="
  M 383.93 49.39
  C 385.27 44.53 378.62 43.72 376.06 46.09
  C 373.11 48.83 373.57 55.82 374.13 59.46
  C 374.57 62.29 376.34 64.21 379.30 64.46
  Q 385.08 64.94 387.21 58.91
  A 0.18 0.18 0.0 0 1 387.43 58.80
  L 387.68 58.89
  Q 388.08 59.03 387.96 59.43
  Q 386.45 64.44 381.50 65.25
  C 370.54 67.04 365.24 52.99 373.14 46.33
  C 377.31 42.81 388.19 42.75 388.06 50.50
  C 388.01 53.16 383.94 53.65 383.17 51.00
  Q 383.03 50.51 383.38 50.13
  Q 383.53 49.95 383.70 49.78
  Q 383.87 49.60 383.93 49.39
  Z"
/>
<path fill="#5e3628" d="
  M 420.90 53.16
  C 420.69 57.35 420.66 63.77 426.00 64.42
  Q 432.18 65.18 434.68 58.90
  Q 434.71 58.83 434.80 58.83
  L 435.06 58.83
  Q 435.47 58.83 435.36 59.22
  Q 433.63 65.30 427.15 65.35
  C 411.82 65.45 413.64 41.53 428.78 44.07
  Q 432.89 44.76 434.61 48.56
  L 435.08 49.58
  Q 436.45 52.60 433.14 52.60
  L 421.47 52.61
  Q 420.93 52.61 420.90 53.16
  Z
  M 421.42 51.65
  L 431.06 51.59
  A 0.27 0.27 0.0 0 0 431.33 51.31
  L 431.33 50.94
  A 6.18 4.69 89.6 0 0 426.60 44.80
  L 425.80 44.80
  A 6.18 4.69 89.6 0 0 421.15 51.02
  L 421.15 51.39
  A 0.27 0.27 0.0 0 0 421.42 51.65
  Z"
/>
<path fill="#5e3628" d="
  M 442.87 60.47
  A 2.56 2.56 0.0 0 0 444.16 63.96
  Q 447.60 65.41 450.55 63.60
  C 452.76 62.24 453.61 58.93 450.61 57.87
  Q 443.90 55.49 442.03 54.70
  C 438.95 53.41 439.18 48.79 440.77 46.66
  C 443.84 42.55 453.25 42.84 453.86 48.95
  A 1.87 1.87 0.0 0 1 452.38 50.96
  Q 450.92 51.26 450.21 50.15
  Q 449.90 49.67 450.24 49.22
  C 454.26 43.89 441.58 43.03 441.36 48.46
  A 2.17 2.16 11.8 0 0 442.74 50.56
  Q 446.76 52.15 450.52 53.48
  C 456.84 55.73 454.59 64.34 448.52 65.28
  C 444.94 65.84 438.69 64.60 439.13 59.75
  A 2.13 2.12 8.4 0 1 441.69 57.86
  Q 442.57 58.05 443.19 58.66
  Q 443.58 59.03 443.34 59.52
  L 442.87 60.47
  Z"
/>
<path fill="#5e3628" d="
  M 127.92 61.91
  A 0.24 0.24 0.0 0 0 127.50 61.84
  Q 125.25 64.90 121.76 65.33
  C 113.13 66.39 112.26 55.82 120.26 53.86
  Q 123.77 52.99 127.41 53.01
  Q 127.89 53.02 127.95 52.53
  Q 128.35 49.30 127.25 46.30
  Q 127.06 45.80 126.59 45.55
  C 124.75 44.59 121.59 44.19 120.18 46.11
  Q 119.14 47.54 120.29 48.78
  Q 121.70 50.28 119.80 51.09
  L 118.99 51.44
  Q 117.08 52.25 116.19 50.37
  C 114.47 46.73 118.98 44.36 122.01 44.03
  C 129.26 43.25 132.03 45.83 132.00 52.99
  Q 131.98 58.05 131.99 62.88
  A 1.39 1.39 0.0 0 0 134.67 63.40
  L 135.04 62.46
  Q 135.08 62.37 135.16 62.36
  L 135.48 62.32
  Q 135.79 62.29 135.78 62.60
  Q 135.74 64.49 133.99 65.01
  Q 129.23 66.41 127.92 61.91
  Z
  M 127.73 53.96
  C 123.84 53.66 119.27 54.17 118.78 59.00
  C 118.40 62.77 120.94 64.40 124.24 63.33
  C 128.28 62.02 128.13 57.76 128.02 54.26
  A 0.31 0.31 0.0 0 0 127.73 53.96
  Z"
/>
<path fill="#5e3628" d="
  M 143.45 46.48
  Q 143.43 47.04 143.83 46.65
  Q 147.55 43.00 151.43 44.63
  Q 153.37 45.45 152.98 47.64
  A 2.02 2.02 0.0 0 1 151.55 49.23
  Q 150.27 49.60 149.01 48.93
  Q 148.61 48.72 148.68 48.27
  L 148.85 47.07
  A 1.47 1.46 -12.6 0 0 146.59 45.64
  C 144.58 46.97 143.50 48.14 143.50 50.72
  Q 143.49 56.90 143.50 63.07
  Q 143.50 63.59 143.98 63.79
  Q 145.17 64.26 146.51 64.02
  A 0.17 0.16 81.9 0 1 146.70 64.17
  L 146.73 64.55
  A 0.41 0.41 0.0 0 1 146.32 65.00
  L 137.02 64.97
  Q 136.80 64.97 136.77 64.75
  L 136.73 64.36
  Q 136.71 64.16 136.90 64.14
  L 138.78 63.91
  Q 139.50 63.82 139.50 63.09
  L 139.50 46.18
  Q 139.50 45.58 138.94 45.38
  Q 138.24 45.12 137.32 45.24
  Q 137.14 45.26 137.05 45.10
  L 136.77 44.56
  Q 136.62 44.27 136.95 44.27
  L 143.02 44.24
  Q 143.55 44.24 143.52 44.77
  L 143.45 46.48
  Z"
/>
<path fill="#5e3628" d="
  M 204.68 59.26
  L 209.05 46.73
  Q 209.25 46.15 208.69 45.90
  Q 207.68 45.45 206.41 45.54
  A 0.42 0.41 79.2 0 1 205.99 45.25
  L 205.81 44.68
  Q 205.72 44.41 206.01 44.40
  L 212.46 44.36
  Q 212.95 44.36 212.79 44.82
  Q 212.66 45.21 212.18 45.41
  Q 211.50 45.69 210.77 45.89
  Q 210.28 46.02 210.11 46.50
  Q 205.81 59.25 201.36 71.94
  C 197.62 82.62 186.52 72.67 193.39 70.06
  A 1.81 1.49 2.0 0 1 195.76 72.15
  Q 195.05 73.21 195.94 74.32
  A 1.96 1.95 52.2 0 0 198.62 74.66
  C 200.31 73.41 201.79 67.77 202.44 65.84
  Q 202.62 65.33 202.39 64.83
  L 193.63 46.13
  A 1.20 1.20 0.0 0 0 192.73 45.45
  L 190.67 45.11
  Q 190.62 45.10 190.62 45.05
  L 190.62 44.79
  A 0.40 0.39 -90.0 0 1 191.01 44.39
  L 199.51 44.38
  Q 202.05 44.37 199.64 45.22
  Q 199.37 45.31 198.46 45.45
  Q 197.81 45.55 198.09 46.15
  L 204.17 59.28
  Q 204.46 59.90 204.68 59.26
  Z"
/>
<path fill="#5e3628" d="
  M 351.52 63.80
  L 354.03 64.13
  A 0.19 0.19 0.0 0 1 354.20 64.32
  L 354.18 64.82
  A 0.19 0.19 0.0 0 1 353.99 65.01
  L 344.83 64.98
  A 0.19 0.19 0.0 0 1 344.65 64.82
  L 344.57 64.32
  A 0.19 0.19 0.0 0 1 344.74 64.10
  L 347.23 63.87
  A 0.19 0.19 0.0 0 0 347.40 63.68
  L 347.39 45.63
  A 0.19 0.19 0.0 0 0 347.22 45.44
  L 344.72 45.15
  A 0.19 0.19 0.0 0 1 344.55 44.93
  L 344.61 44.58
  A 0.19 0.19 0.0 0 1 344.79 44.42
  L 351.17 44.36
  A 0.19 0.19 0.0 0 1 351.36 44.55
  L 351.35 63.61
  A 0.19 0.19 0.0 0 0 351.52 63.80
  Z"
/>
<path fill="#5e3628" d="
  M 251.03 50.13
  Q 251.68 49.82 251.99 49.21
  Q 252.48 48.24 252.49 49.25
  L 252.52 59.12
  Q 252.52 59.17 252.46 59.18
  L 252.11 59.22
  Q 251.88 59.25 251.86 59.01
  C 251.55 55.43 249.81 49.53 245.62 48.94
  C 242.43 48.50 240.69 51.33 240.39 54.16
  C 239.62 61.54 247.36 62.37 251.15 66.64
  C 258.72 75.17 251.77 91.01 238.92 83.81
  Q 237.48 83.01 236.54 84.41
  Q 236.02 85.16 236.04 84.25
  L 236.23 74.38
  Q 236.24 74.10 236.52 74.09
  L 236.81 74.08
  Q 236.86 74.07 236.86 74.13
  C 237.16 78.02 239.34 84.17 244.02 84.84
  Q 246.70 85.23 248.23 82.96
  C 250.90 78.98 250.28 72.74 246.08 69.90
  C 242.71 67.62 238.50 65.73 237.42 61.22
  C 235.58 53.51 241.43 43.87 250.18 50.06
  A 0.83 0.82 -39.8 0 0 251.03 50.13
  Z"
/>
<path fill="#5e3628" d="
  M 0.00 53.88
  L 0.00 52.11
  L 50.79 52.04
  Q 51.01 52.04 51.01 52.26
  L 50.98 53.74
  Q 50.98 53.96 50.75 53.96
  L 0.00 53.88
  Z"
/>
<path fill="#5e3628" d="
  M 515.00 52.12
  L 515.00 53.87
  L 464.49 53.97
  A 0.48 0.48 0.0 0 1 464.01 53.50
  L 464.00 52.47
  Q 463.99 52.03 464.43 52.03
  L 515.00 52.12
  Z"
/>
</svg>
