<svg width="63" height="63" viewBox="0 0 63 63" fill="none" xmlns="http://www.w3.org/2000/svg">
<path d="M31.5 63C48.897 63 63 48.897 63 31.5C63 14.103 48.897 0 31.5 0C14.103 0 0 14.103 0 31.5C0 48.897 14.103 63 31.5 63Z" fill="#527976"/>
<path d="M31.4816 15.75C22.7945 15.75 15.7501 22.7944 15.7501 31.4815C15.7501 38.1507 19.8967 43.8416 25.7476 46.1303C25.6123 44.8875 25.4892 42.9741 25.803 41.6145C26.0922 40.384 27.6487 33.7948 27.6487 33.7948C27.6487 33.7948 27.175 32.8474 27.175 31.4569C27.175 29.2729 28.4423 27.6363 30.0235 27.6363C31.3647 27.6363 32.0169 28.6453 32.0169 29.8512C32.0169 31.2047 31.1617 33.2227 30.7126 35.093C30.3373 36.6618 31.5001 37.9354 33.0443 37.9354C35.8375 37.9354 37.9908 34.9884 37.9908 30.731C37.9908 26.978 35.2838 24.3387 31.4201 24.3387C26.9473 24.3387 24.3203 27.704 24.3203 31.1616C24.3203 32.5151 24.8371 33.9732 25.4892 34.7607C25.6184 34.9207 25.6369 35.0561 25.6 35.216C25.4831 35.7082 25.2124 36.791 25.1631 37.0063C25.0955 37.3017 24.9355 37.3632 24.634 37.2217C22.6714 36.3173 21.441 33.4441 21.441 31.1247C21.441 26.1659 25.0463 21.607 31.8384 21.607C37.2956 21.607 41.5407 25.5015 41.5407 30.694C41.5407 36.1204 38.12 40.4886 33.3581 40.4886C31.7646 40.4886 30.2696 39.6642 29.7405 38.6798L28.7561 42.4204C28.4054 43.7924 27.4395 45.5089 26.7874 46.5486C28.2639 47.0039 29.8143 47.25 31.4447 47.25C40.1133 47.25 47.1762 40.2056 47.1762 31.5185C47.1762 22.8252 40.1195 15.7869 31.4447 15.7869L31.4816 15.75Z" fill="#F6F2E5"/>
</svg>
