<svg width="899" height="27" viewBox="0 0 899 27" fill="none" xmlns="http://www.w3.org/2000/svg">
<path d="M539.465 19.3C538.375 19.3 537.4 19.035 536.54 18.505C535.68 17.975 535.01 17.235 534.53 16.285C534.05 15.325 533.81 14.23 533.81 13C533.81 11.77 534.05 10.68 534.53 9.73C535.01 8.77 535.68 8.025 536.54 7.495C537.4 6.965 538.375 6.7 539.465 6.7C540.555 6.7 541.53 6.965 542.39 7.495C543.25 8.025 543.92 8.77 544.4 9.73C544.88 10.68 545.12 11.77 545.12 13C545.12 14.23 544.88 15.325 544.4 16.285C543.92 17.235 543.25 17.975 542.39 18.505C541.53 19.035 540.555 19.3 539.465 19.3ZM539.465 18.955C540.185 18.955 540.83 18.765 541.4 18.385C541.98 18.005 542.435 17.455 542.765 16.735C543.095 16.005 543.26 15.145 543.26 14.155V11.845C543.26 10.855 543.095 10 542.765 9.28C542.435 8.55 541.98 7.995 541.4 7.615C540.83 7.235 540.185 7.045 539.465 7.045C538.735 7.045 538.085 7.235 537.515 7.615C536.945 7.995 536.495 8.55 536.165 9.28C535.835 10 535.67 10.855 535.67 11.845V14.155C535.67 15.145 535.835 16.005 536.165 16.735C536.495 17.455 536.945 18.005 537.515 18.385C538.085 18.765 538.735 18.955 539.465 18.955ZM550.465 19.15C549.745 19.15 549.09 18.985 548.5 18.655C547.91 18.315 547.44 17.84 547.09 17.23C546.75 16.61 546.58 15.905 546.58 15.115C546.58 14.285 546.76 13.565 547.12 12.955C547.49 12.345 547.97 11.885 548.56 11.575C549.15 11.255 549.785 11.095 550.465 11.095C551.035 11.095 551.555 11.195 552.025 11.395C552.495 11.585 552.865 11.855 553.135 12.205C553.415 12.555 553.555 12.95 553.555 13.39C553.555 13.72 553.47 13.975 553.3 14.155C553.13 14.325 552.905 14.41 552.625 14.41C552.355 14.41 552.13 14.32 551.95 14.14C551.77 13.96 551.68 13.735 551.68 13.465C551.83 13.365 551.935 13.255 551.995 13.135C552.055 13.015 552.085 12.865 552.085 12.685C552.085 12.315 551.935 12.015 551.635 11.785C551.345 11.545 550.955 11.425 550.465 11.425C549.745 11.425 549.19 11.685 548.8 12.205C548.42 12.715 548.23 13.435 548.23 14.365V15.865C548.23 16.755 548.415 17.47 548.785 18.01C549.165 18.55 549.725 18.82 550.465 18.82C551.145 18.82 551.735 18.63 552.235 18.25C552.745 17.86 553.06 17.35 553.18 16.72H553.525C553.385 17.46 553.035 18.05 552.475 18.49C551.925 18.93 551.255 19.15 550.465 19.15ZM556.268 19V18.7L557.468 18.55V11.605H556.178L554.873 14.08H554.453L554.678 11.23H561.758L561.983 14.08H561.563L560.243 11.605H558.968V18.55L560.168 18.7V19H556.268ZM565.177 19.15C564.537 19.15 564.012 18.985 563.602 18.655C563.192 18.315 562.987 17.815 562.987 17.155C562.987 16.215 563.382 15.55 564.172 15.16C564.962 14.76 565.877 14.56 566.917 14.56H567.922V13.405C567.922 12.885 567.862 12.485 567.742 12.205C567.632 11.915 567.457 11.715 567.217 11.605C566.977 11.485 566.652 11.425 566.242 11.425C565.772 11.425 565.422 11.52 565.192 11.71C564.962 11.89 564.847 12.135 564.847 12.445C564.847 12.735 564.987 12.925 565.267 13.015C565.267 13.265 565.172 13.485 564.982 13.675C564.792 13.865 564.567 13.96 564.307 13.96C564.027 13.96 563.802 13.885 563.632 13.735C563.462 13.575 563.377 13.335 563.377 13.015C563.377 12.435 563.667 11.97 564.247 11.62C564.827 11.27 565.552 11.095 566.422 11.095C568.422 11.095 569.422 11.965 569.422 13.705V17.995C569.422 18.215 569.467 18.385 569.557 18.505C569.657 18.615 569.797 18.67 569.977 18.67C570.147 18.67 570.282 18.615 570.382 18.505C570.482 18.385 570.532 18.225 570.532 18.025H570.847C570.847 18.375 570.732 18.65 570.502 18.85C570.282 19.05 569.972 19.15 569.572 19.15C569.112 19.15 568.722 19.02 568.402 18.76C568.092 18.49 567.932 18.075 567.922 17.515C567.682 18.025 567.312 18.425 566.812 18.715C566.322 19.005 565.777 19.15 565.177 19.15ZM566.002 18.49C566.272 18.49 566.547 18.41 566.827 18.25C567.117 18.09 567.362 17.86 567.562 17.56C567.762 17.25 567.882 16.88 567.922 16.45V14.89H566.917C566.097 14.89 565.482 15.075 565.072 15.445C564.672 15.805 564.472 16.315 564.472 16.975C564.472 17.525 564.602 17.915 564.862 18.145C565.122 18.375 565.502 18.49 566.002 18.49ZM571.213 18.7L572.263 18.55V11.68L571.213 11.53V11.23H575.323C576.353 11.23 577.088 11.375 577.528 11.665C577.968 11.945 578.188 12.405 578.188 13.045C578.188 13.975 577.598 14.57 576.418 14.83V14.875C577.938 15.085 578.698 15.76 578.698 16.9C578.698 17.6 578.443 18.125 577.933 18.475C577.423 18.825 576.713 19 575.803 19H571.213V18.7ZM574.963 14.74C575.483 14.74 575.878 14.605 576.148 14.335C576.428 14.065 576.568 13.66 576.568 13.12V13.06C576.568 12.57 576.428 12.205 576.148 11.965C575.868 11.725 575.443 11.605 574.873 11.605H573.763V14.74H574.963ZM575.353 18.625C575.903 18.625 576.328 18.48 576.628 18.19C576.928 17.9 577.078 17.475 577.078 16.915V16.81C577.078 16.24 576.928 15.815 576.628 15.535C576.338 15.245 575.913 15.1 575.353 15.1H573.763V18.625H575.353ZM579.665 18.7L580.715 18.55V11.68L579.665 11.53V11.23H583.265V11.53L582.215 11.68V14.5H584.255C585.155 14.5 585.86 14.69 586.37 15.07C586.89 15.45 587.15 16.01 587.15 16.75C587.15 17.49 586.895 18.05 586.385 18.43C585.875 18.81 585.165 19 584.255 19H579.665V18.7ZM583.805 18.625C584.355 18.625 584.78 18.465 585.08 18.145C585.38 17.825 585.53 17.365 585.53 16.765V16.735C585.53 16.135 585.38 15.675 585.08 15.355C584.78 15.035 584.355 14.875 583.805 14.875H582.215V18.625H583.805ZM589.227 19V18.7L590.427 18.55V11.605H589.137L587.832 14.08H587.412L587.637 11.23H594.717L594.942 14.08H594.522L593.202 11.605H591.927V18.55L593.127 18.7V19H589.227ZM599.861 19.15C599.121 19.15 598.451 18.985 597.851 18.655C597.251 18.315 596.776 17.84 596.426 17.23C596.076 16.62 595.901 15.915 595.901 15.115C595.901 14.315 596.071 13.615 596.411 13.015C596.761 12.405 597.226 11.935 597.806 11.605C598.396 11.265 599.051 11.095 599.771 11.095C600.401 11.095 600.966 11.235 601.466 11.515C601.966 11.795 602.356 12.185 602.636 12.685C602.916 13.175 603.061 13.74 603.071 14.38H597.551V15.865C597.551 16.745 597.746 17.46 598.136 18.01C598.536 18.55 599.111 18.82 599.861 18.82C600.551 18.82 601.161 18.625 601.691 18.235C602.221 17.845 602.546 17.34 602.666 16.72H603.011C602.871 17.46 602.516 18.05 601.946 18.49C601.376 18.93 600.681 19.15 599.861 19.15ZM601.421 14.005C601.421 13.135 601.286 12.49 601.016 12.07C600.746 11.64 600.326 11.425 599.756 11.425C599.086 11.425 598.566 11.66 598.196 12.13C597.826 12.6 597.616 13.225 597.566 14.005H601.421ZM611.783 19.15C611.063 19.15 610.408 18.985 609.818 18.655C609.228 18.315 608.758 17.84 608.408 17.23C608.068 16.61 607.898 15.905 607.898 15.115C607.898 14.325 608.068 13.625 608.408 13.015C608.758 12.405 609.228 11.935 609.818 11.605C610.408 11.265 611.063 11.095 611.783 11.095C612.503 11.095 613.158 11.265 613.748 11.605C614.338 11.935 614.803 12.405 615.143 13.015C615.493 13.625 615.668 14.325 615.668 15.115C615.668 15.905 615.493 16.61 615.143 17.23C614.803 17.84 614.338 18.315 613.748 18.655C613.158 18.985 612.503 19.15 611.783 19.15ZM611.783 18.82C612.523 18.82 613.078 18.55 613.448 18.01C613.828 17.47 614.018 16.755 614.018 15.865V14.365C614.018 13.475 613.828 12.765 613.448 12.235C613.078 11.695 612.523 11.425 611.783 11.425C611.043 11.425 610.483 11.695 610.103 12.235C609.733 12.765 609.548 13.475 609.548 14.365V15.865C609.548 16.755 609.733 17.47 610.103 18.01C610.483 18.55 611.043 18.82 611.783 18.82ZM618.436 19V18.7L619.636 18.55V11.605H618.346L617.041 14.08H616.621L616.846 11.23H623.926L624.151 14.08H623.731L622.411 11.605H621.136V18.55L622.336 18.7V19H618.436ZM628.2 19.15C627.09 19.15 626.28 18.995 625.77 18.685C625.27 18.365 625.02 17.965 625.02 17.485C625.02 17.185 625.105 16.945 625.275 16.765C625.455 16.575 625.69 16.48 625.98 16.48C626.17 16.48 626.34 16.53 626.49 16.63C626.64 16.73 626.745 16.87 626.805 17.05C626.635 17.25 626.55 17.46 626.55 17.68C626.55 18.02 626.7 18.305 627 18.535C627.31 18.755 627.71 18.865 628.2 18.865C628.8 18.865 629.28 18.71 629.64 18.4C630.01 18.08 630.195 17.615 630.195 17.005V16.81C630.195 16.26 629.99 15.84 629.58 15.55C629.18 15.25 628.68 15.1 628.08 15.1H627.24V14.74H628.08C628.65 14.74 629.085 14.605 629.385 14.335C629.685 14.055 629.835 13.65 629.835 13.12V13.06C629.835 11.94 629.305 11.38 628.245 11.38C627.675 11.38 627.15 11.52 626.67 11.8L625.77 13.945H625.455L625.62 11.095L626.52 11.53C627.08 11.24 627.665 11.095 628.275 11.095C629.395 11.095 630.205 11.26 630.705 11.59C631.205 11.91 631.455 12.395 631.455 13.045C631.455 13.515 631.28 13.905 630.93 14.215C630.59 14.525 630.075 14.735 629.385 14.845V14.86C630.195 14.94 630.8 15.155 631.2 15.505C631.61 15.855 631.815 16.32 631.815 16.9C631.815 17.61 631.515 18.165 630.915 18.565C630.315 18.955 629.41 19.15 628.2 19.15ZM632.853 18.7L633.903 18.55V11.68L632.853 11.53V11.23H636.453V11.53L635.403 11.68V14.5H637.293C638.203 14.5 638.913 14.69 639.423 15.07C639.933 15.45 640.188 16.01 640.188 16.75C640.188 17.49 639.933 18.05 639.423 18.43C638.913 18.81 638.203 19 637.293 19H632.853V18.7ZM640.368 19V18.7L641.418 18.55V11.68L640.368 11.53V11.23H643.968V11.53L642.918 11.68V18.55L643.968 18.7V19H640.368ZM636.843 18.625C637.393 18.625 637.818 18.465 638.118 18.145C638.418 17.825 638.568 17.365 638.568 16.765V16.735C638.568 16.135 638.418 15.675 638.118 15.355C637.818 15.035 637.393 14.875 636.843 14.875H635.403V18.625H636.843ZM644.777 18.7L645.827 18.55V11.68L644.777 11.53V11.23H648.887C649.917 11.23 650.652 11.375 651.092 11.665C651.532 11.945 651.752 12.405 651.752 13.045C651.752 13.975 651.162 14.57 649.982 14.83V14.875C651.502 15.085 652.262 15.76 652.262 16.9C652.262 17.6 652.007 18.125 651.497 18.475C650.987 18.825 650.277 19 649.367 19H644.777V18.7ZM648.527 14.74C649.047 14.74 649.442 14.605 649.712 14.335C649.992 14.065 650.132 13.66 650.132 13.12V13.06C650.132 12.57 649.992 12.205 649.712 11.965C649.432 11.725 649.007 11.605 648.437 11.605H647.327V14.74H648.527ZM648.917 18.625C649.467 18.625 649.892 18.48 650.192 18.19C650.492 17.9 650.642 17.475 650.642 16.915V16.81C650.642 16.24 650.492 15.815 650.192 15.535C649.902 15.245 649.477 15.1 648.917 15.1H647.327V18.625H648.917ZM656.818 19V18.7L657.868 18.55V11.68L656.818 11.53V11.23H660.268V11.53L659.368 11.68V17.515L663.163 11.98V11.68L662.263 11.53V11.23H665.713V11.53L664.663 11.68V18.55L665.713 18.7V19H662.263V18.7L663.163 18.55V12.61L659.368 18.16V18.55L660.268 18.7V19H656.818ZM670.119 19V18.7L671.169 18.55V11.68L670.119 11.53V11.23H678.819V11.53L677.769 11.68V18.55L678.819 18.7V19H675.369V18.7L676.269 18.55V11.605H672.669V18.55L673.569 18.7V19H670.119ZM683.751 19.15C683.031 19.15 682.376 18.985 681.786 18.655C681.196 18.315 680.726 17.84 680.376 17.23C680.036 16.61 679.866 15.905 679.866 15.115C679.866 14.325 680.036 13.625 680.376 13.015C680.726 12.405 681.196 11.935 681.786 11.605C682.376 11.265 683.031 11.095 683.751 11.095C684.471 11.095 685.126 11.265 685.716 11.605C686.306 11.935 686.771 12.405 687.111 13.015C687.461 13.625 687.636 14.325 687.636 15.115C687.636 15.905 687.461 16.61 687.111 17.23C686.771 17.84 686.306 18.315 685.716 18.655C685.126 18.985 684.471 19.15 683.751 19.15ZM683.751 18.82C684.491 18.82 685.046 18.55 685.416 18.01C685.796 17.47 685.986 16.755 685.986 15.865V14.365C685.986 13.475 685.796 12.765 685.416 12.235C685.046 11.695 684.491 11.425 683.751 11.425C683.011 11.425 682.451 11.695 682.071 12.235C681.701 12.765 681.516 13.475 681.516 14.365V15.865C681.516 16.755 681.701 17.47 682.071 18.01C682.451 18.55 683.011 18.82 683.751 18.82ZM688.678 19V18.7L689.818 18.25V11.665L688.768 11.53V11.23H691.678L694.048 16.84L696.403 11.23H699.163V11.53L698.113 11.68V18.55L699.163 18.7V19H695.713V18.7L696.613 18.55V11.725L693.508 19H693.328L690.193 11.725V18.25L691.333 18.7V19H688.678ZM704.097 19.15C703.377 19.15 702.722 18.985 702.132 18.655C701.542 18.315 701.072 17.84 700.722 17.23C700.382 16.61 700.212 15.905 700.212 15.115C700.212 14.325 700.382 13.625 700.722 13.015C701.072 12.405 701.542 11.935 702.132 11.605C702.722 11.265 703.377 11.095 704.097 11.095C704.817 11.095 705.472 11.265 706.062 11.605C706.652 11.935 707.117 12.405 707.457 13.015C707.807 13.625 707.982 14.325 707.982 15.115C707.982 15.905 707.807 16.61 707.457 17.23C707.117 17.84 706.652 18.315 706.062 18.655C705.472 18.985 704.817 19.15 704.097 19.15ZM704.097 18.82C704.837 18.82 705.392 18.55 705.762 18.01C706.142 17.47 706.332 16.755 706.332 15.865V14.365C706.332 13.475 706.142 12.765 705.762 12.235C705.392 11.695 704.837 11.425 704.097 11.425C703.357 11.425 702.797 11.695 702.417 12.235C702.047 12.765 701.862 13.475 701.862 14.365V15.865C701.862 16.755 702.047 17.47 702.417 18.01C702.797 18.55 703.357 18.82 704.097 18.82ZM709.025 19V18.7L710.075 18.55V11.68L709.025 11.53V11.23H715.58L715.805 14.08H715.385L714.065 11.605H711.575V18.55L712.925 18.7V19H709.025ZM716.525 19V18.7L717.575 18.55V11.68L716.525 11.53V11.23H719.975V11.53L719.075 11.68V17.515L722.87 11.98V11.68L721.97 11.53V11.23H725.42V11.53L724.37 11.68V18.55L725.42 18.7V19H721.97V18.7L722.87 18.55V12.61L719.075 18.16V18.55L719.975 18.7V19H716.525ZM727.962 19V18.7L729.162 18.55V11.605H727.872L726.567 14.08H726.147L726.372 11.23H733.452L733.677 14.08H733.257L731.937 11.605H730.662V18.55L731.862 18.7V19H727.962ZM738.596 19.15C737.856 19.15 737.186 18.985 736.586 18.655C735.986 18.315 735.511 17.84 735.161 17.23C734.811 16.62 734.636 15.915 734.636 15.115C734.636 14.315 734.806 13.615 735.146 13.015C735.496 12.405 735.961 11.935 736.541 11.605C737.131 11.265 737.786 11.095 738.506 11.095C739.136 11.095 739.701 11.235 740.201 11.515C740.701 11.795 741.091 12.185 741.371 12.685C741.651 13.175 741.796 13.74 741.806 14.38H736.286V15.865C736.286 16.745 736.481 17.46 736.871 18.01C737.271 18.55 737.846 18.82 738.596 18.82C739.286 18.82 739.896 18.625 740.426 18.235C740.956 17.845 741.281 17.34 741.401 16.72H741.746C741.606 17.46 741.251 18.05 740.681 18.49C740.111 18.93 739.416 19.15 738.596 19.15ZM740.156 14.005C740.156 13.135 740.021 12.49 739.751 12.07C739.481 11.64 739.061 11.425 738.491 11.425C737.821 11.425 737.301 11.66 736.931 12.13C736.561 12.6 736.351 13.225 736.301 14.005H740.156ZM746.393 19V18.7L747.443 18.55V11.68L746.393 11.53V11.23H749.843V11.53L748.943 11.68V14.875H752.648V11.68L751.748 11.53V11.23H755.198V11.53L754.148 11.68V18.55L755.198 18.7V19H751.748V18.7L752.648 18.55V15.25H748.943V18.55L749.843 18.7V19H746.393ZM758.478 19.15C757.838 19.15 757.313 18.985 756.903 18.655C756.493 18.315 756.288 17.815 756.288 17.155C756.288 16.215 756.683 15.55 757.473 15.16C758.263 14.76 759.178 14.56 760.218 14.56H761.223V13.405C761.223 12.885 761.163 12.485 761.043 12.205C760.933 11.915 760.758 11.715 760.518 11.605C760.278 11.485 759.953 11.425 759.543 11.425C759.073 11.425 758.723 11.52 758.493 11.71C758.263 11.89 758.148 12.135 758.148 12.445C758.148 12.735 758.288 12.925 758.568 13.015C758.568 13.265 758.473 13.485 758.283 13.675C758.093 13.865 757.868 13.96 757.608 13.96C757.328 13.96 757.103 13.885 756.933 13.735C756.763 13.575 756.678 13.335 756.678 13.015C756.678 12.435 756.968 11.97 757.548 11.62C758.128 11.27 758.853 11.095 759.723 11.095C761.723 11.095 762.723 11.965 762.723 13.705V17.995C762.723 18.215 762.768 18.385 762.858 18.505C762.958 18.615 763.098 18.67 763.278 18.67C763.448 18.67 763.583 18.615 763.683 18.505C763.783 18.385 763.833 18.225 763.833 18.025H764.148C764.148 18.375 764.033 18.65 763.803 18.85C763.583 19.05 763.273 19.15 762.873 19.15C762.413 19.15 762.023 19.02 761.703 18.76C761.393 18.49 761.233 18.075 761.223 17.515C760.983 18.025 760.613 18.425 760.113 18.715C759.623 19.005 759.078 19.15 758.478 19.15ZM759.303 18.49C759.573 18.49 759.848 18.41 760.128 18.25C760.418 18.09 760.663 17.86 760.863 17.56C761.063 17.25 761.183 16.88 761.223 16.45V14.89H760.218C759.398 14.89 758.783 15.075 758.373 15.445C757.973 15.805 757.773 16.315 757.773 16.975C757.773 17.525 757.903 17.915 758.163 18.145C758.423 18.375 758.803 18.49 759.303 18.49ZM764.513 19V18.7L765.653 18.25V11.665L764.603 11.53V11.23H767.513L769.883 16.84L772.238 11.23H774.998V11.53L773.948 11.68V18.55L774.998 18.7V19H771.548V18.7L772.448 18.55V11.725L769.343 19H769.163L766.028 11.725V18.25L767.168 18.7V19H764.513ZM783.521 19.15C782.801 19.15 782.146 18.985 781.556 18.655C780.966 18.315 780.496 17.84 780.146 17.23C779.806 16.61 779.636 15.905 779.636 15.115C779.636 14.285 779.816 13.565 780.176 12.955C780.546 12.345 781.026 11.885 781.616 11.575C782.206 11.255 782.841 11.095 783.521 11.095C784.091 11.095 784.611 11.195 785.081 11.395C785.551 11.585 785.921 11.855 786.191 12.205C786.471 12.555 786.611 12.95 786.611 13.39C786.611 13.72 786.526 13.975 786.356 14.155C786.186 14.325 785.961 14.41 785.681 14.41C785.411 14.41 785.186 14.32 785.006 14.14C784.826 13.96 784.736 13.735 784.736 13.465C784.886 13.365 784.991 13.255 785.051 13.135C785.111 13.015 785.141 12.865 785.141 12.685C785.141 12.315 784.991 12.015 784.691 11.785C784.401 11.545 784.011 11.425 783.521 11.425C782.801 11.425 782.246 11.685 781.856 12.205C781.476 12.715 781.286 13.435 781.286 14.365V15.865C781.286 16.755 781.471 17.47 781.841 18.01C782.221 18.55 782.781 18.82 783.521 18.82C784.201 18.82 784.791 18.63 785.291 18.25C785.801 17.86 786.116 17.35 786.236 16.72H786.581C786.441 17.46 786.091 18.05 785.531 18.49C784.981 18.93 784.311 19.15 783.521 19.15ZM789.324 19V18.7L790.524 18.55V11.605H789.234L787.929 14.08H787.509L787.734 11.23H794.814L795.039 14.08H794.619L793.299 11.605H792.024V18.55L793.224 18.7V19H789.324ZM798.234 19.15C797.594 19.15 797.069 18.985 796.659 18.655C796.249 18.315 796.044 17.815 796.044 17.155C796.044 16.215 796.439 15.55 797.229 15.16C798.019 14.76 798.934 14.56 799.974 14.56H800.979V13.405C800.979 12.885 800.919 12.485 800.799 12.205C800.689 11.915 800.514 11.715 800.274 11.605C800.034 11.485 799.709 11.425 799.299 11.425C798.829 11.425 798.479 11.52 798.249 11.71C798.019 11.89 797.904 12.135 797.904 12.445C797.904 12.735 798.044 12.925 798.324 13.015C798.324 13.265 798.229 13.485 798.039 13.675C797.849 13.865 797.624 13.96 797.364 13.96C797.084 13.96 796.859 13.885 796.689 13.735C796.519 13.575 796.434 13.335 796.434 13.015C796.434 12.435 796.724 11.97 797.304 11.62C797.884 11.27 798.609 11.095 799.479 11.095C801.479 11.095 802.479 11.965 802.479 13.705V17.995C802.479 18.215 802.524 18.385 802.614 18.505C802.714 18.615 802.854 18.67 803.034 18.67C803.204 18.67 803.339 18.615 803.439 18.505C803.539 18.385 803.589 18.225 803.589 18.025H803.904C803.904 18.375 803.789 18.65 803.559 18.85C803.339 19.05 803.029 19.15 802.629 19.15C802.169 19.15 801.779 19.02 801.459 18.76C801.149 18.49 800.989 18.075 800.979 17.515C800.739 18.025 800.369 18.425 799.869 18.715C799.379 19.005 798.834 19.15 798.234 19.15ZM799.059 18.49C799.329 18.49 799.604 18.41 799.884 18.25C800.174 18.09 800.419 17.86 800.619 17.56C800.819 17.25 800.939 16.88 800.979 16.45V14.89H799.974C799.154 14.89 798.539 15.075 798.129 15.445C797.729 15.805 797.529 16.315 797.529 16.975C797.529 17.525 797.659 17.915 797.919 18.145C798.179 18.375 798.559 18.49 799.059 18.49ZM805.994 19V18.7L807.194 18.55V11.605H805.904L804.599 14.08H804.179L804.404 11.23H811.484L811.709 14.08H811.289L809.969 11.605H808.694V18.55L809.894 18.7V19H805.994ZM812.428 18.7L813.478 18.55V11.68L812.428 11.53V11.23H816.028V11.53L814.978 11.68V14.5H817.018C817.918 14.5 818.623 14.69 819.133 15.07C819.653 15.45 819.913 16.01 819.913 16.75C819.913 17.49 819.658 18.05 819.148 18.43C818.638 18.81 817.928 19 817.018 19H812.428V18.7ZM816.568 18.625C817.118 18.625 817.543 18.465 817.843 18.145C818.143 17.825 818.293 17.365 818.293 16.765V16.735C818.293 16.135 818.143 15.675 817.843 15.355C817.543 15.035 817.118 14.875 816.568 14.875H814.978V18.625H816.568ZM825.092 19.15C824.742 19.15 824.467 19.065 824.267 18.895C824.067 18.725 823.967 18.475 823.967 18.145C823.967 17.865 824.052 17.645 824.222 17.485C824.392 17.325 824.597 17.245 824.837 17.245C824.997 17.245 825.132 17.28 825.242 17.35C825.352 17.41 825.432 17.475 825.482 17.545C825.542 17.615 825.577 17.66 825.587 17.68C825.457 17.8 825.392 17.93 825.392 18.07C825.392 18.23 825.492 18.31 825.692 18.31C826.372 18.31 826.787 16.86 826.937 13.96L827.027 12.175L825.662 11.53V11.23H832.397V11.53L831.347 11.68V18.535L832.427 18.685V19H828.917V18.685L829.847 18.535V11.605H827.417L827.297 13.975C827.237 15.185 827.122 16.165 826.952 16.915C826.792 17.665 826.562 18.225 826.262 18.595C825.962 18.965 825.572 19.15 825.092 19.15ZM834.609 23.38C834.089 23.38 833.669 23.25 833.349 22.99C833.029 22.73 832.869 22.38 832.869 21.94C832.869 21.64 832.954 21.395 833.124 21.205C833.304 21.025 833.524 20.935 833.784 20.935C833.974 20.935 834.144 20.975 834.294 21.055C834.444 21.135 834.564 21.255 834.654 21.415C834.504 21.625 834.429 21.845 834.429 22.075C834.429 22.275 834.494 22.44 834.624 22.57C834.754 22.7 834.919 22.765 835.119 22.765C835.359 22.765 835.564 22.685 835.734 22.525C835.914 22.365 836.074 22.085 836.214 21.685L837.114 19.105L833.634 11.695L832.629 11.545V11.245H836.364V11.545L835.314 11.725L837.819 17.08L839.604 11.92L838.314 11.545V11.245H841.014V11.545L839.994 11.92L836.634 21.685C836.424 22.275 836.169 22.705 835.869 22.975C835.579 23.245 835.159 23.38 834.609 23.38ZM845.546 18.7L847.046 18.55V15.64C846.776 15.78 846.431 15.905 846.011 16.015C845.601 16.125 845.131 16.18 844.601 16.18C843.781 16.18 843.141 16.01 842.681 15.67C842.231 15.33 842.006 14.78 842.006 14.02V11.68L840.956 11.53V11.23H844.406V11.53L843.506 11.68V14.02C843.506 14.58 843.621 15.005 843.851 15.295C844.081 15.585 844.461 15.73 844.991 15.73C845.451 15.73 845.851 15.68 846.191 15.58C846.541 15.48 846.826 15.365 847.046 15.235V11.68L846.146 11.53V11.23H849.596V11.53L848.546 11.68V18.55L849.596 18.7V19H845.546V18.7ZM850.412 19V18.7L851.462 18.55V11.68L850.412 11.53V11.23H854.012V11.53L852.962 11.68V18.625H855.887V11.68L854.837 11.53V11.23H858.437V11.53L857.387 11.68V18.625H860.312V11.68L859.262 11.53V11.23H862.862V11.53L861.812 11.68V18.55L862.862 18.7V19H850.412ZM867.869 19.15C867.129 19.15 866.459 18.985 865.859 18.655C865.259 18.315 864.784 17.84 864.434 17.23C864.084 16.62 863.909 15.915 863.909 15.115C863.909 14.315 864.079 13.615 864.419 13.015C864.769 12.405 865.234 11.935 865.814 11.605C866.404 11.265 867.059 11.095 867.779 11.095C868.409 11.095 868.974 11.235 869.474 11.515C869.974 11.795 870.364 12.185 870.644 12.685C870.924 13.175 871.069 13.74 871.079 14.38H865.559V15.865C865.559 16.745 865.754 17.46 866.144 18.01C866.544 18.55 867.119 18.82 867.869 18.82C868.559 18.82 869.169 18.625 869.699 18.235C870.229 17.845 870.554 17.34 870.674 16.72H871.019C870.879 17.46 870.524 18.05 869.954 18.49C869.384 18.93 868.689 19.15 867.869 19.15ZM869.429 14.005C869.429 13.135 869.294 12.49 869.024 12.07C868.754 11.64 868.334 11.425 867.764 11.425C867.094 11.425 866.574 11.66 866.204 12.13C865.834 12.6 865.624 13.225 865.574 14.005H869.429ZM873.457 16.525C873.447 15.525 873.402 14.56 873.322 13.63C873.252 12.7 873.157 11.695 873.037 10.615C872.977 10.045 872.922 9.5 872.872 8.98C872.832 8.46 872.812 8.04 872.812 7.72C872.812 7.49 872.887 7.29 873.037 7.12C873.187 6.94 873.387 6.85 873.637 6.85C873.887 6.85 874.087 6.94 874.237 7.12C874.387 7.29 874.462 7.49 874.462 7.72C874.462 8.04 874.437 8.465 874.387 8.995C874.347 9.525 874.297 10.08 874.237 10.66C874.117 11.87 874.022 12.91 873.952 13.78C873.882 14.64 873.837 15.555 873.817 16.525H873.457ZM873.637 19.15C873.387 19.15 873.177 19.065 873.007 18.895C872.837 18.715 872.752 18.5 872.752 18.25C872.752 18 872.837 17.795 873.007 17.635C873.177 17.465 873.387 17.38 873.637 17.38C873.887 17.38 874.097 17.465 874.267 17.635C874.437 17.795 874.522 18 874.522 18.25C874.522 18.5 874.437 18.715 874.267 18.895C874.097 19.065 873.887 19.15 873.637 19.15Z" fill="#A1B190"/>
<path d="M880 13.5H899M509 13.5H528" stroke="#A1B190"/>
<path d="M9.22 20.2C7.74 20.2 6.36667 19.8333 5.1 19.1C3.84667 18.3667 2.85333 17.3733 2.12 16.12C1.38667 14.8667 1.02 13.5 1.02 12.02C1.02 10.54 1.38667 9.17333 2.12 7.92C2.86667 6.65333 3.86667 5.65333 5.12 4.92C6.37333 4.17333 7.74 3.8 9.22 3.8C10.7 3.8 12.0667 4.17333 13.32 4.92C14.5733 5.65333 15.5667 6.65333 16.3 7.92C17.0467 9.17333 17.42 10.54 17.42 12.02C17.42 13.5 17.0533 14.8667 16.32 16.12C15.5867 17.3733 14.5867 18.3667 13.32 19.1C12.0667 19.8333 10.7 20.2 9.22 20.2ZM9.22 19.46C10.58 19.46 11.8267 19.1333 12.96 18.48C14.0933 17.8133 14.9867 16.9133 15.64 15.78C16.3067 14.6333 16.64 13.38 16.64 12.02C16.64 10.66 16.3067 9.41333 15.64 8.28C14.9867 7.13333 14.0933 6.23333 12.96 5.58C11.8267 4.91333 10.58 4.58 9.22 4.58C7.86 4.58 6.60667 4.91333 5.46 5.58C4.32667 6.23333 3.42667 7.13333 2.76 8.28C2.10667 9.41333 1.78 10.66 1.78 12.02C1.78 13.38 2.10667 14.6333 2.76 15.78C3.42667 16.9133 4.32667 17.8133 5.46 18.48C6.60667 19.1333 7.86 19.46 9.22 19.46ZM9.24 17.24C8.30667 17.24 7.48 17.02 6.76 16.58C6.04 16.14 5.48 15.5267 5.08 14.74C4.69333 13.94 4.5 13.0267 4.5 12C4.5 10.9733 4.69333 10.0667 5.08 9.28C5.48 8.48 6.04 7.86 6.76 7.42C7.48 6.98 8.30667 6.76 9.24 6.76C9.98667 6.76 10.7 7.00667 11.38 7.5L12.24 6.76H12.62V9.92H12.24L11.46 8.24C11.1667 7.94667 10.82 7.72667 10.42 7.58C10.0333 7.42 9.64 7.34 9.24 7.34C8.33333 7.34 7.63333 7.62667 7.14 8.2C6.66 8.77333 6.42 9.65333 6.42 10.84V13.18C6.42 14.3533 6.66 15.2267 7.14 15.8C7.63333 16.3733 8.33333 16.66 9.24 16.66C9.66667 16.66 10.1 16.56 10.54 16.36C10.98 16.16 11.3467 15.9 11.64 15.58L12.36 13.82H12.74V17.12H12.36L11.44 16.46C11.1333 16.7 10.78 16.8933 10.38 17.04C9.99333 17.1733 9.61333 17.24 9.24 17.24ZM19.1975 18.46L23.4175 14.16C24.5242 13.0133 25.3642 11.9 25.9375 10.82C26.5242 9.72667 26.8175 8.6 26.8175 7.44C26.8175 6.26667 26.5642 5.41333 26.0575 4.88C25.5642 4.33333 24.8908 4.06 24.0375 4.06C23.3708 4.06 22.7908 4.24 22.2975 4.6C21.8042 4.96 21.5575 5.43333 21.5575 6.02C21.5575 6.72667 21.9108 7.25333 22.6175 7.6C22.6175 8.08 22.4708 8.44667 22.1775 8.7C21.8842 8.95333 21.5375 9.08 21.1375 9.08C20.7108 9.08 20.3442 8.92667 20.0375 8.62C19.7308 8.3 19.5775 7.86667 19.5775 7.32C19.5775 6.6 19.7975 5.96 20.2375 5.4C20.6775 4.82667 21.2642 4.38667 21.9975 4.08C22.7308 3.76 23.5175 3.6 24.3575 3.6C25.9842 3.6 27.1908 3.98667 27.9775 4.76C28.7642 5.52 29.1575 6.52667 29.1575 7.78C29.1575 8.54 28.9975 9.24 28.6775 9.88C28.3708 10.5067 27.9975 11.0533 27.5575 11.52C27.1308 11.9867 26.5442 12.5467 25.7975 13.2L25.2375 13.68L20.4575 17.9H27.9175L28.7375 14.94H29.2575V20H19.1975V18.46ZM37.6631 20.4C36.5031 20.4 35.4898 20.0867 34.6231 19.46C33.7565 18.8333 33.0831 17.8933 32.6031 16.64C32.1231 15.3733 31.8831 13.8267 31.8831 12C31.8831 10.1733 32.1231 8.63333 32.6031 7.38C33.0831 6.11333 33.7565 5.16667 34.6231 4.54C35.4898 3.91333 36.5031 3.6 37.6631 3.6C38.8231 3.6 39.8365 3.91333 40.7031 4.54C41.5698 5.16667 42.2431 6.11333 42.7231 7.38C43.2031 8.63333 43.4431 10.1733 43.4431 12C43.4431 13.8267 43.2031 15.3733 42.7231 16.64C42.2431 17.8933 41.5698 18.8333 40.7031 19.46C39.8365 20.0867 38.8231 20.4 37.6631 20.4ZM37.6631 19.94C38.6631 19.94 39.4498 19.4533 40.0231 18.48C40.5965 17.5067 40.8831 15.9867 40.8831 13.92V10.06C40.8831 8.00667 40.5965 6.49333 40.0231 5.52C39.4498 4.54667 38.6631 4.06 37.6631 4.06C36.6631 4.06 35.8765 4.54667 35.3031 5.52C34.7298 6.49333 34.4431 8.00667 34.4431 10.06V13.92C34.4431 15.9733 34.7298 17.4933 35.3031 18.48C35.8765 19.4533 36.6631 19.94 37.6631 19.94ZM45.3889 18.46L49.6089 14.16C50.7156 13.0133 51.5556 11.9 52.1289 10.82C52.7156 9.72667 53.0089 8.6 53.0089 7.44C53.0089 6.26667 52.7556 5.41333 52.2489 4.88C51.7556 4.33333 51.0822 4.06 50.2289 4.06C49.5622 4.06 48.9822 4.24 48.4889 4.6C47.9956 4.96 47.7489 5.43333 47.7489 6.02C47.7489 6.72667 48.1022 7.25333 48.8089 7.6C48.8089 8.08 48.6622 8.44667 48.3689 8.7C48.0756 8.95333 47.7289 9.08 47.3289 9.08C46.9022 9.08 46.5356 8.92667 46.2289 8.62C45.9222 8.3 45.7689 7.86667 45.7689 7.32C45.7689 6.6 45.9889 5.96 46.4289 5.4C46.8689 4.82667 47.4556 4.38667 48.1889 4.08C48.9222 3.76 49.7089 3.6 50.5489 3.6C52.1756 3.6 53.3822 3.98667 54.1689 4.76C54.9556 5.52 55.3489 6.52667 55.3489 7.78C55.3489 8.54 55.1889 9.24 54.8689 9.88C54.5622 10.5067 54.1889 11.0533 53.7489 11.52C53.3222 11.9867 52.7356 12.5467 51.9889 13.2L51.4289 13.68L46.6489 17.9H54.1089L54.9289 14.94H55.4489V20H45.3889V18.46ZM62.2345 20.4C61.4079 20.4 60.6479 20.24 59.9545 19.92C59.2745 19.6 58.7345 19.1667 58.3345 18.62C57.9345 18.0733 57.7345 17.46 57.7345 16.78C57.7345 16.2333 57.8879 15.8067 58.1945 15.5C58.5012 15.18 58.8679 15.02 59.2945 15.02C59.6945 15.02 60.0412 15.1467 60.3345 15.4C60.6279 15.6533 60.7745 16.02 60.7745 16.5C60.0679 16.8467 59.7145 17.38 59.7145 18.1C59.7145 18.6467 59.9412 19.0933 60.3945 19.44C60.8612 19.7733 61.4745 19.94 62.2345 19.94C63.1945 19.94 63.9745 19.58 64.5745 18.86C65.1745 18.14 65.4745 17.1333 65.4745 15.84C65.4745 14.44 65.0745 13.36 64.2745 12.6C63.4745 11.8267 62.2945 11.3933 60.7345 11.3V10.86C62.1345 10.78 63.2212 10.4067 63.9945 9.74C64.7812 9.06 65.1745 8.14667 65.1745 7C65.1745 6.10667 64.9279 5.39333 64.4345 4.86C63.9545 4.32667 63.3079 4.06 62.4945 4.06C61.7612 4.06 61.1812 4.18667 60.7545 4.44C60.3412 4.68 60.1345 5.02 60.1345 5.46C60.1345 6.16667 60.4679 6.67333 61.1345 6.98C61.1345 7.43333 60.9945 7.78667 60.7145 8.04C60.4479 8.28 60.1212 8.4 59.7345 8.4C59.3345 8.4 58.9879 8.24667 58.6945 7.94C58.4012 7.63333 58.2545 7.22667 58.2545 6.72C58.2545 6.12 58.4612 5.58667 58.8745 5.12C59.2879 4.64 59.8345 4.26667 60.5145 4C61.2079 3.73333 61.9412 3.6 62.7145 3.6C64.2345 3.6 65.4212 3.90667 66.2745 4.52C67.1279 5.13333 67.5545 5.99333 67.5545 7.1C67.5545 8.26 67.1345 9.16 66.2945 9.8C65.4679 10.4267 64.2612 10.8467 62.6745 11.06V11.12C64.3412 11.2 65.6812 11.6467 66.6945 12.46C67.7212 13.26 68.2345 14.3867 68.2345 15.84C68.2345 16.6533 68.0079 17.4067 67.5545 18.1C67.1145 18.7933 66.4412 19.3533 65.5345 19.78C64.6412 20.1933 63.5412 20.4 62.2345 20.4Z" fill="#A1B190"/>
<path d="M87.21 10.1C86.8367 10.1 86.5567 10.01 86.37 9.83C86.1833 9.65 86.0567 9.34333 85.99 8.91L85.75 7.22C85.6833 6.74667 85.54 6.40333 85.32 6.19C85.1 5.97667 84.7467 5.87 84.26 5.87H83.42V9.64L84.34 9.79V10H81.4V9.79L82.32 9.64V2.36L81.4 2.22V2H84.34V2.22L83.42 2.36V5.63H84.47C84.79 5.62333 85.0633 5.5 85.29 5.26C85.5167 5.01333 85.68 4.68667 85.78 4.28L86.09 3.02C86.1833 2.64667 86.3233 2.36667 86.51 2.18C86.7033 1.99333 86.9333 1.9 87.2 1.9C87.42 1.9 87.61 1.96333 87.77 2.09C87.9367 2.21667 88.02 2.38333 88.02 2.59C88.02 2.78333 87.9633 2.94 87.85 3.06C87.7433 3.18 87.6 3.24 87.42 3.24H87.22C87.1133 2.95333 86.9467 2.81 86.72 2.81C86.5 2.81 86.3633 2.92333 86.31 3.15L86 4.41C85.92 4.72333 85.8033 4.99 85.65 5.21C85.4967 5.42333 85.32 5.57667 85.12 5.67C85.6733 5.73667 86.0967 5.89667 86.39 6.15C86.6833 6.40333 86.8633 6.74667 86.93 7.18L87.16 8.69C87.2133 9.03 87.27 9.26667 87.33 9.4C87.39 9.53333 87.4767 9.61333 87.59 9.64C87.61 9.64667 87.64 9.65 87.68 9.65C87.88 9.65 88.09 9.53667 88.31 9.31L88.48 9.49C88.12 9.89667 87.6967 10.1 87.21 10.1ZM91.2075 10.1C90.7275 10.1 90.2908 9.99 89.8975 9.77C89.5042 9.54333 89.1908 9.22667 88.9575 8.82C88.7308 8.40667 88.6175 7.93667 88.6175 7.41C88.6175 6.88333 88.7308 6.41667 88.9575 6.01C89.1908 5.60333 89.5042 5.29 89.8975 5.07C90.2908 4.84333 90.7275 4.73 91.2075 4.73C91.6875 4.73 92.1242 4.84333 92.5175 5.07C92.9108 5.29 93.2208 5.60333 93.4475 6.01C93.6808 6.41667 93.7975 6.88333 93.7975 7.41C93.7975 7.93667 93.6808 8.40667 93.4475 8.82C93.2208 9.22667 92.9108 9.54333 92.5175 9.77C92.1242 9.99 91.6875 10.1 91.2075 10.1ZM91.2075 9.88C91.7008 9.88 92.0708 9.7 92.3175 9.34C92.5708 8.98 92.6975 8.50333 92.6975 7.91V6.91C92.6975 6.31667 92.5708 5.84333 92.3175 5.49C92.0708 5.13 91.7008 4.95 91.2075 4.95C90.7142 4.95 90.3408 5.13 90.0875 5.49C89.8408 5.84333 89.7175 6.31667 89.7175 6.91V7.91C89.7175 8.50333 89.8408 8.98 90.0875 9.34C90.3408 9.7 90.7142 9.88 91.2075 9.88ZM94.4927 10V9.8L95.1927 9.7V5.12L94.4927 5.02V4.82H100.293V5.02L99.5927 5.12V9.7L100.293 9.8V10H97.9927V9.8L98.5927 9.7V5.07H96.1927V9.7L96.7927 9.8V10H94.4927ZM100.831 10V9.8L101.531 9.7V5.12L100.831 5.02V4.82H103.131V5.02L102.531 5.12V9.01L105.061 5.32V5.12L104.461 5.02V4.82H106.761V5.02L106.061 5.12V9.7L106.761 9.8V10H104.461V9.8L105.061 9.7V5.74L102.531 9.44V9.7L103.131 9.8V10H100.831ZM107.245 12.63L107.945 12.53V5.13L107.245 5.03V4.83H108.945V5.88C109.112 5.52 109.335 5.24 109.615 5.04C109.902 4.83333 110.242 4.73 110.635 4.73C111.108 4.73 111.525 4.84333 111.885 5.07C112.245 5.29 112.525 5.60333 112.725 6.01C112.925 6.41 113.025 6.88 113.025 7.42C113.025 7.96 112.925 8.43333 112.725 8.84C112.525 9.24 112.245 9.55 111.885 9.77C111.525 9.99 111.108 10.1 110.635 10.1C110.242 10.1 109.902 10 109.615 9.8C109.335 9.59333 109.112 9.31333 108.945 8.96V12.53L109.885 12.63V12.83H107.245V12.63ZM110.535 9.85C111.462 9.85 111.925 9.20667 111.925 7.92V6.92C111.925 5.62667 111.462 4.98 110.535 4.98C110.242 4.98 109.975 5.06667 109.735 5.24C109.495 5.40667 109.305 5.63333 109.165 5.92C109.025 6.20667 108.952 6.51667 108.945 6.85V7.92C108.945 8.26 109.012 8.58 109.145 8.88C109.285 9.17333 109.475 9.41 109.715 9.59C109.962 9.76333 110.235 9.85 110.535 9.85ZM116.471 10.1C115.991 10.1 115.555 9.99 115.161 9.77C114.768 9.54333 114.455 9.22667 114.221 8.82C113.995 8.40667 113.881 7.93667 113.881 7.41C113.881 6.88333 113.995 6.41667 114.221 6.01C114.455 5.60333 114.768 5.29 115.161 5.07C115.555 4.84333 115.991 4.73 116.471 4.73C116.951 4.73 117.388 4.84333 117.781 5.07C118.175 5.29 118.485 5.60333 118.711 6.01C118.945 6.41667 119.061 6.88333 119.061 7.41C119.061 7.93667 118.945 8.40667 118.711 8.82C118.485 9.22667 118.175 9.54333 117.781 9.77C117.388 9.99 116.951 10.1 116.471 10.1ZM116.471 9.88C116.965 9.88 117.335 9.7 117.581 9.34C117.835 8.98 117.961 8.50333 117.961 7.91V6.91C117.961 6.31667 117.835 5.84333 117.581 5.49C117.335 5.13 116.965 4.95 116.471 4.95C115.978 4.95 115.605 5.13 115.351 5.49C115.105 5.84333 114.981 6.31667 114.981 6.91V7.91C114.981 8.50333 115.105 8.98 115.351 9.34C115.605 9.7 115.978 9.88 116.471 9.88ZM119.756 9.8L120.456 9.7V5.12L119.756 5.02V4.82H122.496C123.183 4.82 123.673 4.91667 123.966 5.11C124.26 5.29667 124.406 5.60333 124.406 6.03C124.406 6.65 124.013 7.04667 123.226 7.22V7.25C124.24 7.39 124.746 7.84 124.746 8.6C124.746 9.06667 124.576 9.41667 124.236 9.65C123.896 9.88333 123.423 10 122.816 10H119.756V9.8ZM122.256 7.16C122.603 7.16 122.866 7.07 123.046 6.89C123.233 6.71 123.326 6.44 123.326 6.08V6.04C123.326 5.71333 123.233 5.47 123.046 5.31C122.86 5.15 122.576 5.07 122.196 5.07H121.456V7.16H122.256ZM122.516 9.75C122.883 9.75 123.166 9.65333 123.366 9.46C123.566 9.26667 123.666 8.98333 123.666 8.61V8.54C123.666 8.16 123.566 7.87667 123.366 7.69C123.173 7.49667 122.89 7.4 122.516 7.4H121.456V9.75H122.516ZM127.041 10.1C126.614 10.1 126.264 9.99 125.991 9.77C125.718 9.54333 125.581 9.21 125.581 8.77C125.581 8.14333 125.844 7.7 126.371 7.44C126.898 7.17333 127.508 7.04 128.201 7.04H128.871V6.27C128.871 5.92333 128.831 5.65667 128.751 5.47C128.678 5.27667 128.561 5.14333 128.401 5.07C128.241 4.99 128.024 4.95 127.751 4.95C127.438 4.95 127.204 5.01333 127.051 5.14C126.898 5.26 126.821 5.42333 126.821 5.63C126.821 5.82333 126.914 5.95 127.101 6.01C127.101 6.17667 127.038 6.32333 126.911 6.45C126.784 6.57667 126.634 6.64 126.461 6.64C126.274 6.64 126.124 6.59 126.011 6.49C125.898 6.38333 125.841 6.22333 125.841 6.01C125.841 5.62333 126.034 5.31333 126.421 5.08C126.808 4.84667 127.291 4.73 127.871 4.73C129.204 4.73 129.871 5.31 129.871 6.47V9.33C129.871 9.47667 129.901 9.59 129.961 9.67C130.028 9.74333 130.121 9.78 130.241 9.78C130.354 9.78 130.444 9.74333 130.511 9.67C130.578 9.59 130.611 9.48333 130.611 9.35H130.821C130.821 9.58333 130.744 9.76667 130.591 9.9C130.444 10.0333 130.238 10.1 129.971 10.1C129.664 10.1 129.404 10.0133 129.191 9.84C128.984 9.66 128.878 9.38333 128.871 9.01C128.711 9.35 128.464 9.61667 128.131 9.81C127.804 10.0033 127.441 10.1 127.041 10.1ZM127.591 9.66C127.771 9.66 127.954 9.60667 128.141 9.5C128.334 9.39333 128.498 9.24 128.631 9.04C128.764 8.83333 128.844 8.58667 128.871 8.3V7.26H128.201C127.654 7.26 127.244 7.38333 126.971 7.63C126.704 7.87 126.571 8.21 126.571 8.65C126.571 9.01667 126.658 9.27667 126.831 9.43C127.004 9.58333 127.258 9.66 127.591 9.66ZM131.065 10V9.8L131.765 9.7V5.12L131.065 5.02V4.82H133.365V5.02L132.765 5.12V7.25H135.235V5.12L134.635 5.02V4.82H136.935V5.02L136.235 5.12V9.7L136.935 9.8V10H134.635V9.8L135.235 9.7V7.5H132.765V9.7L133.365 9.8V10H131.065ZM137.471 10V9.8L138.171 9.7V5.12L137.471 5.02V4.82H139.771V5.02L139.171 5.12V9.01L141.701 5.32V5.12L141.101 5.02V4.82H143.401V5.02L142.701 5.12V9.7L143.401 9.8V10H141.101V9.8L141.701 9.7V5.74L139.171 9.44V9.7L139.771 9.8V10H137.471ZM146.746 10.1C146.252 10.1 145.806 9.99 145.406 9.77C145.006 9.54333 144.689 9.22667 144.456 8.82C144.222 8.41333 144.106 7.94333 144.106 7.41C144.106 6.87667 144.219 6.41 144.446 6.01C144.679 5.60333 144.989 5.29 145.376 5.07C145.769 4.84333 146.206 4.73 146.686 4.73C147.106 4.73 147.482 4.82333 147.816 5.01C148.149 5.19667 148.409 5.45667 148.596 5.79C148.782 6.11667 148.879 6.49333 148.886 6.92H145.206V7.91C145.206 8.49667 145.336 8.97333 145.596 9.34C145.862 9.7 146.246 9.88 146.746 9.88C147.206 9.88 147.612 9.75 147.966 9.49C148.319 9.23 148.536 8.89333 148.616 8.48H148.846C148.752 8.97333 148.516 9.36667 148.136 9.66C147.756 9.95333 147.292 10.1 146.746 10.1ZM147.786 6.67C147.786 6.09 147.696 5.66 147.516 5.38C147.336 5.09333 147.056 4.95 146.676 4.95C146.229 4.95 145.882 5.10667 145.636 5.42C145.389 5.73333 145.249 6.15 145.216 6.67H147.786ZM151.944 10V9.8L152.704 9.5V5.11L152.004 5.02V4.82H153.944L155.524 8.56L157.094 4.82H158.934V5.02L158.234 5.12V9.7L158.934 9.8V10H156.634V9.8L157.234 9.7V5.15L155.164 10H155.044L152.954 5.15V9.5L153.714 9.8V10H151.944ZM161.123 10.1C160.696 10.1 160.346 9.99 160.073 9.77C159.8 9.54333 159.663 9.21 159.663 8.77C159.663 8.14333 159.926 7.7 160.453 7.44C160.98 7.17333 161.59 7.04 162.283 7.04H162.953V6.27C162.953 5.92333 162.913 5.65667 162.833 5.47C162.76 5.27667 162.643 5.14333 162.483 5.07C162.323 4.99 162.106 4.95 161.833 4.95C161.52 4.95 161.286 5.01333 161.133 5.14C160.98 5.26 160.903 5.42333 160.903 5.63C160.903 5.82333 160.996 5.95 161.183 6.01C161.183 6.17667 161.12 6.32333 160.993 6.45C160.866 6.57667 160.716 6.64 160.543 6.64C160.356 6.64 160.206 6.59 160.093 6.49C159.98 6.38333 159.923 6.22333 159.923 6.01C159.923 5.62333 160.116 5.31333 160.503 5.08C160.89 4.84667 161.373 4.73 161.953 4.73C163.286 4.73 163.953 5.31 163.953 6.47V9.33C163.953 9.47667 163.983 9.59 164.043 9.67C164.11 9.74333 164.203 9.78 164.323 9.78C164.436 9.78 164.526 9.74333 164.593 9.67C164.66 9.59 164.693 9.48333 164.693 9.35H164.903C164.903 9.58333 164.826 9.76667 164.673 9.9C164.526 10.0333 164.32 10.1 164.053 10.1C163.746 10.1 163.486 10.0133 163.273 9.84C163.066 9.66 162.96 9.38333 162.953 9.01C162.793 9.35 162.546 9.61667 162.213 9.81C161.886 10.0033 161.523 10.1 161.123 10.1ZM161.673 9.66C161.853 9.66 162.036 9.60667 162.223 9.5C162.416 9.39333 162.58 9.24 162.713 9.04C162.846 8.83333 162.926 8.58667 162.953 8.3V7.26H162.283C161.736 7.26 161.326 7.38333 161.053 7.63C160.786 7.87 160.653 8.21 160.653 8.65C160.653 9.01667 160.74 9.27667 160.913 9.43C161.086 9.58333 161.34 9.66 161.673 9.66ZM166.297 10V9.8L167.097 9.7V5.07H166.237L165.367 6.72H165.087L165.237 4.82H169.957L170.107 6.72H169.827L168.947 5.07H168.097V9.7L168.897 9.8V10H166.297ZM173.386 10.1C172.893 10.1 172.446 9.99 172.046 9.77C171.646 9.54333 171.33 9.22667 171.096 8.82C170.863 8.41333 170.746 7.94333 170.746 7.41C170.746 6.87667 170.86 6.41 171.086 6.01C171.32 5.60333 171.63 5.29 172.016 5.07C172.41 4.84333 172.846 4.73 173.326 4.73C173.746 4.73 174.123 4.82333 174.456 5.01C174.79 5.19667 175.05 5.45667 175.236 5.79C175.423 6.11667 175.52 6.49333 175.526 6.92H171.846V7.91C171.846 8.49667 171.976 8.97333 172.236 9.34C172.503 9.7 172.886 9.88 173.386 9.88C173.846 9.88 174.253 9.75 174.606 9.49C174.96 9.23 175.176 8.89333 175.256 8.48H175.486C175.393 8.97333 175.156 9.36667 174.776 9.66C174.396 9.95333 173.933 10.1 173.386 10.1ZM174.426 6.67C174.426 6.09 174.336 5.66 174.156 5.38C173.976 5.09333 173.696 4.95 173.316 4.95C172.87 4.95 172.523 5.10667 172.276 5.42C172.03 5.73333 171.89 6.15 171.856 6.67H174.426ZM176.132 12.63L176.832 12.53V5.13L176.132 5.03V4.83H177.832V5.88C177.999 5.52 178.222 5.24 178.502 5.04C178.789 4.83333 179.129 4.73 179.522 4.73C179.995 4.73 180.412 4.84333 180.772 5.07C181.132 5.29 181.412 5.60333 181.612 6.01C181.812 6.41 181.912 6.88 181.912 7.42C181.912 7.96 181.812 8.43333 181.612 8.84C181.412 9.24 181.132 9.55 180.772 9.77C180.412 9.99 179.995 10.1 179.522 10.1C179.129 10.1 178.789 10 178.502 9.8C178.222 9.59333 177.999 9.31333 177.832 8.96V12.53L178.772 12.63V12.83H176.132V12.63ZM179.422 9.85C180.349 9.85 180.812 9.20667 180.812 7.92V6.92C180.812 5.62667 180.349 4.98 179.422 4.98C179.129 4.98 178.862 5.06667 178.622 5.24C178.382 5.40667 178.192 5.63333 178.052 5.92C177.912 6.20667 177.839 6.51667 177.832 6.85V7.92C177.832 8.26 177.899 8.58 178.032 8.88C178.172 9.17333 178.362 9.41 178.602 9.59C178.849 9.76333 179.122 9.85 179.422 9.85ZM182.608 10V9.8L183.308 9.7V5.12L182.608 5.02V4.82H184.908V5.02L184.308 5.12V9.01L186.838 5.32V5.12L186.238 5.02V4.82H188.538V5.02L187.838 5.12V9.7L188.538 9.8V10H186.238V9.8L186.838 9.7V5.74L184.308 9.44V9.7L184.908 9.8V10H182.608ZM190.733 10.1C190.306 10.1 189.956 9.99 189.683 9.77C189.409 9.54333 189.273 9.21 189.273 8.77C189.273 8.14333 189.536 7.7 190.062 7.44C190.589 7.17333 191.199 7.04 191.893 7.04H192.563V6.27C192.563 5.92333 192.523 5.65667 192.443 5.47C192.369 5.27667 192.253 5.14333 192.093 5.07C191.933 4.99 191.716 4.95 191.443 4.95C191.129 4.95 190.896 5.01333 190.743 5.14C190.589 5.26 190.513 5.42333 190.513 5.63C190.513 5.82333 190.606 5.95 190.793 6.01C190.793 6.17667 190.729 6.32333 190.603 6.45C190.476 6.57667 190.326 6.64 190.153 6.64C189.966 6.64 189.816 6.59 189.703 6.49C189.589 6.38333 189.533 6.22333 189.533 6.01C189.533 5.62333 189.726 5.31333 190.113 5.08C190.499 4.84667 190.983 4.73 191.563 4.73C192.896 4.73 193.563 5.31 193.563 6.47V9.33C193.563 9.47667 193.593 9.59 193.653 9.67C193.719 9.74333 193.813 9.78 193.933 9.78C194.046 9.78 194.136 9.74333 194.203 9.67C194.269 9.59 194.303 9.48333 194.303 9.35H194.513C194.513 9.58333 194.436 9.76667 194.283 9.9C194.136 10.0333 193.929 10.1 193.663 10.1C193.356 10.1 193.096 10.0133 192.883 9.84C192.676 9.66 192.569 9.38333 192.563 9.01C192.403 9.35 192.156 9.61667 191.823 9.81C191.496 10.0033 191.133 10.1 190.733 10.1ZM191.283 9.66C191.463 9.66 191.646 9.60667 191.833 9.5C192.026 9.39333 192.189 9.24 192.323 9.04C192.456 8.83333 192.536 8.58667 192.563 8.3V7.26H191.893C191.346 7.26 190.936 7.38333 190.663 7.63C190.396 7.87 190.263 8.21 190.263 8.65C190.263 9.01667 190.349 9.27667 190.523 9.43C190.696 9.58333 190.949 9.66 191.283 9.66ZM195.386 10.1C195.153 10.1 194.97 10.0433 194.836 9.93C194.703 9.81667 194.636 9.65 194.636 9.43C194.636 9.24333 194.693 9.09667 194.806 8.99C194.92 8.88333 195.056 8.83 195.216 8.83C195.323 8.83 195.413 8.85333 195.486 8.9C195.56 8.94 195.613 8.98333 195.646 9.03C195.686 9.07667 195.71 9.10667 195.716 9.12C195.63 9.2 195.586 9.28667 195.586 9.38C195.586 9.48667 195.653 9.54 195.786 9.54C196.24 9.54 196.516 8.57333 196.616 6.64L196.676 5.45L195.766 5.02V4.82H200.256V5.02L199.556 5.12V9.69L200.276 9.79V10H197.936V9.79L198.556 9.69V5.07H196.936L196.856 6.65C196.816 7.45667 196.74 8.11 196.626 8.61C196.52 9.11 196.366 9.48333 196.166 9.73C195.966 9.97667 195.706 10.1 195.386 10.1ZM203.571 10.1C203.091 10.1 202.654 9.99 202.261 9.77C201.867 9.54333 201.554 9.22667 201.321 8.82C201.094 8.40667 200.981 7.93667 200.981 7.41C200.981 6.88333 201.094 6.41667 201.321 6.01C201.554 5.60333 201.867 5.29 202.261 5.07C202.654 4.84333 203.091 4.73 203.571 4.73C204.051 4.73 204.487 4.84333 204.881 5.07C205.274 5.29 205.584 5.60333 205.811 6.01C206.044 6.41667 206.161 6.88333 206.161 7.41C206.161 7.93667 206.044 8.40667 205.811 8.82C205.584 9.22667 205.274 9.54333 204.881 9.77C204.487 9.99 204.051 10.1 203.571 10.1ZM203.571 9.88C204.064 9.88 204.434 9.7 204.681 9.34C204.934 8.98 205.061 8.50333 205.061 7.91V6.91C205.061 6.31667 204.934 5.84333 204.681 5.49C204.434 5.13 204.064 4.95 203.571 4.95C203.077 4.95 202.704 5.13 202.451 5.49C202.204 5.84333 202.081 6.31667 202.081 6.91V7.91C202.081 8.50333 202.204 8.98 202.451 9.34C202.704 9.7 203.077 9.88 203.571 9.88ZM206.856 9.8L207.556 9.7V5.12L206.856 5.02V4.82H209.596C210.283 4.82 210.773 4.91667 211.066 5.11C211.359 5.29667 211.506 5.60333 211.506 6.03C211.506 6.65 211.113 7.04667 210.326 7.22V7.25C211.339 7.39 211.846 7.84 211.846 8.6C211.846 9.06667 211.676 9.41667 211.336 9.65C210.996 9.88333 210.523 10 209.916 10H206.856V9.8ZM209.356 7.16C209.703 7.16 209.966 7.07 210.146 6.89C210.333 6.71 210.426 6.44 210.426 6.08V6.04C210.426 5.71333 210.333 5.47 210.146 5.31C209.959 5.15 209.676 5.07 209.296 5.07H208.556V7.16H209.356ZM209.616 9.75C209.983 9.75 210.266 9.65333 210.466 9.46C210.666 9.26667 210.766 8.98333 210.766 8.61V8.54C210.766 8.16 210.666 7.87667 210.466 7.69C210.273 7.49667 209.989 7.4 209.616 7.4H208.556V9.75H209.616ZM217.793 10.1C217 10.1 216.353 9.82 215.853 9.26C215.36 8.7 215.113 7.83667 215.113 6.67C215.113 5.38333 215.363 4.4 215.863 3.72C216.363 3.04 217.063 2.7 217.963 2.7H218.763C219.097 2.7 219.343 2.64333 219.503 2.53C219.663 2.41 219.743 2.23333 219.743 2H219.983C219.983 2.42 219.937 2.75333 219.843 3C219.757 3.24667 219.613 3.42667 219.413 3.54C219.22 3.64667 218.953 3.7 218.613 3.7H217.793C216.207 3.7 215.413 4.69 215.413 6.67H215.473C215.62 6.10333 215.903 5.65333 216.323 5.32C216.743 4.98667 217.233 4.82 217.793 4.82C218.24 4.82 218.653 4.93 219.033 5.15C219.413 5.37 219.717 5.68 219.943 6.08C220.17 6.48 220.283 6.94 220.283 7.46C220.283 7.98 220.17 8.44 219.943 8.84C219.717 9.24 219.413 9.55 219.033 9.77C218.653 9.99 218.24 10.1 217.793 10.1ZM217.793 9.86C218.26 9.86 218.607 9.69 218.833 9.35C219.067 9.01 219.183 8.54667 219.183 7.96V6.96C219.183 6.37333 219.067 5.91 218.833 5.57C218.607 5.23 218.26 5.06 217.793 5.06C217.327 5.06 216.977 5.23 216.743 5.57C216.517 5.91 216.403 6.37333 216.403 6.96V7.96C216.403 8.54667 216.517 9.01 216.743 9.35C216.977 9.69 217.327 9.86 217.793 9.86ZM223.787 10.1C223.293 10.1 222.847 9.99 222.447 9.77C222.047 9.54333 221.73 9.22667 221.497 8.82C221.263 8.41333 221.147 7.94333 221.147 7.41C221.147 6.87667 221.26 6.41 221.487 6.01C221.72 5.60333 222.03 5.29 222.417 5.07C222.81 4.84333 223.247 4.73 223.727 4.73C224.147 4.73 224.523 4.82333 224.857 5.01C225.19 5.19667 225.45 5.45667 225.637 5.79C225.823 6.11667 225.92 6.49333 225.927 6.92H222.247V7.91C222.247 8.49667 222.377 8.97333 222.637 9.34C222.903 9.7 223.287 9.88 223.787 9.88C224.247 9.88 224.653 9.75 225.007 9.49C225.36 9.23 225.577 8.89333 225.657 8.48H225.887C225.793 8.97333 225.557 9.36667 225.177 9.66C224.797 9.95333 224.333 10.1 223.787 10.1ZM224.827 6.67C224.827 6.09 224.737 5.66 224.557 5.38C224.377 5.09333 224.097 4.95 223.717 4.95C223.27 4.95 222.923 5.10667 222.677 5.42C222.43 5.73333 222.29 6.15 222.257 6.67H224.827ZM228.812 10.1C228.072 10.1 227.532 9.99667 227.192 9.79C226.859 9.57667 226.692 9.31 226.692 8.99C226.692 8.79 226.749 8.63 226.862 8.51C226.982 8.38333 227.139 8.32 227.332 8.32C227.459 8.32 227.572 8.35333 227.672 8.42C227.772 8.48667 227.842 8.58 227.882 8.7C227.769 8.83333 227.712 8.97333 227.712 9.12C227.712 9.34667 227.812 9.53667 228.012 9.69C228.219 9.83667 228.486 9.91 228.812 9.91C229.212 9.91 229.532 9.80667 229.772 9.6C230.019 9.38667 230.142 9.07667 230.142 8.67V8.54C230.142 8.17333 230.006 7.89333 229.732 7.7C229.466 7.5 229.132 7.4 228.732 7.4H228.172V7.16H228.732C229.112 7.16 229.402 7.07 229.602 6.89C229.802 6.70333 229.902 6.43333 229.902 6.08V6.04C229.902 5.29333 229.549 4.92 228.842 4.92C228.462 4.92 228.112 5.01333 227.792 5.2L227.192 6.63H226.982L227.092 4.73L227.692 5.02C228.066 4.82667 228.456 4.73 228.862 4.73C229.609 4.73 230.149 4.84 230.482 5.06C230.816 5.27333 230.982 5.59667 230.982 6.03C230.982 6.34333 230.866 6.60333 230.632 6.81C230.406 7.01667 230.062 7.15667 229.602 7.23V7.24C230.142 7.29333 230.546 7.43667 230.812 7.67C231.086 7.90333 231.222 8.21333 231.222 8.6C231.222 9.07333 231.022 9.44333 230.622 9.71C230.222 9.97 229.619 10.1 228.812 10.1ZM84.02 24.1C83.54 24.1 83.1033 23.99 82.71 23.77C82.3167 23.5433 82.0033 23.2267 81.77 22.82C81.5433 22.4067 81.43 21.9367 81.43 21.41C81.43 20.8567 81.55 20.3767 81.79 19.97C82.0367 19.5633 82.3567 19.2567 82.75 19.05C83.1433 18.8367 83.5667 18.73 84.02 18.73C84.4 18.73 84.7467 18.7967 85.06 18.93C85.3733 19.0567 85.62 19.2367 85.8 19.47C85.9867 19.7033 86.08 19.9667 86.08 20.26C86.08 20.48 86.0233 20.65 85.91 20.77C85.7967 20.8833 85.6467 20.94 85.46 20.94C85.28 20.94 85.13 20.88 85.01 20.76C84.89 20.64 84.83 20.49 84.83 20.31C84.93 20.2433 85 20.17 85.04 20.09C85.08 20.01 85.1 19.91 85.1 19.79C85.1 19.5433 85 19.3433 84.8 19.19C84.6067 19.03 84.3467 18.95 84.02 18.95C83.54 18.95 83.17 19.1233 82.91 19.47C82.6567 19.81 82.53 20.29 82.53 20.91V21.91C82.53 22.5033 82.6533 22.98 82.9 23.34C83.1533 23.7 83.5267 23.88 84.02 23.88C84.4733 23.88 84.8667 23.7533 85.2 23.5C85.54 23.24 85.75 22.9 85.83 22.48H86.06C85.9667 22.9733 85.7333 23.3667 85.36 23.66C84.9933 23.9533 84.5467 24.1 84.02 24.1ZM89.4888 24.1C89.0088 24.1 88.5721 23.99 88.1788 23.77C87.7854 23.5433 87.4721 23.2267 87.2388 22.82C87.0121 22.4067 86.8988 21.9367 86.8988 21.41C86.8988 20.8833 87.0121 20.4167 87.2388 20.01C87.4721 19.6033 87.7854 19.29 88.1788 19.07C88.5721 18.8433 89.0088 18.73 89.4888 18.73C89.9688 18.73 90.4054 18.8433 90.7988 19.07C91.1921 19.29 91.5021 19.6033 91.7288 20.01C91.9621 20.4167 92.0788 20.8833 92.0788 21.41C92.0788 21.9367 91.9621 22.4067 91.7288 22.82C91.5021 23.2267 91.1921 23.5433 90.7988 23.77C90.4054 23.99 89.9688 24.1 89.4888 24.1ZM89.4888 23.88C89.9821 23.88 90.3521 23.7 90.5988 23.34C90.8521 22.98 90.9788 22.5033 90.9788 21.91V20.91C90.9788 20.3167 90.8521 19.8433 90.5988 19.49C90.3521 19.13 89.9821 18.95 89.4888 18.95C88.9954 18.95 88.6221 19.13 88.3688 19.49C88.1221 19.8433 87.9988 20.3167 87.9988 20.91V21.91C87.9988 22.5033 88.1221 22.98 88.3688 23.34C88.6221 23.7 88.9954 23.88 89.4888 23.88ZM92.7739 24V23.8L93.4739 23.7V19.12L92.7739 19.02V18.82H97.1439L97.2939 20.72H97.0139L96.1339 19.07H94.4739V23.7L95.3739 23.8V24H92.7739ZM97.7008 24.1C97.4674 24.1 97.2841 24.0433 97.1508 23.93C97.0174 23.8167 96.9508 23.65 96.9508 23.43C96.9508 23.2433 97.0074 23.0967 97.1208 22.99C97.2341 22.8833 97.3708 22.83 97.5308 22.83C97.6374 22.83 97.7274 22.8533 97.8008 22.9C97.8741 22.94 97.9274 22.9833 97.9608 23.03C98.0008 23.0767 98.0241 23.1067 98.0308 23.12C97.9441 23.2 97.9008 23.2867 97.9008 23.38C97.9008 23.4867 97.9674 23.54 98.1008 23.54C98.5541 23.54 98.8308 22.5733 98.9308 20.64L98.9908 19.45L98.0808 19.02V18.82H102.571V19.02L101.871 19.12V23.69L102.591 23.79V24H100.251V23.79L100.871 23.69V19.07H99.2508L99.1708 20.65C99.1308 21.4567 99.0541 22.11 98.9408 22.61C98.8341 23.11 98.6808 23.4833 98.4808 23.73C98.2808 23.9767 98.0208 24.1 97.7008 24.1ZM104.785 24.1C104.359 24.1 104.009 23.99 103.735 23.77C103.462 23.5433 103.325 23.21 103.325 22.77C103.325 22.1433 103.589 21.7 104.115 21.44C104.642 21.1733 105.252 21.04 105.945 21.04H106.615V20.27C106.615 19.9233 106.575 19.6567 106.495 19.47C106.422 19.2767 106.305 19.1433 106.145 19.07C105.985 18.99 105.769 18.95 105.495 18.95C105.182 18.95 104.949 19.0133 104.795 19.14C104.642 19.26 104.565 19.4233 104.565 19.63C104.565 19.8233 104.659 19.95 104.845 20.01C104.845 20.1767 104.782 20.3233 104.655 20.45C104.529 20.5767 104.379 20.64 104.205 20.64C104.019 20.64 103.869 20.59 103.755 20.49C103.642 20.3833 103.585 20.2233 103.585 20.01C103.585 19.6233 103.779 19.3133 104.165 19.08C104.552 18.8467 105.035 18.73 105.615 18.73C106.949 18.73 107.615 19.31 107.615 20.47V23.33C107.615 23.4767 107.645 23.59 107.705 23.67C107.772 23.7433 107.865 23.78 107.985 23.78C108.099 23.78 108.189 23.7433 108.255 23.67C108.322 23.59 108.355 23.4833 108.355 23.35H108.565C108.565 23.5833 108.489 23.7667 108.335 23.9C108.189 24.0333 107.982 24.1 107.715 24.1C107.409 24.1 107.149 24.0133 106.935 23.84C106.729 23.66 106.622 23.3833 106.615 23.01C106.455 23.35 106.209 23.6167 105.875 23.81C105.549 24.0033 105.185 24.1 104.785 24.1ZM105.335 23.66C105.515 23.66 105.699 23.6067 105.885 23.5C106.079 23.3933 106.242 23.24 106.375 23.04C106.509 22.8333 106.589 22.5867 106.615 22.3V21.26H105.945C105.399 21.26 104.989 21.3833 104.715 21.63C104.449 21.87 104.315 22.21 104.315 22.65C104.315 23.0167 104.402 23.2767 104.575 23.43C104.749 23.5833 105.002 23.66 105.335 23.66ZM111.559 24.1C111.079 24.1 110.642 23.99 110.249 23.77C109.856 23.5433 109.542 23.2267 109.309 22.82C109.082 22.4067 108.969 21.9367 108.969 21.41C108.969 20.8567 109.089 20.3767 109.329 19.97C109.576 19.5633 109.896 19.2567 110.289 19.05C110.682 18.8367 111.106 18.73 111.559 18.73C111.939 18.73 112.286 18.7967 112.599 18.93C112.912 19.0567 113.159 19.2367 113.339 19.47C113.526 19.7033 113.619 19.9667 113.619 20.26C113.619 20.48 113.562 20.65 113.449 20.77C113.336 20.8833 113.186 20.94 112.999 20.94C112.819 20.94 112.669 20.88 112.549 20.76C112.429 20.64 112.369 20.49 112.369 20.31C112.469 20.2433 112.539 20.17 112.579 20.09C112.619 20.01 112.639 19.91 112.639 19.79C112.639 19.5433 112.539 19.3433 112.339 19.19C112.146 19.03 111.886 18.95 111.559 18.95C111.079 18.95 110.709 19.1233 110.449 19.47C110.196 19.81 110.069 20.29 110.069 20.91V21.91C110.069 22.5033 110.192 22.98 110.439 23.34C110.692 23.7 111.066 23.88 111.559 23.88C112.012 23.88 112.406 23.7533 112.739 23.5C113.079 23.24 113.289 22.9 113.369 22.48H113.599C113.506 22.9733 113.272 23.3667 112.899 23.66C112.532 23.9533 112.086 24.1 111.559 24.1ZM114.278 24V23.8L114.978 23.7V19.12L114.278 19.02V18.82H116.578V19.02L115.978 19.12V23.01L118.508 19.32V19.12L117.908 19.02V18.82H120.208V19.02L119.508 19.12V23.7L120.208 23.8V24H117.908V23.8L118.508 23.7V19.74L115.978 23.44V23.7L116.578 23.8V24H114.278ZM121.342 24.1C121.176 24.1 121.006 24.0633 120.832 23.99C120.659 23.91 120.509 23.7967 120.382 23.65L120.532 23.5C120.652 23.62 120.769 23.68 120.882 23.68C120.982 23.68 121.056 23.6433 121.102 23.57C121.156 23.4967 121.206 23.35 121.252 23.13L121.362 22.55C121.422 22.2233 121.532 21.98 121.692 21.82C121.852 21.66 122.112 21.5533 122.472 21.5V21.45C122.119 21.39 121.829 21.26 121.602 21.06C121.382 20.86 121.272 20.5667 121.272 20.18C121.272 19.7333 121.422 19.3967 121.722 19.17C122.022 18.9367 122.509 18.82 123.182 18.82H126.042V19.03L125.322 19.13V23.69L126.042 23.8V24H123.602V23.8L124.322 23.69V21.62H123.402C123.116 21.62 122.892 21.6833 122.732 21.81C122.579 21.9367 122.479 22.1467 122.432 22.44L122.282 23.29C122.229 23.5833 122.132 23.7933 121.992 23.92C121.852 24.04 121.636 24.1 121.342 24.1ZM124.322 21.37V19.07H123.482C123.096 19.07 122.809 19.1567 122.622 19.33C122.442 19.5033 122.352 19.78 122.352 20.16V20.29C122.352 20.6633 122.446 20.9367 122.632 21.11C122.819 21.2833 123.076 21.37 123.402 21.37H124.322ZM130.625 24.1C130.198 24.1 129.848 23.99 129.575 23.77C129.302 23.5433 129.165 23.21 129.165 22.77C129.165 22.1433 129.428 21.7 129.955 21.44C130.482 21.1733 131.092 21.04 131.785 21.04H132.455V20.27C132.455 19.9233 132.415 19.6567 132.335 19.47C132.262 19.2767 132.145 19.1433 131.985 19.07C131.825 18.99 131.608 18.95 131.335 18.95C131.022 18.95 130.788 19.0133 130.635 19.14C130.482 19.26 130.405 19.4233 130.405 19.63C130.405 19.8233 130.498 19.95 130.685 20.01C130.685 20.1767 130.622 20.3233 130.495 20.45C130.368 20.5767 130.218 20.64 130.045 20.64C129.858 20.64 129.708 20.59 129.595 20.49C129.482 20.3833 129.425 20.2233 129.425 20.01C129.425 19.6233 129.618 19.3133 130.005 19.08C130.392 18.8467 130.875 18.73 131.455 18.73C132.788 18.73 133.455 19.31 133.455 20.47V23.33C133.455 23.4767 133.485 23.59 133.545 23.67C133.612 23.7433 133.705 23.78 133.825 23.78C133.938 23.78 134.028 23.7433 134.095 23.67C134.162 23.59 134.195 23.4833 134.195 23.35H134.405C134.405 23.5833 134.328 23.7667 134.175 23.9C134.028 24.0333 133.822 24.1 133.555 24.1C133.248 24.1 132.988 24.0133 132.775 23.84C132.568 23.66 132.462 23.3833 132.455 23.01C132.295 23.35 132.048 23.6167 131.715 23.81C131.388 24.0033 131.025 24.1 130.625 24.1ZM131.175 23.66C131.355 23.66 131.538 23.6067 131.725 23.5C131.918 23.3933 132.082 23.24 132.215 23.04C132.348 22.8333 132.428 22.5867 132.455 22.3V21.26H131.785C131.238 21.26 130.828 21.3833 130.555 21.63C130.288 21.87 130.155 22.21 130.155 22.65C130.155 23.0167 130.242 23.2767 130.415 23.43C130.588 23.5833 130.842 23.66 131.175 23.66ZM134.649 23.8L135.349 23.7V19.12L134.649 19.02V18.82H137.389C138.076 18.82 138.566 18.9167 138.859 19.11C139.152 19.2967 139.299 19.6033 139.299 20.03C139.299 20.65 138.906 21.0467 138.119 21.22V21.25C139.132 21.39 139.639 21.84 139.639 22.6C139.639 23.0667 139.469 23.4167 139.129 23.65C138.789 23.8833 138.316 24 137.709 24H134.649V23.8ZM137.149 21.16C137.496 21.16 137.759 21.07 137.939 20.89C138.126 20.71 138.219 20.44 138.219 20.08V20.04C138.219 19.7133 138.126 19.47 137.939 19.31C137.752 19.15 137.469 19.07 137.089 19.07H136.349V21.16H137.149ZM137.409 23.75C137.776 23.75 138.059 23.6533 138.259 23.46C138.459 23.2667 138.559 22.9833 138.559 22.61V22.54C138.559 22.16 138.459 21.8767 138.259 21.69C138.066 21.4967 137.782 21.4 137.409 21.4H136.349V23.75H137.409ZM141.434 24V23.8L142.234 23.7V19.07H141.374L140.504 20.72H140.224L140.374 18.82H145.094L145.244 20.72H144.964L144.084 19.07H143.234V23.7L144.034 23.8V24H141.434ZM148.473 24.1C147.993 24.1 147.556 23.99 147.163 23.77C146.77 23.5433 146.456 23.2267 146.223 22.82C145.996 22.4067 145.883 21.9367 145.883 21.41C145.883 20.8833 145.996 20.4167 146.223 20.01C146.456 19.6033 146.77 19.29 147.163 19.07C147.556 18.8433 147.993 18.73 148.473 18.73C148.953 18.73 149.39 18.8433 149.783 19.07C150.176 19.29 150.486 19.6033 150.713 20.01C150.946 20.4167 151.063 20.8833 151.063 21.41C151.063 21.9367 150.946 22.4067 150.713 22.82C150.486 23.2267 150.176 23.5433 149.783 23.77C149.39 23.99 148.953 24.1 148.473 24.1ZM148.473 23.88C148.966 23.88 149.336 23.7 149.583 23.34C149.836 22.98 149.963 22.5033 149.963 21.91V20.91C149.963 20.3167 149.836 19.8433 149.583 19.49C149.336 19.13 148.966 18.95 148.473 18.95C147.98 18.95 147.606 19.13 147.353 19.49C147.106 19.8433 146.983 20.3167 146.983 20.91V21.91C146.983 22.5033 147.106 22.98 147.353 23.34C147.606 23.7 147.98 23.88 148.473 23.88ZM151.698 26.63L152.398 26.53V19.13L151.698 19.03V18.83H153.398V19.88C153.565 19.52 153.788 19.24 154.068 19.04C154.355 18.8333 154.695 18.73 155.088 18.73C155.562 18.73 155.978 18.8433 156.338 19.07C156.698 19.29 156.978 19.6033 157.178 20.01C157.378 20.41 157.478 20.88 157.478 21.42C157.478 21.96 157.378 22.4333 157.178 22.84C156.978 23.24 156.698 23.55 156.338 23.77C155.978 23.99 155.562 24.1 155.088 24.1C154.695 24.1 154.355 24 154.068 23.8C153.788 23.5933 153.565 23.3133 153.398 22.96V26.53L154.338 26.63V26.83H151.698V26.63ZM154.988 23.85C155.915 23.85 156.378 23.2067 156.378 21.92V20.92C156.378 19.6267 155.915 18.98 154.988 18.98C154.695 18.98 154.428 19.0667 154.188 19.24C153.948 19.4067 153.758 19.6333 153.618 19.92C153.478 20.2067 153.405 20.5167 153.398 20.85V21.92C153.398 22.26 153.465 22.58 153.598 22.88C153.738 23.1733 153.928 23.41 154.168 23.59C154.415 23.7633 154.688 23.85 154.988 23.85ZM159.824 24.1C159.398 24.1 159.048 23.99 158.774 23.77C158.501 23.5433 158.364 23.21 158.364 22.77C158.364 22.1433 158.628 21.7 159.154 21.44C159.681 21.1733 160.291 21.04 160.984 21.04H161.654V20.27C161.654 19.9233 161.614 19.6567 161.534 19.47C161.461 19.2767 161.344 19.1433 161.184 19.07C161.024 18.99 160.808 18.95 160.534 18.95C160.221 18.95 159.988 19.0133 159.834 19.14C159.681 19.26 159.604 19.4233 159.604 19.63C159.604 19.8233 159.698 19.95 159.884 20.01C159.884 20.1767 159.821 20.3233 159.694 20.45C159.568 20.5767 159.418 20.64 159.244 20.64C159.058 20.64 158.908 20.59 158.794 20.49C158.681 20.3833 158.624 20.2233 158.624 20.01C158.624 19.6233 158.818 19.3133 159.204 19.08C159.591 18.8467 160.074 18.73 160.654 18.73C161.988 18.73 162.654 19.31 162.654 20.47V23.33C162.654 23.4767 162.684 23.59 162.744 23.67C162.811 23.7433 162.904 23.78 163.024 23.78C163.138 23.78 163.228 23.7433 163.294 23.67C163.361 23.59 163.394 23.4833 163.394 23.35H163.604C163.604 23.5833 163.528 23.7667 163.374 23.9C163.228 24.0333 163.021 24.1 162.754 24.1C162.448 24.1 162.188 24.0133 161.974 23.84C161.768 23.66 161.661 23.3833 161.654 23.01C161.494 23.35 161.248 23.6167 160.914 23.81C160.588 24.0033 160.224 24.1 159.824 24.1ZM160.374 23.66C160.554 23.66 160.738 23.6067 160.924 23.5C161.118 23.3933 161.281 23.24 161.414 23.04C161.548 22.8333 161.628 22.5867 161.654 22.3V21.26H160.984C160.438 21.26 160.028 21.3833 159.754 21.63C159.488 21.87 159.354 22.21 159.354 22.65C159.354 23.0167 159.441 23.2767 159.614 23.43C159.788 23.5833 160.041 23.66 160.374 23.66ZM168.461 24.1C167.721 24.1 167.181 23.9967 166.841 23.79C166.507 23.5767 166.341 23.31 166.341 22.99C166.341 22.79 166.397 22.63 166.511 22.51C166.631 22.3833 166.787 22.32 166.981 22.32C167.107 22.32 167.221 22.3533 167.321 22.42C167.421 22.4867 167.491 22.58 167.531 22.7C167.417 22.8333 167.361 22.9733 167.361 23.12C167.361 23.3467 167.461 23.5367 167.661 23.69C167.867 23.8367 168.134 23.91 168.461 23.91C168.861 23.91 169.181 23.8067 169.421 23.6C169.667 23.3867 169.791 23.0767 169.791 22.67V22.54C169.791 22.1733 169.654 21.8933 169.381 21.7C169.114 21.5 168.781 21.4 168.381 21.4H167.821V21.16H168.381C168.761 21.16 169.051 21.07 169.251 20.89C169.451 20.7033 169.551 20.4333 169.551 20.08V20.04C169.551 19.2933 169.197 18.92 168.491 18.92C168.111 18.92 167.761 19.0133 167.441 19.2L166.841 20.63H166.631L166.741 18.73L167.341 19.02C167.714 18.8267 168.104 18.73 168.511 18.73C169.257 18.73 169.797 18.84 170.131 19.06C170.464 19.2733 170.631 19.5967 170.631 20.03C170.631 20.3433 170.514 20.6033 170.281 20.81C170.054 21.0167 169.711 21.1567 169.251 21.23V21.24C169.791 21.2933 170.194 21.4367 170.461 21.67C170.734 21.9033 170.871 22.2133 170.871 22.6C170.871 23.0733 170.671 23.4433 170.271 23.71C169.871 23.97 169.267 24.1 168.461 24.1ZM173.213 24.1C172.786 24.1 172.436 23.99 172.163 23.77C171.89 23.5433 171.753 23.21 171.753 22.77C171.753 22.1433 172.016 21.7 172.543 21.44C173.07 21.1733 173.68 21.04 174.373 21.04H175.043V20.27C175.043 19.9233 175.003 19.6567 174.923 19.47C174.85 19.2767 174.733 19.1433 174.573 19.07C174.413 18.99 174.196 18.95 173.923 18.95C173.61 18.95 173.376 19.0133 173.223 19.14C173.07 19.26 172.993 19.4233 172.993 19.63C172.993 19.8233 173.086 19.95 173.273 20.01C173.273 20.1767 173.21 20.3233 173.083 20.45C172.956 20.5767 172.806 20.64 172.633 20.64C172.446 20.64 172.296 20.59 172.183 20.49C172.07 20.3833 172.013 20.2233 172.013 20.01C172.013 19.6233 172.206 19.3133 172.593 19.08C172.98 18.8467 173.463 18.73 174.043 18.73C175.376 18.73 176.043 19.31 176.043 20.47V23.33C176.043 23.4767 176.073 23.59 176.133 23.67C176.2 23.7433 176.293 23.78 176.413 23.78C176.526 23.78 176.616 23.7433 176.683 23.67C176.75 23.59 176.783 23.4833 176.783 23.35H176.993C176.993 23.5833 176.916 23.7667 176.763 23.9C176.616 24.0333 176.41 24.1 176.143 24.1C175.836 24.1 175.576 24.0133 175.363 23.84C175.156 23.66 175.05 23.3833 175.043 23.01C174.883 23.35 174.636 23.6167 174.303 23.81C173.976 24.0033 173.613 24.1 173.213 24.1ZM173.763 23.66C173.943 23.66 174.126 23.6067 174.313 23.5C174.506 23.3933 174.67 23.24 174.803 23.04C174.936 22.8333 175.016 22.5867 175.043 22.3V21.26H174.373C173.826 21.26 173.416 21.3833 173.143 21.63C172.876 21.87 172.743 22.21 172.743 22.65C172.743 23.0167 172.83 23.2767 173.003 23.43C173.176 23.5833 173.43 23.66 173.763 23.66ZM177.237 24V23.8L177.937 23.7V19.12L177.237 19.02V18.82H183.037V19.02L182.337 19.12V23.7L183.037 23.8V24H180.737V23.8L181.337 23.7V19.07H178.937V23.7L179.537 23.8V24H177.237ZM183.515 26.63L184.215 26.53V19.13L183.515 19.03V18.83H185.215V19.88C185.381 19.52 185.605 19.24 185.885 19.04C186.171 18.8333 186.511 18.73 186.905 18.73C187.378 18.73 187.795 18.8433 188.155 19.07C188.515 19.29 188.795 19.6033 188.995 20.01C189.195 20.41 189.295 20.88 189.295 21.42C189.295 21.96 189.195 22.4333 188.995 22.84C188.795 23.24 188.515 23.55 188.155 23.77C187.795 23.99 187.378 24.1 186.905 24.1C186.511 24.1 186.171 24 185.885 23.8C185.605 23.5933 185.381 23.3133 185.215 22.96V26.53L186.155 26.63V26.83H183.515V26.63ZM186.805 23.85C187.731 23.85 188.195 23.2067 188.195 21.92V20.92C188.195 19.6267 187.731 18.98 186.805 18.98C186.511 18.98 186.245 19.0667 186.005 19.24C185.765 19.4067 185.575 19.6333 185.435 19.92C185.295 20.2067 185.221 20.5167 185.215 20.85V21.92C185.215 22.26 185.281 22.58 185.415 22.88C185.555 23.1733 185.745 23.41 185.985 23.59C186.231 23.7633 186.505 23.85 186.805 23.85ZM192.791 24.1C192.297 24.1 191.851 23.99 191.451 23.77C191.051 23.5433 190.734 23.2267 190.501 22.82C190.267 22.4133 190.151 21.9433 190.151 21.41C190.151 20.8767 190.264 20.41 190.491 20.01C190.724 19.6033 191.034 19.29 191.421 19.07C191.814 18.8433 192.251 18.73 192.731 18.73C193.151 18.73 193.527 18.8233 193.861 19.01C194.194 19.1967 194.454 19.4567 194.641 19.79C194.827 20.1167 194.924 20.4933 194.931 20.92H191.251V21.91C191.251 22.4967 191.381 22.9733 191.641 23.34C191.907 23.7 192.291 23.88 192.791 23.88C193.251 23.88 193.657 23.75 194.011 23.49C194.364 23.23 194.581 22.8933 194.661 22.48H194.891C194.797 22.9733 194.561 23.3667 194.181 23.66C193.801 23.9533 193.337 24.1 192.791 24.1ZM193.831 20.67C193.831 20.09 193.741 19.66 193.561 19.38C193.381 19.0933 193.101 18.95 192.721 18.95C192.274 18.95 191.927 19.1067 191.681 19.42C191.434 19.7333 191.294 20.15 191.261 20.67H193.831ZM203.776 25.65L202.896 24H195.596V23.8L196.296 23.7V19.12L195.596 19.02V18.82H197.996V19.02L197.296 19.12V23.75H199.246V19.12L198.546 19.02V18.82H200.946V19.02L200.246 19.12V23.75H202.196V19.12L201.496 19.02V18.82H203.896V19.02L203.196 19.12V23.75H203.906L204.056 25.65H203.776ZM207.195 24.1C206.702 24.1 206.255 23.99 205.855 23.77C205.455 23.5433 205.138 23.2267 204.905 22.82C204.672 22.4133 204.555 21.9433 204.555 21.41C204.555 20.8767 204.668 20.41 204.895 20.01C205.128 19.6033 205.438 19.29 205.825 19.07C206.218 18.8433 206.655 18.73 207.135 18.73C207.555 18.73 207.932 18.8233 208.265 19.01C208.598 19.1967 208.858 19.4567 209.045 19.79C209.232 20.1167 209.328 20.4933 209.335 20.92H205.655V21.91C205.655 22.4967 205.785 22.9733 206.045 23.34C206.312 23.7 206.695 23.88 207.195 23.88C207.655 23.88 208.062 23.75 208.415 23.49C208.768 23.23 208.985 22.8933 209.065 22.48H209.295C209.202 22.9733 208.965 23.3667 208.585 23.66C208.205 23.9533 207.742 24.1 207.195 24.1ZM208.235 20.67C208.235 20.09 208.145 19.66 207.965 19.38C207.785 19.0933 207.505 18.95 207.125 18.95C206.678 18.95 206.332 19.1067 206.085 19.42C205.838 19.7333 205.698 20.15 205.665 20.67H208.235ZM210 24V23.8L210.7 23.7V19.12L210 19.02V18.82H212.3V19.02L211.7 19.12V21.25H214.17V19.12L213.57 19.02V18.82H215.87V19.02L215.17 19.12V23.7L215.87 23.8V24H213.57V23.8L214.17 23.7V21.5H211.7V23.7L212.3 23.8V24H210ZM219.157 24.1C218.677 24.1 218.24 23.99 217.847 23.77C217.453 23.5433 217.14 23.2267 216.907 22.82C216.68 22.4067 216.567 21.9367 216.567 21.41C216.567 20.8833 216.68 20.4167 216.907 20.01C217.14 19.6033 217.453 19.29 217.847 19.07C218.24 18.8433 218.677 18.73 219.157 18.73C219.637 18.73 220.073 18.8433 220.467 19.07C220.86 19.29 221.17 19.6033 221.397 20.01C221.63 20.4167 221.747 20.8833 221.747 21.41C221.747 21.9367 221.63 22.4067 221.397 22.82C221.17 23.2267 220.86 23.5433 220.467 23.77C220.073 23.99 219.637 24.1 219.157 24.1ZM219.157 23.88C219.65 23.88 220.02 23.7 220.267 23.34C220.52 22.98 220.647 22.5033 220.647 21.91V20.91C220.647 20.3167 220.52 19.8433 220.267 19.49C220.02 19.13 219.65 18.95 219.157 18.95C218.663 18.95 218.29 19.13 218.037 19.49C217.79 19.8433 217.667 20.3167 217.667 20.91V21.91C217.667 22.5033 217.79 22.98 218.037 23.34C218.29 23.7 218.663 23.88 219.157 23.88Z" fill="#A1B190"/>
</svg>
